<?xml version="1.0" standalone="no"?>
 <!DOCTYPE svg PUBLIC "-//W3C//DTD SVG 1.1//EN" 
 "http://www.w3.org/Graphics/SVG/1.1/DTD/svg11.dtd"> 
<svg
  xmlns:svg="http://www.w3.org/2000/svg"
  xmlns="http://www.w3.org/2000/svg"
  xmlns:xlink="http://www.w3.org/1999/xlink"
  version="1.1"
  width="23.677880cm" height="8.437880cm" viewBox="0 0 93220 33220">
<title>SVG Picture created as cerkit48-B_SilkS.svg date 2020/05/26 21:41:05 </title>
  <desc>Picture generated by PCBNEW </desc>
<g style="fill:#000000; fill-opacity:1;stroke:#000000; stroke-opacity:1;
stroke-linecap:round; stroke-linejoin:round;"
 transform="translate(0 0) scale(1 1)">
</g>
<g style="fill:#000000; fill-opacity:0.0; 
stroke:#000000; stroke-width:-0.000393701; stroke-opacity:1; 
stroke-linecap:round; stroke-linejoin:round;">
</g>
<g style="fill:#840084; fill-opacity:0.0; 
stroke:#840084; stroke-width:-0.000393701; stroke-opacity:1; 
stroke-linecap:round; stroke-linejoin:round;">
</g>
<g style="fill:#840084; fill-opacity:0.0; 
stroke:#840084; stroke-width:59.0551; stroke-opacity:1; 
stroke-linecap:round; stroke-linejoin:round;">
<path d="M86661 22255
L82133 22255
" />
<path d="M82133 18563
L82133 22255
" />
<path d="M86661 18563
L86661 22255
" />
<path d="M87661 23413
L87661 17413
" />
<path d="M82161 16913
L87161 16913
" />
<path d="M82161 23913
L87161 23913
" />
<path d="M81661 23313
L81661 23413
" />
<path d="M81061 23213
L81561 23213
" />
<path d="M80661 23213
L80661 23413
" />
<circle cx="75151.6" cy="20405.4" r="295.276" /> 
<path d="M67372 17413
L67372 23413
" />
<path d="M67872 16913
L80161 16913
" />
<path d="M80161 23913
L67872 23913
" />
<path d="M80661 17413
L80661 17614
" />
<path d="M81661 17413
L81661 17513
" />
<path d="M81061 17613
L81561 17613
" />
<path d="M82133 18563
L86661 18563
" />
<path d="M81561.4 17613.2 A100 100 0.0 0 0 81661.4 17513.2" />
<path d="M81661.4 23313.2 A100 100 0.0 0 0 81561.4 23213.2" />
<path d="M82161.4 16913.2 A500 500 0.0 0 0 81661.4 17413.2" />
<path d="M81661.4 23413.2 A500 500 0.0 0 0 82161.4 23913.2" />
<path d="M87661.4 17413.2 A500 500 0.0 0 0 87161.4 16913.2" />
<path d="M87161.4 23913.2 A500 500 0.0 0 0 87661.4 23413.2" />
<path d="M80661.4 17613.2 A200 200 0.0 0 0 81061.4 17613.2" />
<path d="M80661.4 17413.2 A500 500 0.0 0 0 80161.4 16913.2" />
<path d="M80161.4 23913.2 A500 500 0.0 0 0 80661.4 23413.2" />
<path d="M81061.4 23213.2 A200 200 0.0 0 0 80661.4 23213.2" />
<path d="M67872.4 16913.2 A500 500 0.0 0 0 67372.4 17413.2" />
<path d="M67372.4 23413.2 A500 500 0.0 0 0 67872.4 23913.2" />
<g transform="rotate(-90 76500 20409.3)">
<text x="76500" y="20606.1"
textLength="710.63" font-size="524.934" lengthAdjust="spacingAndGlyphs"
text-anchor="middle" opacity="0">U1</text>
</g>
<path d="M76284 20109
L76603 20109
L76640 20128
L76659 20146
L76678 20184
L76678 20259
L76659 20296
L76640 20315
L76603 20334
L76284 20334
" />
<path d="M76678 20728
L76678 20503
" />
<path d="M76678 20615
L76284 20615
L76340 20578
L76378 20540
L76396 20503
" />
<g transform="rotate(-90 68677.2 20385.7)">
<text x="68677.2" y="20582.5"
textLength="2997.84" font-size="524.934" lengthAdjust="spacingAndGlyphs"
text-anchor="middle" opacity="0">away from</text>
</g>
<path d="M68855 19110
L68649 19110
L68611 19092
L68592 19054
L68592 18979
L68611 18942
" />
<path d="M68836 19110
L68855 19073
L68855 18979
L68836 18942
L68799 18923
L68761 18923
L68724 18942
L68705 18979
L68705 19073
L68686 19110
" />
<path d="M68592 19260
L68855 19335
L68667 19410
L68855 19485
L68592 19560
" />
<path d="M68855 19879
L68649 19879
L68611 19860
L68592 19823
L68592 19748
L68611 19710
" />
<path d="M68836 19879
L68855 19841
L68855 19748
L68836 19710
L68799 19692
L68761 19692
L68724 19710
L68705 19748
L68705 19841
L68686 19879
" />
<path d="M68592 20029
L68855 20123
" />
<path d="M68592 20216
L68855 20123
L68948 20085
L68967 20066
L68986 20029
" />
<path d="M68592 20610
L68592 20760
" />
<path d="M68855 20666
L68517 20666
L68480 20685
L68461 20723
L68461 20760
" />
<path d="M68855 20891
L68592 20891
" />
<path d="M68667 20891
L68630 20910
L68611 20929
L68592 20966
L68592 21004
" />
<path d="M68855 21191
L68836 21154
L68817 21135
L68780 21116
L68667 21116
L68630 21135
L68611 21154
L68592 21191
L68592 21248
L68611 21285
L68630 21304
L68667 21323
L68780 21323
L68817 21304
L68836 21285
L68855 21248
L68855 21191
" />
<path d="M68855 21491
L68592 21491
" />
<path d="M68630 21491
L68611 21510
L68592 21548
L68592 21604
L68611 21641
L68649 21660
L68855 21660
" />
<path d="M68649 21660
L68611 21679
L68592 21716
L68592 21772
L68611 21810
L68649 21829
L68855 21829
" />
<g transform="rotate(-90 69267.7 20385.7)">
<text x="69267.7" y="20582.5"
textLength="2322.93" font-size="524.934" lengthAdjust="spacingAndGlyphs"
text-anchor="middle" opacity="0">the PCB</text>
</g>
<path d="M69183 19223
L69183 19373
" />
<path d="M69052 19279
L69389 19279
L69427 19298
L69445 19335
L69445 19373
" />
<path d="M69445 19504
L69052 19504
" />
<path d="M69445 19673
L69239 19673
L69202 19654
L69183 19617
L69183 19560
L69202 19523
L69220 19504
" />
<path d="M69427 20010
L69445 19973
L69445 19898
L69427 19860
L69389 19841
L69239 19841
L69202 19860
L69183 19898
L69183 19973
L69202 20010
L69239 20029
L69277 20029
L69314 19841
" />
<path d="M69445 20498
L69052 20498
L69052 20648
L69070 20685
L69089 20704
L69127 20723
L69183 20723
L69220 20704
L69239 20685
L69258 20648
L69258 20498
" />
<path d="M69408 21116
L69427 21098
L69445 21041
L69445 21004
L69427 20948
L69389 20910
L69352 20891
L69277 20873
L69220 20873
L69145 20891
L69108 20910
L69070 20948
L69052 21004
L69052 21041
L69070 21098
L69089 21116
" />
<path d="M69239 21416
L69258 21473
L69277 21491
L69314 21510
L69370 21510
L69408 21491
L69427 21473
L69445 21435
L69445 21285
L69052 21285
L69052 21416
L69070 21454
L69089 21473
L69127 21491
L69164 21491
L69202 21473
L69220 21454
L69239 21416
L69239 21285
" />
<g transform="rotate(-90 68086.6 20385.7)">
<text x="68086.6" y="20582.5"
textLength="3222.82" font-size="524.934" lengthAdjust="spacingAndGlyphs"
text-anchor="middle" opacity="0">USB facing</text>
</g>
<path d="M67871 18829
L68189 18829
L68227 18848
L68245 18867
L68264 18904
L68264 18979
L68245 19017
L68227 19035
L68189 19054
L67871 19054
" />
<path d="M68245 19223
L68264 19279
L68264 19373
L68245 19410
L68227 19429
L68189 19448
L68152 19448
L68114 19429
L68095 19410
L68077 19373
L68058 19298
L68039 19260
L68020 19242
L67983 19223
L67945 19223
L67908 19242
L67889 19260
L67871 19298
L67871 19392
L67889 19448
" />
<path d="M68058 19748
L68077 19804
L68095 19823
L68133 19841
L68189 19841
L68227 19823
L68245 19804
L68264 19766
L68264 19617
L67871 19617
L67871 19748
L67889 19785
L67908 19804
L67945 19823
L67983 19823
L68020 19804
L68039 19785
L68058 19748
L68058 19617
" />
<path d="M68002 20254
L68002 20404
" />
<path d="M68264 20310
L67927 20310
L67889 20329
L67871 20366
L67871 20404
" />
<path d="M68264 20704
L68058 20704
L68020 20685
L68002 20648
L68002 20573
L68020 20535
" />
<path d="M68245 20704
L68264 20666
L68264 20573
L68245 20535
L68208 20516
L68170 20516
L68133 20535
L68114 20573
L68114 20666
L68095 20704
" />
<path d="M68245 21060
L68264 21023
L68264 20948
L68245 20910
L68227 20891
L68189 20873
L68077 20873
L68039 20891
L68020 20910
L68002 20948
L68002 21023
L68020 21060
" />
<path d="M68264 21229
L68002 21229
" />
<path d="M67871 21229
L67889 21210
L67908 21229
L67889 21248
L67871 21229
L67908 21229
" />
<path d="M68002 21416
L68264 21416
" />
<path d="M68039 21416
L68020 21435
L68002 21473
L68002 21529
L68020 21566
L68058 21585
L68264 21585
" />
<path d="M68002 21941
L68320 21941
L68358 21922
L68377 21904
L68395 21866
L68395 21810
L68377 21772
" />
<path d="M68245 21941
L68264 21904
L68264 21829
L68245 21791
L68227 21772
L68189 21754
L68077 21754
L68039 21772
L68020 21791
L68002 21829
L68002 21904
L68020 21941
" />
<g >
</g>
</g>
<g style="fill:#000000; fill-opacity:0.0; 
stroke:#000000; stroke-width:59.0551; stroke-opacity:1; 
stroke-linecap:round; stroke-linejoin:round;">
</g>
<g style="fill:#C2C200; fill-opacity:0.0; 
stroke:#C2C200; stroke-width:59.0551; stroke-opacity:1; 
stroke-linecap:round; stroke-linejoin:round;">
</g>
<g style="fill:#C2C200; fill-opacity:0.0; 
stroke:#C2C200; stroke-width:19.685; stroke-opacity:1; 
stroke-linecap:round; stroke-linejoin:round;">
<path d="M915 217
L92477 217
" />
<path d="M290 32405
L290 842
" />
<path d="M92477 33030
L915 33030
" />
<path d="M92477.8 33030.4 A625 625 0.0 0 0 93102.8 32405.4" />
<path d="M93102 842
L93102 32405
" />
<path d="M290.345 32405.4 A625 625 0.0 0 0 915.345 33030.4" />
<path d="M915.345 217.855 A625 625 0.0 0 0 290.345 842.855" />
<path d="M93102.8 842.855 A625 625 0.0 0 0 92477.8 217.855" />
<g >
</g>
<g >
</g>
<g >
</g>
<g >
</g>
<g >
</g>
<g >
</g>
<g >
</g>
<g >
</g>
<g >
</g>
<g >
</g>
<g >
</g>
<g >
</g>
<g >
</g>
<g >
</g>
<g >
</g>
<g >
</g>
<g >
</g>
<g >
</g>
<g >
</g>
<g >
</g>
<g >
</g>
<g >
</g>
<g >
</g>
<g >
</g>
<g >
</g>
<g >
</g>
<g >
</g>
<g >
</g>
<g >
</g>
<g >
</g>
<g >
</g>
<g >
</g>
<g >
</g>
<g >
</g>
<g >
</g>
<g >
</g>
<g >
</g>
<g >
</g>
<g >
</g>
<g >
</g>
<g >
</g>
<g >
</g>
<g >
</g>
<g >
</g>
<g >
</g>
<g >
</g>
<g >
</g>
<g >
</g>
<g >
</g>
<g >
</g>
<g >
</g>
<g >
</g>
<g >
</g>
<g >
</g>
<g >
</g>
<g >
</g>
<g >
</g>
<g >
</g>
<g >
</g>
<g >
</g>
<g >
</g>
<g >
</g>
<g >
</g>
<g >
</g>
<g >
</g>
<g >
</g>
<g >
</g>
<g >
</g>
<g >
</g>
<g >
</g>
<g >
</g>
<g >
</g>
<g >
</g>
<g >
</g>
<g >
</g>
<g >
</g>
<g >
</g>
<g >
</g>
<g >
</g>
<g >
</g>
<g >
</g>
<g >
</g>
<g >
</g>
<g >
</g>
<g >
</g>
<g >
</g>
<g >
</g>
<g >
</g>
<g >
</g>
<g >
</g>
<g >
</g>
<g >
</g>
<g >
</g>
<g >
</g>
<g >
</g>
<g >
</g>
<g >
</g>
<g >
</g>
<g >
</g>
<g >
</g>
<g >
</g>
<g >
</g>
<g >
</g>
<g >
</g>
</g> 
</svg>
