<?xml version="1.0" standalone="no"?>
 <!DOCTYPE svg PUBLIC "-//W3C//DTD SVG 1.1//EN" 
 "http://www.w3.org/Graphics/SVG/1.1/DTD/svg11.dtd"> 
<svg
  xmlns:svg="http://www.w3.org/2000/svg"
  xmlns="http://www.w3.org/2000/svg"
  xmlns:xlink="http://www.w3.org/1999/xlink"
  version="1.1"
  width="23.677880cm" height="8.437880cm" viewBox="0 0 93220 33220">
<title>SVG Picture created as cerkit48-F_SilkS.svg date 2020/05/26 21:41:05 </title>
  <desc>Picture generated by PCBNEW </desc>
<g style="fill:#000000; fill-opacity:1;stroke:#000000; stroke-opacity:1;
stroke-linecap:round; stroke-linejoin:round;"
 transform="translate(0 0) scale(1 1)">
</g>
<g style="fill:#000000; fill-opacity:0.0; 
stroke:#000000; stroke-width:-0.000393701; stroke-opacity:1; 
stroke-linecap:round; stroke-linejoin:round;">
</g>
<g style="fill:#008484; fill-opacity:0.0; 
stroke:#008484; stroke-width:-0.000393701; stroke-opacity:1; 
stroke-linecap:round; stroke-linejoin:round;">
</g>
<g style="fill:#008484; fill-opacity:0.0; 
stroke:#008484; stroke-width:47.2441; stroke-opacity:1; 
stroke-linecap:round; stroke-linejoin:round;">
<path d="M76099 21115
L76981 21115
" />
<path d="M76981 21115
L76981 19445
" />
<path d="M76981 19445
L76099 19445
" />
<path d="M76099 19445
L76099 21115
" />
<path d="M76540 21370
L76540 21115
" />
<path d="M76540 19189
L76540 19445
" />
<path d="M76099 20831
L76981 20831
" />
<path d="M76099 20784
L76981 20784
" />
<path d="M76099 20878
L76981 20878
" />
<path d="M61099 28615
L61981 28615
" />
<path d="M61981 28615
L61981 26945
" />
<path d="M61981 26945
L61099 26945
" />
<path d="M61099 26945
L61099 28615
" />
<path d="M61540 28870
L61540 28615
" />
<path d="M61540 26689
L61540 26945
" />
<path d="M61099 28331
L61981 28331
" />
<path d="M61099 28284
L61981 28284
" />
<path d="M61099 28378
L61981 28378
" />
<path d="M53599 28615
L54481 28615
" />
<path d="M54481 28615
L54481 26945
" />
<path d="M54481 26945
L53599 26945
" />
<path d="M53599 26945
L53599 28615
" />
<path d="M54040 28870
L54040 28615
" />
<path d="M54040 26689
L54040 26945
" />
<path d="M53599 28331
L54481 28331
" />
<path d="M53599 28284
L54481 28284
" />
<path d="M53599 28378
L54481 28378
" />
<path d="M91099 28615
L91981 28615
" />
<path d="M91981 28615
L91981 26945
" />
<path d="M91981 26945
L91099 26945
" />
<path d="M91099 26945
L91099 28615
" />
<path d="M91540 28870
L91540 28615
" />
<path d="M91540 26689
L91540 26945
" />
<path d="M91099 28331
L91981 28331
" />
<path d="M91099 28284
L91981 28284
" />
<path d="M91099 28378
L91981 28378
" />
<path d="M83599 28615
L84481 28615
" />
<path d="M84481 28615
L84481 26945
" />
<path d="M84481 26945
L83599 26945
" />
<path d="M83599 26945
L83599 28615
" />
<path d="M84040 28870
L84040 28615
" />
<path d="M84040 26689
L84040 26945
" />
<path d="M83599 28331
L84481 28331
" />
<path d="M83599 28284
L84481 28284
" />
<path d="M83599 28378
L84481 28378
" />
<path d="M46099 28615
L46981 28615
" />
<path d="M46981 28615
L46981 26945
" />
<path d="M46981 26945
L46099 26945
" />
<path d="M46099 26945
L46099 28615
" />
<path d="M46540 28870
L46540 28615
" />
<path d="M46540 26689
L46540 26945
" />
<path d="M46099 28331
L46981 28331
" />
<path d="M46099 28284
L46981 28284
" />
<path d="M46099 28378
L46981 28378
" />
<path d="M76174 28590
L77056 28590
" />
<path d="M77056 28590
L77056 26920
" />
<path d="M77056 26920
L76174 26920
" />
<path d="M76174 26920
L76174 28590
" />
<path d="M76615 28845
L76615 28590
" />
<path d="M76615 26664
L76615 26920
" />
<path d="M76174 28306
L77056 28306
" />
<path d="M76174 28259
L77056 28259
" />
<path d="M76174 28353
L77056 28353
" />
<path d="M38599 28615
L39481 28615
" />
<path d="M39481 28615
L39481 26945
" />
<path d="M39481 26945
L38599 26945
" />
<path d="M38599 26945
L38599 28615
" />
<path d="M39040 28870
L39040 28615
" />
<path d="M39040 26689
L39040 26945
" />
<path d="M38599 28331
L39481 28331
" />
<path d="M38599 28284
L39481 28284
" />
<path d="M38599 28378
L39481 28378
" />
<path d="M68599 28615
L69481 28615
" />
<path d="M69481 28615
L69481 26945
" />
<path d="M69481 26945
L68599 26945
" />
<path d="M68599 26945
L68599 28615
" />
<path d="M69040 28870
L69040 28615
" />
<path d="M69040 26689
L69040 26945
" />
<path d="M68599 28331
L69481 28331
" />
<path d="M68599 28284
L69481 28284
" />
<path d="M68599 28378
L69481 28378
" />
<path d="M8599 28378
L9481 28378
" />
<path d="M8599 28284
L9481 28284
" />
<path d="M8599 28331
L9481 28331
" />
<path d="M9040 26689
L9040 26945
" />
<path d="M9040 28870
L9040 28615
" />
<path d="M8599 26945
L8599 28615
" />
<path d="M9481 26945
L8599 26945
" />
<path d="M9481 28615
L9481 26945
" />
<path d="M8599 28615
L9481 28615
" />
<path d="M91099 21115
L91981 21115
" />
<path d="M91981 21115
L91981 19445
" />
<path d="M91981 19445
L91099 19445
" />
<path d="M91099 19445
L91099 21115
" />
<path d="M91540 21370
L91540 21115
" />
<path d="M91540 19189
L91540 19445
" />
<path d="M91099 20831
L91981 20831
" />
<path d="M91099 20784
L91981 20784
" />
<path d="M91099 20878
L91981 20878
" />
<path d="M83599 21115
L84481 21115
" />
<path d="M84481 21115
L84481 19445
" />
<path d="M84481 19445
L83599 19445
" />
<path d="M83599 19445
L83599 21115
" />
<path d="M84040 21370
L84040 21115
" />
<path d="M84040 19189
L84040 19445
" />
<path d="M83599 20831
L84481 20831
" />
<path d="M83599 20784
L84481 20784
" />
<path d="M83599 20878
L84481 20878
" />
<path d="M68599 21115
L69481 21115
" />
<path d="M69481 21115
L69481 19445
" />
<path d="M69481 19445
L68599 19445
" />
<path d="M68599 19445
L68599 21115
" />
<path d="M69040 21370
L69040 21115
" />
<path d="M69040 19189
L69040 19445
" />
<path d="M68599 20831
L69481 20831
" />
<path d="M68599 20784
L69481 20784
" />
<path d="M68599 20878
L69481 20878
" />
<path d="M23599 28378
L24481 28378
" />
<path d="M23599 28284
L24481 28284
" />
<path d="M23599 28331
L24481 28331
" />
<path d="M24040 26689
L24040 26945
" />
<path d="M24040 28870
L24040 28615
" />
<path d="M23599 26945
L23599 28615
" />
<path d="M24481 26945
L23599 26945
" />
<path d="M24481 28615
L24481 26945
" />
<path d="M23599 28615
L24481 28615
" />
<path d="M16099 28615
L16981 28615
" />
<path d="M16981 28615
L16981 26945
" />
<path d="M16981 26945
L16099 26945
" />
<path d="M16099 26945
L16099 28615
" />
<path d="M16540 28870
L16540 28615
" />
<path d="M16540 26689
L16540 26945
" />
<path d="M16099 28331
L16981 28331
" />
<path d="M16099 28284
L16981 28284
" />
<path d="M16099 28378
L16981 28378
" />
<path d="M31099 28615
L31981 28615
" />
<path d="M31981 28615
L31981 26945
" />
<path d="M31981 26945
L31099 26945
" />
<path d="M31099 26945
L31099 28615
" />
<path d="M31540 28870
L31540 28615
" />
<path d="M31540 26689
L31540 26945
" />
<path d="M31099 28331
L31981 28331
" />
<path d="M31099 28284
L31981 28284
" />
<path d="M31099 28378
L31981 28378
" />
<path d="M61124 6052
L62006 6052
" />
<path d="M62006 6052
L62006 4383
" />
<path d="M62006 4383
L61124 4383
" />
<path d="M61124 4383
L61124 6052
" />
<path d="M61565 6308
L61565 6052
" />
<path d="M61565 4127
L61565 4383
" />
<path d="M61124 5769
L62006 5769
" />
<path d="M61124 5721
L62006 5721
" />
<path d="M61124 5816
L62006 5816
" />
<path d="M53624 6052
L54506 6052
" />
<path d="M54506 6052
L54506 4383
" />
<path d="M54506 4383
L53624 4383
" />
<path d="M53624 4383
L53624 6052
" />
<path d="M54065 6308
L54065 6052
" />
<path d="M54065 4127
L54065 4383
" />
<path d="M53624 5769
L54506 5769
" />
<path d="M53624 5721
L54506 5721
" />
<path d="M53624 5816
L54506 5816
" />
<path d="M38624 13552
L39506 13552
" />
<path d="M39506 13552
L39506 11883
" />
<path d="M39506 11883
L38624 11883
" />
<path d="M38624 11883
L38624 13552
" />
<path d="M39065 13808
L39065 13552
" />
<path d="M39065 11627
L39065 11883
" />
<path d="M38624 13269
L39506 13269
" />
<path d="M38624 13221
L39506 13221
" />
<path d="M38624 13316
L39506 13316
" />
<path d="M46224 13552
L47106 13552
" />
<path d="M47106 13552
L47106 11883
" />
<path d="M47106 11883
L46224 11883
" />
<path d="M46224 11883
L46224 13552
" />
<path d="M46665 13808
L46665 13552
" />
<path d="M46665 11627
L46665 11883
" />
<path d="M46224 13269
L47106 13269
" />
<path d="M46224 13221
L47106 13221
" />
<path d="M46224 13316
L47106 13316
" />
<path d="M53599 21115
L54481 21115
" />
<path d="M54481 21115
L54481 19445
" />
<path d="M54481 19445
L53599 19445
" />
<path d="M53599 19445
L53599 21115
" />
<path d="M54040 21370
L54040 21115
" />
<path d="M54040 19189
L54040 19445
" />
<path d="M53599 20831
L54481 20831
" />
<path d="M53599 20784
L54481 20784
" />
<path d="M53599 20878
L54481 20878
" />
<path d="M38599 21115
L39481 21115
" />
<path d="M39481 21115
L39481 19445
" />
<path d="M39481 19445
L38599 19445
" />
<path d="M38599 19445
L38599 21115
" />
<path d="M39040 21370
L39040 21115
" />
<path d="M39040 19189
L39040 19445
" />
<path d="M38599 20831
L39481 20831
" />
<path d="M38599 20784
L39481 20784
" />
<path d="M38599 20878
L39481 20878
" />
<path d="M8599 20878
L9481 20878
" />
<path d="M8599 20784
L9481 20784
" />
<path d="M8599 20831
L9481 20831
" />
<path d="M9040 19189
L9040 19445
" />
<path d="M9040 21370
L9040 21115
" />
<path d="M8599 19445
L8599 21115
" />
<path d="M9481 19445
L8599 19445
" />
<path d="M9481 21115
L9481 19445
" />
<path d="M8599 21115
L9481 21115
" />
<path d="M76224 13552
L77106 13552
" />
<path d="M77106 13552
L77106 11883
" />
<path d="M77106 11883
L76224 11883
" />
<path d="M76224 11883
L76224 13552
" />
<path d="M76665 13808
L76665 13552
" />
<path d="M76665 11627
L76665 11883
" />
<path d="M76224 13269
L77106 13269
" />
<path d="M76224 13221
L77106 13221
" />
<path d="M76224 13316
L77106 13316
" />
<path d="M31224 13552
L32106 13552
" />
<path d="M32106 13552
L32106 11883
" />
<path d="M32106 11883
L31224 11883
" />
<path d="M31224 11883
L31224 13552
" />
<path d="M31665 13808
L31665 13552
" />
<path d="M31665 11627
L31665 11883
" />
<path d="M31224 13269
L32106 13269
" />
<path d="M31224 13221
L32106 13221
" />
<path d="M31224 13316
L32106 13316
" />
<path d="M31124 6052
L32006 6052
" />
<path d="M32006 6052
L32006 4383
" />
<path d="M32006 4383
L31124 4383
" />
<path d="M31124 4383
L31124 6052
" />
<path d="M31565 6308
L31565 6052
" />
<path d="M31565 4127
L31565 4383
" />
<path d="M31124 5769
L32006 5769
" />
<path d="M31124 5721
L32006 5721
" />
<path d="M31124 5816
L32006 5816
" />
<path d="M61099 21115
L61981 21115
" />
<path d="M61981 21115
L61981 19445
" />
<path d="M61981 19445
L61099 19445
" />
<path d="M61099 19445
L61099 21115
" />
<path d="M61540 21370
L61540 21115
" />
<path d="M61540 19189
L61540 19445
" />
<path d="M61099 20831
L61981 20831
" />
<path d="M61099 20784
L61981 20784
" />
<path d="M61099 20878
L61981 20878
" />
<path d="M16099 21115
L16981 21115
" />
<path d="M16981 21115
L16981 19445
" />
<path d="M16981 19445
L16099 19445
" />
<path d="M16099 19445
L16099 21115
" />
<path d="M16540 21370
L16540 21115
" />
<path d="M16540 19189
L16540 19445
" />
<path d="M16099 20831
L16981 20831
" />
<path d="M16099 20784
L16981 20784
" />
<path d="M16099 20878
L16981 20878
" />
<path d="M53724 13552
L54606 13552
" />
<path d="M54606 13552
L54606 11883
" />
<path d="M54606 11883
L53724 11883
" />
<path d="M53724 11883
L53724 13552
" />
<path d="M54165 13808
L54165 13552
" />
<path d="M54165 11627
L54165 11883
" />
<path d="M53724 13269
L54606 13269
" />
<path d="M53724 13221
L54606 13221
" />
<path d="M53724 13316
L54606 13316
" />
<path d="M91224 13240
L92106 13240
" />
<path d="M92106 13240
L92106 11570
" />
<path d="M92106 11570
L91224 11570
" />
<path d="M91224 11570
L91224 13240
" />
<path d="M91665 13495
L91665 13240
" />
<path d="M91665 11314
L91665 11570
" />
<path d="M91224 12956
L92106 12956
" />
<path d="M91224 12909
L92106 12909
" />
<path d="M91224 13003
L92106 13003
" />
<path d="M83724 6052
L84606 6052
" />
<path d="M84606 6052
L84606 4383
" />
<path d="M84606 4383
L83724 4383
" />
<path d="M83724 4383
L83724 6052
" />
<path d="M84165 6308
L84165 6052
" />
<path d="M84165 4127
L84165 4383
" />
<path d="M83724 5769
L84606 5769
" />
<path d="M83724 5721
L84606 5721
" />
<path d="M83724 5816
L84606 5816
" />
<path d="M16224 13552
L17106 13552
" />
<path d="M17106 13552
L17106 11883
" />
<path d="M17106 11883
L16224 11883
" />
<path d="M16224 11883
L16224 13552
" />
<path d="M16665 13808
L16665 13552
" />
<path d="M16665 11627
L16665 11883
" />
<path d="M16224 13269
L17106 13269
" />
<path d="M16224 13221
L17106 13221
" />
<path d="M16224 13316
L17106 13316
" />
<path d="M76224 6052
L77106 6052
" />
<path d="M77106 6052
L77106 4383
" />
<path d="M77106 4383
L76224 4383
" />
<path d="M76224 4383
L76224 6052
" />
<path d="M76665 6308
L76665 6052
" />
<path d="M76665 4127
L76665 4383
" />
<path d="M76224 5769
L77106 5769
" />
<path d="M76224 5721
L77106 5721
" />
<path d="M76224 5816
L77106 5816
" />
<path d="M46099 21115
L46981 21115
" />
<path d="M46981 21115
L46981 19445
" />
<path d="M46981 19445
L46099 19445
" />
<path d="M46099 19445
L46099 21115
" />
<path d="M46540 21370
L46540 21115
" />
<path d="M46540 19189
L46540 19445
" />
<path d="M46099 20831
L46981 20831
" />
<path d="M46099 20784
L46981 20784
" />
<path d="M46099 20878
L46981 20878
" />
<path d="M68624 6052
L69506 6052
" />
<path d="M69506 6052
L69506 4383
" />
<path d="M69506 4383
L68624 4383
" />
<path d="M68624 4383
L68624 6052
" />
<path d="M69065 6308
L69065 6052
" />
<path d="M69065 4127
L69065 4383
" />
<path d="M68624 5769
L69506 5769
" />
<path d="M68624 5721
L69506 5721
" />
<path d="M68624 5816
L69506 5816
" />
<path d="M61224 13552
L62106 13552
" />
<path d="M62106 13552
L62106 11883
" />
<path d="M62106 11883
L61224 11883
" />
<path d="M61224 11883
L61224 13552
" />
<path d="M61665 13808
L61665 13552
" />
<path d="M61665 11627
L61665 11883
" />
<path d="M61224 13269
L62106 13269
" />
<path d="M61224 13221
L62106 13221
" />
<path d="M61224 13316
L62106 13316
" />
<path d="M91224 5740
L92106 5740
" />
<path d="M92106 5740
L92106 4070
" />
<path d="M92106 4070
L91224 4070
" />
<path d="M91224 4070
L91224 5740
" />
<path d="M91665 5995
L91665 5740
" />
<path d="M91665 3814
L91665 4070
" />
<path d="M91224 5456
L92106 5456
" />
<path d="M91224 5409
L92106 5409
" />
<path d="M91224 5503
L92106 5503
" />
<path d="M83724 13552
L84606 13552
" />
<path d="M84606 13552
L84606 11883
" />
<path d="M84606 11883
L83724 11883
" />
<path d="M83724 11883
L83724 13552
" />
<path d="M84165 13808
L84165 13552
" />
<path d="M84165 11627
L84165 11883
" />
<path d="M83724 13269
L84606 13269
" />
<path d="M83724 13221
L84606 13221
" />
<path d="M83724 13316
L84606 13316
" />
<path d="M23624 5816
L24506 5816
" />
<path d="M23624 5721
L24506 5721
" />
<path d="M23624 5769
L24506 5769
" />
<path d="M24065 4127
L24065 4383
" />
<path d="M24065 6308
L24065 6052
" />
<path d="M23624 4383
L23624 6052
" />
<path d="M24506 4383
L23624 4383
" />
<path d="M24506 6052
L24506 4383
" />
<path d="M23624 6052
L24506 6052
" />
<path d="M16124 6052
L17006 6052
" />
<path d="M17006 6052
L17006 4383
" />
<path d="M17006 4383
L16124 4383
" />
<path d="M16124 4383
L16124 6052
" />
<path d="M16565 6308
L16565 6052
" />
<path d="M16565 4127
L16565 4383
" />
<path d="M16124 5769
L17006 5769
" />
<path d="M16124 5721
L17006 5721
" />
<path d="M16124 5816
L17006 5816
" />
<path d="M8624 5816
L9506 5816
" />
<path d="M8624 5721
L9506 5721
" />
<path d="M8624 5769
L9506 5769
" />
<path d="M9065 4127
L9065 4383
" />
<path d="M9065 6308
L9065 6052
" />
<path d="M8624 4383
L8624 6052
" />
<path d="M9506 4383
L8624 4383
" />
<path d="M9506 6052
L9506 4383
" />
<path d="M8624 6052
L9506 6052
" />
<path d="M68724 13552
L69606 13552
" />
<path d="M69606 13552
L69606 11883
" />
<path d="M69606 11883
L68724 11883
" />
<path d="M68724 11883
L68724 13552
" />
<path d="M69165 13808
L69165 13552
" />
<path d="M69165 11627
L69165 11883
" />
<path d="M68724 13269
L69606 13269
" />
<path d="M68724 13221
L69606 13221
" />
<path d="M68724 13316
L69606 13316
" />
<path d="M31099 21115
L31981 21115
" />
<path d="M31981 21115
L31981 19445
" />
<path d="M31981 19445
L31099 19445
" />
<path d="M31099 19445
L31099 21115
" />
<path d="M31540 21370
L31540 21115
" />
<path d="M31540 19189
L31540 19445
" />
<path d="M31099 20831
L31981 20831
" />
<path d="M31099 20784
L31981 20784
" />
<path d="M31099 20878
L31981 20878
" />
<path d="M23599 20878
L24481 20878
" />
<path d="M23599 20784
L24481 20784
" />
<path d="M23599 20831
L24481 20831
" />
<path d="M24040 19189
L24040 19445
" />
<path d="M24040 21370
L24040 21115
" />
<path d="M23599 19445
L23599 21115
" />
<path d="M24481 19445
L23599 19445
" />
<path d="M24481 21115
L24481 19445
" />
<path d="M23599 21115
L24481 21115
" />
<path d="M8724 13316
L9606 13316
" />
<path d="M8724 13221
L9606 13221
" />
<path d="M8724 13269
L9606 13269
" />
<path d="M9165 11627
L9165 11883
" />
<path d="M9165 13808
L9165 13552
" />
<path d="M8724 11883
L8724 13552
" />
<path d="M9606 11883
L8724 11883
" />
<path d="M9606 13552
L9606 11883
" />
<path d="M8724 13552
L9606 13552
" />
<path d="M23724 13316
L24606 13316
" />
<path d="M23724 13221
L24606 13221
" />
<path d="M23724 13269
L24606 13269
" />
<path d="M24165 11627
L24165 11883
" />
<path d="M24165 13808
L24165 13552
" />
<path d="M23724 11883
L23724 13552
" />
<path d="M24606 11883
L23724 11883
" />
<path d="M24606 13552
L24606 11883
" />
<path d="M23724 13552
L24606 13552
" />
<path d="M46124 6052
L47006 6052
" />
<path d="M47006 6052
L47006 4383
" />
<path d="M47006 4383
L46124 4383
" />
<path d="M46124 4383
L46124 6052
" />
<path d="M46565 6308
L46565 6052
" />
<path d="M46565 4127
L46565 4383
" />
<path d="M46124 5769
L47006 5769
" />
<path d="M46124 5721
L47006 5721
" />
<path d="M46124 5816
L47006 5816
" />
<path d="M38624 6040
L39506 6040
" />
<path d="M39506 6040
L39506 4370
" />
<path d="M39506 4370
L38624 4370
" />
<path d="M38624 4370
L38624 6040
" />
<path d="M39065 6295
L39065 6040
" />
<path d="M39065 4114
L39065 4370
" />
<path d="M38624 5756
L39506 5756
" />
<path d="M38624 5709
L39506 5709
" />
<path d="M38624 5803
L39506 5803
" />
</g>
<g style="fill:#008484; fill-opacity:0.0; 
stroke:#008484; stroke-width:59.0551; stroke-opacity:1; 
stroke-linecap:round; stroke-linejoin:round;">
<text x="91915.3" y="3255.75"
textLength="864.173" font-size="524.934" lengthAdjust="spacingAndGlyphs"
text-anchor="middle" opacity="0">H2</text>
<path d="M91615 3237
L91615 2843
" />
<path d="M91615 3030
L91840 3030
" />
<path d="M91840 3237
L91840 2843
" />
<path d="M92009 2880
L92027 2862
L92065 2843
L92159 2843
L92196 2862
L92215 2880
L92234 2918
L92234 2955
L92215 3012
L91990 3237
L92234 3237
" />
<g transform="rotate(-90 75705.7 20280.4)">
<text x="75705.7" y="20477.2"
textLength="1220.38" font-size="524.934" lengthAdjust="spacingAndGlyphs"
text-anchor="middle" opacity="0">D34</text>
</g>
<path d="M75883 20758
L75490 20758
L75490 20664
L75508 20608
L75546 20570
L75583 20552
L75658 20533
L75715 20533
L75790 20552
L75827 20570
L75865 20608
L75883 20664
L75883 20758
" />
<path d="M75490 20402
L75490 20158
L75640 20289
L75640 20233
L75658 20195
L75677 20177
L75715 20158
L75808 20158
L75846 20177
L75865 20195
L75883 20233
L75883 20345
L75865 20383
L75846 20402
" />
<path d="M75621 19821
L75883 19821
" />
<path d="M75471 19914
L75752 20008
L75752 19764
" />
<g transform="rotate(-90 75831.7 21780.4)">
<text x="75831.7" y="21977.2"
textLength="470.472" font-size="524.934" lengthAdjust="spacingAndGlyphs"
text-anchor="middle" opacity="0">K</text>
</g>
<path d="M76009 21883
L75616 21883
" />
<path d="M76009 21658
L75784 21827
" />
<path d="M75616 21658
L75841 21883
" />
<g transform="rotate(-90 60705.7 27780.4)">
<text x="60705.7" y="27977.2"
textLength="1220.38" font-size="524.934" lengthAdjust="spacingAndGlyphs"
text-anchor="middle" opacity="0">D44</text>
</g>
<path d="M60883 28258
L60490 28258
L60490 28164
L60508 28108
L60546 28070
L60583 28052
L60658 28033
L60715 28033
L60790 28052
L60827 28070
L60865 28108
L60883 28164
L60883 28258
" />
<path d="M60621 27695
L60883 27695
" />
<path d="M60471 27789
L60752 27883
L60752 27639
" />
<path d="M60621 27321
L60883 27321
" />
<path d="M60471 27414
L60752 27508
L60752 27264
" />
<g transform="rotate(-90 60831.7 29280.4)">
<text x="60831.7" y="29477.2"
textLength="470.472" font-size="524.934" lengthAdjust="spacingAndGlyphs"
text-anchor="middle" opacity="0">K</text>
</g>
<path d="M61009 29383
L60616 29383
" />
<path d="M61009 29158
L60784 29327
" />
<path d="M60616 29158
L60841 29383
" />
<g transform="rotate(-90 53205.7 27780.4)">
<text x="53205.7" y="27977.2"
textLength="1220.38" font-size="524.934" lengthAdjust="spacingAndGlyphs"
text-anchor="middle" opacity="0">D43</text>
</g>
<path d="M53383 28258
L52990 28258
L52990 28164
L53008 28108
L53046 28070
L53083 28052
L53158 28033
L53215 28033
L53290 28052
L53327 28070
L53365 28108
L53383 28164
L53383 28258
" />
<path d="M53121 27695
L53383 27695
" />
<path d="M52971 27789
L53252 27883
L53252 27639
" />
<path d="M52990 27527
L52990 27283
L53140 27414
L53140 27358
L53158 27321
L53177 27302
L53215 27283
L53308 27283
L53346 27302
L53365 27321
L53383 27358
L53383 27471
L53365 27508
L53346 27527
" />
<g transform="rotate(-90 53331.7 29280.4)">
<text x="53331.7" y="29477.2"
textLength="470.472" font-size="524.934" lengthAdjust="spacingAndGlyphs"
text-anchor="middle" opacity="0">K</text>
</g>
<path d="M53509 29383
L53116 29383
" />
<path d="M53509 29158
L53284 29327
" />
<path d="M53116 29158
L53341 29383
" />
<g transform="rotate(-90 90705.7 27780.4)">
<text x="90705.7" y="27977.2"
textLength="1220.38" font-size="524.934" lengthAdjust="spacingAndGlyphs"
text-anchor="middle" opacity="0">D48</text>
</g>
<path d="M90883 28258
L90490 28258
L90490 28164
L90508 28108
L90546 28070
L90583 28052
L90658 28033
L90715 28033
L90790 28052
L90827 28070
L90865 28108
L90883 28164
L90883 28258
" />
<path d="M90621 27695
L90883 27695
" />
<path d="M90471 27789
L90752 27883
L90752 27639
" />
<path d="M90658 27433
L90640 27471
L90621 27489
L90583 27508
L90565 27508
L90527 27489
L90508 27471
L90490 27433
L90490 27358
L90508 27321
L90527 27302
L90565 27283
L90583 27283
L90621 27302
L90640 27321
L90658 27358
L90658 27433
L90677 27471
L90696 27489
L90733 27508
L90808 27508
L90846 27489
L90865 27471
L90883 27433
L90883 27358
L90865 27321
L90846 27302
L90808 27283
L90733 27283
L90696 27302
L90677 27321
L90658 27358
" />
<g transform="rotate(-90 90831.7 29280.4)">
<text x="90831.7" y="29477.2"
textLength="470.472" font-size="524.934" lengthAdjust="spacingAndGlyphs"
text-anchor="middle" opacity="0">K</text>
</g>
<path d="M91009 29383
L90616 29383
" />
<path d="M91009 29158
L90784 29327
" />
<path d="M90616 29158
L90841 29383
" />
<g transform="rotate(-90 83205.7 27780.4)">
<text x="83205.7" y="27977.2"
textLength="1220.38" font-size="524.934" lengthAdjust="spacingAndGlyphs"
text-anchor="middle" opacity="0">D47</text>
</g>
<path d="M83383 28258
L82990 28258
L82990 28164
L83008 28108
L83046 28070
L83083 28052
L83158 28033
L83215 28033
L83290 28052
L83327 28070
L83365 28108
L83383 28164
L83383 28258
" />
<path d="M83121 27695
L83383 27695
" />
<path d="M82971 27789
L83252 27883
L83252 27639
" />
<path d="M82990 27527
L82990 27264
L83383 27433
" />
<g transform="rotate(-90 83331.7 29280.4)">
<text x="83331.7" y="29477.2"
textLength="470.472" font-size="524.934" lengthAdjust="spacingAndGlyphs"
text-anchor="middle" opacity="0">K</text>
</g>
<path d="M83509 29383
L83116 29383
" />
<path d="M83509 29158
L83284 29327
" />
<path d="M83116 29158
L83341 29383
" />
<g transform="rotate(-90 45705.7 27780.4)">
<text x="45705.7" y="27977.2"
textLength="1220.38" font-size="524.934" lengthAdjust="spacingAndGlyphs"
text-anchor="middle" opacity="0">D42</text>
</g>
<path d="M45883 28258
L45490 28258
L45490 28164
L45508 28108
L45546 28070
L45583 28052
L45658 28033
L45715 28033
L45790 28052
L45827 28070
L45865 28108
L45883 28164
L45883 28258
" />
<path d="M45621 27695
L45883 27695
" />
<path d="M45471 27789
L45752 27883
L45752 27639
" />
<path d="M45527 27508
L45508 27489
L45490 27452
L45490 27358
L45508 27321
L45527 27302
L45565 27283
L45602 27283
L45658 27302
L45883 27527
L45883 27283
" />
<g transform="rotate(-90 45831.7 29280.4)">
<text x="45831.7" y="29477.2"
textLength="470.472" font-size="524.934" lengthAdjust="spacingAndGlyphs"
text-anchor="middle" opacity="0">K</text>
</g>
<path d="M46009 29383
L45616 29383
" />
<path d="M46009 29158
L45784 29327
" />
<path d="M45616 29158
L45841 29383
" />
<g transform="rotate(-90 75780.7 27755.4)">
<text x="75780.7" y="27952.2"
textLength="1220.38" font-size="524.934" lengthAdjust="spacingAndGlyphs"
text-anchor="middle" opacity="0">D46</text>
</g>
<path d="M75958 28233
L75565 28233
L75565 28139
L75583 28083
L75621 28045
L75658 28027
L75733 28008
L75790 28008
L75865 28027
L75902 28045
L75940 28083
L75958 28139
L75958 28233
" />
<path d="M75696 27670
L75958 27670
" />
<path d="M75546 27764
L75827 27858
L75827 27614
" />
<path d="M75565 27296
L75565 27371
L75583 27408
L75602 27427
L75658 27464
L75733 27483
L75883 27483
L75921 27464
L75940 27446
L75958 27408
L75958 27333
L75940 27296
L75921 27277
L75883 27258
L75790 27258
L75752 27277
L75733 27296
L75715 27333
L75715 27408
L75733 27446
L75752 27464
L75790 27483
" />
<g transform="rotate(-90 75906.7 29255.4)">
<text x="75906.7" y="29452.2"
textLength="470.472" font-size="524.934" lengthAdjust="spacingAndGlyphs"
text-anchor="middle" opacity="0">K</text>
</g>
<path d="M76084 29358
L75691 29358
" />
<path d="M76084 29133
L75859 29302
" />
<path d="M75691 29133
L75916 29358
" />
<g transform="rotate(-90 38205.7 27780.4)">
<text x="38205.7" y="27977.2"
textLength="1220.38" font-size="524.934" lengthAdjust="spacingAndGlyphs"
text-anchor="middle" opacity="0">D41</text>
</g>
<path d="M38383 28258
L37990 28258
L37990 28164
L38008 28108
L38046 28070
L38083 28052
L38158 28033
L38215 28033
L38290 28052
L38327 28070
L38365 28108
L38383 28164
L38383 28258
" />
<path d="M38121 27695
L38383 27695
" />
<path d="M37971 27789
L38252 27883
L38252 27639
" />
<path d="M38383 27283
L38383 27508
" />
<path d="M38383 27396
L37990 27396
L38046 27433
L38083 27471
L38102 27508
" />
<g transform="rotate(-90 38331.7 29280.4)">
<text x="38331.7" y="29477.2"
textLength="470.472" font-size="524.934" lengthAdjust="spacingAndGlyphs"
text-anchor="middle" opacity="0">K</text>
</g>
<path d="M38509 29383
L38116 29383
" />
<path d="M38509 29158
L38284 29327
" />
<path d="M38116 29158
L38341 29383
" />
<g transform="rotate(-90 68205.7 27780.4)">
<text x="68205.7" y="27977.2"
textLength="1220.38" font-size="524.934" lengthAdjust="spacingAndGlyphs"
text-anchor="middle" opacity="0">D45</text>
</g>
<path d="M68383 28258
L67990 28258
L67990 28164
L68008 28108
L68046 28070
L68083 28052
L68158 28033
L68215 28033
L68290 28052
L68327 28070
L68365 28108
L68383 28164
L68383 28258
" />
<path d="M68121 27695
L68383 27695
" />
<path d="M67971 27789
L68252 27883
L68252 27639
" />
<path d="M67990 27302
L67990 27489
L68177 27508
L68158 27489
L68140 27452
L68140 27358
L68158 27321
L68177 27302
L68215 27283
L68308 27283
L68346 27302
L68365 27321
L68383 27358
L68383 27452
L68365 27489
L68346 27508
" />
<g transform="rotate(-90 68331.7 29280.4)">
<text x="68331.7" y="29477.2"
textLength="470.472" font-size="524.934" lengthAdjust="spacingAndGlyphs"
text-anchor="middle" opacity="0">K</text>
</g>
<path d="M68509 29383
L68116 29383
" />
<path d="M68509 29158
L68284 29327
" />
<path d="M68116 29158
L68341 29383
" />
<g transform="rotate(-90 8205.7 27780.4)">
<text x="8205.7" y="27977.2"
textLength="1220.38" font-size="524.934" lengthAdjust="spacingAndGlyphs"
text-anchor="middle" opacity="0">D37</text>
</g>
<path d="M8383 28258
L7990 28258
L7990 28164
L8008 28108
L8046 28070
L8083 28052
L8158 28033
L8215 28033
L8290 28052
L8327 28070
L8365 28108
L8383 28164
L8383 28258
" />
<path d="M7990 27902
L7990 27658
L8140 27789
L8140 27733
L8158 27695
L8177 27677
L8215 27658
L8308 27658
L8346 27677
L8365 27695
L8383 27733
L8383 27845
L8365 27883
L8346 27902
" />
<path d="M7990 27527
L7990 27264
L8383 27433
" />
<g transform="rotate(-90 8331.68 29280.4)">
<text x="8331.68" y="29477.2"
textLength="470.472" font-size="524.934" lengthAdjust="spacingAndGlyphs"
text-anchor="middle" opacity="0">K</text>
</g>
<path d="M8509 29383
L8116 29383
" />
<path d="M8509 29158
L8284 29327
" />
<path d="M8116 29158
L8341 29383
" />
<g transform="rotate(-90 90705.7 20280.4)">
<text x="90705.7" y="20477.2"
textLength="1220.38" font-size="524.934" lengthAdjust="spacingAndGlyphs"
text-anchor="middle" opacity="0">D36</text>
</g>
<path d="M90883 20758
L90490 20758
L90490 20664
L90508 20608
L90546 20570
L90583 20552
L90658 20533
L90715 20533
L90790 20552
L90827 20570
L90865 20608
L90883 20664
L90883 20758
" />
<path d="M90490 20402
L90490 20158
L90640 20289
L90640 20233
L90658 20195
L90677 20177
L90715 20158
L90808 20158
L90846 20177
L90865 20195
L90883 20233
L90883 20345
L90865 20383
L90846 20402
" />
<path d="M90490 19821
L90490 19896
L90508 19933
L90527 19952
L90583 19989
L90658 20008
L90808 20008
L90846 19989
L90865 19971
L90883 19933
L90883 19858
L90865 19821
L90846 19802
L90808 19783
L90715 19783
L90677 19802
L90658 19821
L90640 19858
L90640 19933
L90658 19971
L90677 19989
L90715 20008
" />
<g transform="rotate(-90 90831.7 21780.4)">
<text x="90831.7" y="21977.2"
textLength="470.472" font-size="524.934" lengthAdjust="spacingAndGlyphs"
text-anchor="middle" opacity="0">K</text>
</g>
<path d="M91009 21883
L90616 21883
" />
<path d="M91009 21658
L90784 21827
" />
<path d="M90616 21658
L90841 21883
" />
<g transform="rotate(-90 83205.7 20280.4)">
<text x="83205.7" y="20477.2"
textLength="1220.38" font-size="524.934" lengthAdjust="spacingAndGlyphs"
text-anchor="middle" opacity="0">D35</text>
</g>
<path d="M83383 20758
L82990 20758
L82990 20664
L83008 20608
L83046 20570
L83083 20552
L83158 20533
L83215 20533
L83290 20552
L83327 20570
L83365 20608
L83383 20664
L83383 20758
" />
<path d="M82990 20402
L82990 20158
L83140 20289
L83140 20233
L83158 20195
L83177 20177
L83215 20158
L83308 20158
L83346 20177
L83365 20195
L83383 20233
L83383 20345
L83365 20383
L83346 20402
" />
<path d="M82990 19802
L82990 19989
L83177 20008
L83158 19989
L83140 19952
L83140 19858
L83158 19821
L83177 19802
L83215 19783
L83308 19783
L83346 19802
L83365 19821
L83383 19858
L83383 19952
L83365 19989
L83346 20008
" />
<g transform="rotate(-90 83331.7 21780.4)">
<text x="83331.7" y="21977.2"
textLength="470.472" font-size="524.934" lengthAdjust="spacingAndGlyphs"
text-anchor="middle" opacity="0">K</text>
</g>
<path d="M83509 21883
L83116 21883
" />
<path d="M83509 21658
L83284 21827
" />
<path d="M83116 21658
L83341 21883
" />
<g transform="rotate(-90 68205.7 20280.4)">
<text x="68205.7" y="20477.2"
textLength="1220.38" font-size="524.934" lengthAdjust="spacingAndGlyphs"
text-anchor="middle" opacity="0">D33</text>
</g>
<path d="M68383 20758
L67990 20758
L67990 20664
L68008 20608
L68046 20570
L68083 20552
L68158 20533
L68215 20533
L68290 20552
L68327 20570
L68365 20608
L68383 20664
L68383 20758
" />
<path d="M67990 20402
L67990 20158
L68140 20289
L68140 20233
L68158 20195
L68177 20177
L68215 20158
L68308 20158
L68346 20177
L68365 20195
L68383 20233
L68383 20345
L68365 20383
L68346 20402
" />
<path d="M67990 20027
L67990 19783
L68140 19914
L68140 19858
L68158 19821
L68177 19802
L68215 19783
L68308 19783
L68346 19802
L68365 19821
L68383 19858
L68383 19971
L68365 20008
L68346 20027
" />
<g transform="rotate(-90 68331.7 21780.4)">
<text x="68331.7" y="21977.2"
textLength="470.472" font-size="524.934" lengthAdjust="spacingAndGlyphs"
text-anchor="middle" opacity="0">K</text>
</g>
<path d="M68509 21883
L68116 21883
" />
<path d="M68509 21658
L68284 21827
" />
<path d="M68116 21658
L68341 21883
" />
<g transform="rotate(-90 23205.7 27780.4)">
<text x="23205.7" y="27977.2"
textLength="1220.38" font-size="524.934" lengthAdjust="spacingAndGlyphs"
text-anchor="middle" opacity="0">D39</text>
</g>
<path d="M23383 28258
L22990 28258
L22990 28164
L23008 28108
L23046 28070
L23083 28052
L23158 28033
L23215 28033
L23290 28052
L23327 28070
L23365 28108
L23383 28164
L23383 28258
" />
<path d="M22990 27902
L22990 27658
L23140 27789
L23140 27733
L23158 27695
L23177 27677
L23215 27658
L23308 27658
L23346 27677
L23365 27695
L23383 27733
L23383 27845
L23365 27883
L23346 27902
" />
<path d="M23383 27471
L23383 27396
L23365 27358
L23346 27339
L23290 27302
L23215 27283
L23065 27283
L23027 27302
L23008 27321
L22990 27358
L22990 27433
L23008 27471
L23027 27489
L23065 27508
L23158 27508
L23196 27489
L23215 27471
L23233 27433
L23233 27358
L23215 27321
L23196 27302
L23158 27283
" />
<g transform="rotate(-90 23331.7 29280.4)">
<text x="23331.7" y="29477.2"
textLength="470.472" font-size="524.934" lengthAdjust="spacingAndGlyphs"
text-anchor="middle" opacity="0">K</text>
</g>
<path d="M23509 29383
L23116 29383
" />
<path d="M23509 29158
L23284 29327
" />
<path d="M23116 29158
L23341 29383
" />
<g transform="rotate(-90 15705.7 27780.4)">
<text x="15705.7" y="27977.2"
textLength="1220.38" font-size="524.934" lengthAdjust="spacingAndGlyphs"
text-anchor="middle" opacity="0">D38</text>
</g>
<path d="M15883 28258
L15490 28258
L15490 28164
L15508 28108
L15546 28070
L15583 28052
L15658 28033
L15715 28033
L15790 28052
L15827 28070
L15865 28108
L15883 28164
L15883 28258
" />
<path d="M15490 27902
L15490 27658
L15640 27789
L15640 27733
L15658 27695
L15677 27677
L15715 27658
L15808 27658
L15846 27677
L15865 27695
L15883 27733
L15883 27845
L15865 27883
L15846 27902
" />
<path d="M15658 27433
L15640 27471
L15621 27489
L15583 27508
L15565 27508
L15527 27489
L15508 27471
L15490 27433
L15490 27358
L15508 27321
L15527 27302
L15565 27283
L15583 27283
L15621 27302
L15640 27321
L15658 27358
L15658 27433
L15677 27471
L15696 27489
L15733 27508
L15808 27508
L15846 27489
L15865 27471
L15883 27433
L15883 27358
L15865 27321
L15846 27302
L15808 27283
L15733 27283
L15696 27302
L15677 27321
L15658 27358
" />
<g transform="rotate(-90 15831.7 29280.4)">
<text x="15831.7" y="29477.2"
textLength="470.472" font-size="524.934" lengthAdjust="spacingAndGlyphs"
text-anchor="middle" opacity="0">K</text>
</g>
<path d="M16009 29383
L15616 29383
" />
<path d="M16009 29158
L15784 29327
" />
<path d="M15616 29158
L15841 29383
" />
<g transform="rotate(-90 30705.7 27780.4)">
<text x="30705.7" y="27977.2"
textLength="1220.38" font-size="524.934" lengthAdjust="spacingAndGlyphs"
text-anchor="middle" opacity="0">D40</text>
</g>
<path d="M30883 28258
L30490 28258
L30490 28164
L30508 28108
L30546 28070
L30583 28052
L30658 28033
L30715 28033
L30790 28052
L30827 28070
L30865 28108
L30883 28164
L30883 28258
" />
<path d="M30621 27695
L30883 27695
" />
<path d="M30471 27789
L30752 27883
L30752 27639
" />
<path d="M30490 27414
L30490 27377
L30508 27339
L30527 27321
L30565 27302
L30640 27283
L30733 27283
L30808 27302
L30846 27321
L30865 27339
L30883 27377
L30883 27414
L30865 27452
L30846 27471
L30808 27489
L30733 27508
L30640 27508
L30565 27489
L30527 27471
L30508 27452
L30490 27414
" />
<g transform="rotate(-90 30831.7 29280.4)">
<text x="30831.7" y="29477.2"
textLength="470.472" font-size="524.934" lengthAdjust="spacingAndGlyphs"
text-anchor="middle" opacity="0">K</text>
</g>
<path d="M31009 29383
L30616 29383
" />
<path d="M31009 29158
L30784 29327
" />
<path d="M30616 29158
L30841 29383
" />
<g transform="rotate(-90 60730.7 5217.85)">
<text x="60730.7" y="5414.71"
textLength="845.426" font-size="524.934" lengthAdjust="spacingAndGlyphs"
text-anchor="middle" opacity="0">D8</text>
</g>
<path d="M60908 5508
L60515 5508
L60515 5414
L60533 5358
L60571 5320
L60608 5302
L60683 5283
L60740 5283
L60815 5302
L60852 5320
L60890 5358
L60908 5414
L60908 5508
" />
<path d="M60683 5058
L60665 5095
L60646 5114
L60608 5133
L60590 5133
L60552 5114
L60533 5095
L60515 5058
L60515 4983
L60533 4946
L60552 4927
L60590 4908
L60608 4908
L60646 4927
L60665 4946
L60683 4983
L60683 5058
L60702 5095
L60721 5114
L60758 5133
L60833 5133
L60871 5114
L60890 5095
L60908 5058
L60908 4983
L60890 4946
L60871 4927
L60833 4908
L60758 4908
L60721 4927
L60702 4946
L60683 4983
" />
<g transform="rotate(-90 60856.7 6717.85)">
<text x="60856.7" y="6914.71"
textLength="470.472" font-size="524.934" lengthAdjust="spacingAndGlyphs"
text-anchor="middle" opacity="0">K</text>
</g>
<path d="M61034 6820
L60641 6820
" />
<path d="M61034 6595
L60809 6764
" />
<path d="M60641 6595
L60866 6820
" />
<g transform="rotate(-90 53230.7 5217.85)">
<text x="53230.7" y="5414.71"
textLength="845.426" font-size="524.934" lengthAdjust="spacingAndGlyphs"
text-anchor="middle" opacity="0">D7</text>
</g>
<path d="M53408 5508
L53015 5508
L53015 5414
L53033 5358
L53071 5320
L53108 5302
L53183 5283
L53240 5283
L53315 5302
L53352 5320
L53390 5358
L53408 5414
L53408 5508
" />
<path d="M53015 5152
L53015 4889
L53408 5058
" />
<g transform="rotate(-90 53356.7 6717.85)">
<text x="53356.7" y="6914.71"
textLength="470.472" font-size="524.934" lengthAdjust="spacingAndGlyphs"
text-anchor="middle" opacity="0">K</text>
</g>
<path d="M53534 6820
L53141 6820
" />
<path d="M53534 6595
L53309 6764
" />
<path d="M53141 6595
L53366 6820
" />
<g transform="rotate(-90 38230.7 12717.9)">
<text x="38230.7" y="12914.7"
textLength="1220.38" font-size="524.934" lengthAdjust="spacingAndGlyphs"
text-anchor="middle" opacity="0">D17</text>
</g>
<path d="M38408 13195
L38015 13195
L38015 13102
L38033 13045
L38071 13008
L38108 12989
L38183 12970
L38240 12970
L38315 12989
L38352 13008
L38390 13045
L38408 13102
L38408 13195
" />
<path d="M38408 12595
L38408 12820
" />
<path d="M38408 12708
L38015 12708
L38071 12745
L38108 12783
L38127 12820
" />
<path d="M38015 12464
L38015 12202
L38408 12371
" />
<g transform="rotate(-90 38356.7 14217.9)">
<text x="38356.7" y="14414.7"
textLength="470.472" font-size="524.934" lengthAdjust="spacingAndGlyphs"
text-anchor="middle" opacity="0">K</text>
</g>
<path d="M38534 14320
L38141 14320
" />
<path d="M38534 14095
L38309 14264
" />
<path d="M38141 14095
L38366 14320
" />
<g transform="rotate(-90 45830.7 12717.9)">
<text x="45830.7" y="12914.7"
textLength="1220.38" font-size="524.934" lengthAdjust="spacingAndGlyphs"
text-anchor="middle" opacity="0">D18</text>
</g>
<path d="M46008 13195
L45615 13195
L45615 13102
L45633 13045
L45671 13008
L45708 12989
L45783 12970
L45840 12970
L45915 12989
L45952 13008
L45990 13045
L46008 13102
L46008 13195
" />
<path d="M46008 12595
L46008 12820
" />
<path d="M46008 12708
L45615 12708
L45671 12745
L45708 12783
L45727 12820
" />
<path d="M45783 12371
L45765 12408
L45746 12427
L45708 12446
L45690 12446
L45652 12427
L45633 12408
L45615 12371
L45615 12296
L45633 12258
L45652 12239
L45690 12221
L45708 12221
L45746 12239
L45765 12258
L45783 12296
L45783 12371
L45802 12408
L45821 12427
L45858 12446
L45933 12446
L45971 12427
L45990 12408
L46008 12371
L46008 12296
L45990 12258
L45971 12239
L45933 12221
L45858 12221
L45821 12239
L45802 12258
L45783 12296
" />
<g transform="rotate(-90 45956.7 14217.9)">
<text x="45956.7" y="14414.7"
textLength="470.472" font-size="524.934" lengthAdjust="spacingAndGlyphs"
text-anchor="middle" opacity="0">K</text>
</g>
<path d="M46134 14320
L45741 14320
" />
<path d="M46134 14095
L45909 14264
" />
<path d="M45741 14095
L45966 14320
" />
<g transform="rotate(-90 53205.7 20280.4)">
<text x="53205.7" y="20477.2"
textLength="1220.38" font-size="524.934" lengthAdjust="spacingAndGlyphs"
text-anchor="middle" opacity="0">D31</text>
</g>
<path d="M53383 20758
L52990 20758
L52990 20664
L53008 20608
L53046 20570
L53083 20552
L53158 20533
L53215 20533
L53290 20552
L53327 20570
L53365 20608
L53383 20664
L53383 20758
" />
<path d="M52990 20402
L52990 20158
L53140 20289
L53140 20233
L53158 20195
L53177 20177
L53215 20158
L53308 20158
L53346 20177
L53365 20195
L53383 20233
L53383 20345
L53365 20383
L53346 20402
" />
<path d="M53383 19783
L53383 20008
" />
<path d="M53383 19896
L52990 19896
L53046 19933
L53083 19971
L53102 20008
" />
<g transform="rotate(-90 53331.7 21780.4)">
<text x="53331.7" y="21977.2"
textLength="470.472" font-size="524.934" lengthAdjust="spacingAndGlyphs"
text-anchor="middle" opacity="0">K</text>
</g>
<path d="M53509 21883
L53116 21883
" />
<path d="M53509 21658
L53284 21827
" />
<path d="M53116 21658
L53341 21883
" />
<g transform="rotate(-90 38205.7 20280.4)">
<text x="38205.7" y="20477.2"
textLength="1220.38" font-size="524.934" lengthAdjust="spacingAndGlyphs"
text-anchor="middle" opacity="0">D29</text>
</g>
<path d="M38383 20758
L37990 20758
L37990 20664
L38008 20608
L38046 20570
L38083 20552
L38158 20533
L38215 20533
L38290 20552
L38327 20570
L38365 20608
L38383 20664
L38383 20758
" />
<path d="M38027 20383
L38008 20364
L37990 20327
L37990 20233
L38008 20195
L38027 20177
L38065 20158
L38102 20158
L38158 20177
L38383 20402
L38383 20158
" />
<path d="M38383 19971
L38383 19896
L38365 19858
L38346 19839
L38290 19802
L38215 19783
L38065 19783
L38027 19802
L38008 19821
L37990 19858
L37990 19933
L38008 19971
L38027 19989
L38065 20008
L38158 20008
L38196 19989
L38215 19971
L38233 19933
L38233 19858
L38215 19821
L38196 19802
L38158 19783
" />
<g transform="rotate(-90 38331.7 21780.4)">
<text x="38331.7" y="21977.2"
textLength="470.472" font-size="524.934" lengthAdjust="spacingAndGlyphs"
text-anchor="middle" opacity="0">K</text>
</g>
<path d="M38509 21883
L38116 21883
" />
<path d="M38509 21658
L38284 21827
" />
<path d="M38116 21658
L38341 21883
" />
<g transform="rotate(-90 8205.7 20280.4)">
<text x="8205.7" y="20477.2"
textLength="1220.38" font-size="524.934" lengthAdjust="spacingAndGlyphs"
text-anchor="middle" opacity="0">D25</text>
</g>
<path d="M8383 20758
L7990 20758
L7990 20664
L8008 20608
L8046 20570
L8083 20552
L8158 20533
L8215 20533
L8290 20552
L8327 20570
L8365 20608
L8383 20664
L8383 20758
" />
<path d="M8027 20383
L8008 20364
L7990 20327
L7990 20233
L8008 20195
L8027 20177
L8065 20158
L8102 20158
L8158 20177
L8383 20402
L8383 20158
" />
<path d="M7990 19802
L7990 19989
L8177 20008
L8158 19989
L8140 19952
L8140 19858
L8158 19821
L8177 19802
L8215 19783
L8308 19783
L8346 19802
L8365 19821
L8383 19858
L8383 19952
L8365 19989
L8346 20008
" />
<g transform="rotate(-90 8331.68 21780.4)">
<text x="8331.68" y="21977.2"
textLength="470.472" font-size="524.934" lengthAdjust="spacingAndGlyphs"
text-anchor="middle" opacity="0">K</text>
</g>
<path d="M8509 21883
L8116 21883
" />
<path d="M8509 21658
L8284 21827
" />
<path d="M8116 21658
L8341 21883
" />
<g transform="rotate(-90 75830.7 12717.9)">
<text x="75830.7" y="12914.7"
textLength="1220.38" font-size="524.934" lengthAdjust="spacingAndGlyphs"
text-anchor="middle" opacity="0">D22</text>
</g>
<path d="M76008 13195
L75615 13195
L75615 13102
L75633 13045
L75671 13008
L75708 12989
L75783 12970
L75840 12970
L75915 12989
L75952 13008
L75990 13045
L76008 13102
L76008 13195
" />
<path d="M75652 12820
L75633 12802
L75615 12764
L75615 12670
L75633 12633
L75652 12614
L75690 12595
L75727 12595
L75783 12614
L76008 12839
L76008 12595
" />
<path d="M75652 12446
L75633 12427
L75615 12389
L75615 12296
L75633 12258
L75652 12239
L75690 12221
L75727 12221
L75783 12239
L76008 12464
L76008 12221
" />
<g transform="rotate(-90 75956.7 14217.9)">
<text x="75956.7" y="14414.7"
textLength="470.472" font-size="524.934" lengthAdjust="spacingAndGlyphs"
text-anchor="middle" opacity="0">K</text>
</g>
<path d="M76134 14320
L75741 14320
" />
<path d="M76134 14095
L75909 14264
" />
<path d="M75741 14095
L75966 14320
" />
<g transform="rotate(-90 30830.7 12717.9)">
<text x="30830.7" y="12914.7"
textLength="1220.38" font-size="524.934" lengthAdjust="spacingAndGlyphs"
text-anchor="middle" opacity="0">D16</text>
</g>
<path d="M31008 13195
L30615 13195
L30615 13102
L30633 13045
L30671 13008
L30708 12989
L30783 12970
L30840 12970
L30915 12989
L30952 13008
L30990 13045
L31008 13102
L31008 13195
" />
<path d="M31008 12595
L31008 12820
" />
<path d="M31008 12708
L30615 12708
L30671 12745
L30708 12783
L30727 12820
" />
<path d="M30615 12258
L30615 12333
L30633 12371
L30652 12389
L30708 12427
L30783 12446
L30933 12446
L30971 12427
L30990 12408
L31008 12371
L31008 12296
L30990 12258
L30971 12239
L30933 12221
L30840 12221
L30802 12239
L30783 12258
L30765 12296
L30765 12371
L30783 12408
L30802 12427
L30840 12446
" />
<g transform="rotate(-90 30956.7 14217.9)">
<text x="30956.7" y="14414.7"
textLength="470.472" font-size="524.934" lengthAdjust="spacingAndGlyphs"
text-anchor="middle" opacity="0">K</text>
</g>
<path d="M31134 14320
L30741 14320
" />
<path d="M31134 14095
L30909 14264
" />
<path d="M30741 14095
L30966 14320
" />
<g transform="rotate(-90 30730.7 5217.85)">
<text x="30730.7" y="5414.71"
textLength="845.426" font-size="524.934" lengthAdjust="spacingAndGlyphs"
text-anchor="middle" opacity="0">D4</text>
</g>
<path d="M30908 5508
L30515 5508
L30515 5414
L30533 5358
L30571 5320
L30608 5302
L30683 5283
L30740 5283
L30815 5302
L30852 5320
L30890 5358
L30908 5414
L30908 5508
" />
<path d="M30646 4946
L30908 4946
" />
<path d="M30496 5039
L30777 5133
L30777 4889
" />
<g transform="rotate(-90 30856.7 6717.85)">
<text x="30856.7" y="6914.71"
textLength="470.472" font-size="524.934" lengthAdjust="spacingAndGlyphs"
text-anchor="middle" opacity="0">K</text>
</g>
<path d="M31034 6820
L30641 6820
" />
<path d="M31034 6595
L30809 6764
" />
<path d="M30641 6595
L30866 6820
" />
<g transform="rotate(-90 60705.7 20280.4)">
<text x="60705.7" y="20477.2"
textLength="1220.38" font-size="524.934" lengthAdjust="spacingAndGlyphs"
text-anchor="middle" opacity="0">D32</text>
</g>
<path d="M60883 20758
L60490 20758
L60490 20664
L60508 20608
L60546 20570
L60583 20552
L60658 20533
L60715 20533
L60790 20552
L60827 20570
L60865 20608
L60883 20664
L60883 20758
" />
<path d="M60490 20402
L60490 20158
L60640 20289
L60640 20233
L60658 20195
L60677 20177
L60715 20158
L60808 20158
L60846 20177
L60865 20195
L60883 20233
L60883 20345
L60865 20383
L60846 20402
" />
<path d="M60527 20008
L60508 19989
L60490 19952
L60490 19858
L60508 19821
L60527 19802
L60565 19783
L60602 19783
L60658 19802
L60883 20027
L60883 19783
" />
<g transform="rotate(-90 60831.7 21780.4)">
<text x="60831.7" y="21977.2"
textLength="470.472" font-size="524.934" lengthAdjust="spacingAndGlyphs"
text-anchor="middle" opacity="0">K</text>
</g>
<path d="M61009 21883
L60616 21883
" />
<path d="M61009 21658
L60784 21827
" />
<path d="M60616 21658
L60841 21883
" />
<g transform="rotate(-90 15705.7 20280.4)">
<text x="15705.7" y="20477.2"
textLength="1220.38" font-size="524.934" lengthAdjust="spacingAndGlyphs"
text-anchor="middle" opacity="0">D26</text>
</g>
<path d="M15883 20758
L15490 20758
L15490 20664
L15508 20608
L15546 20570
L15583 20552
L15658 20533
L15715 20533
L15790 20552
L15827 20570
L15865 20608
L15883 20664
L15883 20758
" />
<path d="M15527 20383
L15508 20364
L15490 20327
L15490 20233
L15508 20195
L15527 20177
L15565 20158
L15602 20158
L15658 20177
L15883 20402
L15883 20158
" />
<path d="M15490 19821
L15490 19896
L15508 19933
L15527 19952
L15583 19989
L15658 20008
L15808 20008
L15846 19989
L15865 19971
L15883 19933
L15883 19858
L15865 19821
L15846 19802
L15808 19783
L15715 19783
L15677 19802
L15658 19821
L15640 19858
L15640 19933
L15658 19971
L15677 19989
L15715 20008
" />
<g transform="rotate(-90 15831.7 21780.4)">
<text x="15831.7" y="21977.2"
textLength="470.472" font-size="524.934" lengthAdjust="spacingAndGlyphs"
text-anchor="middle" opacity="0">K</text>
</g>
<path d="M16009 21883
L15616 21883
" />
<path d="M16009 21658
L15784 21827
" />
<path d="M15616 21658
L15841 21883
" />
<g transform="rotate(-90 53330.7 12717.9)">
<text x="53330.7" y="12914.7"
textLength="1220.38" font-size="524.934" lengthAdjust="spacingAndGlyphs"
text-anchor="middle" opacity="0">D19</text>
</g>
<path d="M53508 13195
L53115 13195
L53115 13102
L53133 13045
L53171 13008
L53208 12989
L53283 12970
L53340 12970
L53415 12989
L53452 13008
L53490 13045
L53508 13102
L53508 13195
" />
<path d="M53508 12595
L53508 12820
" />
<path d="M53508 12708
L53115 12708
L53171 12745
L53208 12783
L53227 12820
" />
<path d="M53508 12408
L53508 12333
L53490 12296
L53471 12277
L53415 12239
L53340 12221
L53190 12221
L53152 12239
L53133 12258
L53115 12296
L53115 12371
L53133 12408
L53152 12427
L53190 12446
L53283 12446
L53321 12427
L53340 12408
L53358 12371
L53358 12296
L53340 12258
L53321 12239
L53283 12221
" />
<g transform="rotate(-90 53456.7 14217.9)">
<text x="53456.7" y="14414.7"
textLength="470.472" font-size="524.934" lengthAdjust="spacingAndGlyphs"
text-anchor="middle" opacity="0">K</text>
</g>
<path d="M53634 14320
L53241 14320
" />
<path d="M53634 14095
L53409 14264
" />
<path d="M53241 14095
L53466 14320
" />
<g transform="rotate(-90 90830.7 12405.4)">
<text x="90830.7" y="12602.2"
textLength="1220.38" font-size="524.934" lengthAdjust="spacingAndGlyphs"
text-anchor="middle" opacity="0">D24</text>
</g>
<path d="M91008 12883
L90615 12883
L90615 12789
L90633 12733
L90671 12695
L90708 12677
L90783 12658
L90840 12658
L90915 12677
L90952 12695
L90990 12733
L91008 12789
L91008 12883
" />
<path d="M90652 12508
L90633 12489
L90615 12452
L90615 12358
L90633 12320
L90652 12302
L90690 12283
L90727 12283
L90783 12302
L91008 12527
L91008 12283
" />
<path d="M90746 11946
L91008 11946
" />
<path d="M90596 12039
L90877 12133
L90877 11889
" />
<g transform="rotate(-90 90956.7 13905.4)">
<text x="90956.7" y="14102.2"
textLength="470.472" font-size="524.934" lengthAdjust="spacingAndGlyphs"
text-anchor="middle" opacity="0">K</text>
</g>
<path d="M91134 14008
L90741 14008
" />
<path d="M91134 13783
L90909 13952
" />
<path d="M90741 13783
L90966 14008
" />
<g transform="rotate(-90 83330.7 5217.85)">
<text x="83330.7" y="5414.71"
textLength="1220.38" font-size="524.934" lengthAdjust="spacingAndGlyphs"
text-anchor="middle" opacity="0">D11</text>
</g>
<path d="M83508 5695
L83115 5695
L83115 5602
L83133 5545
L83171 5508
L83208 5489
L83283 5470
L83340 5470
L83415 5489
L83452 5508
L83490 5545
L83508 5602
L83508 5695
" />
<path d="M83508 5095
L83508 5320
" />
<path d="M83508 5208
L83115 5208
L83171 5245
L83208 5283
L83227 5320
" />
<path d="M83508 4721
L83508 4946
" />
<path d="M83508 4833
L83115 4833
L83171 4871
L83208 4908
L83227 4946
" />
<g transform="rotate(-90 83456.7 6717.85)">
<text x="83456.7" y="6914.71"
textLength="470.472" font-size="524.934" lengthAdjust="spacingAndGlyphs"
text-anchor="middle" opacity="0">K</text>
</g>
<path d="M83634 6820
L83241 6820
" />
<path d="M83634 6595
L83409 6764
" />
<path d="M83241 6595
L83466 6820
" />
<g transform="rotate(-90 15830.7 12717.9)">
<text x="15830.7" y="12914.7"
textLength="1220.38" font-size="524.934" lengthAdjust="spacingAndGlyphs"
text-anchor="middle" opacity="0">D14</text>
</g>
<path d="M16008 13195
L15615 13195
L15615 13102
L15633 13045
L15671 13008
L15708 12989
L15783 12970
L15840 12970
L15915 12989
L15952 13008
L15990 13045
L16008 13102
L16008 13195
" />
<path d="M16008 12595
L16008 12820
" />
<path d="M16008 12708
L15615 12708
L15671 12745
L15708 12783
L15727 12820
" />
<path d="M15746 12258
L16008 12258
" />
<path d="M15596 12352
L15877 12446
L15877 12202
" />
<g transform="rotate(-90 15956.7 14217.9)">
<text x="15956.7" y="14414.7"
textLength="470.472" font-size="524.934" lengthAdjust="spacingAndGlyphs"
text-anchor="middle" opacity="0">K</text>
</g>
<path d="M16134 14320
L15741 14320
" />
<path d="M16134 14095
L15909 14264
" />
<path d="M15741 14095
L15966 14320
" />
<g transform="rotate(-90 75830.7 5217.85)">
<text x="75830.7" y="5414.71"
textLength="1220.38" font-size="524.934" lengthAdjust="spacingAndGlyphs"
text-anchor="middle" opacity="0">D10</text>
</g>
<path d="M76008 5695
L75615 5695
L75615 5602
L75633 5545
L75671 5508
L75708 5489
L75783 5470
L75840 5470
L75915 5489
L75952 5508
L75990 5545
L76008 5602
L76008 5695
" />
<path d="M76008 5095
L76008 5320
" />
<path d="M76008 5208
L75615 5208
L75671 5245
L75708 5283
L75727 5320
" />
<path d="M75615 4852
L75615 4814
L75633 4777
L75652 4758
L75690 4739
L75765 4721
L75858 4721
L75933 4739
L75971 4758
L75990 4777
L76008 4814
L76008 4852
L75990 4889
L75971 4908
L75933 4927
L75858 4946
L75765 4946
L75690 4927
L75652 4908
L75633 4889
L75615 4852
" />
<g transform="rotate(-90 75956.7 6717.85)">
<text x="75956.7" y="6914.71"
textLength="470.472" font-size="524.934" lengthAdjust="spacingAndGlyphs"
text-anchor="middle" opacity="0">K</text>
</g>
<path d="M76134 6820
L75741 6820
" />
<path d="M76134 6595
L75909 6764
" />
<path d="M75741 6595
L75966 6820
" />
<g transform="rotate(-90 45705.7 20280.4)">
<text x="45705.7" y="20477.2"
textLength="1220.38" font-size="524.934" lengthAdjust="spacingAndGlyphs"
text-anchor="middle" opacity="0">D30</text>
</g>
<path d="M45883 20758
L45490 20758
L45490 20664
L45508 20608
L45546 20570
L45583 20552
L45658 20533
L45715 20533
L45790 20552
L45827 20570
L45865 20608
L45883 20664
L45883 20758
" />
<path d="M45490 20402
L45490 20158
L45640 20289
L45640 20233
L45658 20195
L45677 20177
L45715 20158
L45808 20158
L45846 20177
L45865 20195
L45883 20233
L45883 20345
L45865 20383
L45846 20402
" />
<path d="M45490 19914
L45490 19877
L45508 19839
L45527 19821
L45565 19802
L45640 19783
L45733 19783
L45808 19802
L45846 19821
L45865 19839
L45883 19877
L45883 19914
L45865 19952
L45846 19971
L45808 19989
L45733 20008
L45640 20008
L45565 19989
L45527 19971
L45508 19952
L45490 19914
" />
<g transform="rotate(-90 45831.7 21780.4)">
<text x="45831.7" y="21977.2"
textLength="470.472" font-size="524.934" lengthAdjust="spacingAndGlyphs"
text-anchor="middle" opacity="0">K</text>
</g>
<path d="M46009 21883
L45616 21883
" />
<path d="M46009 21658
L45784 21827
" />
<path d="M45616 21658
L45841 21883
" />
<g transform="rotate(-90 68230.7 5217.85)">
<text x="68230.7" y="5414.71"
textLength="845.426" font-size="524.934" lengthAdjust="spacingAndGlyphs"
text-anchor="middle" opacity="0">D9</text>
</g>
<path d="M68408 5508
L68015 5508
L68015 5414
L68033 5358
L68071 5320
L68108 5302
L68183 5283
L68240 5283
L68315 5302
L68352 5320
L68390 5358
L68408 5414
L68408 5508
" />
<path d="M68408 5095
L68408 5021
L68390 4983
L68371 4964
L68315 4927
L68240 4908
L68090 4908
L68052 4927
L68033 4946
L68015 4983
L68015 5058
L68033 5095
L68052 5114
L68090 5133
L68183 5133
L68221 5114
L68240 5095
L68258 5058
L68258 4983
L68240 4946
L68221 4927
L68183 4908
" />
<g transform="rotate(-90 68356.7 6717.85)">
<text x="68356.7" y="6914.71"
textLength="470.472" font-size="524.934" lengthAdjust="spacingAndGlyphs"
text-anchor="middle" opacity="0">K</text>
</g>
<path d="M68534 6820
L68141 6820
" />
<path d="M68534 6595
L68309 6764
" />
<path d="M68141 6595
L68366 6820
" />
<g transform="rotate(-90 60830.7 12717.9)">
<text x="60830.7" y="12914.7"
textLength="1220.38" font-size="524.934" lengthAdjust="spacingAndGlyphs"
text-anchor="middle" opacity="0">D20</text>
</g>
<path d="M61008 13195
L60615 13195
L60615 13102
L60633 13045
L60671 13008
L60708 12989
L60783 12970
L60840 12970
L60915 12989
L60952 13008
L60990 13045
L61008 13102
L61008 13195
" />
<path d="M60652 12820
L60633 12802
L60615 12764
L60615 12670
L60633 12633
L60652 12614
L60690 12595
L60727 12595
L60783 12614
L61008 12839
L61008 12595
" />
<path d="M60615 12352
L60615 12314
L60633 12277
L60652 12258
L60690 12239
L60765 12221
L60858 12221
L60933 12239
L60971 12258
L60990 12277
L61008 12314
L61008 12352
L60990 12389
L60971 12408
L60933 12427
L60858 12446
L60765 12446
L60690 12427
L60652 12408
L60633 12389
L60615 12352
" />
<g transform="rotate(-90 60956.7 14217.9)">
<text x="60956.7" y="14414.7"
textLength="470.472" font-size="524.934" lengthAdjust="spacingAndGlyphs"
text-anchor="middle" opacity="0">K</text>
</g>
<path d="M61134 14320
L60741 14320
" />
<path d="M61134 14095
L60909 14264
" />
<path d="M60741 14095
L60966 14320
" />
<g transform="rotate(-90 90830.7 4905.35)">
<text x="90830.7" y="5102.21"
textLength="1220.38" font-size="524.934" lengthAdjust="spacingAndGlyphs"
text-anchor="middle" opacity="0">D12</text>
</g>
<path d="M91008 5383
L90615 5383
L90615 5289
L90633 5233
L90671 5195
L90708 5177
L90783 5158
L90840 5158
L90915 5177
L90952 5195
L90990 5233
L91008 5289
L91008 5383
" />
<path d="M91008 4783
L91008 5008
" />
<path d="M91008 4895
L90615 4895
L90671 4933
L90708 4970
L90727 5008
" />
<path d="M90652 4633
L90633 4614
L90615 4577
L90615 4483
L90633 4446
L90652 4427
L90690 4408
L90727 4408
L90783 4427
L91008 4652
L91008 4408
" />
<g transform="rotate(-90 90956.7 6405.35)">
<text x="90956.7" y="6602.21"
textLength="470.472" font-size="524.934" lengthAdjust="spacingAndGlyphs"
text-anchor="middle" opacity="0">K</text>
</g>
<path d="M91134 6508
L90741 6508
" />
<path d="M91134 6283
L90909 6452
" />
<path d="M90741 6283
L90966 6508
" />
<g transform="rotate(-90 83330.7 12717.9)">
<text x="83330.7" y="12914.7"
textLength="1220.38" font-size="524.934" lengthAdjust="spacingAndGlyphs"
text-anchor="middle" opacity="0">D23</text>
</g>
<path d="M83508 13195
L83115 13195
L83115 13102
L83133 13045
L83171 13008
L83208 12989
L83283 12970
L83340 12970
L83415 12989
L83452 13008
L83490 13045
L83508 13102
L83508 13195
" />
<path d="M83152 12820
L83133 12802
L83115 12764
L83115 12670
L83133 12633
L83152 12614
L83190 12595
L83227 12595
L83283 12614
L83508 12839
L83508 12595
" />
<path d="M83115 12464
L83115 12221
L83265 12352
L83265 12296
L83283 12258
L83302 12239
L83340 12221
L83433 12221
L83471 12239
L83490 12258
L83508 12296
L83508 12408
L83490 12446
L83471 12464
" />
<g transform="rotate(-90 83456.7 14217.9)">
<text x="83456.7" y="14414.7"
textLength="470.472" font-size="524.934" lengthAdjust="spacingAndGlyphs"
text-anchor="middle" opacity="0">K</text>
</g>
<path d="M83634 14320
L83241 14320
" />
<path d="M83634 14095
L83409 14264
" />
<path d="M83241 14095
L83466 14320
" />
<g transform="rotate(-90 23230.7 5217.85)">
<text x="23230.7" y="5414.71"
textLength="845.426" font-size="524.934" lengthAdjust="spacingAndGlyphs"
text-anchor="middle" opacity="0">D3</text>
</g>
<path d="M23408 5508
L23015 5508
L23015 5414
L23033 5358
L23071 5320
L23108 5302
L23183 5283
L23240 5283
L23315 5302
L23352 5320
L23390 5358
L23408 5414
L23408 5508
" />
<path d="M23015 5152
L23015 4908
L23165 5039
L23165 4983
L23183 4946
L23202 4927
L23240 4908
L23333 4908
L23371 4927
L23390 4946
L23408 4983
L23408 5095
L23390 5133
L23371 5152
" />
<g transform="rotate(-90 23356.7 6717.85)">
<text x="23356.7" y="6914.71"
textLength="470.472" font-size="524.934" lengthAdjust="spacingAndGlyphs"
text-anchor="middle" opacity="0">K</text>
</g>
<path d="M23534 6820
L23141 6820
" />
<path d="M23534 6595
L23309 6764
" />
<path d="M23141 6595
L23366 6820
" />
<g transform="rotate(-90 15730.7 5217.85)">
<text x="15730.7" y="5414.71"
textLength="845.426" font-size="524.934" lengthAdjust="spacingAndGlyphs"
text-anchor="middle" opacity="0">D2</text>
</g>
<path d="M15908 5508
L15515 5508
L15515 5414
L15533 5358
L15571 5320
L15608 5302
L15683 5283
L15740 5283
L15815 5302
L15852 5320
L15890 5358
L15908 5414
L15908 5508
" />
<path d="M15552 5133
L15533 5114
L15515 5077
L15515 4983
L15533 4946
L15552 4927
L15590 4908
L15627 4908
L15683 4927
L15908 5152
L15908 4908
" />
<g transform="rotate(-90 15856.7 6717.85)">
<text x="15856.7" y="6914.71"
textLength="470.472" font-size="524.934" lengthAdjust="spacingAndGlyphs"
text-anchor="middle" opacity="0">K</text>
</g>
<path d="M16034 6820
L15641 6820
" />
<path d="M16034 6595
L15809 6764
" />
<path d="M15641 6595
L15866 6820
" />
<g transform="rotate(-90 8230.7 5217.85)">
<text x="8230.7" y="5414.71"
textLength="845.426" font-size="524.934" lengthAdjust="spacingAndGlyphs"
text-anchor="middle" opacity="0">D1</text>
</g>
<path d="M8408 5508
L8015 5508
L8015 5414
L8033 5358
L8071 5320
L8108 5302
L8183 5283
L8240 5283
L8315 5302
L8352 5320
L8390 5358
L8408 5414
L8408 5508
" />
<path d="M8408 4908
L8408 5133
" />
<path d="M8408 5021
L8015 5021
L8071 5058
L8108 5095
L8127 5133
" />
<g transform="rotate(-90 8356.68 6717.85)">
<text x="8356.68" y="6914.71"
textLength="470.472" font-size="524.934" lengthAdjust="spacingAndGlyphs"
text-anchor="middle" opacity="0">K</text>
</g>
<path d="M8534 6820
L8141 6820
" />
<path d="M8534 6595
L8309 6764
" />
<path d="M8141 6595
L8366 6820
" />
<g transform="rotate(-90 68330.7 12717.9)">
<text x="68330.7" y="12914.7"
textLength="1220.38" font-size="524.934" lengthAdjust="spacingAndGlyphs"
text-anchor="middle" opacity="0">D21</text>
</g>
<path d="M68508 13195
L68115 13195
L68115 13102
L68133 13045
L68171 13008
L68208 12989
L68283 12970
L68340 12970
L68415 12989
L68452 13008
L68490 13045
L68508 13102
L68508 13195
" />
<path d="M68152 12820
L68133 12802
L68115 12764
L68115 12670
L68133 12633
L68152 12614
L68190 12595
L68227 12595
L68283 12614
L68508 12839
L68508 12595
" />
<path d="M68508 12221
L68508 12446
" />
<path d="M68508 12333
L68115 12333
L68171 12371
L68208 12408
L68227 12446
" />
<g transform="rotate(-90 68456.7 14217.9)">
<text x="68456.7" y="14414.7"
textLength="470.472" font-size="524.934" lengthAdjust="spacingAndGlyphs"
text-anchor="middle" opacity="0">K</text>
</g>
<path d="M68634 14320
L68241 14320
" />
<path d="M68634 14095
L68409 14264
" />
<path d="M68241 14095
L68466 14320
" />
<g transform="rotate(-90 30705.7 20280.4)">
<text x="30705.7" y="20477.2"
textLength="1220.38" font-size="524.934" lengthAdjust="spacingAndGlyphs"
text-anchor="middle" opacity="0">D28</text>
</g>
<path d="M30883 20758
L30490 20758
L30490 20664
L30508 20608
L30546 20570
L30583 20552
L30658 20533
L30715 20533
L30790 20552
L30827 20570
L30865 20608
L30883 20664
L30883 20758
" />
<path d="M30527 20383
L30508 20364
L30490 20327
L30490 20233
L30508 20195
L30527 20177
L30565 20158
L30602 20158
L30658 20177
L30883 20402
L30883 20158
" />
<path d="M30658 19933
L30640 19971
L30621 19989
L30583 20008
L30565 20008
L30527 19989
L30508 19971
L30490 19933
L30490 19858
L30508 19821
L30527 19802
L30565 19783
L30583 19783
L30621 19802
L30640 19821
L30658 19858
L30658 19933
L30677 19971
L30696 19989
L30733 20008
L30808 20008
L30846 19989
L30865 19971
L30883 19933
L30883 19858
L30865 19821
L30846 19802
L30808 19783
L30733 19783
L30696 19802
L30677 19821
L30658 19858
" />
<g transform="rotate(-90 30831.7 21780.4)">
<text x="30831.7" y="21977.2"
textLength="470.472" font-size="524.934" lengthAdjust="spacingAndGlyphs"
text-anchor="middle" opacity="0">K</text>
</g>
<path d="M31009 21883
L30616 21883
" />
<path d="M31009 21658
L30784 21827
" />
<path d="M30616 21658
L30841 21883
" />
<g transform="rotate(-90 23205.7 20280.4)">
<text x="23205.7" y="20477.2"
textLength="1220.38" font-size="524.934" lengthAdjust="spacingAndGlyphs"
text-anchor="middle" opacity="0">D27</text>
</g>
<path d="M23383 20758
L22990 20758
L22990 20664
L23008 20608
L23046 20570
L23083 20552
L23158 20533
L23215 20533
L23290 20552
L23327 20570
L23365 20608
L23383 20664
L23383 20758
" />
<path d="M23027 20383
L23008 20364
L22990 20327
L22990 20233
L23008 20195
L23027 20177
L23065 20158
L23102 20158
L23158 20177
L23383 20402
L23383 20158
" />
<path d="M22990 20027
L22990 19764
L23383 19933
" />
<g transform="rotate(-90 23331.7 21780.4)">
<text x="23331.7" y="21977.2"
textLength="470.472" font-size="524.934" lengthAdjust="spacingAndGlyphs"
text-anchor="middle" opacity="0">K</text>
</g>
<path d="M23509 21883
L23116 21883
" />
<path d="M23509 21658
L23284 21827
" />
<path d="M23116 21658
L23341 21883
" />
<g transform="rotate(-90 8330.7 12717.9)">
<text x="8330.7" y="12914.7"
textLength="1220.38" font-size="524.934" lengthAdjust="spacingAndGlyphs"
text-anchor="middle" opacity="0">D13</text>
</g>
<path d="M8508 13195
L8115 13195
L8115 13102
L8133 13045
L8171 13008
L8208 12989
L8283 12970
L8340 12970
L8415 12989
L8452 13008
L8490 13045
L8508 13102
L8508 13195
" />
<path d="M8508 12595
L8508 12820
" />
<path d="M8508 12708
L8115 12708
L8171 12745
L8208 12783
L8227 12820
" />
<path d="M8115 12464
L8115 12221
L8265 12352
L8265 12296
L8283 12258
L8302 12239
L8340 12221
L8433 12221
L8471 12239
L8490 12258
L8508 12296
L8508 12408
L8490 12446
L8471 12464
" />
<g transform="rotate(-90 8456.68 14217.9)">
<text x="8456.68" y="14414.7"
textLength="470.472" font-size="524.934" lengthAdjust="spacingAndGlyphs"
text-anchor="middle" opacity="0">K</text>
</g>
<path d="M8634 14320
L8241 14320
" />
<path d="M8634 14095
L8409 14264
" />
<path d="M8241 14095
L8466 14320
" />
<g transform="rotate(-90 23330.7 12717.9)">
<text x="23330.7" y="12914.7"
textLength="1220.38" font-size="524.934" lengthAdjust="spacingAndGlyphs"
text-anchor="middle" opacity="0">D15</text>
</g>
<path d="M23508 13195
L23115 13195
L23115 13102
L23133 13045
L23171 13008
L23208 12989
L23283 12970
L23340 12970
L23415 12989
L23452 13008
L23490 13045
L23508 13102
L23508 13195
" />
<path d="M23508 12595
L23508 12820
" />
<path d="M23508 12708
L23115 12708
L23171 12745
L23208 12783
L23227 12820
" />
<path d="M23115 12239
L23115 12427
L23302 12446
L23283 12427
L23265 12389
L23265 12296
L23283 12258
L23302 12239
L23340 12221
L23433 12221
L23471 12239
L23490 12258
L23508 12296
L23508 12389
L23490 12427
L23471 12446
" />
<g transform="rotate(-90 23456.7 14217.9)">
<text x="23456.7" y="14414.7"
textLength="470.472" font-size="524.934" lengthAdjust="spacingAndGlyphs"
text-anchor="middle" opacity="0">K</text>
</g>
<path d="M23634 14320
L23241 14320
" />
<path d="M23634 14095
L23409 14264
" />
<path d="M23241 14095
L23466 14320
" />
<g transform="rotate(-90 45730.7 5217.85)">
<text x="45730.7" y="5414.71"
textLength="845.426" font-size="524.934" lengthAdjust="spacingAndGlyphs"
text-anchor="middle" opacity="0">D6</text>
</g>
<path d="M45908 5508
L45515 5508
L45515 5414
L45533 5358
L45571 5320
L45608 5302
L45683 5283
L45740 5283
L45815 5302
L45852 5320
L45890 5358
L45908 5414
L45908 5508
" />
<path d="M45515 4946
L45515 5021
L45533 5058
L45552 5077
L45608 5114
L45683 5133
L45833 5133
L45871 5114
L45890 5095
L45908 5058
L45908 4983
L45890 4946
L45871 4927
L45833 4908
L45740 4908
L45702 4927
L45683 4946
L45665 4983
L45665 5058
L45683 5095
L45702 5114
L45740 5133
" />
<g transform="rotate(-90 45856.7 6717.85)">
<text x="45856.7" y="6914.71"
textLength="470.472" font-size="524.934" lengthAdjust="spacingAndGlyphs"
text-anchor="middle" opacity="0">K</text>
</g>
<path d="M46034 6820
L45641 6820
" />
<path d="M46034 6595
L45809 6764
" />
<path d="M45641 6595
L45866 6820
" />
<g transform="rotate(-90 38230.7 5205.35)">
<text x="38230.7" y="5402.21"
textLength="845.426" font-size="524.934" lengthAdjust="spacingAndGlyphs"
text-anchor="middle" opacity="0">D5</text>
</g>
<path d="M38408 5495
L38015 5495
L38015 5402
L38033 5345
L38071 5308
L38108 5289
L38183 5270
L38240 5270
L38315 5289
L38352 5308
L38390 5345
L38408 5402
L38408 5495
" />
<path d="M38015 4914
L38015 5102
L38202 5120
L38183 5102
L38165 5064
L38165 4971
L38183 4933
L38202 4914
L38240 4896
L38333 4896
L38371 4914
L38390 4933
L38408 4971
L38408 5064
L38390 5102
L38371 5120
" />
<g transform="rotate(-90 38356.7 6705.35)">
<text x="38356.7" y="6902.21"
textLength="470.472" font-size="524.934" lengthAdjust="spacingAndGlyphs"
text-anchor="middle" opacity="0">K</text>
</g>
<path d="M38534 6808
L38141 6808
" />
<path d="M38534 6583
L38309 6752
" />
<path d="M38141 6583
L38366 6808
" />
<g transform="rotate(-90 72718.5 1342.85)">
<text x="72718.5" y="1539.71"
textLength="751.687" font-size="524.934" lengthAdjust="spacingAndGlyphs"
text-anchor="middle" opacity="0">J1</text>
</g>
<path d="M72502 1474
L72784 1474
L72840 1492
L72877 1530
L72896 1586
L72896 1624
" />
<path d="M72896 1080
L72896 1305
" />
<path d="M72896 1192
L72502 1192
L72559 1230
L72596 1267
L72615 1305
" />
<g transform="rotate(-90 68915.3 1842.85)">
<text x="68915.3" y="2039.71"
textLength="1164.14" font-size="524.934" lengthAdjust="spacingAndGlyphs"
text-anchor="middle" opacity="0">SCL</text>
</g>
<path d="M69074 2311
L69093 2255
L69093 2161
L69074 2124
L69055 2105
L69018 2086
L68980 2086
L68943 2105
L68924 2124
L68905 2161
L68887 2236
L68868 2274
L68849 2292
L68812 2311
L68774 2311
L68737 2292
L68718 2274
L68699 2236
L68699 2142
L68718 2086
" />
<path d="M69055 1692
L69074 1711
L69093 1767
L69093 1805
L69074 1861
L69037 1899
L68999 1917
L68924 1936
L68868 1936
L68793 1917
L68755 1899
L68718 1861
L68699 1805
L68699 1767
L68718 1711
L68737 1692
" />
<path d="M69093 1336
L69093 1524
L68699 1524
" />
<g transform="rotate(-90 69915.3 1842.85)">
<text x="69915.3" y="2039.71"
textLength="1182.88" font-size="524.934" lengthAdjust="spacingAndGlyphs"
text-anchor="middle" opacity="0">SDA</text>
</g>
<path d="M70074 2320
L70093 2264
L70093 2170
L70074 2133
L70055 2114
L70018 2095
L69980 2095
L69943 2114
L69924 2133
L69905 2170
L69887 2245
L69868 2283
L69849 2302
L69812 2320
L69774 2320
L69737 2302
L69718 2283
L69699 2245
L69699 2152
L69718 2095
" />
<path d="M70093 1927
L69699 1927
L69699 1833
L69718 1777
L69755 1739
L69793 1720
L69868 1702
L69924 1702
L69999 1720
L70037 1739
L70074 1777
L70093 1833
L70093 1927
" />
<path d="M69980 1552
L69980 1364
" />
<path d="M70093 1589
L69699 1458
L70093 1327
" />
<g transform="rotate(-90 70915.3 1842.85)">
<text x="70915.3" y="2039.71"
textLength="1126.64" font-size="524.934" lengthAdjust="spacingAndGlyphs"
text-anchor="middle" opacity="0">3v3</text>
</g>
<path d="M70699 2311
L70699 2067
L70849 2199
L70849 2142
L70868 2105
L70887 2086
L70924 2067
L71018 2067
L71055 2086
L71074 2105
L71093 2142
L71093 2255
L71074 2292
L71055 2311
" />
<path d="M70830 1936
L71093 1842
L70830 1749
" />
<path d="M70699 1636
L70699 1392
L70849 1524
L70849 1467
L70868 1430
L70887 1411
L70924 1392
L71018 1392
L71055 1411
L71074 1430
L71093 1467
L71093 1580
L71074 1617
L71055 1636
" />
<g transform="rotate(-90 71915.3 1842.85)">
<text x="71915.3" y="2039.71"
textLength="1276.62" font-size="524.934" lengthAdjust="spacingAndGlyphs"
text-anchor="middle" opacity="0">GND</text>
</g>
<path d="M71718 2142
L71699 2180
L71699 2236
L71718 2292
L71755 2330
L71793 2349
L71868 2367
L71924 2367
L71999 2349
L72037 2330
L72074 2292
L72093 2236
L72093 2199
L72074 2142
L72055 2124
L71924 2124
L71924 2199
" />
<path d="M72093 1955
L71699 1955
L72093 1730
L71699 1730
" />
<path d="M72093 1542
L71699 1542
L71699 1449
L71718 1392
L71755 1355
L71793 1336
L71868 1317
L71924 1317
L71999 1336
L72037 1355
L72074 1392
L72093 1449
L72093 1542
" />
<text x="91665.3" y="30448.7"
textLength="864.173" font-size="524.934" lengthAdjust="spacingAndGlyphs"
text-anchor="middle" opacity="0">H5</text>
<path d="M91365 30429
L91365 30036
" />
<path d="M91365 30223
L91590 30223
" />
<path d="M91590 30429
L91590 30036
" />
<path d="M91965 30036
L91777 30036
L91759 30223
L91777 30204
L91815 30186
L91909 30186
L91946 30204
L91965 30223
L91984 30261
L91984 30354
L91965 30392
L91946 30411
L91909 30429
L91815 30429
L91777 30411
L91759 30392
" />
<text x="1415.35" y="30448.7"
textLength="864.173" font-size="524.934" lengthAdjust="spacingAndGlyphs"
text-anchor="middle" opacity="0">H4</text>
<path d="M1115 30429
L1115 30036
" />
<path d="M1115 30223
L1340 30223
" />
<path d="M1340 30429
L1340 30036
" />
<path d="M1696 30167
L1696 30429
" />
<path d="M1602 30017
L1509 30298
L1752 30298
" />
<text x="46665.3" y="14948.7"
textLength="864.173" font-size="524.934" lengthAdjust="spacingAndGlyphs"
text-anchor="middle" opacity="0">H3</text>
<path d="M46365 14929
L46365 14536
" />
<path d="M46365 14723
L46590 14723
" />
<path d="M46590 14929
L46590 14536
" />
<path d="M46740 14536
L46984 14536
L46852 14686
L46909 14686
L46946 14704
L46965 14723
L46984 14761
L46984 14854
L46965 14892
L46946 14911
L46909 14929
L46796 14929
L46759 14911
L46740 14892
" />
<text x="1415.35" y="3255.75"
textLength="864.173" font-size="524.934" lengthAdjust="spacingAndGlyphs"
text-anchor="middle" opacity="0">H1</text>
<path d="M1115 3237
L1115 2843
" />
<path d="M1115 3030
L1340 3030
" />
<path d="M1340 3237
L1340 2843
" />
<path d="M1734 3237
L1509 3237
" />
<path d="M1621 3237
L1621 2843
L1584 2899
L1546 2937
L1509 2955
" />
<g >
</g>
</g>
<g style="fill:#000000; fill-opacity:0.0; 
stroke:#000000; stroke-width:59.0551; stroke-opacity:1; 
stroke-linecap:round; stroke-linejoin:round;">
</g>
<g style="fill:#C2C200; fill-opacity:0.0; 
stroke:#C2C200; stroke-width:59.0551; stroke-opacity:1; 
stroke-linecap:round; stroke-linejoin:round;">
</g>
<g style="fill:#C2C200; fill-opacity:0.0; 
stroke:#C2C200; stroke-width:19.685; stroke-opacity:1; 
stroke-linecap:round; stroke-linejoin:round;">
<path d="M915 217
L92477 217
" />
<path d="M290 32405
L290 842
" />
<path d="M92477 33030
L915 33030
" />
<path d="M92477.8 33030.4 A625 625 0.0 0 0 93102.8 32405.4" />
<path d="M93102 842
L93102 32405
" />
<path d="M290.345 32405.4 A625 625 0.0 0 0 915.345 33030.4" />
<path d="M915.345 217.855 A625 625 0.0 0 0 290.345 842.855" />
<path d="M93102.8 842.855 A625 625 0.0 0 0 92477.8 217.855" />
<g >
</g>
<g >
</g>
<g >
</g>
<g >
</g>
<g >
</g>
<g >
</g>
<g >
</g>
<g >
</g>
<g >
</g>
<g >
</g>
<g >
</g>
<g >
</g>
<g >
</g>
<g >
</g>
<g >
</g>
<g >
</g>
<g >
</g>
<g >
</g>
<g >
</g>
<g >
</g>
<g >
</g>
<g >
</g>
<g >
</g>
<g >
</g>
<g >
</g>
<g >
</g>
<g >
</g>
<g >
</g>
<g >
</g>
<g >
</g>
<g >
</g>
<g >
</g>
<g >
</g>
<g >
</g>
<g >
</g>
<g >
</g>
<g >
</g>
<g >
</g>
<g >
</g>
<g >
</g>
<g >
</g>
<g >
</g>
<g >
</g>
<g >
</g>
<g >
</g>
<g >
</g>
<g >
</g>
<g >
</g>
<g >
</g>
<g >
</g>
<g >
</g>
<g >
</g>
<g >
</g>
<g >
</g>
<g >
</g>
<g >
</g>
<g >
</g>
<g >
</g>
<g >
</g>
<g >
</g>
<g >
</g>
<g >
</g>
<g >
</g>
<g >
</g>
<g >
</g>
<g >
</g>
<g >
</g>
<g >
</g>
<g >
</g>
<g >
</g>
<g >
</g>
<g >
</g>
<g >
</g>
<g >
</g>
<g >
</g>
<g >
</g>
<g >
</g>
<g >
</g>
<g >
</g>
<g >
</g>
<g >
</g>
<g >
</g>
<g >
</g>
<g >
</g>
<g >
</g>
<g >
</g>
<g >
</g>
<g >
</g>
<g >
</g>
<g >
</g>
<g >
</g>
<g >
</g>
<g >
</g>
<g >
</g>
<g >
</g>
<g >
</g>
<g >
</g>
<g >
</g>
<g >
</g>
<g >
</g>
<g >
</g>
<g >
</g>
<g >
</g>
<g >
</g>
</g> 
</svg>
