  0
SECTION
  2
HEADER
  9
$ACADVER
  1
AC1009
  9
$EXTMIN
 10
0.0
 20
0.0
 30
0.0
  9
$EXTMAX
 10
1000.0
 20
1000.0
 30
0.0
  9
$FILLMODE
 70
 0
  9
$SPLFRAME
 70
 1
  0
ENDSEC
  0
SECTION
  2
TABLES
  0
TABLE
  2
LAYER
 70
1
  0
LAYER
  2
0
 70
     0
 62
     7
  6
CONTINUOUS
  0
ENDTAB
  0
ENDSEC
  0
SECTION
  2
ENTITIES
  0
LINE
  8
0
 62
     0
 10
237.647
 20
88.452
 30
0.0
 11
237.897
 21
88.4424
 31
0.0
  0
LINE
  8
0
 62
     0
 10
237.897
 20
88.4424
 30
0.0
 11
238.147
 21
88.4121
 31
0.0
  0
LINE
  8
0
 62
     0
 10
238.147
 20
88.4121
 30
0.0
 11
238.394
 21
88.3638
 31
0.0
  0
LINE
  8
0
 62
     0
 10
238.394
 20
88.3638
 30
0.0
 11
238.635
 21
88.2964
 31
0.0
  0
LINE
  8
0
 62
     0
 10
238.635
 20
88.2964
 30
0.0
 11
238.87
 21
88.2082
 31
0.0
  0
LINE
  8
0
 62
     0
 10
238.87
 20
88.2082
 30
0.0
 11
239.098
 21
88.1034
 31
0.0
  0
LINE
  8
0
 62
     0
 10
239.098
 20
88.1034
 30
0.0
 11
239.317
 21
87.981
 31
0.0
  0
LINE
  8
0
 62
     0
 10
239.317
 20
87.981
 30
0.0
 11
239.527
 21
87.8403
 31
0.0
  0
LINE
  8
0
 62
     0
 10
239.527
 20
87.8403
 30
0.0
 11
239.725
 21
87.6861
 31
0.0
  0
LINE
  8
0
 62
     0
 10
239.725
 20
87.6861
 30
0.0
 11
239.908
 21
87.515
 31
0.0
  0
LINE
  8
0
 62
     0
 10
239.908
 20
87.515
 30
0.0
 11
240.079
 21
87.3305
 31
0.0
  0
LINE
  8
0
 62
     0
 10
240.079
 20
87.3305
 30
0.0
 11
240.235
 21
87.1333
 31
0.0
  0
LINE
  8
0
 62
     0
 10
240.235
 20
87.1333
 30
0.0
 11
240.374
 21
86.9237
 31
0.0
  0
LINE
  8
0
 62
     0
 10
240.374
 20
86.9237
 30
0.0
 11
240.498
 21
86.7047
 31
0.0
  0
LINE
  8
0
 62
     0
 10
240.498
 20
86.7047
 30
0.0
 11
240.603
 21
86.4775
 31
0.0
  0
LINE
  8
0
 62
     0
 10
240.603
 20
86.4775
 30
0.0
 11
240.69
 21
86.2404
 31
0.0
  0
LINE
  8
0
 62
     0
 10
240.69
 20
86.2404
 30
0.0
 11
240.757
 21
85.9991
 31
0.0
  0
LINE
  8
0
 62
     0
 10
240.757
 20
85.9991
 30
0.0
 11
240.807
 21
85.7525
 31
0.0
  0
LINE
  8
0
 62
     0
 10
240.807
 20
85.7525
 30
0.0
 11
240.837
 21
85.5031
 31
0.0
  0
LINE
  8
0
 62
     0
 10
240.837
 20
85.5031
 30
0.0
 11
240.847
 21
85.2523
 31
0.0
  0
LINE
  8
0
 62
     0
 10
240.847
 20
85.2523
 30
0.0
 11
240.847
 21
3.3004
 31
0.0
  0
LINE
  8
0
 62
     0
 10
240.847
 20
3.3004
 30
0.0
 11
240.837
 21
3.0496
 31
0.0
  0
LINE
  8
0
 62
     0
 10
240.837
 20
3.0496
 30
0.0
 11
240.807
 21
2.80017
 31
0.0
  0
LINE
  8
0
 62
     0
 10
240.807
 20
2.80017
 30
0.0
 11
240.757
 21
2.5535
 31
0.0
  0
LINE
  8
0
 62
     0
 10
240.757
 20
2.5535
 30
0.0
 11
240.69
 21
2.31235
 31
0.0
  0
LINE
  8
0
 62
     0
 10
240.69
 20
2.31235
 30
0.0
 11
240.603
 21
2.0767
 31
0.0
  0
LINE
  8
0
 62
     0
 10
240.603
 20
2.0767
 30
0.0
 11
240.498
 21
1.84933
 31
0.0
  0
LINE
  8
0
 62
     0
 10
240.498
 20
1.84933
 30
0.0
 11
240.374
 21
1.63022
 31
0.0
  0
LINE
  8
0
 62
     0
 10
240.374
 20
1.63022
 30
0.0
 11
240.235
 21
1.42076
 31
0.0
  0
LINE
  8
0
 62
     0
 10
240.235
 20
1.42076
 30
0.0
 11
240.079
 21
1.22232
 31
0.0
  0
LINE
  8
0
 62
     0
 10
240.079
 20
1.22232
 30
0.0
 11
239.908
 21
1.03904
 31
0.0
  0
LINE
  8
0
 62
     0
 10
239.908
 20
1.03904
 30
0.0
 11
239.725
 21
0.868165
 31
0.0
  0
LINE
  8
0
 62
     0
 10
239.725
 20
0.868165
 30
0.0
 11
239.527
 21
0.712445
 31
0.0
  0
LINE
  8
0
 62
     0
 10
239.527
 20
0.712445
 30
0.0
 11
239.317
 21
0.573264
 31
0.0
  0
LINE
  8
0
 62
     0
 10
239.317
 20
0.573264
 30
0.0
 11
239.098
 21
0.449241
 31
0.0
  0
LINE
  8
0
 62
     0
 10
239.098
 20
0.449241
 30
0.0
 11
238.87
 21
0.34451
 31
0.0
  0
LINE
  8
0
 62
     0
 10
238.87
 20
0.34451
 30
0.0
 11
238.635
 21
0.257693
 31
0.0
  0
LINE
  8
0
 62
     0
 10
238.635
 20
0.257693
 30
0.0
 11
238.394
 21
0.190169
 31
0.0
  0
LINE
  8
0
 62
     0
 10
238.394
 20
0.190169
 30
0.0
 11
238.147
 21
0.14056
 31
0.0
  0
LINE
  8
0
 62
     0
 10
238.147
 20
0.14056
 30
0.0
 11
237.897
 21
0.110243
 31
0.0
  0
LINE
  8
0
 62
     0
 10
237.897
 20
0.110243
 30
0.0
 11
237.647
 21
0.100597
 31
0.0
  0
LINE
  8
0
 62
     0
 10
237.647
 20
0.100597
 30
0.0
 11
3.29489
 21
0.100597
 31
0.0
  0
LINE
  8
0
 62
     0
 10
3.29489
 20
0.100597
 30
0.0
 11
3.04409
 21
0.110243
 31
0.0
  0
LINE
  8
0
 62
     0
 10
3.04409
 20
0.110243
 30
0.0
 11
2.79466
 21
0.14056
 31
0.0
  0
LINE
  8
0
 62
     0
 10
2.79466
 20
0.14056
 30
0.0
 11
2.54799
 21
0.190169
 31
0.0
  0
LINE
  8
0
 62
     0
 10
2.54799
 20
0.190169
 30
0.0
 11
2.30684
 21
0.257693
 31
0.0
  0
LINE
  8
0
 62
     0
 10
2.30684
 20
0.257693
 30
0.0
 11
2.06981
 21
0.34451
 31
0.0
  0
LINE
  8
0
 62
     0
 10
2.06981
 20
0.34451
 30
0.0
 11
1.84244
 21
0.449241
 31
0.0
  0
LINE
  8
0
 62
     0
 10
1.84244
 20
0.449241
 30
0.0
 11
1.62333
 21
0.573264
 31
0.0
  0
LINE
  8
0
 62
     0
 10
1.62333
 20
0.573264
 30
0.0
 11
1.41387
 21
0.712445
 31
0.0
  0
LINE
  8
0
 62
     0
 10
1.41387
 20
0.712445
 30
0.0
 11
1.21681
 21
0.868165
 31
0.0
  0
LINE
  8
0
 62
     0
 10
1.21681
 20
0.868165
 30
0.0
 11
1.03215
 21
1.03904
 31
0.0
  0
LINE
  8
0
 62
     0
 10
1.03215
 20
1.03904
 30
0.0
 11
0.861275
 21
1.22232
 31
0.0
  0
LINE
  8
0
 62
     0
 10
0.861275
 20
1.22232
 30
0.0
 11
0.706935
 21
1.42076
 31
0.0
  0
LINE
  8
0
 62
     0
 10
0.706935
 20
1.42076
 30
0.0
 11
0.566374
 21
1.63022
 31
0.0
  0
LINE
  8
0
 62
     0
 10
0.566374
 20
1.63022
 30
0.0
 11
0.443727
 21
1.84933
 31
0.0
  0
LINE
  8
0
 62
     0
 10
0.443727
 20
1.84933
 30
0.0
 11
0.338998
 21
2.0767
 31
0.0
  0
LINE
  8
0
 62
     0
 10
0.338998
 20
2.0767
 30
0.0
 11
0.250803
 21
2.31235
 31
0.0
  0
LINE
  8
0
 62
     0
 10
0.250803
 20
2.31235
 30
0.0
 11
0.183279
 21
2.5535
 31
0.0
  0
LINE
  8
0
 62
     0
 10
0.183279
 20
2.5535
 30
0.0
 11
0.135048
 21
2.80017
 31
0.0
  0
LINE
  8
0
 62
     0
 10
0.135048
 20
2.80017
 30
0.0
 11
0.104731
 21
3.0496
 31
0.0
  0
LINE
  8
0
 62
     0
 10
0.104731
 20
3.0496
 30
0.0
 11
0.0950846
 21
3.30178
 31
0.0
  0
LINE
  8
0
 62
     0
 10
0.0950846
 20
3.30178
 30
0.0
 11
0.0950846
 21
85.2523
 31
0.0
  0
LINE
  8
0
 62
     0
 10
0.0950846
 20
85.2523
 30
0.0
 11
0.104731
 21
85.5031
 31
0.0
  0
LINE
  8
0
 62
     0
 10
0.104731
 20
85.5031
 30
0.0
 11
0.135048
 21
85.7525
 31
0.0
  0
LINE
  8
0
 62
     0
 10
0.135048
 20
85.7525
 30
0.0
 11
0.183279
 21
85.9991
 31
0.0
  0
LINE
  8
0
 62
     0
 10
0.183279
 20
85.9991
 30
0.0
 11
0.250803
 21
86.2404
 31
0.0
  0
LINE
  8
0
 62
     0
 10
0.250803
 20
86.2404
 30
0.0
 11
0.338998
 21
86.4775
 31
0.0
  0
LINE
  8
0
 62
     0
 10
0.338998
 20
86.4775
 30
0.0
 11
0.443727
 21
86.7047
 31
0.0
  0
LINE
  8
0
 62
     0
 10
0.443727
 20
86.7047
 30
0.0
 11
0.566374
 21
86.9237
 31
0.0
  0
LINE
  8
0
 62
     0
 10
0.566374
 20
86.9237
 30
0.0
 11
0.706935
 21
87.1333
 31
0.0
  0
LINE
  8
0
 62
     0
 10
0.706935
 20
87.1333
 30
0.0
 11
0.861275
 21
87.3305
 31
0.0
  0
LINE
  8
0
 62
     0
 10
0.861275
 20
87.3305
 30
0.0
 11
1.03215
 21
87.515
 31
0.0
  0
LINE
  8
0
 62
     0
 10
1.03215
 20
87.515
 30
0.0
 11
1.21681
 21
87.6861
 31
0.0
  0
LINE
  8
0
 62
     0
 10
1.21681
 20
87.6861
 30
0.0
 11
1.41387
 21
87.8403
 31
0.0
  0
LINE
  8
0
 62
     0
 10
1.41387
 20
87.8403
 30
0.0
 11
1.62333
 21
87.981
 31
0.0
  0
LINE
  8
0
 62
     0
 10
1.62333
 20
87.981
 30
0.0
 11
1.84244
 21
88.1034
 31
0.0
  0
LINE
  8
0
 62
     0
 10
1.84244
 20
88.1034
 30
0.0
 11
2.06981
 21
88.2082
 31
0.0
  0
LINE
  8
0
 62
     0
 10
2.06981
 20
88.2082
 30
0.0
 11
2.30684
 21
88.2964
 31
0.0
  0
LINE
  8
0
 62
     0
 10
2.30684
 20
88.2964
 30
0.0
 11
2.54799
 21
88.3638
 31
0.0
  0
LINE
  8
0
 62
     0
 10
2.54799
 20
88.3638
 30
0.0
 11
2.79466
 21
88.4121
 31
0.0
  0
LINE
  8
0
 62
     0
 10
2.79466
 20
88.4121
 30
0.0
 11
3.04409
 21
88.4424
 31
0.0
  0
LINE
  8
0
 62
     0
 10
3.04409
 20
88.4424
 30
0.0
 11
3.29489
 21
88.452
 31
0.0
  0
LINE
  8
0
 62
     0
 10
3.29489
 20
88.452
 30
0.0
 11
237.647
 21
88.452
 31
0.0
  0
LINE
  8
0
 62
     0
 10
218.32
 20
22.6274
 30
0.0
 11
232.17
 21
22.6274
 31
0.0
  0
LINE
  8
0
 62
     0
 10
232.17
 20
22.6274
 30
0.0
 11
232.17
 21
8.77672
 31
0.0
  0
LINE
  8
0
 62
     0
 10
232.17
 20
8.77672
 30
0.0
 11
218.32
 21
8.77672
 31
0.0
  0
LINE
  8
0
 62
     0
 10
218.32
 20
8.77672
 30
0.0
 11
218.32
 21
22.6274
 31
0.0
  0
LINE
  8
0
 62
     0
 10
199.27
 20
22.6274
 30
0.0
 11
213.12
 21
22.6274
 31
0.0
  0
LINE
  8
0
 62
     0
 10
213.12
 20
22.6274
 30
0.0
 11
213.12
 21
8.77672
 31
0.0
  0
LINE
  8
0
 62
     0
 10
213.12
 20
8.77672
 30
0.0
 11
199.27
 21
8.77672
 31
0.0
  0
LINE
  8
0
 62
     0
 10
199.27
 20
8.77672
 30
0.0
 11
199.27
 21
22.6274
 31
0.0
  0
LINE
  8
0
 62
     0
 10
180.22
 20
22.6274
 30
0.0
 11
194.07
 21
22.6274
 31
0.0
  0
LINE
  8
0
 62
     0
 10
194.07
 20
22.6274
 30
0.0
 11
194.07
 21
8.77672
 31
0.0
  0
LINE
  8
0
 62
     0
 10
194.07
 20
8.77672
 30
0.0
 11
180.22
 21
8.77672
 31
0.0
  0
LINE
  8
0
 62
     0
 10
180.22
 20
8.77672
 30
0.0
 11
180.22
 21
22.6274
 31
0.0
  0
LINE
  8
0
 62
     0
 10
161.17
 20
22.6274
 30
0.0
 11
175.02
 21
22.6274
 31
0.0
  0
LINE
  8
0
 62
     0
 10
175.02
 20
22.6274
 30
0.0
 11
175.02
 21
8.77672
 31
0.0
  0
LINE
  8
0
 62
     0
 10
175.02
 20
8.77672
 30
0.0
 11
161.17
 21
8.77672
 31
0.0
  0
LINE
  8
0
 62
     0
 10
161.17
 20
8.77672
 30
0.0
 11
161.17
 21
22.6274
 31
0.0
  0
LINE
  8
0
 62
     0
 10
142.12
 20
22.6274
 30
0.0
 11
155.97
 21
22.6274
 31
0.0
  0
LINE
  8
0
 62
     0
 10
155.97
 20
22.6274
 30
0.0
 11
155.97
 21
8.77672
 31
0.0
  0
LINE
  8
0
 62
     0
 10
155.97
 20
8.77672
 30
0.0
 11
142.12
 21
8.77672
 31
0.0
  0
LINE
  8
0
 62
     0
 10
142.12
 20
8.77672
 30
0.0
 11
142.12
 21
22.6274
 31
0.0
  0
LINE
  8
0
 62
     0
 10
123.07
 20
22.6274
 30
0.0
 11
136.92
 21
22.6274
 31
0.0
  0
LINE
  8
0
 62
     0
 10
136.92
 20
22.6274
 30
0.0
 11
136.92
 21
8.77672
 31
0.0
  0
LINE
  8
0
 62
     0
 10
136.92
 20
8.77672
 30
0.0
 11
123.07
 21
8.77672
 31
0.0
  0
LINE
  8
0
 62
     0
 10
123.07
 20
8.77672
 30
0.0
 11
123.07
 21
22.6274
 31
0.0
  0
LINE
  8
0
 62
     0
 10
104.02
 20
22.6274
 30
0.0
 11
117.869
 21
22.6274
 31
0.0
  0
LINE
  8
0
 62
     0
 10
117.869
 20
22.6274
 30
0.0
 11
117.869
 21
8.77672
 31
0.0
  0
LINE
  8
0
 62
     0
 10
117.869
 20
8.77672
 30
0.0
 11
104.02
 21
8.77672
 31
0.0
  0
LINE
  8
0
 62
     0
 10
104.02
 20
8.77672
 30
0.0
 11
104.02
 21
22.6274
 31
0.0
  0
LINE
  8
0
 62
     0
 10
84.9697
 20
22.6274
 30
0.0
 11
98.8205
 21
22.6274
 31
0.0
  0
LINE
  8
0
 62
     0
 10
98.8205
 20
22.6274
 30
0.0
 11
98.8205
 21
8.77672
 31
0.0
  0
LINE
  8
0
 62
     0
 10
98.8205
 20
8.77672
 30
0.0
 11
84.9697
 21
8.77672
 31
0.0
  0
LINE
  8
0
 62
     0
 10
84.9697
 20
8.77672
 30
0.0
 11
84.9697
 21
22.6274
 31
0.0
  0
LINE
  8
0
 62
     0
 10
65.9197
 20
22.6274
 30
0.0
 11
79.7705
 21
22.6274
 31
0.0
  0
LINE
  8
0
 62
     0
 10
79.7705
 20
22.6274
 30
0.0
 11
79.7705
 21
8.77672
 31
0.0
  0
LINE
  8
0
 62
     0
 10
79.7705
 20
8.77672
 30
0.0
 11
65.9197
 21
8.77672
 31
0.0
  0
LINE
  8
0
 62
     0
 10
65.9197
 20
8.77672
 30
0.0
 11
65.9197
 21
22.6274
 31
0.0
  0
LINE
  8
0
 62
     0
 10
46.8697
 20
22.6274
 30
0.0
 11
60.7205
 21
22.6274
 31
0.0
  0
LINE
  8
0
 62
     0
 10
60.7205
 20
22.6274
 30
0.0
 11
60.7205
 21
8.77672
 31
0.0
  0
LINE
  8
0
 62
     0
 10
60.7205
 20
8.77672
 30
0.0
 11
46.8697
 21
8.77672
 31
0.0
  0
LINE
  8
0
 62
     0
 10
46.8697
 20
8.77672
 30
0.0
 11
46.8697
 21
22.6274
 31
0.0
  0
LINE
  8
0
 62
     0
 10
27.8198
 20
22.6274
 30
0.0
 11
41.6705
 21
22.6274
 31
0.0
  0
LINE
  8
0
 62
     0
 10
41.6705
 20
22.6274
 30
0.0
 11
41.6705
 21
8.77672
 31
0.0
  0
LINE
  8
0
 62
     0
 10
41.6705
 20
8.77672
 30
0.0
 11
27.8198
 21
8.77672
 31
0.0
  0
LINE
  8
0
 62
     0
 10
27.8198
 20
8.77672
 30
0.0
 11
27.8198
 21
22.6274
 31
0.0
  0
LINE
  8
0
 62
     0
 10
8.76984
 20
22.6274
 30
0.0
 11
22.6205
 21
22.6274
 31
0.0
  0
LINE
  8
0
 62
     0
 10
22.6205
 20
22.6274
 30
0.0
 11
22.6205
 21
8.77672
 31
0.0
  0
LINE
  8
0
 62
     0
 10
22.6205
 20
8.77672
 30
0.0
 11
8.76984
 21
8.77672
 31
0.0
  0
LINE
  8
0
 62
     0
 10
8.76984
 20
8.77672
 30
0.0
 11
8.76984
 21
22.6274
 31
0.0
  0
LINE
  8
0
 62
     0
 10
218.32
 20
41.6775
 30
0.0
 11
232.17
 21
41.6775
 31
0.0
  0
LINE
  8
0
 62
     0
 10
232.17
 20
41.6775
 30
0.0
 11
232.17
 21
27.8267
 31
0.0
  0
LINE
  8
0
 62
     0
 10
232.17
 20
27.8267
 30
0.0
 11
218.32
 21
27.8267
 31
0.0
  0
LINE
  8
0
 62
     0
 10
218.32
 20
27.8267
 30
0.0
 11
218.32
 21
41.6775
 31
0.0
  0
LINE
  8
0
 62
     0
 10
199.27
 20
41.6775
 30
0.0
 11
213.12
 21
41.6775
 31
0.0
  0
LINE
  8
0
 62
     0
 10
213.12
 20
41.6775
 30
0.0
 11
213.12
 21
27.8267
 31
0.0
  0
LINE
  8
0
 62
     0
 10
213.12
 20
27.8267
 30
0.0
 11
199.27
 21
27.8267
 31
0.0
  0
LINE
  8
0
 62
     0
 10
199.27
 20
27.8267
 30
0.0
 11
199.27
 21
41.6775
 31
0.0
  0
LINE
  8
0
 62
     0
 10
180.22
 20
41.6775
 30
0.0
 11
194.07
 21
41.6775
 31
0.0
  0
LINE
  8
0
 62
     0
 10
194.07
 20
41.6775
 30
0.0
 11
194.07
 21
27.8267
 31
0.0
  0
LINE
  8
0
 62
     0
 10
194.07
 20
27.8267
 30
0.0
 11
180.22
 21
27.8267
 31
0.0
  0
LINE
  8
0
 62
     0
 10
180.22
 20
27.8267
 30
0.0
 11
180.22
 21
41.6775
 31
0.0
  0
LINE
  8
0
 62
     0
 10
161.17
 20
41.6775
 30
0.0
 11
175.02
 21
41.6775
 31
0.0
  0
LINE
  8
0
 62
     0
 10
175.02
 20
41.6775
 30
0.0
 11
175.02
 21
27.8267
 31
0.0
  0
LINE
  8
0
 62
     0
 10
175.02
 20
27.8267
 30
0.0
 11
161.17
 21
27.8267
 31
0.0
  0
LINE
  8
0
 62
     0
 10
161.17
 20
27.8267
 30
0.0
 11
161.17
 21
41.6775
 31
0.0
  0
LINE
  8
0
 62
     0
 10
142.12
 20
41.6775
 30
0.0
 11
155.97
 21
41.6775
 31
0.0
  0
LINE
  8
0
 62
     0
 10
155.97
 20
41.6775
 30
0.0
 11
155.97
 21
27.8267
 31
0.0
  0
LINE
  8
0
 62
     0
 10
155.97
 20
27.8267
 30
0.0
 11
142.12
 21
27.8267
 31
0.0
  0
LINE
  8
0
 62
     0
 10
142.12
 20
27.8267
 30
0.0
 11
142.12
 21
41.6775
 31
0.0
  0
LINE
  8
0
 62
     0
 10
123.07
 20
41.6775
 30
0.0
 11
136.92
 21
41.6775
 31
0.0
  0
LINE
  8
0
 62
     0
 10
136.92
 20
41.6775
 30
0.0
 11
136.92
 21
27.8267
 31
0.0
  0
LINE
  8
0
 62
     0
 10
136.92
 20
27.8267
 30
0.0
 11
123.07
 21
27.8267
 31
0.0
  0
LINE
  8
0
 62
     0
 10
123.07
 20
27.8267
 30
0.0
 11
123.07
 21
41.6775
 31
0.0
  0
LINE
  8
0
 62
     0
 10
104.02
 20
41.6775
 30
0.0
 11
117.869
 21
41.6775
 31
0.0
  0
LINE
  8
0
 62
     0
 10
117.869
 20
41.6775
 30
0.0
 11
117.869
 21
27.8267
 31
0.0
  0
LINE
  8
0
 62
     0
 10
117.869
 20
27.8267
 30
0.0
 11
104.02
 21
27.8267
 31
0.0
  0
LINE
  8
0
 62
     0
 10
104.02
 20
27.8267
 30
0.0
 11
104.02
 21
41.6775
 31
0.0
  0
LINE
  8
0
 62
     0
 10
84.9697
 20
41.6775
 30
0.0
 11
98.8205
 21
41.6775
 31
0.0
  0
LINE
  8
0
 62
     0
 10
98.8205
 20
41.6775
 30
0.0
 11
98.8205
 21
27.8267
 31
0.0
  0
LINE
  8
0
 62
     0
 10
98.8205
 20
27.8267
 30
0.0
 11
84.9697
 21
27.8267
 31
0.0
  0
LINE
  8
0
 62
     0
 10
84.9697
 20
27.8267
 30
0.0
 11
84.9697
 21
41.6775
 31
0.0
  0
LINE
  8
0
 62
     0
 10
65.9197
 20
41.6775
 30
0.0
 11
79.7705
 21
41.6775
 31
0.0
  0
LINE
  8
0
 62
     0
 10
79.7705
 20
41.6775
 30
0.0
 11
79.7705
 21
27.8267
 31
0.0
  0
LINE
  8
0
 62
     0
 10
79.7705
 20
27.8267
 30
0.0
 11
65.9197
 21
27.8267
 31
0.0
  0
LINE
  8
0
 62
     0
 10
65.9197
 20
27.8267
 30
0.0
 11
65.9197
 21
41.6775
 31
0.0
  0
LINE
  8
0
 62
     0
 10
46.8697
 20
41.6775
 30
0.0
 11
60.7205
 21
41.6775
 31
0.0
  0
LINE
  8
0
 62
     0
 10
60.7205
 20
41.6775
 30
0.0
 11
60.7205
 21
27.8267
 31
0.0
  0
LINE
  8
0
 62
     0
 10
60.7205
 20
27.8267
 30
0.0
 11
46.8697
 21
27.8267
 31
0.0
  0
LINE
  8
0
 62
     0
 10
46.8697
 20
27.8267
 30
0.0
 11
46.8697
 21
41.6775
 31
0.0
  0
LINE
  8
0
 62
     0
 10
27.8198
 20
41.6775
 30
0.0
 11
41.6705
 21
41.6775
 31
0.0
  0
LINE
  8
0
 62
     0
 10
41.6705
 20
41.6775
 30
0.0
 11
41.6705
 21
27.8267
 31
0.0
  0
LINE
  8
0
 62
     0
 10
41.6705
 20
27.8267
 30
0.0
 11
27.8198
 21
27.8267
 31
0.0
  0
LINE
  8
0
 62
     0
 10
27.8198
 20
27.8267
 30
0.0
 11
27.8198
 21
41.6775
 31
0.0
  0
LINE
  8
0
 62
     0
 10
8.76984
 20
41.6775
 30
0.0
 11
22.6205
 21
41.6775
 31
0.0
  0
LINE
  8
0
 62
     0
 10
22.6205
 20
41.6775
 30
0.0
 11
22.6205
 21
27.8267
 31
0.0
  0
LINE
  8
0
 62
     0
 10
22.6205
 20
27.8267
 30
0.0
 11
8.76984
 21
27.8267
 31
0.0
  0
LINE
  8
0
 62
     0
 10
8.76984
 20
27.8267
 30
0.0
 11
8.76984
 21
41.6775
 31
0.0
  0
LINE
  8
0
 62
     0
 10
218.32
 20
60.7275
 30
0.0
 11
232.17
 21
60.7275
 31
0.0
  0
LINE
  8
0
 62
     0
 10
232.17
 20
60.7275
 30
0.0
 11
232.17
 21
46.8768
 31
0.0
  0
LINE
  8
0
 62
     0
 10
232.17
 20
46.8768
 30
0.0
 11
218.32
 21
46.8768
 31
0.0
  0
LINE
  8
0
 62
     0
 10
218.32
 20
46.8768
 30
0.0
 11
218.32
 21
60.7275
 31
0.0
  0
LINE
  8
0
 62
     0
 10
199.27
 20
60.7275
 30
0.0
 11
213.12
 21
60.7275
 31
0.0
  0
LINE
  8
0
 62
     0
 10
213.12
 20
60.7275
 30
0.0
 11
213.12
 21
46.8768
 31
0.0
  0
LINE
  8
0
 62
     0
 10
213.12
 20
46.8768
 30
0.0
 11
199.27
 21
46.8768
 31
0.0
  0
LINE
  8
0
 62
     0
 10
199.27
 20
46.8768
 30
0.0
 11
199.27
 21
60.7275
 31
0.0
  0
LINE
  8
0
 62
     0
 10
180.22
 20
60.7275
 30
0.0
 11
194.07
 21
60.7275
 31
0.0
  0
LINE
  8
0
 62
     0
 10
194.07
 20
60.7275
 30
0.0
 11
194.07
 21
46.8768
 31
0.0
  0
LINE
  8
0
 62
     0
 10
194.07
 20
46.8768
 30
0.0
 11
180.22
 21
46.8768
 31
0.0
  0
LINE
  8
0
 62
     0
 10
180.22
 20
46.8768
 30
0.0
 11
180.22
 21
60.7275
 31
0.0
  0
LINE
  8
0
 62
     0
 10
161.17
 20
60.7275
 30
0.0
 11
175.02
 21
60.7275
 31
0.0
  0
LINE
  8
0
 62
     0
 10
175.02
 20
60.7275
 30
0.0
 11
175.02
 21
46.8768
 31
0.0
  0
LINE
  8
0
 62
     0
 10
175.02
 20
46.8768
 30
0.0
 11
161.17
 21
46.8768
 31
0.0
  0
LINE
  8
0
 62
     0
 10
161.17
 20
46.8768
 30
0.0
 11
161.17
 21
60.7275
 31
0.0
  0
LINE
  8
0
 62
     0
 10
142.12
 20
60.7275
 30
0.0
 11
155.97
 21
60.7275
 31
0.0
  0
LINE
  8
0
 62
     0
 10
155.97
 20
60.7275
 30
0.0
 11
155.97
 21
46.8768
 31
0.0
  0
LINE
  8
0
 62
     0
 10
155.97
 20
46.8768
 30
0.0
 11
142.12
 21
46.8768
 31
0.0
  0
LINE
  8
0
 62
     0
 10
142.12
 20
46.8768
 30
0.0
 11
142.12
 21
60.7275
 31
0.0
  0
LINE
  8
0
 62
     0
 10
123.07
 20
60.7275
 30
0.0
 11
136.92
 21
60.7275
 31
0.0
  0
LINE
  8
0
 62
     0
 10
136.92
 20
60.7275
 30
0.0
 11
136.92
 21
46.8768
 31
0.0
  0
LINE
  8
0
 62
     0
 10
136.92
 20
46.8768
 30
0.0
 11
123.07
 21
46.8768
 31
0.0
  0
LINE
  8
0
 62
     0
 10
123.07
 20
46.8768
 30
0.0
 11
123.07
 21
60.7275
 31
0.0
  0
LINE
  8
0
 62
     0
 10
104.02
 20
60.7275
 30
0.0
 11
117.869
 21
60.7275
 31
0.0
  0
LINE
  8
0
 62
     0
 10
117.869
 20
60.7275
 30
0.0
 11
117.869
 21
46.8768
 31
0.0
  0
LINE
  8
0
 62
     0
 10
117.869
 20
46.8768
 30
0.0
 11
104.02
 21
46.8768
 31
0.0
  0
LINE
  8
0
 62
     0
 10
104.02
 20
46.8768
 30
0.0
 11
104.02
 21
60.7275
 31
0.0
  0
LINE
  8
0
 62
     0
 10
84.9697
 20
60.7275
 30
0.0
 11
98.8205
 21
60.7275
 31
0.0
  0
LINE
  8
0
 62
     0
 10
98.8205
 20
60.7275
 30
0.0
 11
98.8205
 21
46.8768
 31
0.0
  0
LINE
  8
0
 62
     0
 10
98.8205
 20
46.8768
 30
0.0
 11
84.9697
 21
46.8768
 31
0.0
  0
LINE
  8
0
 62
     0
 10
84.9697
 20
46.8768
 30
0.0
 11
84.9697
 21
60.7275
 31
0.0
  0
LINE
  8
0
 62
     0
 10
65.9197
 20
60.7275
 30
0.0
 11
79.7705
 21
60.7275
 31
0.0
  0
LINE
  8
0
 62
     0
 10
79.7705
 20
60.7275
 30
0.0
 11
79.7705
 21
46.8768
 31
0.0
  0
LINE
  8
0
 62
     0
 10
79.7705
 20
46.8768
 30
0.0
 11
65.9197
 21
46.8768
 31
0.0
  0
LINE
  8
0
 62
     0
 10
65.9197
 20
46.8768
 30
0.0
 11
65.9197
 21
60.7275
 31
0.0
  0
LINE
  8
0
 62
     0
 10
46.8697
 20
60.7275
 30
0.0
 11
60.7205
 21
60.7275
 31
0.0
  0
LINE
  8
0
 62
     0
 10
60.7205
 20
60.7275
 30
0.0
 11
60.7205
 21
46.8768
 31
0.0
  0
LINE
  8
0
 62
     0
 10
60.7205
 20
46.8768
 30
0.0
 11
46.8697
 21
46.8768
 31
0.0
  0
LINE
  8
0
 62
     0
 10
46.8697
 20
46.8768
 30
0.0
 11
46.8697
 21
60.7275
 31
0.0
  0
LINE
  8
0
 62
     0
 10
27.8198
 20
60.7275
 30
0.0
 11
41.6705
 21
60.7275
 31
0.0
  0
LINE
  8
0
 62
     0
 10
41.6705
 20
60.7275
 30
0.0
 11
41.6705
 21
46.8768
 31
0.0
  0
LINE
  8
0
 62
     0
 10
41.6705
 20
46.8768
 30
0.0
 11
27.8198
 21
46.8768
 31
0.0
  0
LINE
  8
0
 62
     0
 10
27.8198
 20
46.8768
 30
0.0
 11
27.8198
 21
60.7275
 31
0.0
  0
LINE
  8
0
 62
     0
 10
8.76984
 20
60.7275
 30
0.0
 11
22.6205
 21
60.7275
 31
0.0
  0
LINE
  8
0
 62
     0
 10
22.6205
 20
60.7275
 30
0.0
 11
22.6205
 21
46.8768
 31
0.0
  0
LINE
  8
0
 62
     0
 10
22.6205
 20
46.8768
 30
0.0
 11
8.76984
 21
46.8768
 31
0.0
  0
LINE
  8
0
 62
     0
 10
8.76984
 20
46.8768
 30
0.0
 11
8.76984
 21
60.7275
 31
0.0
  0
LINE
  8
0
 62
     0
 10
218.32
 20
79.7775
 30
0.0
 11
232.17
 21
79.7775
 31
0.0
  0
LINE
  8
0
 62
     0
 10
232.17
 20
79.7775
 30
0.0
 11
232.17
 21
65.9268
 31
0.0
  0
LINE
  8
0
 62
     0
 10
232.17
 20
65.9268
 30
0.0
 11
218.32
 21
65.9268
 31
0.0
  0
LINE
  8
0
 62
     0
 10
218.32
 20
65.9268
 30
0.0
 11
218.32
 21
79.7775
 31
0.0
  0
LINE
  8
0
 62
     0
 10
199.27
 20
79.7775
 30
0.0
 11
213.12
 21
79.7775
 31
0.0
  0
LINE
  8
0
 62
     0
 10
213.12
 20
79.7775
 30
0.0
 11
213.12
 21
65.9268
 31
0.0
  0
LINE
  8
0
 62
     0
 10
213.12
 20
65.9268
 30
0.0
 11
199.27
 21
65.9268
 31
0.0
  0
LINE
  8
0
 62
     0
 10
199.27
 20
65.9268
 30
0.0
 11
199.27
 21
79.7775
 31
0.0
  0
LINE
  8
0
 62
     0
 10
180.22
 20
79.7775
 30
0.0
 11
194.07
 21
79.7775
 31
0.0
  0
LINE
  8
0
 62
     0
 10
194.07
 20
79.7775
 30
0.0
 11
194.07
 21
65.9268
 31
0.0
  0
LINE
  8
0
 62
     0
 10
194.07
 20
65.9268
 30
0.0
 11
180.22
 21
65.9268
 31
0.0
  0
LINE
  8
0
 62
     0
 10
180.22
 20
65.9268
 30
0.0
 11
180.22
 21
79.7775
 31
0.0
  0
LINE
  8
0
 62
     0
 10
161.17
 20
79.7775
 30
0.0
 11
175.02
 21
79.7775
 31
0.0
  0
LINE
  8
0
 62
     0
 10
175.02
 20
79.7775
 30
0.0
 11
175.02
 21
65.9268
 31
0.0
  0
LINE
  8
0
 62
     0
 10
175.02
 20
65.9268
 30
0.0
 11
161.17
 21
65.9268
 31
0.0
  0
LINE
  8
0
 62
     0
 10
161.17
 20
65.9268
 30
0.0
 11
161.17
 21
79.7775
 31
0.0
  0
LINE
  8
0
 62
     0
 10
142.12
 20
79.7775
 30
0.0
 11
155.97
 21
79.7775
 31
0.0
  0
LINE
  8
0
 62
     0
 10
155.97
 20
79.7775
 30
0.0
 11
155.97
 21
65.9268
 31
0.0
  0
LINE
  8
0
 62
     0
 10
155.97
 20
65.9268
 30
0.0
 11
142.12
 21
65.9268
 31
0.0
  0
LINE
  8
0
 62
     0
 10
142.12
 20
65.9268
 30
0.0
 11
142.12
 21
79.7775
 31
0.0
  0
LINE
  8
0
 62
     0
 10
123.07
 20
79.7775
 30
0.0
 11
136.92
 21
79.7775
 31
0.0
  0
LINE
  8
0
 62
     0
 10
136.92
 20
79.7775
 30
0.0
 11
136.92
 21
65.9268
 31
0.0
  0
LINE
  8
0
 62
     0
 10
136.92
 20
65.9268
 30
0.0
 11
123.07
 21
65.9268
 31
0.0
  0
LINE
  8
0
 62
     0
 10
123.07
 20
65.9268
 30
0.0
 11
123.07
 21
79.7775
 31
0.0
  0
LINE
  8
0
 62
     0
 10
104.02
 20
79.7775
 30
0.0
 11
117.869
 21
79.7775
 31
0.0
  0
LINE
  8
0
 62
     0
 10
117.869
 20
79.7775
 30
0.0
 11
117.869
 21
65.9268
 31
0.0
  0
LINE
  8
0
 62
     0
 10
117.869
 20
65.9268
 30
0.0
 11
104.02
 21
65.9268
 31
0.0
  0
LINE
  8
0
 62
     0
 10
104.02
 20
65.9268
 30
0.0
 11
104.02
 21
79.7775
 31
0.0
  0
LINE
  8
0
 62
     0
 10
84.9697
 20
79.7775
 30
0.0
 11
98.8205
 21
79.7775
 31
0.0
  0
LINE
  8
0
 62
     0
 10
98.8205
 20
79.7775
 30
0.0
 11
98.8205
 21
65.9268
 31
0.0
  0
LINE
  8
0
 62
     0
 10
98.8205
 20
65.9268
 30
0.0
 11
84.9697
 21
65.9268
 31
0.0
  0
LINE
  8
0
 62
     0
 10
84.9697
 20
65.9268
 30
0.0
 11
84.9697
 21
79.7775
 31
0.0
  0
LINE
  8
0
 62
     0
 10
65.9197
 20
79.7775
 30
0.0
 11
79.7705
 21
79.7775
 31
0.0
  0
LINE
  8
0
 62
     0
 10
79.7705
 20
79.7775
 30
0.0
 11
79.7705
 21
65.9268
 31
0.0
  0
LINE
  8
0
 62
     0
 10
79.7705
 20
65.9268
 30
0.0
 11
65.9197
 21
65.9268
 31
0.0
  0
LINE
  8
0
 62
     0
 10
65.9197
 20
65.9268
 30
0.0
 11
65.9197
 21
79.7775
 31
0.0
  0
LINE
  8
0
 62
     0
 10
46.8697
 20
79.7775
 30
0.0
 11
60.7205
 21
79.7775
 31
0.0
  0
LINE
  8
0
 62
     0
 10
60.7205
 20
79.7775
 30
0.0
 11
60.7205
 21
65.9268
 31
0.0
  0
LINE
  8
0
 62
     0
 10
60.7205
 20
65.9268
 30
0.0
 11
46.8697
 21
65.9268
 31
0.0
  0
LINE
  8
0
 62
     0
 10
46.8697
 20
65.9268
 30
0.0
 11
46.8697
 21
79.7775
 31
0.0
  0
LINE
  8
0
 62
     0
 10
27.8198
 20
79.7775
 30
0.0
 11
41.6705
 21
79.7775
 31
0.0
  0
LINE
  8
0
 62
     0
 10
41.6705
 20
79.7775
 30
0.0
 11
41.6705
 21
65.9268
 31
0.0
  0
LINE
  8
0
 62
     0
 10
41.6705
 20
65.9268
 30
0.0
 11
27.8198
 21
65.9268
 31
0.0
  0
LINE
  8
0
 62
     0
 10
27.8198
 20
65.9268
 30
0.0
 11
27.8198
 21
79.7775
 31
0.0
  0
LINE
  8
0
 62
     0
 10
8.76984
 20
79.7775
 30
0.0
 11
22.6205
 21
79.7775
 31
0.0
  0
LINE
  8
0
 62
     0
 10
22.6205
 20
79.7775
 30
0.0
 11
22.6205
 21
65.9268
 31
0.0
  0
LINE
  8
0
 62
     0
 10
22.6205
 20
65.9268
 30
0.0
 11
8.76984
 21
65.9268
 31
0.0
  0
LINE
  8
0
 62
     0
 10
8.76984
 20
65.9268
 30
0.0
 11
8.76984
 21
79.7775
 31
0.0
  0
ENDSEC
  0
EOF
