  0
SECTION
  2
HEADER
  9
$ACADVER
  1
AC1009
  9
$EXTMIN
 10
0.0
 20
0.0
 30
0.0
  9
$EXTMAX
 10
1000.0
 20
1000.0
 30
0.0
  9
$FILLMODE
 70
 0
  9
$SPLFRAME
 70
 1
  0
ENDSEC
  0
SECTION
  2
TABLES
  0
TABLE
  2
LAYER
 70
1
  0
LAYER
  2
0
 70
     0
 62
     7
  6
CONTINUOUS
  0
ENDTAB
  0
ENDSEC
  0
SECTION
  2
ENTITIES
  0
LINE
  8
0
 62
     0
 10
237.647
 20
88.452
 30
0.0
 11
237.897
 21
88.4424
 31
0.0
  0
LINE
  8
0
 62
     0
 10
237.897
 20
88.4424
 30
0.0
 11
238.147
 21
88.4121
 31
0.0
  0
LINE
  8
0
 62
     0
 10
238.147
 20
88.4121
 30
0.0
 11
238.394
 21
88.3638
 31
0.0
  0
LINE
  8
0
 62
     0
 10
238.394
 20
88.3638
 30
0.0
 11
238.635
 21
88.2964
 31
0.0
  0
LINE
  8
0
 62
     0
 10
238.635
 20
88.2964
 30
0.0
 11
238.87
 21
88.2082
 31
0.0
  0
LINE
  8
0
 62
     0
 10
238.87
 20
88.2082
 30
0.0
 11
239.098
 21
88.1034
 31
0.0
  0
LINE
  8
0
 62
     0
 10
239.098
 20
88.1034
 30
0.0
 11
239.317
 21
87.981
 31
0.0
  0
LINE
  8
0
 62
     0
 10
239.317
 20
87.981
 30
0.0
 11
239.527
 21
87.8403
 31
0.0
  0
LINE
  8
0
 62
     0
 10
239.527
 20
87.8403
 30
0.0
 11
239.725
 21
87.6861
 31
0.0
  0
LINE
  8
0
 62
     0
 10
239.725
 20
87.6861
 30
0.0
 11
239.908
 21
87.515
 31
0.0
  0
LINE
  8
0
 62
     0
 10
239.908
 20
87.515
 30
0.0
 11
240.079
 21
87.3305
 31
0.0
  0
LINE
  8
0
 62
     0
 10
240.079
 20
87.3305
 30
0.0
 11
240.235
 21
87.1333
 31
0.0
  0
LINE
  8
0
 62
     0
 10
240.235
 20
87.1333
 30
0.0
 11
240.374
 21
86.9237
 31
0.0
  0
LINE
  8
0
 62
     0
 10
240.374
 20
86.9237
 30
0.0
 11
240.498
 21
86.7047
 31
0.0
  0
LINE
  8
0
 62
     0
 10
240.498
 20
86.7047
 30
0.0
 11
240.603
 21
86.4775
 31
0.0
  0
LINE
  8
0
 62
     0
 10
240.603
 20
86.4775
 30
0.0
 11
240.69
 21
86.2404
 31
0.0
  0
LINE
  8
0
 62
     0
 10
240.69
 20
86.2404
 30
0.0
 11
240.757
 21
85.9991
 31
0.0
  0
LINE
  8
0
 62
     0
 10
240.757
 20
85.9991
 30
0.0
 11
240.807
 21
85.7525
 31
0.0
  0
LINE
  8
0
 62
     0
 10
240.807
 20
85.7525
 30
0.0
 11
240.837
 21
85.5031
 31
0.0
  0
LINE
  8
0
 62
     0
 10
240.837
 20
85.5031
 30
0.0
 11
240.847
 21
85.2523
 31
0.0
  0
LINE
  8
0
 62
     0
 10
240.847
 20
85.2523
 30
0.0
 11
240.847
 21
3.3004
 31
0.0
  0
LINE
  8
0
 62
     0
 10
240.847
 20
3.3004
 30
0.0
 11
240.837
 21
3.0496
 31
0.0
  0
LINE
  8
0
 62
     0
 10
240.837
 20
3.0496
 30
0.0
 11
240.807
 21
2.80017
 31
0.0
  0
LINE
  8
0
 62
     0
 10
240.807
 20
2.80017
 30
0.0
 11
240.757
 21
2.5535
 31
0.0
  0
LINE
  8
0
 62
     0
 10
240.757
 20
2.5535
 30
0.0
 11
240.69
 21
2.31235
 31
0.0
  0
LINE
  8
0
 62
     0
 10
240.69
 20
2.31235
 30
0.0
 11
240.603
 21
2.0767
 31
0.0
  0
LINE
  8
0
 62
     0
 10
240.603
 20
2.0767
 30
0.0
 11
240.498
 21
1.84933
 31
0.0
  0
LINE
  8
0
 62
     0
 10
240.498
 20
1.84933
 30
0.0
 11
240.374
 21
1.63022
 31
0.0
  0
LINE
  8
0
 62
     0
 10
240.374
 20
1.63022
 30
0.0
 11
240.235
 21
1.42076
 31
0.0
  0
LINE
  8
0
 62
     0
 10
240.235
 20
1.42076
 30
0.0
 11
240.079
 21
1.22232
 31
0.0
  0
LINE
  8
0
 62
     0
 10
240.079
 20
1.22232
 30
0.0
 11
239.908
 21
1.03904
 31
0.0
  0
LINE
  8
0
 62
     0
 10
239.908
 20
1.03904
 30
0.0
 11
239.725
 21
0.868165
 31
0.0
  0
LINE
  8
0
 62
     0
 10
239.725
 20
0.868165
 30
0.0
 11
239.527
 21
0.712445
 31
0.0
  0
LINE
  8
0
 62
     0
 10
239.527
 20
0.712445
 30
0.0
 11
239.317
 21
0.573264
 31
0.0
  0
LINE
  8
0
 62
     0
 10
239.317
 20
0.573264
 30
0.0
 11
239.098
 21
0.449241
 31
0.0
  0
LINE
  8
0
 62
     0
 10
239.098
 20
0.449241
 30
0.0
 11
238.87
 21
0.34451
 31
0.0
  0
LINE
  8
0
 62
     0
 10
238.87
 20
0.34451
 30
0.0
 11
238.635
 21
0.257693
 31
0.0
  0
LINE
  8
0
 62
     0
 10
238.635
 20
0.257693
 30
0.0
 11
238.394
 21
0.190169
 31
0.0
  0
LINE
  8
0
 62
     0
 10
238.394
 20
0.190169
 30
0.0
 11
238.147
 21
0.14056
 31
0.0
  0
LINE
  8
0
 62
     0
 10
238.147
 20
0.14056
 30
0.0
 11
237.897
 21
0.110243
 31
0.0
  0
LINE
  8
0
 62
     0
 10
237.897
 20
0.110243
 30
0.0
 11
237.647
 21
0.100597
 31
0.0
  0
LINE
  8
0
 62
     0
 10
237.647
 20
0.100597
 30
0.0
 11
3.29489
 21
0.100597
 31
0.0
  0
LINE
  8
0
 62
     0
 10
3.29489
 20
0.100597
 30
0.0
 11
3.04409
 21
0.110243
 31
0.0
  0
LINE
  8
0
 62
     0
 10
3.04409
 20
0.110243
 30
0.0
 11
2.79466
 21
0.14056
 31
0.0
  0
LINE
  8
0
 62
     0
 10
2.79466
 20
0.14056
 30
0.0
 11
2.54799
 21
0.190169
 31
0.0
  0
LINE
  8
0
 62
     0
 10
2.54799
 20
0.190169
 30
0.0
 11
2.30684
 21
0.257693
 31
0.0
  0
LINE
  8
0
 62
     0
 10
2.30684
 20
0.257693
 30
0.0
 11
2.06981
 21
0.34451
 31
0.0
  0
LINE
  8
0
 62
     0
 10
2.06981
 20
0.34451
 30
0.0
 11
1.84244
 21
0.449241
 31
0.0
  0
LINE
  8
0
 62
     0
 10
1.84244
 20
0.449241
 30
0.0
 11
1.62333
 21
0.573264
 31
0.0
  0
LINE
  8
0
 62
     0
 10
1.62333
 20
0.573264
 30
0.0
 11
1.41387
 21
0.712445
 31
0.0
  0
LINE
  8
0
 62
     0
 10
1.41387
 20
0.712445
 30
0.0
 11
1.21681
 21
0.868165
 31
0.0
  0
LINE
  8
0
 62
     0
 10
1.21681
 20
0.868165
 30
0.0
 11
1.03215
 21
1.03904
 31
0.0
  0
LINE
  8
0
 62
     0
 10
1.03215
 20
1.03904
 30
0.0
 11
0.861275
 21
1.22232
 31
0.0
  0
LINE
  8
0
 62
     0
 10
0.861275
 20
1.22232
 30
0.0
 11
0.706935
 21
1.42076
 31
0.0
  0
LINE
  8
0
 62
     0
 10
0.706935
 20
1.42076
 30
0.0
 11
0.566374
 21
1.63022
 31
0.0
  0
LINE
  8
0
 62
     0
 10
0.566374
 20
1.63022
 30
0.0
 11
0.443727
 21
1.84933
 31
0.0
  0
LINE
  8
0
 62
     0
 10
0.443727
 20
1.84933
 30
0.0
 11
0.338998
 21
2.0767
 31
0.0
  0
LINE
  8
0
 62
     0
 10
0.338998
 20
2.0767
 30
0.0
 11
0.250803
 21
2.31235
 31
0.0
  0
LINE
  8
0
 62
     0
 10
0.250803
 20
2.31235
 30
0.0
 11
0.183279
 21
2.5535
 31
0.0
  0
LINE
  8
0
 62
     0
 10
0.183279
 20
2.5535
 30
0.0
 11
0.135048
 21
2.80017
 31
0.0
  0
LINE
  8
0
 62
     0
 10
0.135048
 20
2.80017
 30
0.0
 11
0.104731
 21
3.0496
 31
0.0
  0
LINE
  8
0
 62
     0
 10
0.104731
 20
3.0496
 30
0.0
 11
0.0950846
 21
3.30178
 31
0.0
  0
LINE
  8
0
 62
     0
 10
0.0950846
 20
3.30178
 30
0.0
 11
0.0950846
 21
85.2523
 31
0.0
  0
LINE
  8
0
 62
     0
 10
0.0950846
 20
85.2523
 30
0.0
 11
0.104731
 21
85.5031
 31
0.0
  0
LINE
  8
0
 62
     0
 10
0.104731
 20
85.5031
 30
0.0
 11
0.135048
 21
85.7525
 31
0.0
  0
LINE
  8
0
 62
     0
 10
0.135048
 20
85.7525
 30
0.0
 11
0.183279
 21
85.9991
 31
0.0
  0
LINE
  8
0
 62
     0
 10
0.183279
 20
85.9991
 30
0.0
 11
0.250803
 21
86.2404
 31
0.0
  0
LINE
  8
0
 62
     0
 10
0.250803
 20
86.2404
 30
0.0
 11
0.338998
 21
86.4775
 31
0.0
  0
LINE
  8
0
 62
     0
 10
0.338998
 20
86.4775
 30
0.0
 11
0.443727
 21
86.7047
 31
0.0
  0
LINE
  8
0
 62
     0
 10
0.443727
 20
86.7047
 30
0.0
 11
0.566374
 21
86.9237
 31
0.0
  0
LINE
  8
0
 62
     0
 10
0.566374
 20
86.9237
 30
0.0
 11
0.706935
 21
87.1333
 31
0.0
  0
LINE
  8
0
 62
     0
 10
0.706935
 20
87.1333
 30
0.0
 11
0.861275
 21
87.3305
 31
0.0
  0
LINE
  8
0
 62
     0
 10
0.861275
 20
87.3305
 30
0.0
 11
1.03215
 21
87.515
 31
0.0
  0
LINE
  8
0
 62
     0
 10
1.03215
 20
87.515
 30
0.0
 11
1.21681
 21
87.6861
 31
0.0
  0
LINE
  8
0
 62
     0
 10
1.21681
 20
87.6861
 30
0.0
 11
1.41387
 21
87.8403
 31
0.0
  0
LINE
  8
0
 62
     0
 10
1.41387
 20
87.8403
 30
0.0
 11
1.62333
 21
87.981
 31
0.0
  0
LINE
  8
0
 62
     0
 10
1.62333
 20
87.981
 30
0.0
 11
1.84244
 21
88.1034
 31
0.0
  0
LINE
  8
0
 62
     0
 10
1.84244
 20
88.1034
 30
0.0
 11
2.06981
 21
88.2082
 31
0.0
  0
LINE
  8
0
 62
     0
 10
2.06981
 20
88.2082
 30
0.0
 11
2.30684
 21
88.2964
 31
0.0
  0
LINE
  8
0
 62
     0
 10
2.30684
 20
88.2964
 30
0.0
 11
2.54799
 21
88.3638
 31
0.0
  0
LINE
  8
0
 62
     0
 10
2.54799
 20
88.3638
 30
0.0
 11
2.79466
 21
88.4121
 31
0.0
  0
LINE
  8
0
 62
     0
 10
2.79466
 20
88.4121
 30
0.0
 11
3.04409
 21
88.4424
 31
0.0
  0
LINE
  8
0
 62
     0
 10
3.04409
 20
88.4424
 30
0.0
 11
3.29489
 21
88.452
 31
0.0
  0
LINE
  8
0
 62
     0
 10
3.29489
 20
88.452
 30
0.0
 11
237.647
 21
88.452
 31
0.0
  0
LINE
  8
0
 62
     0
 10
2.6982
 20
4.62608
 30
0.0
 11
2.27376
 21
4.40972
 31
0.0
  0
LINE
  8
0
 62
     0
 10
2.27376
 20
4.40972
 30
0.0
 11
1.93614
 21
4.07211
 31
0.0
  0
LINE
  8
0
 62
     0
 10
1.93614
 20
4.07211
 30
0.0
 11
1.71979
 21
3.64765
 31
0.0
  0
LINE
  8
0
 62
     0
 10
1.71979
 20
3.64765
 30
0.0
 11
1.644
 21
3.17638
 31
0.0
  0
LINE
  8
0
 62
     0
 10
1.644
 20
3.17638
 30
0.0
 11
1.71979
 21
2.70509
 31
0.0
  0
LINE
  8
0
 62
     0
 10
1.71979
 20
2.70509
 30
0.0
 11
1.93614
 21
2.27928
 31
0.0
  0
LINE
  8
0
 62
     0
 10
1.93614
 20
2.27928
 30
0.0
 11
2.27376
 21
1.94303
 31
0.0
  0
LINE
  8
0
 62
     0
 10
2.27376
 20
1.94303
 30
0.0
 11
2.6982
 21
1.72531
 31
0.0
  0
LINE
  8
0
 62
     0
 10
2.6982
 20
1.72531
 30
0.0
 11
3.16949
 21
1.65227
 31
0.0
  0
LINE
  8
0
 62
     0
 10
3.16949
 20
1.65227
 30
0.0
 11
3.64215
 21
1.72531
 31
0.0
  0
LINE
  8
0
 62
     0
 10
3.64215
 20
1.72531
 30
0.0
 11
4.06658
 21
1.94303
 31
0.0
  0
LINE
  8
0
 62
     0
 10
4.06658
 20
1.94303
 30
0.0
 11
4.40284
 21
2.27928
 31
0.0
  0
LINE
  8
0
 62
     0
 10
4.40284
 20
2.27928
 30
0.0
 11
4.62058
 21
2.70509
 31
0.0
  0
LINE
  8
0
 62
     0
 10
4.62058
 20
2.70509
 30
0.0
 11
4.69498
 21
3.17638
 31
0.0
  0
LINE
  8
0
 62
     0
 10
4.69498
 20
3.17638
 30
0.0
 11
4.62058
 21
3.64765
 31
0.0
  0
LINE
  8
0
 62
     0
 10
4.62058
 20
3.64765
 30
0.0
 11
4.40284
 21
4.07211
 31
0.0
  0
LINE
  8
0
 62
     0
 10
4.40284
 20
4.07211
 30
0.0
 11
4.06658
 21
4.40972
 31
0.0
  0
LINE
  8
0
 62
     0
 10
4.06658
 20
4.40972
 30
0.0
 11
3.64215
 21
4.62608
 31
0.0
  0
LINE
  8
0
 62
     0
 10
3.64215
 20
4.62608
 30
0.0
 11
3.16949
 21
4.70186
 31
0.0
  0
LINE
  8
0
 62
     0
 10
3.16949
 20
4.70186
 30
0.0
 11
2.6982
 21
4.62608
 31
0.0
  0
LINE
  8
0
 62
     0
 10
80.899
 20
4.62608
 30
0.0
 11
80.4732
 21
4.40972
 31
0.0
  0
LINE
  8
0
 62
     0
 10
80.4732
 20
4.40972
 30
0.0
 11
80.137
 21
4.07211
 31
0.0
  0
LINE
  8
0
 62
     0
 10
80.137
 20
4.07211
 30
0.0
 11
79.9193
 21
3.64765
 31
0.0
  0
LINE
  8
0
 62
     0
 10
79.9193
 20
3.64765
 30
0.0
 11
79.8449
 21
3.17638
 31
0.0
  0
LINE
  8
0
 62
     0
 10
79.8449
 20
3.17638
 30
0.0
 11
79.9193
 21
2.70509
 31
0.0
  0
LINE
  8
0
 62
     0
 10
79.9193
 20
2.70509
 30
0.0
 11
80.137
 21
2.27928
 31
0.0
  0
LINE
  8
0
 62
     0
 10
80.137
 20
2.27928
 30
0.0
 11
80.4732
 21
1.94303
 31
0.0
  0
LINE
  8
0
 62
     0
 10
80.4732
 20
1.94303
 30
0.0
 11
80.899
 21
1.72531
 31
0.0
  0
LINE
  8
0
 62
     0
 10
80.899
 20
1.72531
 30
0.0
 11
81.3703
 21
1.65227
 31
0.0
  0
LINE
  8
0
 62
     0
 10
81.3703
 20
1.65227
 30
0.0
 11
81.8416
 21
1.72531
 31
0.0
  0
LINE
  8
0
 62
     0
 10
81.8416
 20
1.72531
 30
0.0
 11
82.266
 21
1.94303
 31
0.0
  0
LINE
  8
0
 62
     0
 10
82.266
 20
1.94303
 30
0.0
 11
82.605
 21
2.27928
 31
0.0
  0
LINE
  8
0
 62
     0
 10
82.605
 20
2.27928
 30
0.0
 11
82.8202
 21
2.70509
 31
0.0
  0
LINE
  8
0
 62
     0
 10
82.8202
 20
2.70509
 30
0.0
 11
82.8957
 21
3.17638
 31
0.0
  0
LINE
  8
0
 62
     0
 10
82.8957
 20
3.17638
 30
0.0
 11
82.8202
 21
3.64765
 31
0.0
  0
LINE
  8
0
 62
     0
 10
82.8202
 20
3.64765
 30
0.0
 11
82.605
 21
4.07211
 31
0.0
  0
LINE
  8
0
 62
     0
 10
82.605
 20
4.07211
 30
0.0
 11
82.266
 21
4.40972
 31
0.0
  0
LINE
  8
0
 62
     0
 10
82.266
 20
4.40972
 30
0.0
 11
81.8416
 21
4.62608
 31
0.0
  0
LINE
  8
0
 62
     0
 10
81.8416
 20
4.62608
 30
0.0
 11
81.3703
 21
4.70186
 31
0.0
  0
LINE
  8
0
 62
     0
 10
81.3703
 20
4.70186
 30
0.0
 11
80.899
 21
4.62608
 31
0.0
  0
LINE
  8
0
 62
     0
 10
159.1
 20
4.62608
 30
0.0
 11
158.674
 21
4.40972
 31
0.0
  0
LINE
  8
0
 62
     0
 10
158.674
 20
4.40972
 30
0.0
 11
158.337
 21
4.07211
 31
0.0
  0
LINE
  8
0
 62
     0
 10
158.337
 20
4.07211
 30
0.0
 11
158.12
 21
3.64765
 31
0.0
  0
LINE
  8
0
 62
     0
 10
158.12
 20
3.64765
 30
0.0
 11
158.046
 21
3.17638
 31
0.0
  0
LINE
  8
0
 62
     0
 10
158.046
 20
3.17638
 30
0.0
 11
158.12
 21
2.70509
 31
0.0
  0
LINE
  8
0
 62
     0
 10
158.12
 20
2.70509
 30
0.0
 11
158.337
 21
2.27928
 31
0.0
  0
LINE
  8
0
 62
     0
 10
158.337
 20
2.27928
 30
0.0
 11
158.674
 21
1.94303
 31
0.0
  0
LINE
  8
0
 62
     0
 10
158.674
 20
1.94303
 30
0.0
 11
159.1
 21
1.72531
 31
0.0
  0
LINE
  8
0
 62
     0
 10
159.1
 20
1.72531
 30
0.0
 11
159.57
 21
1.65227
 31
0.0
  0
LINE
  8
0
 62
     0
 10
159.57
 20
1.65227
 30
0.0
 11
160.041
 21
1.72531
 31
0.0
  0
LINE
  8
0
 62
     0
 10
160.041
 20
1.72531
 30
0.0
 11
160.467
 21
1.94303
 31
0.0
  0
LINE
  8
0
 62
     0
 10
160.467
 20
1.94303
 30
0.0
 11
160.805
 21
2.27928
 31
0.0
  0
LINE
  8
0
 62
     0
 10
160.805
 20
2.27928
 30
0.0
 11
161.021
 21
2.70509
 31
0.0
  0
LINE
  8
0
 62
     0
 10
161.021
 20
2.70509
 30
0.0
 11
161.095
 21
3.17638
 31
0.0
  0
LINE
  8
0
 62
     0
 10
161.095
 20
3.17638
 30
0.0
 11
161.021
 21
3.64765
 31
0.0
  0
LINE
  8
0
 62
     0
 10
161.021
 20
3.64765
 30
0.0
 11
160.805
 21
4.07211
 31
0.0
  0
LINE
  8
0
 62
     0
 10
160.805
 20
4.07211
 30
0.0
 11
160.467
 21
4.40972
 31
0.0
  0
LINE
  8
0
 62
     0
 10
160.467
 20
4.40972
 30
0.0
 11
160.041
 21
4.62608
 31
0.0
  0
LINE
  8
0
 62
     0
 10
160.041
 20
4.62608
 30
0.0
 11
159.57
 21
4.70186
 31
0.0
  0
LINE
  8
0
 62
     0
 10
159.57
 20
4.70186
 30
0.0
 11
159.1
 21
4.62608
 31
0.0
  0
LINE
  8
0
 62
     0
 10
237.299
 20
4.62608
 30
0.0
 11
236.875
 21
4.40972
 31
0.0
  0
LINE
  8
0
 62
     0
 10
236.875
 20
4.40972
 30
0.0
 11
236.538
 21
4.07211
 31
0.0
  0
LINE
  8
0
 62
     0
 10
236.538
 20
4.07211
 30
0.0
 11
236.321
 21
3.64765
 31
0.0
  0
LINE
  8
0
 62
     0
 10
236.321
 20
3.64765
 30
0.0
 11
236.247
 21
3.17638
 31
0.0
  0
LINE
  8
0
 62
     0
 10
236.247
 20
3.17638
 30
0.0
 11
236.321
 21
2.70509
 31
0.0
  0
LINE
  8
0
 62
     0
 10
236.321
 20
2.70509
 30
0.0
 11
236.538
 21
2.27928
 31
0.0
  0
LINE
  8
0
 62
     0
 10
236.538
 20
2.27928
 30
0.0
 11
236.875
 21
1.94303
 31
0.0
  0
LINE
  8
0
 62
     0
 10
236.875
 20
1.94303
 30
0.0
 11
237.299
 21
1.72531
 31
0.0
  0
LINE
  8
0
 62
     0
 10
237.299
 20
1.72531
 30
0.0
 11
237.771
 21
1.65227
 31
0.0
  0
LINE
  8
0
 62
     0
 10
237.771
 20
1.65227
 30
0.0
 11
238.242
 21
1.72531
 31
0.0
  0
LINE
  8
0
 62
     0
 10
238.242
 20
1.72531
 30
0.0
 11
238.668
 21
1.94303
 31
0.0
  0
LINE
  8
0
 62
     0
 10
238.668
 20
1.94303
 30
0.0
 11
239.004
 21
2.27928
 31
0.0
  0
LINE
  8
0
 62
     0
 10
239.004
 20
2.27928
 30
0.0
 11
239.222
 21
2.70509
 31
0.0
  0
LINE
  8
0
 62
     0
 10
239.222
 20
2.70509
 30
0.0
 11
239.296
 21
3.17638
 31
0.0
  0
LINE
  8
0
 62
     0
 10
239.296
 20
3.17638
 30
0.0
 11
239.222
 21
3.64765
 31
0.0
  0
LINE
  8
0
 62
     0
 10
239.222
 20
3.64765
 30
0.0
 11
239.004
 21
4.07211
 31
0.0
  0
LINE
  8
0
 62
     0
 10
239.004
 20
4.07211
 30
0.0
 11
238.668
 21
4.40972
 31
0.0
  0
LINE
  8
0
 62
     0
 10
238.668
 20
4.40972
 30
0.0
 11
238.242
 21
4.62608
 31
0.0
  0
LINE
  8
0
 62
     0
 10
238.242
 20
4.62608
 30
0.0
 11
237.771
 21
4.70186
 31
0.0
  0
LINE
  8
0
 62
     0
 10
237.771
 20
4.70186
 30
0.0
 11
237.299
 21
4.62608
 31
0.0
  0
LINE
  8
0
 62
     0
 10
2.6982
 20
86.8274
 30
0.0
 11
2.27376
 21
86.6112
 31
0.0
  0
LINE
  8
0
 62
     0
 10
2.27376
 20
86.6112
 30
0.0
 11
1.93614
 21
86.2736
 31
0.0
  0
LINE
  8
0
 62
     0
 10
1.93614
 20
86.2736
 30
0.0
 11
1.71979
 21
85.8492
 31
0.0
  0
LINE
  8
0
 62
     0
 10
1.71979
 20
85.8492
 30
0.0
 11
1.644
 21
85.3779
 31
0.0
  0
LINE
  8
0
 62
     0
 10
1.644
 20
85.3779
 30
0.0
 11
1.71979
 21
84.9051
 31
0.0
  0
LINE
  8
0
 62
     0
 10
1.71979
 20
84.9051
 30
0.0
 11
1.93614
 21
84.4808
 31
0.0
  0
LINE
  8
0
 62
     0
 10
1.93614
 20
84.4808
 30
0.0
 11
2.27376
 21
84.1446
 31
0.0
  0
LINE
  8
0
 62
     0
 10
2.27376
 20
84.1446
 30
0.0
 11
2.6982
 21
83.9265
 31
0.0
  0
LINE
  8
0
 62
     0
 10
2.6982
 20
83.9265
 30
0.0
 11
3.16949
 21
83.8521
 31
0.0
  0
LINE
  8
0
 62
     0
 10
3.16949
 20
83.8521
 30
0.0
 11
3.64215
 21
83.9265
 31
0.0
  0
LINE
  8
0
 62
     0
 10
3.64215
 20
83.9265
 30
0.0
 11
4.06658
 21
84.1446
 31
0.0
  0
LINE
  8
0
 62
     0
 10
4.06658
 20
84.1446
 30
0.0
 11
4.40284
 21
84.4808
 31
0.0
  0
LINE
  8
0
 62
     0
 10
4.40284
 20
84.4808
 30
0.0
 11
4.62058
 21
84.9051
 31
0.0
  0
LINE
  8
0
 62
     0
 10
4.62058
 20
84.9051
 30
0.0
 11
4.69498
 21
85.3779
 31
0.0
  0
LINE
  8
0
 62
     0
 10
4.69498
 20
85.3779
 30
0.0
 11
4.62058
 21
85.8492
 31
0.0
  0
LINE
  8
0
 62
     0
 10
4.62058
 20
85.8492
 30
0.0
 11
4.40284
 21
86.2736
 31
0.0
  0
LINE
  8
0
 62
     0
 10
4.40284
 20
86.2736
 30
0.0
 11
4.06658
 21
86.6112
 31
0.0
  0
LINE
  8
0
 62
     0
 10
4.06658
 20
86.6112
 30
0.0
 11
3.64215
 21
86.8274
 31
0.0
  0
LINE
  8
0
 62
     0
 10
3.64215
 20
86.8274
 30
0.0
 11
3.16949
 21
86.9019
 31
0.0
  0
LINE
  8
0
 62
     0
 10
3.16949
 20
86.9019
 30
0.0
 11
2.6982
 21
86.8274
 31
0.0
  0
LINE
  8
0
 62
     0
 10
237.299
 20
86.8274
 30
0.0
 11
236.875
 21
86.6112
 31
0.0
  0
LINE
  8
0
 62
     0
 10
236.875
 20
86.6112
 30
0.0
 11
236.538
 21
86.2736
 31
0.0
  0
LINE
  8
0
 62
     0
 10
236.538
 20
86.2736
 30
0.0
 11
236.321
 21
85.8492
 31
0.0
  0
LINE
  8
0
 62
     0
 10
236.321
 20
85.8492
 30
0.0
 11
236.247
 21
85.3779
 31
0.0
  0
LINE
  8
0
 62
     0
 10
236.247
 20
85.3779
 30
0.0
 11
236.321
 21
84.9051
 31
0.0
  0
LINE
  8
0
 62
     0
 10
236.321
 20
84.9051
 30
0.0
 11
236.538
 21
84.4808
 31
0.0
  0
LINE
  8
0
 62
     0
 10
236.538
 20
84.4808
 30
0.0
 11
236.875
 21
84.1446
 31
0.0
  0
LINE
  8
0
 62
     0
 10
236.875
 20
84.1446
 30
0.0
 11
237.299
 21
83.9265
 31
0.0
  0
LINE
  8
0
 62
     0
 10
237.299
 20
83.9265
 30
0.0
 11
237.771
 21
83.8521
 31
0.0
  0
LINE
  8
0
 62
     0
 10
237.771
 20
83.8521
 30
0.0
 11
238.242
 21
83.9265
 31
0.0
  0
LINE
  8
0
 62
     0
 10
238.242
 20
83.9265
 30
0.0
 11
238.668
 21
84.1446
 31
0.0
  0
LINE
  8
0
 62
     0
 10
238.668
 20
84.1446
 30
0.0
 11
239.004
 21
84.4808
 31
0.0
  0
LINE
  8
0
 62
     0
 10
239.004
 20
84.4808
 30
0.0
 11
239.222
 21
84.9051
 31
0.0
  0
LINE
  8
0
 62
     0
 10
239.222
 20
84.9051
 30
0.0
 11
239.296
 21
85.3779
 31
0.0
  0
LINE
  8
0
 62
     0
 10
239.296
 20
85.3779
 30
0.0
 11
239.222
 21
85.8492
 31
0.0
  0
LINE
  8
0
 62
     0
 10
239.222
 20
85.8492
 30
0.0
 11
239.004
 21
86.2736
 31
0.0
  0
LINE
  8
0
 62
     0
 10
239.004
 20
86.2736
 30
0.0
 11
238.668
 21
86.6112
 31
0.0
  0
LINE
  8
0
 62
     0
 10
238.668
 20
86.6112
 30
0.0
 11
238.242
 21
86.8274
 31
0.0
  0
LINE
  8
0
 62
     0
 10
238.242
 20
86.8274
 30
0.0
 11
237.771
 21
86.9033
 31
0.0
  0
LINE
  8
0
 62
     0
 10
237.771
 20
86.9033
 30
0.0
 11
237.299
 21
86.8274
 31
0.0
  0
LINE
  8
0
 62
     0
 10
159.1
 20
86.8274
 30
0.0
 11
158.674
 21
86.6112
 31
0.0
  0
LINE
  8
0
 62
     0
 10
158.674
 20
86.6112
 30
0.0
 11
158.337
 21
86.2736
 31
0.0
  0
LINE
  8
0
 62
     0
 10
158.337
 20
86.2736
 30
0.0
 11
158.12
 21
85.8492
 31
0.0
  0
LINE
  8
0
 62
     0
 10
158.12
 20
85.8492
 30
0.0
 11
158.046
 21
85.3779
 31
0.0
  0
LINE
  8
0
 62
     0
 10
158.046
 20
85.3779
 30
0.0
 11
158.12
 21
84.9051
 31
0.0
  0
LINE
  8
0
 62
     0
 10
158.12
 20
84.9051
 30
0.0
 11
158.337
 21
84.4808
 31
0.0
  0
LINE
  8
0
 62
     0
 10
158.337
 20
84.4808
 30
0.0
 11
158.674
 21
84.1446
 31
0.0
  0
LINE
  8
0
 62
     0
 10
158.674
 20
84.1446
 30
0.0
 11
159.1
 21
83.9265
 31
0.0
  0
LINE
  8
0
 62
     0
 10
159.1
 20
83.9265
 30
0.0
 11
159.57
 21
83.8521
 31
0.0
  0
LINE
  8
0
 62
     0
 10
159.57
 20
83.8521
 30
0.0
 11
160.041
 21
83.9265
 31
0.0
  0
LINE
  8
0
 62
     0
 10
160.041
 20
83.9265
 30
0.0
 11
160.467
 21
84.1446
 31
0.0
  0
LINE
  8
0
 62
     0
 10
160.467
 20
84.1446
 30
0.0
 11
160.805
 21
84.4808
 31
0.0
  0
LINE
  8
0
 62
     0
 10
160.805
 20
84.4808
 30
0.0
 11
161.021
 21
84.9051
 31
0.0
  0
LINE
  8
0
 62
     0
 10
161.021
 20
84.9051
 30
0.0
 11
161.095
 21
85.3779
 31
0.0
  0
LINE
  8
0
 62
     0
 10
161.095
 20
85.3779
 30
0.0
 11
161.021
 21
85.8492
 31
0.0
  0
LINE
  8
0
 62
     0
 10
161.021
 20
85.8492
 30
0.0
 11
160.805
 21
86.2736
 31
0.0
  0
LINE
  8
0
 62
     0
 10
160.805
 20
86.2736
 30
0.0
 11
160.467
 21
86.6112
 31
0.0
  0
LINE
  8
0
 62
     0
 10
160.467
 20
86.6112
 30
0.0
 11
160.041
 21
86.8274
 31
0.0
  0
LINE
  8
0
 62
     0
 10
160.041
 20
86.8274
 30
0.0
 11
159.57
 21
86.9033
 31
0.0
  0
LINE
  8
0
 62
     0
 10
159.57
 20
86.9033
 30
0.0
 11
159.1
 21
86.8274
 31
0.0
  0
LINE
  8
0
 62
     0
 10
80.899
 20
86.8274
 30
0.0
 11
80.4732
 21
86.6112
 31
0.0
  0
LINE
  8
0
 62
     0
 10
80.4732
 20
86.6112
 30
0.0
 11
80.137
 21
86.2736
 31
0.0
  0
LINE
  8
0
 62
     0
 10
80.137
 20
86.2736
 30
0.0
 11
79.9193
 21
85.8492
 31
0.0
  0
LINE
  8
0
 62
     0
 10
79.9193
 20
85.8492
 30
0.0
 11
79.8449
 21
85.3779
 31
0.0
  0
LINE
  8
0
 62
     0
 10
79.8449
 20
85.3779
 30
0.0
 11
79.9193
 21
84.9051
 31
0.0
  0
LINE
  8
0
 62
     0
 10
79.9193
 20
84.9051
 30
0.0
 11
80.137
 21
84.4808
 31
0.0
  0
LINE
  8
0
 62
     0
 10
80.137
 20
84.4808
 30
0.0
 11
80.4732
 21
84.1446
 31
0.0
  0
LINE
  8
0
 62
     0
 10
80.4732
 20
84.1446
 30
0.0
 11
80.899
 21
83.9265
 31
0.0
  0
LINE
  8
0
 62
     0
 10
80.899
 20
83.9265
 30
0.0
 11
81.3703
 21
83.8521
 31
0.0
  0
LINE
  8
0
 62
     0
 10
81.3703
 20
83.8521
 30
0.0
 11
81.8416
 21
83.9265
 31
0.0
  0
LINE
  8
0
 62
     0
 10
81.8416
 20
83.9265
 30
0.0
 11
82.266
 21
84.1446
 31
0.0
  0
LINE
  8
0
 62
     0
 10
82.266
 20
84.1446
 30
0.0
 11
82.605
 21
84.4808
 31
0.0
  0
LINE
  8
0
 62
     0
 10
82.605
 20
84.4808
 30
0.0
 11
82.8202
 21
84.9051
 31
0.0
  0
LINE
  8
0
 62
     0
 10
82.8202
 20
84.9051
 30
0.0
 11
82.8957
 21
85.3779
 31
0.0
  0
LINE
  8
0
 62
     0
 10
82.8957
 20
85.3779
 30
0.0
 11
82.8202
 21
85.8492
 31
0.0
  0
LINE
  8
0
 62
     0
 10
82.8202
 20
85.8492
 30
0.0
 11
82.605
 21
86.2736
 31
0.0
  0
LINE
  8
0
 62
     0
 10
82.605
 20
86.2736
 30
0.0
 11
82.266
 21
86.6112
 31
0.0
  0
LINE
  8
0
 62
     0
 10
82.266
 20
86.6112
 30
0.0
 11
81.8416
 21
86.8274
 31
0.0
  0
LINE
  8
0
 62
     0
 10
81.8416
 20
86.8274
 30
0.0
 11
81.3703
 21
86.9033
 31
0.0
  0
LINE
  8
0
 62
     0
 10
81.3703
 20
86.9033
 30
0.0
 11
80.899
 21
86.8274
 31
0.0
  0
ENDSEC
  0
EOF
