M48
; DRILL file {KiCad (5.1.6)-1} date 06/06/20 18:36:28
; FORMAT={-:-/ absolute / inch / decimal}
; #@! TF.CreationDate,2020-06-06T18:36:28-05:00
; #@! TF.GenerationSoftware,Kicad,Pcbnew,(5.1.6)-1
; #@! TF.FileFunction,NonPlated,1,2,NPTH
FMAT,2
INCH
T1C0.0689
T2C0.1260
T3C0.1570
%
G90
G05
T1
X6.4875Y-4.0625
X6.8875Y-4.0625
X7.2375Y-2.5625
X7.6375Y-2.5625
X2.7375Y-2.5625
X3.1375Y-2.5625
X8.7375Y-4.0625
X9.1375Y-4.0625
X7.2375Y-4.8125
X7.6375Y-4.8125
X6.4875Y-3.3125
X6.8875Y-3.3125
X4.2375Y-4.8125
X4.6375Y-4.8125
X5.7375Y-4.8125
X6.1375Y-4.8125
X4.9875Y-2.5625
X5.3875Y-2.5625
X7.9875Y-4.0625
X8.3875Y-4.0625
X3.4875Y-2.5625
X3.8875Y-2.5625
X1.9875Y-4.0625
X2.3875Y-4.0625
X9.4875Y-4.0625
X9.8875Y-4.0625
X7.2375Y-4.0625
X7.6375Y-4.0625
X9.4875Y-4.8125
X9.8875Y-4.8125
X3.4875Y-4.8125
X3.8875Y-4.8125
X3.4875Y-3.3125
X3.8875Y-3.3125
X4.9875Y-3.3125
X5.3875Y-3.3125
X5.7375Y-4.0625
X6.1375Y-4.0625
X8.7375Y-2.5625
X9.1375Y-2.5625
X4.2375Y-4.0625
X4.6375Y-4.0625
X2.7375Y-4.0625
X3.1375Y-4.0625
X6.4875Y-2.5625
X6.8875Y-2.5625
X8.7375Y-3.3125
X9.1375Y-3.3125
X1.9875Y-4.8125
X2.3875Y-4.8125
X2.7375Y-3.3125
X3.1375Y-3.3125
X1.9875Y-2.5637
X2.3875Y-2.5637
X5.7375Y-2.5625
X6.1375Y-2.5625
X4.2375Y-2.5625
X4.6375Y-2.5625
X1.2375Y-3.3125
X1.6375Y-3.3125
X4.2375Y-3.3125
X4.6375Y-3.3125
X2.7375Y-4.8125
X3.1375Y-4.8125
X3.4875Y-4.0625
X3.8875Y-4.0625
X4.9875Y-4.0625
X5.3875Y-4.0625
X8.7375Y-4.8125
X9.1375Y-4.8125
X5.7375Y-3.3125
X6.1375Y-3.3125
X1.2375Y-4.8125
X1.6375Y-4.8125
X9.4875Y-3.3125
X9.8875Y-3.3125
X1.2375Y-4.0625
X1.6375Y-4.0625
X1.9875Y-3.3125
X2.3875Y-3.3125
X7.2375Y-3.3125
X7.6375Y-3.3125
X7.9875Y-4.8125
X8.3875Y-4.8125
X7.9875Y-2.5625
X8.3875Y-2.5625
X7.9875Y-3.3125
X8.3875Y-3.3125
X1.2378Y-2.5637
X1.6378Y-2.5637
X6.4875Y-4.8125
X6.8875Y-4.8125
X4.9875Y-4.8125
X5.3875Y-4.8125
X9.4875Y-2.5625
X9.8875Y-2.5625
T2
X7.1039Y-5.3053
X10.1821Y-2.0688
X4.0249Y-5.3056
X0.946Y-5.3051
X0.9461Y-2.0688
X10.1827Y-5.3052
T3
X1.4378Y-2.5637
X6.6875Y-4.8125
X5.1875Y-4.8125
X9.6875Y-2.5625
X6.6875Y-4.0625
X7.4375Y-2.5625
X2.9375Y-2.5625
X8.9375Y-4.0625
X7.4375Y-4.8125
X6.6875Y-3.3125
X4.4375Y-4.8125
X5.9375Y-4.8125
X5.1875Y-2.5625
X8.1875Y-4.0625
X3.6875Y-2.5625
X2.1875Y-4.0625
X9.6875Y-4.0625
X7.4375Y-4.0625
X9.6875Y-4.8125
X3.6875Y-4.8125
X3.6875Y-3.3125
X5.1875Y-3.3125
X5.9375Y-4.0625
X8.9375Y-2.5625
X4.4375Y-4.0625
X2.9375Y-4.0625
X6.6875Y-2.5625
X8.9375Y-3.3125
X2.1875Y-4.8125
X2.9375Y-3.3125
X2.1875Y-2.5637
X5.9375Y-2.5625
X4.4375Y-2.5625
X1.4375Y-3.3125
X4.4375Y-3.3125
X2.9375Y-4.8125
X3.6875Y-4.0625
X5.1875Y-4.0625
X8.9375Y-4.8125
X5.9375Y-3.3125
X1.4375Y-4.8125
X9.6875Y-3.3125
X1.4375Y-4.0625
X2.1875Y-3.3125
X7.4375Y-3.3125
X8.1875Y-4.8125
X8.1875Y-2.5625
X8.1875Y-3.3125
T0
M30
