M48
; DRILL file {KiCad (5.1.6)-1} date 05/26/20 22:06:20
; FORMAT={-:-/ absolute / inch / decimal}
; #@! TF.CreationDate,2020-05-26T22:06:20-05:00
; #@! TF.GenerationSoftware,Kicad,Pcbnew,(5.1.6)-1
; #@! TF.FileFunction,NonPlated,1,2,NPTH
FMAT,2
INCH
T1C0.0689
T2C0.1260
T3C0.1570
%
G90
G05
T1
X7.2375Y-3.3125
X7.6375Y-3.3125
X2.7375Y-2.5625
X3.1375Y-2.5625
X3.4875Y-3.3125
X3.8875Y-3.3125
X7.9875Y-4.8125
X8.3875Y-4.8125
X3.4875Y-4.8125
X3.8875Y-4.8125
X1.2378Y-2.5637
X1.6378Y-2.5637
X6.4875Y-4.8125
X6.8875Y-4.8125
X4.9875Y-2.5625
X5.3875Y-2.5625
X5.7375Y-4.0625
X6.1375Y-4.0625
X4.9875Y-4.0625
X5.3875Y-4.0625
X8.7375Y-4.0625
X9.1375Y-4.0625
X2.7375Y-4.8125
X3.1375Y-4.8125
X1.9875Y-4.8125
X2.3875Y-4.8125
X7.9875Y-3.3125
X8.3875Y-3.3125
X3.4875Y-2.5625
X3.8875Y-2.5625
X7.2375Y-4.8125
X7.6375Y-4.8125
X2.7375Y-3.3125
X3.1375Y-3.3125
X1.9875Y-2.5637
X2.3875Y-2.5637
X5.7375Y-2.5625
X6.1375Y-2.5625
X5.7375Y-3.3125
X6.1375Y-3.3125
X8.7375Y-2.5625
X9.1375Y-2.5625
X4.2375Y-3.3125
X4.6375Y-3.3125
X9.4875Y-4.8125
X9.8875Y-4.8125
X8.7375Y-3.3125
X9.1375Y-3.3125
X4.2375Y-2.5625
X4.6375Y-2.5625
X7.2375Y-4.0625
X7.6375Y-4.0625
X1.9875Y-3.3125
X2.3875Y-3.3125
X9.4875Y-3.3125
X9.8875Y-3.3125
X5.7375Y-4.8125
X6.1375Y-4.8125
X1.2375Y-4.8125
X1.6375Y-4.8125
X7.9875Y-4.0625
X8.3875Y-4.0625
X6.4875Y-4.0625
X6.8875Y-4.0625
X4.2375Y-4.0625
X4.6375Y-4.0625
X7.9875Y-2.5625
X8.3875Y-2.5625
X4.9875Y-4.8125
X5.3875Y-4.8125
X1.9875Y-4.0625
X2.3875Y-4.0625
X3.4875Y-4.0625
X3.8875Y-4.0625
X4.2375Y-4.8125
X4.6375Y-4.8125
X1.2375Y-4.0625
X1.6375Y-4.0625
X7.2375Y-2.5625
X7.6375Y-2.5625
X4.9875Y-3.3125
X5.3875Y-3.3125
X6.4875Y-2.5625
X6.8875Y-2.5625
X1.2375Y-3.3125
X1.6375Y-3.3125
X8.7375Y-4.8125
X9.1375Y-4.8125
X2.7375Y-4.0625
X3.1375Y-4.0625
X6.4875Y-3.3125
X6.8875Y-3.3125
X9.4875Y-4.0625
X9.8875Y-4.0625
X9.4875Y-2.5625
X9.8875Y-2.5625
T2
X10.1Y-2.15
X5.575Y-3.65
X1.05Y-2.15
X1.05Y-5.2
X10.075Y-5.2
T3
X8.1875Y-2.5625
X5.1875Y-4.8125
X2.1875Y-4.0625
X3.6875Y-4.0625
X4.4375Y-4.8125
X1.4375Y-4.0625
X7.4375Y-2.5625
X5.1875Y-3.3125
X6.6875Y-2.5625
X1.4375Y-3.3125
X8.9375Y-4.8125
X2.9375Y-4.0625
X6.6875Y-3.3125
X9.6875Y-4.0625
X9.6875Y-2.5625
X7.4375Y-3.3125
X2.9375Y-2.5625
X3.6875Y-3.3125
X8.1875Y-4.8125
X3.6875Y-4.8125
X1.4378Y-2.5637
X6.6875Y-4.8125
X5.1875Y-2.5625
X5.9375Y-4.0625
X5.1875Y-4.0625
X8.9375Y-4.0625
X2.9375Y-4.8125
X2.1875Y-4.8125
X8.1875Y-3.3125
X3.6875Y-2.5625
X7.4375Y-4.8125
X2.9375Y-3.3125
X2.1875Y-2.5637
X5.9375Y-2.5625
X5.9375Y-3.3125
X8.9375Y-2.5625
X4.4375Y-3.3125
X9.6875Y-4.8125
X8.9375Y-3.3125
X4.4375Y-2.5625
X7.4375Y-4.0625
X2.1875Y-3.3125
X9.6875Y-3.3125
X5.9375Y-4.8125
X1.4375Y-4.8125
X8.1875Y-4.0625
X6.6875Y-4.0625
X4.4375Y-4.0625
T0
M30
