%TF.GenerationSoftware,KiCad,Pcbnew,(5.1.6)-1*%
%TF.CreationDate,2020-05-24T21:22:09-05:00*%
%TF.ProjectId,cerkit_planck_proton,6365726b-6974-45f7-906c-616e636b5f70,rev?*%
%TF.SameCoordinates,Original*%
%TF.FileFunction,Soldermask,Bot*%
%TF.FilePolarity,Negative*%
%FSLAX46Y46*%
G04 Gerber Fmt 4.6, Leading zero omitted, Abs format (unit mm)*
G04 Created by KiCad (PCBNEW (5.1.6)-1) date 2020-05-24 21:22:09*
%MOMM*%
%LPD*%
G01*
G04 APERTURE LIST*
%ADD10C,2.100000*%
%ADD11C,1.800000*%
%ADD12C,2.300000*%
%ADD13O,2.100000X2.100000*%
%ADD14R,2.100000X2.100000*%
%ADD15C,1.850000*%
%ADD16C,2.350000*%
%ADD17C,4.087800*%
%ADD18C,3.300000*%
G04 APERTURE END LIST*
D10*
%TO.C,REF\u002A\u002A*%
X268120000Y-66040000D03*
X268120000Y-70540000D03*
X261620000Y-66040000D03*
X261620000Y-70540000D03*
%TD*%
D11*
%TO.C,REF\u002A\u002A*%
X166380000Y-49525000D03*
X163840000Y-34310000D03*
D12*
X169204800Y-48915000D03*
X169204800Y-34919600D03*
D11*
X166380000Y-34310000D03*
X161300000Y-36850000D03*
X161300000Y-34310000D03*
X158760000Y-34310000D03*
X156220000Y-34310000D03*
X153680000Y-34310000D03*
X161300000Y-39390000D03*
X161300000Y-41930000D03*
X151140000Y-34310000D03*
X148600000Y-34310000D03*
X146060000Y-34310000D03*
X143520000Y-34310000D03*
X140980000Y-34310000D03*
X138440000Y-34310000D03*
X130820000Y-34310000D03*
X125740000Y-34310000D03*
X123200000Y-34310000D03*
X128280000Y-34310000D03*
X120660000Y-34310000D03*
X133360000Y-34310000D03*
X163840000Y-49525000D03*
X161300000Y-49525000D03*
X156220000Y-49525000D03*
X161300000Y-46985000D03*
X158760000Y-49525000D03*
X153680000Y-49525000D03*
X151140000Y-49525000D03*
X148600000Y-49525000D03*
X143520000Y-49525000D03*
X140980000Y-49525000D03*
X146060000Y-49525000D03*
X138440000Y-49525000D03*
X130820000Y-49525000D03*
X133360000Y-49525000D03*
X125740000Y-49525000D03*
X128280000Y-49525000D03*
X123200000Y-49525000D03*
X120660000Y-49525000D03*
%TD*%
D13*
%TO.C,REF\u002A\u002A*%
X34290000Y-67310000D03*
D14*
X34290000Y-57150000D03*
%TD*%
D15*
%TO.C,REF\u002A\u002A*%
X140345569Y-127024989D03*
X130185569Y-127024989D03*
D16*
X131455569Y-124484989D03*
D17*
X135265569Y-127024989D03*
D16*
X137805569Y-121944989D03*
%TD*%
D18*
%TO.C,REF\u002A\u002A*%
X144733644Y-117507381D03*
%TD*%
%TO.C,REF\u002A\u002A*%
X264160000Y-57150000D03*
%TD*%
%TO.C,REF\u002A\u002A*%
X25400000Y-58420000D03*
%TD*%
%TO.C,REF\u002A\u002A*%
X24130000Y-154940000D03*
%TD*%
%TO.C,REF\u002A\u002A*%
X265430000Y-154940000D03*
%TD*%
D14*
%TO.C,REF\u002A\u002A*%
X248920000Y-59690000D03*
D13*
X248920000Y-69850000D03*
%TD*%
D14*
%TO.C,REF\u002A\u002A*%
X243840000Y-57150000D03*
D13*
X243840000Y-67310000D03*
%TD*%
D14*
%TO.C,REF\u002A\u002A*%
X252730000Y-62230000D03*
D13*
X252730000Y-72390000D03*
%TD*%
D14*
%TO.C,REF\u002A\u002A*%
X256540000Y-64770000D03*
D13*
X256540000Y-74930000D03*
%TD*%
D14*
%TO.C,REF\u002A\u002A*%
X229870000Y-59690000D03*
D13*
X229870000Y-69850000D03*
%TD*%
D14*
%TO.C,REF\u002A\u002A*%
X224790000Y-57150000D03*
D13*
X224790000Y-67310000D03*
%TD*%
D14*
%TO.C,REF\u002A\u002A*%
X233680000Y-62230000D03*
D13*
X233680000Y-72390000D03*
%TD*%
D14*
%TO.C,REF\u002A\u002A*%
X237490000Y-64770000D03*
D13*
X237490000Y-74930000D03*
%TD*%
D14*
%TO.C,REF\u002A\u002A*%
X210820000Y-59690000D03*
D13*
X210820000Y-69850000D03*
%TD*%
D14*
%TO.C,REF\u002A\u002A*%
X205740000Y-57150000D03*
D13*
X205740000Y-67310000D03*
%TD*%
D14*
%TO.C,REF\u002A\u002A*%
X214630000Y-62230000D03*
D13*
X214630000Y-72390000D03*
%TD*%
D14*
%TO.C,REF\u002A\u002A*%
X218440000Y-64770000D03*
D13*
X218440000Y-74930000D03*
%TD*%
D14*
%TO.C,REF\u002A\u002A*%
X191770000Y-59690000D03*
D13*
X191770000Y-69850000D03*
%TD*%
D14*
%TO.C,REF\u002A\u002A*%
X186690000Y-57150000D03*
D13*
X186690000Y-67310000D03*
%TD*%
D14*
%TO.C,REF\u002A\u002A*%
X195580000Y-62230000D03*
D13*
X195580000Y-72390000D03*
%TD*%
D14*
%TO.C,REF\u002A\u002A*%
X199390000Y-64770000D03*
D13*
X199390000Y-74930000D03*
%TD*%
D14*
%TO.C,REF\u002A\u002A*%
X172720000Y-59690000D03*
D13*
X172720000Y-69850000D03*
%TD*%
D14*
%TO.C,REF\u002A\u002A*%
X167640000Y-57150000D03*
D13*
X167640000Y-67310000D03*
%TD*%
D14*
%TO.C,REF\u002A\u002A*%
X176530000Y-62230000D03*
D13*
X176530000Y-72390000D03*
%TD*%
D14*
%TO.C,REF\u002A\u002A*%
X180340000Y-64770000D03*
D13*
X180340000Y-74930000D03*
%TD*%
D14*
%TO.C,REF\u002A\u002A*%
X153670000Y-59690000D03*
D13*
X153670000Y-69850000D03*
%TD*%
D14*
%TO.C,REF\u002A\u002A*%
X148590000Y-57150000D03*
D13*
X148590000Y-67310000D03*
%TD*%
D14*
%TO.C,REF\u002A\u002A*%
X157480000Y-62230000D03*
D13*
X157480000Y-72390000D03*
%TD*%
D14*
%TO.C,REF\u002A\u002A*%
X161290000Y-64770000D03*
D13*
X161290000Y-74930000D03*
%TD*%
D14*
%TO.C,REF\u002A\u002A*%
X134620000Y-59690000D03*
D13*
X134620000Y-69850000D03*
%TD*%
D14*
%TO.C,REF\u002A\u002A*%
X129540000Y-57150000D03*
D13*
X129540000Y-67310000D03*
%TD*%
D14*
%TO.C,REF\u002A\u002A*%
X138430000Y-62230000D03*
D13*
X138430000Y-72390000D03*
%TD*%
D14*
%TO.C,REF\u002A\u002A*%
X142240000Y-64770000D03*
D13*
X142240000Y-74930000D03*
%TD*%
D14*
%TO.C,REF\u002A\u002A*%
X115570000Y-59690000D03*
D13*
X115570000Y-69850000D03*
%TD*%
D14*
%TO.C,REF\u002A\u002A*%
X110490000Y-57150000D03*
D13*
X110490000Y-67310000D03*
%TD*%
D14*
%TO.C,REF\u002A\u002A*%
X119380000Y-62230000D03*
D13*
X119380000Y-72390000D03*
%TD*%
D14*
%TO.C,REF\u002A\u002A*%
X123190000Y-64770000D03*
D13*
X123190000Y-74930000D03*
%TD*%
D14*
%TO.C,REF\u002A\u002A*%
X96520000Y-59690000D03*
D13*
X96520000Y-69850000D03*
%TD*%
D14*
%TO.C,REF\u002A\u002A*%
X91440000Y-57150000D03*
D13*
X91440000Y-67310000D03*
%TD*%
D14*
%TO.C,REF\u002A\u002A*%
X100330000Y-62230000D03*
D13*
X100330000Y-72390000D03*
%TD*%
D14*
%TO.C,REF\u002A\u002A*%
X104140000Y-64770000D03*
D13*
X104140000Y-74930000D03*
%TD*%
D14*
%TO.C,REF\u002A\u002A*%
X77470000Y-59690000D03*
D13*
X77470000Y-69850000D03*
%TD*%
D14*
%TO.C,REF\u002A\u002A*%
X72390000Y-57150000D03*
D13*
X72390000Y-67310000D03*
%TD*%
D14*
%TO.C,REF\u002A\u002A*%
X81280000Y-62230000D03*
D13*
X81280000Y-72390000D03*
%TD*%
D14*
%TO.C,REF\u002A\u002A*%
X85090000Y-64770000D03*
D13*
X85090000Y-74930000D03*
%TD*%
D14*
%TO.C,REF\u002A\u002A*%
X58420000Y-59690000D03*
D13*
X58420000Y-69850000D03*
%TD*%
D14*
%TO.C,REF\u002A\u002A*%
X53340000Y-57150000D03*
D13*
X53340000Y-67310000D03*
%TD*%
D14*
%TO.C,REF\u002A\u002A*%
X62230000Y-62230000D03*
D13*
X62230000Y-72390000D03*
%TD*%
D14*
%TO.C,REF\u002A\u002A*%
X66040000Y-64770000D03*
D13*
X66040000Y-74930000D03*
%TD*%
%TO.C,REF\u002A\u002A*%
X46990000Y-74930000D03*
D14*
X46990000Y-64770000D03*
%TD*%
D13*
%TO.C,REF\u002A\u002A*%
X43180000Y-72390000D03*
D14*
X43180000Y-62230000D03*
%TD*%
D13*
%TO.C,REF\u002A\u002A*%
X39370000Y-69850000D03*
D14*
X39370000Y-59690000D03*
%TD*%
D15*
%TO.C,REF\u002A\u002A*%
X121352004Y-88940058D03*
X111192004Y-88940058D03*
D16*
X112462004Y-86400058D03*
D17*
X116272004Y-88940058D03*
D16*
X118812004Y-83860058D03*
%TD*%
D15*
%TO.C,REF\u002A\u002A*%
X178440368Y-127052755D03*
X168280368Y-127052755D03*
D16*
X169550368Y-124512755D03*
D17*
X173360368Y-127052755D03*
D16*
X175900368Y-121972755D03*
%TD*%
D15*
%TO.C,REF\u002A\u002A*%
X197515533Y-127024989D03*
X187355533Y-127024989D03*
D16*
X188625533Y-124484989D03*
D17*
X192435533Y-127024989D03*
D16*
X194975533Y-121944989D03*
%TD*%
D15*
%TO.C,REF\u002A\u002A*%
X102277245Y-88940058D03*
X92117245Y-88940058D03*
D16*
X93387245Y-86400058D03*
D17*
X97197245Y-88940058D03*
D16*
X99737245Y-83860058D03*
%TD*%
D15*
%TO.C,REF\u002A\u002A*%
X159425487Y-107989188D03*
X149265487Y-107989188D03*
D16*
X150535487Y-105449188D03*
D17*
X154345487Y-107989188D03*
D16*
X156885487Y-102909188D03*
%TD*%
D15*
%TO.C,REF\u002A\u002A*%
X45136337Y-127069414D03*
X34976337Y-127069414D03*
D16*
X36246337Y-124529414D03*
D17*
X40056337Y-127069414D03*
D16*
X42596337Y-121989414D03*
%TD*%
D15*
%TO.C,REF\u002A\u002A*%
X64155971Y-127052755D03*
X53995971Y-127052755D03*
D16*
X55265971Y-124512755D03*
D17*
X59075971Y-127052755D03*
D16*
X61615971Y-121972755D03*
%TD*%
D15*
%TO.C,REF\u002A\u002A*%
X216556145Y-107989188D03*
X206396145Y-107989188D03*
D16*
X207666145Y-105449188D03*
D17*
X211476145Y-107989188D03*
D16*
X214016145Y-102909188D03*
%TD*%
D15*
%TO.C,REF\u002A\u002A*%
X197528196Y-108012593D03*
X187368196Y-108012593D03*
D16*
X188638196Y-105472593D03*
D17*
X192448196Y-108012593D03*
D16*
X194988196Y-102932593D03*
%TD*%
D15*
%TO.C,REF\u002A\u002A*%
X64199140Y-108019614D03*
X54039140Y-108019614D03*
D16*
X55309140Y-105479614D03*
D17*
X59119140Y-108019614D03*
D16*
X61659140Y-102939614D03*
%TD*%
D15*
%TO.C,REF\u002A\u002A*%
X83202486Y-88940058D03*
X73042486Y-88940058D03*
D16*
X74312486Y-86400058D03*
D17*
X78122486Y-88940058D03*
D16*
X80662486Y-83860058D03*
%TD*%
D15*
%TO.C,REF\u002A\u002A*%
X64197941Y-88940058D03*
X54037941Y-88940058D03*
D16*
X55307941Y-86400058D03*
D17*
X59117941Y-88940058D03*
D16*
X61657941Y-83860058D03*
%TD*%
D15*
%TO.C,REF\u002A\u002A*%
X45146586Y-88963463D03*
X34986586Y-88963463D03*
D16*
X36256586Y-86423463D03*
D17*
X40066586Y-88963463D03*
D16*
X42606586Y-83883463D03*
%TD*%
D15*
%TO.C,REF\u002A\u002A*%
X140379954Y-88940058D03*
X130219954Y-88940058D03*
D16*
X131489954Y-86400058D03*
D17*
X135299954Y-88940058D03*
D16*
X137839954Y-83860058D03*
%TD*%
D15*
%TO.C,REF\u002A\u002A*%
X254680002Y-146110448D03*
X244520002Y-146110448D03*
D16*
X245790002Y-143570448D03*
D17*
X249600002Y-146110448D03*
D16*
X252140002Y-141030448D03*
%TD*%
D15*
%TO.C,REF\u002A\u002A*%
X178485776Y-146110448D03*
X168325776Y-146110448D03*
D16*
X169595776Y-143570448D03*
D17*
X173405776Y-146110448D03*
D16*
X175945776Y-141030448D03*
%TD*%
D15*
%TO.C,REF\u002A\u002A*%
X216571320Y-146064172D03*
X206411320Y-146064172D03*
D16*
X207681320Y-143524172D03*
D17*
X211491320Y-146064172D03*
D16*
X214031320Y-140984172D03*
%TD*%
D15*
%TO.C,REF\u002A\u002A*%
X159419866Y-146133587D03*
X149259866Y-146133587D03*
D16*
X150529866Y-143593587D03*
D17*
X154339866Y-146133587D03*
D16*
X156879866Y-141053587D03*
%TD*%
D15*
%TO.C,REF\u002A\u002A*%
X102268412Y-146110448D03*
X92108412Y-146110448D03*
D16*
X93378412Y-143570448D03*
D17*
X97188412Y-146110448D03*
D16*
X99728412Y-141030448D03*
%TD*%
D15*
%TO.C,REF\u002A\u002A*%
X140377094Y-146110448D03*
X130217094Y-146110448D03*
D16*
X131487094Y-143570448D03*
D17*
X135297094Y-146110448D03*
D16*
X137837094Y-141030448D03*
%TD*%
D15*
%TO.C,REF\u002A\u002A*%
X121311184Y-146133587D03*
X111151184Y-146133587D03*
D16*
X112421184Y-143593587D03*
D17*
X116231184Y-146133587D03*
D16*
X118771184Y-141053587D03*
%TD*%
D15*
%TO.C,REF\u002A\u002A*%
X235614092Y-146087310D03*
X225454092Y-146087310D03*
D16*
X226724092Y-143547310D03*
D17*
X230534092Y-146087310D03*
D16*
X233074092Y-141007310D03*
%TD*%
D15*
%TO.C,REF\u002A\u002A*%
X197528548Y-146110448D03*
X187368548Y-146110448D03*
D16*
X188638548Y-143570448D03*
D17*
X192448548Y-146110448D03*
D16*
X194988548Y-141030448D03*
%TD*%
D15*
%TO.C,REF\u002A\u002A*%
X83248778Y-146133587D03*
X73088778Y-146133587D03*
D16*
X74358778Y-143593587D03*
D17*
X78168778Y-146133587D03*
D16*
X80708778Y-141053587D03*
%TD*%
D15*
%TO.C,REF\u002A\u002A*%
X64206007Y-146110448D03*
X54046007Y-146110448D03*
D16*
X55316007Y-143570448D03*
D17*
X59126007Y-146110448D03*
D16*
X61666007Y-141030448D03*
%TD*%
D15*
%TO.C,REF\u002A\u002A*%
X45116958Y-146110448D03*
X34956958Y-146110448D03*
D16*
X36226958Y-143570448D03*
D17*
X40036958Y-146110448D03*
D16*
X42576958Y-141030448D03*
%TD*%
D15*
%TO.C,REF\u002A\u002A*%
X254657732Y-127024989D03*
X244497732Y-127024989D03*
D16*
X245767732Y-124484989D03*
D17*
X249577732Y-127024989D03*
D16*
X252117732Y-121944989D03*
%TD*%
D15*
%TO.C,REF\u002A\u002A*%
X216562933Y-127052755D03*
X206402933Y-127052755D03*
D16*
X207672933Y-124512755D03*
D17*
X211482933Y-127052755D03*
D16*
X214022933Y-121972755D03*
%TD*%
D15*
%TO.C,REF\u002A\u002A*%
X159392968Y-127052755D03*
X149232968Y-127052755D03*
D16*
X150502968Y-124512755D03*
D17*
X154312968Y-127052755D03*
D16*
X156852968Y-121972755D03*
%TD*%
D15*
%TO.C,REF\u002A\u002A*%
X235610332Y-127052755D03*
X225450332Y-127052755D03*
D16*
X226720332Y-124512755D03*
D17*
X230530332Y-127052755D03*
D16*
X233070332Y-121972755D03*
%TD*%
D15*
%TO.C,REF\u002A\u002A*%
X254658854Y-107989188D03*
X244498854Y-107989188D03*
D16*
X245768854Y-105449188D03*
D17*
X249578854Y-107989188D03*
D16*
X252118854Y-102909188D03*
%TD*%
D15*
%TO.C,REF\u002A\u002A*%
X235630905Y-107989188D03*
X225470905Y-107989188D03*
D16*
X226740905Y-105449188D03*
D17*
X230550905Y-107989188D03*
D16*
X233090905Y-102909188D03*
%TD*%
D15*
%TO.C,REF\u002A\u002A*%
X83203370Y-127024989D03*
X73043370Y-127024989D03*
D16*
X74313370Y-124484989D03*
D17*
X78123370Y-127024989D03*
D16*
X80663370Y-121944989D03*
%TD*%
D15*
%TO.C,REF\u002A\u002A*%
X121298169Y-127024989D03*
X111138169Y-127024989D03*
D16*
X112408169Y-124484989D03*
D17*
X116218169Y-127024989D03*
D16*
X118758169Y-121944989D03*
%TD*%
D15*
%TO.C,REF\u002A\u002A*%
X102250770Y-127052755D03*
X92090770Y-127052755D03*
D16*
X93360770Y-124512755D03*
D17*
X97170770Y-127052755D03*
D16*
X99710770Y-121972755D03*
%TD*%
D15*
%TO.C,REF\u002A\u002A*%
X102248019Y-107965783D03*
X92088019Y-107965783D03*
D16*
X93358019Y-105425783D03*
D17*
X97168019Y-107965783D03*
D16*
X99708019Y-102885783D03*
%TD*%
D15*
%TO.C,REF\u002A\u002A*%
X140374132Y-107989188D03*
X130214132Y-107989188D03*
D16*
X131484132Y-105449188D03*
D17*
X135294132Y-107989188D03*
D16*
X137834132Y-102909188D03*
%TD*%
D15*
%TO.C,REF\u002A\u002A*%
X121346182Y-107989188D03*
X111186182Y-107989188D03*
D16*
X112456182Y-105449188D03*
D17*
X116266182Y-107989188D03*
D16*
X118806182Y-102909188D03*
%TD*%
D15*
%TO.C,REF\u002A\u002A*%
X45124381Y-107996209D03*
X34964381Y-107996209D03*
D16*
X36234381Y-105456209D03*
D17*
X40044381Y-107996209D03*
D16*
X42584381Y-102916209D03*
%TD*%
D15*
%TO.C,REF\u002A\u002A*%
X254664676Y-88916654D03*
X244504676Y-88916654D03*
D16*
X245774676Y-86376654D03*
D17*
X249584676Y-88916654D03*
D16*
X252124676Y-83836654D03*
%TD*%
D15*
%TO.C,REF\u002A\u002A*%
X216561968Y-88940058D03*
X206401968Y-88940058D03*
D16*
X207671968Y-86400058D03*
D17*
X211481968Y-88940058D03*
D16*
X214021968Y-83860058D03*
%TD*%
D15*
%TO.C,REF\u002A\u002A*%
X235636727Y-88916654D03*
X225476727Y-88916654D03*
D16*
X226746727Y-86376654D03*
D17*
X230556727Y-88916654D03*
D16*
X233096727Y-83836654D03*
%TD*%
D15*
%TO.C,REF\u002A\u002A*%
X178476841Y-107989188D03*
X168316841Y-107989188D03*
D16*
X169586841Y-105449188D03*
D17*
X173396841Y-107989188D03*
D16*
X175936841Y-102909188D03*
%TD*%
D15*
%TO.C,REF\u002A\u002A*%
X83250495Y-107996209D03*
X73090495Y-107996209D03*
D16*
X74360495Y-105456209D03*
D17*
X78170495Y-107996209D03*
D16*
X80710495Y-102916209D03*
%TD*%
D15*
%TO.C,REF\u002A\u002A*%
X159454713Y-88940058D03*
X149294713Y-88940058D03*
D16*
X150564713Y-86400058D03*
D17*
X154374713Y-88940058D03*
D16*
X156914713Y-83860058D03*
%TD*%
D15*
%TO.C,REF\u002A\u002A*%
X197510613Y-88940058D03*
X187350613Y-88940058D03*
D16*
X188620613Y-86400058D03*
D17*
X192430613Y-88940058D03*
D16*
X194970613Y-83860058D03*
%TD*%
D15*
%TO.C,REF\u002A\u002A*%
X178482663Y-88940058D03*
X168322663Y-88940058D03*
D16*
X169592663Y-86400058D03*
D17*
X173402663Y-88940058D03*
D16*
X175942663Y-83860058D03*
%TD*%
M02*
