%TF.GenerationSoftware,KiCad,Pcbnew,(5.1.6)-1*%
%TF.CreationDate,2020-05-26T22:06:07-05:00*%
%TF.ProjectId,cerkit48,6365726b-6974-4343-982e-6b696361645f,rev?*%
%TF.SameCoordinates,Original*%
%TF.FileFunction,Legend,Top*%
%TF.FilePolarity,Positive*%
%FSLAX46Y46*%
G04 Gerber Fmt 4.6, Leading zero omitted, Abs format (unit mm)*
G04 Created by KiCad (PCBNEW (5.1.6)-1) date 2020-05-26 22:06:07*
%MOMM*%
%LPD*%
G01*
G04 APERTURE LIST*
%ADD10C,0.120000*%
%ADD11C,0.150000*%
%ADD12C,3.300000*%
%ADD13C,4.087800*%
%ADD14C,1.850000*%
%ADD15O,1.700000X1.700000*%
%ADD16R,1.700000X1.700000*%
%ADD17C,1.800000*%
%ADD18C,1.624000*%
%ADD19R,1.624000X1.624000*%
G04 APERTURE END LIST*
D10*
%TO.C,D34*%
X216367500Y-104672500D02*
X218607500Y-104672500D01*
X218607500Y-104672500D02*
X218607500Y-100432500D01*
X218607500Y-100432500D02*
X216367500Y-100432500D01*
X216367500Y-100432500D02*
X216367500Y-104672500D01*
X217487500Y-105322500D02*
X217487500Y-104672500D01*
X217487500Y-99782500D02*
X217487500Y-100432500D01*
X216367500Y-103952500D02*
X218607500Y-103952500D01*
X216367500Y-103832500D02*
X218607500Y-103832500D01*
X216367500Y-104072500D02*
X218607500Y-104072500D01*
%TO.C,D44*%
X178267500Y-123722500D02*
X180507500Y-123722500D01*
X180507500Y-123722500D02*
X180507500Y-119482500D01*
X180507500Y-119482500D02*
X178267500Y-119482500D01*
X178267500Y-119482500D02*
X178267500Y-123722500D01*
X179387500Y-124372500D02*
X179387500Y-123722500D01*
X179387500Y-118832500D02*
X179387500Y-119482500D01*
X178267500Y-123002500D02*
X180507500Y-123002500D01*
X178267500Y-122882500D02*
X180507500Y-122882500D01*
X178267500Y-123122500D02*
X180507500Y-123122500D01*
%TO.C,D43*%
X159217500Y-123722500D02*
X161457500Y-123722500D01*
X161457500Y-123722500D02*
X161457500Y-119482500D01*
X161457500Y-119482500D02*
X159217500Y-119482500D01*
X159217500Y-119482500D02*
X159217500Y-123722500D01*
X160337500Y-124372500D02*
X160337500Y-123722500D01*
X160337500Y-118832500D02*
X160337500Y-119482500D01*
X159217500Y-123002500D02*
X161457500Y-123002500D01*
X159217500Y-122882500D02*
X161457500Y-122882500D01*
X159217500Y-123122500D02*
X161457500Y-123122500D01*
%TO.C,D48*%
X254467500Y-123722500D02*
X256707500Y-123722500D01*
X256707500Y-123722500D02*
X256707500Y-119482500D01*
X256707500Y-119482500D02*
X254467500Y-119482500D01*
X254467500Y-119482500D02*
X254467500Y-123722500D01*
X255587500Y-124372500D02*
X255587500Y-123722500D01*
X255587500Y-118832500D02*
X255587500Y-119482500D01*
X254467500Y-123002500D02*
X256707500Y-123002500D01*
X254467500Y-122882500D02*
X256707500Y-122882500D01*
X254467500Y-123122500D02*
X256707500Y-123122500D01*
%TO.C,D47*%
X235417500Y-123722500D02*
X237657500Y-123722500D01*
X237657500Y-123722500D02*
X237657500Y-119482500D01*
X237657500Y-119482500D02*
X235417500Y-119482500D01*
X235417500Y-119482500D02*
X235417500Y-123722500D01*
X236537500Y-124372500D02*
X236537500Y-123722500D01*
X236537500Y-118832500D02*
X236537500Y-119482500D01*
X235417500Y-123002500D02*
X237657500Y-123002500D01*
X235417500Y-122882500D02*
X237657500Y-122882500D01*
X235417500Y-123122500D02*
X237657500Y-123122500D01*
%TO.C,D42*%
X140167500Y-123722500D02*
X142407500Y-123722500D01*
X142407500Y-123722500D02*
X142407500Y-119482500D01*
X142407500Y-119482500D02*
X140167500Y-119482500D01*
X140167500Y-119482500D02*
X140167500Y-123722500D01*
X141287500Y-124372500D02*
X141287500Y-123722500D01*
X141287500Y-118832500D02*
X141287500Y-119482500D01*
X140167500Y-123002500D02*
X142407500Y-123002500D01*
X140167500Y-122882500D02*
X142407500Y-122882500D01*
X140167500Y-123122500D02*
X142407500Y-123122500D01*
%TO.C,D46*%
X216558000Y-123659000D02*
X218798000Y-123659000D01*
X218798000Y-123659000D02*
X218798000Y-119419000D01*
X218798000Y-119419000D02*
X216558000Y-119419000D01*
X216558000Y-119419000D02*
X216558000Y-123659000D01*
X217678000Y-124309000D02*
X217678000Y-123659000D01*
X217678000Y-118769000D02*
X217678000Y-119419000D01*
X216558000Y-122939000D02*
X218798000Y-122939000D01*
X216558000Y-122819000D02*
X218798000Y-122819000D01*
X216558000Y-123059000D02*
X218798000Y-123059000D01*
%TO.C,D41*%
X121117500Y-123722500D02*
X123357500Y-123722500D01*
X123357500Y-123722500D02*
X123357500Y-119482500D01*
X123357500Y-119482500D02*
X121117500Y-119482500D01*
X121117500Y-119482500D02*
X121117500Y-123722500D01*
X122237500Y-124372500D02*
X122237500Y-123722500D01*
X122237500Y-118832500D02*
X122237500Y-119482500D01*
X121117500Y-123002500D02*
X123357500Y-123002500D01*
X121117500Y-122882500D02*
X123357500Y-122882500D01*
X121117500Y-123122500D02*
X123357500Y-123122500D01*
%TO.C,D45*%
X197317500Y-123722500D02*
X199557500Y-123722500D01*
X199557500Y-123722500D02*
X199557500Y-119482500D01*
X199557500Y-119482500D02*
X197317500Y-119482500D01*
X197317500Y-119482500D02*
X197317500Y-123722500D01*
X198437500Y-124372500D02*
X198437500Y-123722500D01*
X198437500Y-118832500D02*
X198437500Y-119482500D01*
X197317500Y-123002500D02*
X199557500Y-123002500D01*
X197317500Y-122882500D02*
X199557500Y-122882500D01*
X197317500Y-123122500D02*
X199557500Y-123122500D01*
%TO.C,D37*%
X44917500Y-123122500D02*
X47157500Y-123122500D01*
X44917500Y-122882500D02*
X47157500Y-122882500D01*
X44917500Y-123002500D02*
X47157500Y-123002500D01*
X46037500Y-118832500D02*
X46037500Y-119482500D01*
X46037500Y-124372500D02*
X46037500Y-123722500D01*
X44917500Y-119482500D02*
X44917500Y-123722500D01*
X47157500Y-119482500D02*
X44917500Y-119482500D01*
X47157500Y-123722500D02*
X47157500Y-119482500D01*
X44917500Y-123722500D02*
X47157500Y-123722500D01*
%TO.C,D36*%
X254467500Y-104672500D02*
X256707500Y-104672500D01*
X256707500Y-104672500D02*
X256707500Y-100432500D01*
X256707500Y-100432500D02*
X254467500Y-100432500D01*
X254467500Y-100432500D02*
X254467500Y-104672500D01*
X255587500Y-105322500D02*
X255587500Y-104672500D01*
X255587500Y-99782500D02*
X255587500Y-100432500D01*
X254467500Y-103952500D02*
X256707500Y-103952500D01*
X254467500Y-103832500D02*
X256707500Y-103832500D01*
X254467500Y-104072500D02*
X256707500Y-104072500D01*
%TO.C,D35*%
X235417500Y-104672500D02*
X237657500Y-104672500D01*
X237657500Y-104672500D02*
X237657500Y-100432500D01*
X237657500Y-100432500D02*
X235417500Y-100432500D01*
X235417500Y-100432500D02*
X235417500Y-104672500D01*
X236537500Y-105322500D02*
X236537500Y-104672500D01*
X236537500Y-99782500D02*
X236537500Y-100432500D01*
X235417500Y-103952500D02*
X237657500Y-103952500D01*
X235417500Y-103832500D02*
X237657500Y-103832500D01*
X235417500Y-104072500D02*
X237657500Y-104072500D01*
%TO.C,D33*%
X197317500Y-104672500D02*
X199557500Y-104672500D01*
X199557500Y-104672500D02*
X199557500Y-100432500D01*
X199557500Y-100432500D02*
X197317500Y-100432500D01*
X197317500Y-100432500D02*
X197317500Y-104672500D01*
X198437500Y-105322500D02*
X198437500Y-104672500D01*
X198437500Y-99782500D02*
X198437500Y-100432500D01*
X197317500Y-103952500D02*
X199557500Y-103952500D01*
X197317500Y-103832500D02*
X199557500Y-103832500D01*
X197317500Y-104072500D02*
X199557500Y-104072500D01*
%TO.C,D39*%
X83017500Y-123122500D02*
X85257500Y-123122500D01*
X83017500Y-122882500D02*
X85257500Y-122882500D01*
X83017500Y-123002500D02*
X85257500Y-123002500D01*
X84137500Y-118832500D02*
X84137500Y-119482500D01*
X84137500Y-124372500D02*
X84137500Y-123722500D01*
X83017500Y-119482500D02*
X83017500Y-123722500D01*
X85257500Y-119482500D02*
X83017500Y-119482500D01*
X85257500Y-123722500D02*
X85257500Y-119482500D01*
X83017500Y-123722500D02*
X85257500Y-123722500D01*
%TO.C,D38*%
X63967500Y-123722500D02*
X66207500Y-123722500D01*
X66207500Y-123722500D02*
X66207500Y-119482500D01*
X66207500Y-119482500D02*
X63967500Y-119482500D01*
X63967500Y-119482500D02*
X63967500Y-123722500D01*
X65087500Y-124372500D02*
X65087500Y-123722500D01*
X65087500Y-118832500D02*
X65087500Y-119482500D01*
X63967500Y-123002500D02*
X66207500Y-123002500D01*
X63967500Y-122882500D02*
X66207500Y-122882500D01*
X63967500Y-123122500D02*
X66207500Y-123122500D01*
%TO.C,D40*%
X102067500Y-123722500D02*
X104307500Y-123722500D01*
X104307500Y-123722500D02*
X104307500Y-119482500D01*
X104307500Y-119482500D02*
X102067500Y-119482500D01*
X102067500Y-119482500D02*
X102067500Y-123722500D01*
X103187500Y-124372500D02*
X103187500Y-123722500D01*
X103187500Y-118832500D02*
X103187500Y-119482500D01*
X102067500Y-123002500D02*
X104307500Y-123002500D01*
X102067500Y-122882500D02*
X104307500Y-122882500D01*
X102067500Y-123122500D02*
X104307500Y-123122500D01*
%TO.C,D8*%
X178331000Y-66413750D02*
X180571000Y-66413750D01*
X180571000Y-66413750D02*
X180571000Y-62173750D01*
X180571000Y-62173750D02*
X178331000Y-62173750D01*
X178331000Y-62173750D02*
X178331000Y-66413750D01*
X179451000Y-67063750D02*
X179451000Y-66413750D01*
X179451000Y-61523750D02*
X179451000Y-62173750D01*
X178331000Y-65693750D02*
X180571000Y-65693750D01*
X178331000Y-65573750D02*
X180571000Y-65573750D01*
X178331000Y-65813750D02*
X180571000Y-65813750D01*
%TO.C,D7*%
X159281000Y-66413750D02*
X161521000Y-66413750D01*
X161521000Y-66413750D02*
X161521000Y-62173750D01*
X161521000Y-62173750D02*
X159281000Y-62173750D01*
X159281000Y-62173750D02*
X159281000Y-66413750D01*
X160401000Y-67063750D02*
X160401000Y-66413750D01*
X160401000Y-61523750D02*
X160401000Y-62173750D01*
X159281000Y-65693750D02*
X161521000Y-65693750D01*
X159281000Y-65573750D02*
X161521000Y-65573750D01*
X159281000Y-65813750D02*
X161521000Y-65813750D01*
%TO.C,D17*%
X121181000Y-85463750D02*
X123421000Y-85463750D01*
X123421000Y-85463750D02*
X123421000Y-81223750D01*
X123421000Y-81223750D02*
X121181000Y-81223750D01*
X121181000Y-81223750D02*
X121181000Y-85463750D01*
X122301000Y-86113750D02*
X122301000Y-85463750D01*
X122301000Y-80573750D02*
X122301000Y-81223750D01*
X121181000Y-84743750D02*
X123421000Y-84743750D01*
X121181000Y-84623750D02*
X123421000Y-84623750D01*
X121181000Y-84863750D02*
X123421000Y-84863750D01*
%TO.C,D18*%
X140485000Y-85463750D02*
X142725000Y-85463750D01*
X142725000Y-85463750D02*
X142725000Y-81223750D01*
X142725000Y-81223750D02*
X140485000Y-81223750D01*
X140485000Y-81223750D02*
X140485000Y-85463750D01*
X141605000Y-86113750D02*
X141605000Y-85463750D01*
X141605000Y-80573750D02*
X141605000Y-81223750D01*
X140485000Y-84743750D02*
X142725000Y-84743750D01*
X140485000Y-84623750D02*
X142725000Y-84623750D01*
X140485000Y-84863750D02*
X142725000Y-84863750D01*
%TO.C,D31*%
X159217500Y-104672500D02*
X161457500Y-104672500D01*
X161457500Y-104672500D02*
X161457500Y-100432500D01*
X161457500Y-100432500D02*
X159217500Y-100432500D01*
X159217500Y-100432500D02*
X159217500Y-104672500D01*
X160337500Y-105322500D02*
X160337500Y-104672500D01*
X160337500Y-99782500D02*
X160337500Y-100432500D01*
X159217500Y-103952500D02*
X161457500Y-103952500D01*
X159217500Y-103832500D02*
X161457500Y-103832500D01*
X159217500Y-104072500D02*
X161457500Y-104072500D01*
%TO.C,D29*%
X121117500Y-104672500D02*
X123357500Y-104672500D01*
X123357500Y-104672500D02*
X123357500Y-100432500D01*
X123357500Y-100432500D02*
X121117500Y-100432500D01*
X121117500Y-100432500D02*
X121117500Y-104672500D01*
X122237500Y-105322500D02*
X122237500Y-104672500D01*
X122237500Y-99782500D02*
X122237500Y-100432500D01*
X121117500Y-103952500D02*
X123357500Y-103952500D01*
X121117500Y-103832500D02*
X123357500Y-103832500D01*
X121117500Y-104072500D02*
X123357500Y-104072500D01*
%TO.C,D25*%
X44917500Y-104072500D02*
X47157500Y-104072500D01*
X44917500Y-103832500D02*
X47157500Y-103832500D01*
X44917500Y-103952500D02*
X47157500Y-103952500D01*
X46037500Y-99782500D02*
X46037500Y-100432500D01*
X46037500Y-105322500D02*
X46037500Y-104672500D01*
X44917500Y-100432500D02*
X44917500Y-104672500D01*
X47157500Y-100432500D02*
X44917500Y-100432500D01*
X47157500Y-104672500D02*
X47157500Y-100432500D01*
X44917500Y-104672500D02*
X47157500Y-104672500D01*
%TO.C,D22*%
X216685000Y-85463750D02*
X218925000Y-85463750D01*
X218925000Y-85463750D02*
X218925000Y-81223750D01*
X218925000Y-81223750D02*
X216685000Y-81223750D01*
X216685000Y-81223750D02*
X216685000Y-85463750D01*
X217805000Y-86113750D02*
X217805000Y-85463750D01*
X217805000Y-80573750D02*
X217805000Y-81223750D01*
X216685000Y-84743750D02*
X218925000Y-84743750D01*
X216685000Y-84623750D02*
X218925000Y-84623750D01*
X216685000Y-84863750D02*
X218925000Y-84863750D01*
%TO.C,D16*%
X102385000Y-85463750D02*
X104625000Y-85463750D01*
X104625000Y-85463750D02*
X104625000Y-81223750D01*
X104625000Y-81223750D02*
X102385000Y-81223750D01*
X102385000Y-81223750D02*
X102385000Y-85463750D01*
X103505000Y-86113750D02*
X103505000Y-85463750D01*
X103505000Y-80573750D02*
X103505000Y-81223750D01*
X102385000Y-84743750D02*
X104625000Y-84743750D01*
X102385000Y-84623750D02*
X104625000Y-84623750D01*
X102385000Y-84863750D02*
X104625000Y-84863750D01*
%TO.C,D4*%
X102131000Y-66413750D02*
X104371000Y-66413750D01*
X104371000Y-66413750D02*
X104371000Y-62173750D01*
X104371000Y-62173750D02*
X102131000Y-62173750D01*
X102131000Y-62173750D02*
X102131000Y-66413750D01*
X103251000Y-67063750D02*
X103251000Y-66413750D01*
X103251000Y-61523750D02*
X103251000Y-62173750D01*
X102131000Y-65693750D02*
X104371000Y-65693750D01*
X102131000Y-65573750D02*
X104371000Y-65573750D01*
X102131000Y-65813750D02*
X104371000Y-65813750D01*
%TO.C,D32*%
X178267500Y-104672500D02*
X180507500Y-104672500D01*
X180507500Y-104672500D02*
X180507500Y-100432500D01*
X180507500Y-100432500D02*
X178267500Y-100432500D01*
X178267500Y-100432500D02*
X178267500Y-104672500D01*
X179387500Y-105322500D02*
X179387500Y-104672500D01*
X179387500Y-99782500D02*
X179387500Y-100432500D01*
X178267500Y-103952500D02*
X180507500Y-103952500D01*
X178267500Y-103832500D02*
X180507500Y-103832500D01*
X178267500Y-104072500D02*
X180507500Y-104072500D01*
%TO.C,D26*%
X63967500Y-104672500D02*
X66207500Y-104672500D01*
X66207500Y-104672500D02*
X66207500Y-100432500D01*
X66207500Y-100432500D02*
X63967500Y-100432500D01*
X63967500Y-100432500D02*
X63967500Y-104672500D01*
X65087500Y-105322500D02*
X65087500Y-104672500D01*
X65087500Y-99782500D02*
X65087500Y-100432500D01*
X63967500Y-103952500D02*
X66207500Y-103952500D01*
X63967500Y-103832500D02*
X66207500Y-103832500D01*
X63967500Y-104072500D02*
X66207500Y-104072500D01*
%TO.C,D19*%
X159535000Y-85463750D02*
X161775000Y-85463750D01*
X161775000Y-85463750D02*
X161775000Y-81223750D01*
X161775000Y-81223750D02*
X159535000Y-81223750D01*
X159535000Y-81223750D02*
X159535000Y-85463750D01*
X160655000Y-86113750D02*
X160655000Y-85463750D01*
X160655000Y-80573750D02*
X160655000Y-81223750D01*
X159535000Y-84743750D02*
X161775000Y-84743750D01*
X159535000Y-84623750D02*
X161775000Y-84623750D01*
X159535000Y-84863750D02*
X161775000Y-84863750D01*
%TO.C,D24*%
X254785000Y-84670000D02*
X257025000Y-84670000D01*
X257025000Y-84670000D02*
X257025000Y-80430000D01*
X257025000Y-80430000D02*
X254785000Y-80430000D01*
X254785000Y-80430000D02*
X254785000Y-84670000D01*
X255905000Y-85320000D02*
X255905000Y-84670000D01*
X255905000Y-79780000D02*
X255905000Y-80430000D01*
X254785000Y-83950000D02*
X257025000Y-83950000D01*
X254785000Y-83830000D02*
X257025000Y-83830000D01*
X254785000Y-84070000D02*
X257025000Y-84070000D01*
%TO.C,D11*%
X235735000Y-66413750D02*
X237975000Y-66413750D01*
X237975000Y-66413750D02*
X237975000Y-62173750D01*
X237975000Y-62173750D02*
X235735000Y-62173750D01*
X235735000Y-62173750D02*
X235735000Y-66413750D01*
X236855000Y-67063750D02*
X236855000Y-66413750D01*
X236855000Y-61523750D02*
X236855000Y-62173750D01*
X235735000Y-65693750D02*
X237975000Y-65693750D01*
X235735000Y-65573750D02*
X237975000Y-65573750D01*
X235735000Y-65813750D02*
X237975000Y-65813750D01*
%TO.C,D14*%
X64285000Y-85463750D02*
X66525000Y-85463750D01*
X66525000Y-85463750D02*
X66525000Y-81223750D01*
X66525000Y-81223750D02*
X64285000Y-81223750D01*
X64285000Y-81223750D02*
X64285000Y-85463750D01*
X65405000Y-86113750D02*
X65405000Y-85463750D01*
X65405000Y-80573750D02*
X65405000Y-81223750D01*
X64285000Y-84743750D02*
X66525000Y-84743750D01*
X64285000Y-84623750D02*
X66525000Y-84623750D01*
X64285000Y-84863750D02*
X66525000Y-84863750D01*
%TO.C,D10*%
X216685000Y-66413750D02*
X218925000Y-66413750D01*
X218925000Y-66413750D02*
X218925000Y-62173750D01*
X218925000Y-62173750D02*
X216685000Y-62173750D01*
X216685000Y-62173750D02*
X216685000Y-66413750D01*
X217805000Y-67063750D02*
X217805000Y-66413750D01*
X217805000Y-61523750D02*
X217805000Y-62173750D01*
X216685000Y-65693750D02*
X218925000Y-65693750D01*
X216685000Y-65573750D02*
X218925000Y-65573750D01*
X216685000Y-65813750D02*
X218925000Y-65813750D01*
%TO.C,D30*%
X140167500Y-104672500D02*
X142407500Y-104672500D01*
X142407500Y-104672500D02*
X142407500Y-100432500D01*
X142407500Y-100432500D02*
X140167500Y-100432500D01*
X140167500Y-100432500D02*
X140167500Y-104672500D01*
X141287500Y-105322500D02*
X141287500Y-104672500D01*
X141287500Y-99782500D02*
X141287500Y-100432500D01*
X140167500Y-103952500D02*
X142407500Y-103952500D01*
X140167500Y-103832500D02*
X142407500Y-103832500D01*
X140167500Y-104072500D02*
X142407500Y-104072500D01*
%TO.C,D9*%
X197381000Y-66413750D02*
X199621000Y-66413750D01*
X199621000Y-66413750D02*
X199621000Y-62173750D01*
X199621000Y-62173750D02*
X197381000Y-62173750D01*
X197381000Y-62173750D02*
X197381000Y-66413750D01*
X198501000Y-67063750D02*
X198501000Y-66413750D01*
X198501000Y-61523750D02*
X198501000Y-62173750D01*
X197381000Y-65693750D02*
X199621000Y-65693750D01*
X197381000Y-65573750D02*
X199621000Y-65573750D01*
X197381000Y-65813750D02*
X199621000Y-65813750D01*
%TO.C,D20*%
X178585000Y-85463750D02*
X180825000Y-85463750D01*
X180825000Y-85463750D02*
X180825000Y-81223750D01*
X180825000Y-81223750D02*
X178585000Y-81223750D01*
X178585000Y-81223750D02*
X178585000Y-85463750D01*
X179705000Y-86113750D02*
X179705000Y-85463750D01*
X179705000Y-80573750D02*
X179705000Y-81223750D01*
X178585000Y-84743750D02*
X180825000Y-84743750D01*
X178585000Y-84623750D02*
X180825000Y-84623750D01*
X178585000Y-84863750D02*
X180825000Y-84863750D01*
%TO.C,D12*%
X254785000Y-65620000D02*
X257025000Y-65620000D01*
X257025000Y-65620000D02*
X257025000Y-61380000D01*
X257025000Y-61380000D02*
X254785000Y-61380000D01*
X254785000Y-61380000D02*
X254785000Y-65620000D01*
X255905000Y-66270000D02*
X255905000Y-65620000D01*
X255905000Y-60730000D02*
X255905000Y-61380000D01*
X254785000Y-64900000D02*
X257025000Y-64900000D01*
X254785000Y-64780000D02*
X257025000Y-64780000D01*
X254785000Y-65020000D02*
X257025000Y-65020000D01*
%TO.C,D23*%
X235735000Y-85463750D02*
X237975000Y-85463750D01*
X237975000Y-85463750D02*
X237975000Y-81223750D01*
X237975000Y-81223750D02*
X235735000Y-81223750D01*
X235735000Y-81223750D02*
X235735000Y-85463750D01*
X236855000Y-86113750D02*
X236855000Y-85463750D01*
X236855000Y-80573750D02*
X236855000Y-81223750D01*
X235735000Y-84743750D02*
X237975000Y-84743750D01*
X235735000Y-84623750D02*
X237975000Y-84623750D01*
X235735000Y-84863750D02*
X237975000Y-84863750D01*
%TO.C,D3*%
X83081000Y-65813750D02*
X85321000Y-65813750D01*
X83081000Y-65573750D02*
X85321000Y-65573750D01*
X83081000Y-65693750D02*
X85321000Y-65693750D01*
X84201000Y-61523750D02*
X84201000Y-62173750D01*
X84201000Y-67063750D02*
X84201000Y-66413750D01*
X83081000Y-62173750D02*
X83081000Y-66413750D01*
X85321000Y-62173750D02*
X83081000Y-62173750D01*
X85321000Y-66413750D02*
X85321000Y-62173750D01*
X83081000Y-66413750D02*
X85321000Y-66413750D01*
%TO.C,D2*%
X64031000Y-66413750D02*
X66271000Y-66413750D01*
X66271000Y-66413750D02*
X66271000Y-62173750D01*
X66271000Y-62173750D02*
X64031000Y-62173750D01*
X64031000Y-62173750D02*
X64031000Y-66413750D01*
X65151000Y-67063750D02*
X65151000Y-66413750D01*
X65151000Y-61523750D02*
X65151000Y-62173750D01*
X64031000Y-65693750D02*
X66271000Y-65693750D01*
X64031000Y-65573750D02*
X66271000Y-65573750D01*
X64031000Y-65813750D02*
X66271000Y-65813750D01*
%TO.C,D1*%
X44981000Y-65813750D02*
X47221000Y-65813750D01*
X44981000Y-65573750D02*
X47221000Y-65573750D01*
X44981000Y-65693750D02*
X47221000Y-65693750D01*
X46101000Y-61523750D02*
X46101000Y-62173750D01*
X46101000Y-67063750D02*
X46101000Y-66413750D01*
X44981000Y-62173750D02*
X44981000Y-66413750D01*
X47221000Y-62173750D02*
X44981000Y-62173750D01*
X47221000Y-66413750D02*
X47221000Y-62173750D01*
X44981000Y-66413750D02*
X47221000Y-66413750D01*
%TO.C,D21*%
X197635000Y-85463750D02*
X199875000Y-85463750D01*
X199875000Y-85463750D02*
X199875000Y-81223750D01*
X199875000Y-81223750D02*
X197635000Y-81223750D01*
X197635000Y-81223750D02*
X197635000Y-85463750D01*
X198755000Y-86113750D02*
X198755000Y-85463750D01*
X198755000Y-80573750D02*
X198755000Y-81223750D01*
X197635000Y-84743750D02*
X199875000Y-84743750D01*
X197635000Y-84623750D02*
X199875000Y-84623750D01*
X197635000Y-84863750D02*
X199875000Y-84863750D01*
%TO.C,D28*%
X102067500Y-104672500D02*
X104307500Y-104672500D01*
X104307500Y-104672500D02*
X104307500Y-100432500D01*
X104307500Y-100432500D02*
X102067500Y-100432500D01*
X102067500Y-100432500D02*
X102067500Y-104672500D01*
X103187500Y-105322500D02*
X103187500Y-104672500D01*
X103187500Y-99782500D02*
X103187500Y-100432500D01*
X102067500Y-103952500D02*
X104307500Y-103952500D01*
X102067500Y-103832500D02*
X104307500Y-103832500D01*
X102067500Y-104072500D02*
X104307500Y-104072500D01*
%TO.C,D27*%
X83017500Y-104072500D02*
X85257500Y-104072500D01*
X83017500Y-103832500D02*
X85257500Y-103832500D01*
X83017500Y-103952500D02*
X85257500Y-103952500D01*
X84137500Y-99782500D02*
X84137500Y-100432500D01*
X84137500Y-105322500D02*
X84137500Y-104672500D01*
X83017500Y-100432500D02*
X83017500Y-104672500D01*
X85257500Y-100432500D02*
X83017500Y-100432500D01*
X85257500Y-104672500D02*
X85257500Y-100432500D01*
X83017500Y-104672500D02*
X85257500Y-104672500D01*
%TO.C,D13*%
X45235000Y-84863750D02*
X47475000Y-84863750D01*
X45235000Y-84623750D02*
X47475000Y-84623750D01*
X45235000Y-84743750D02*
X47475000Y-84743750D01*
X46355000Y-80573750D02*
X46355000Y-81223750D01*
X46355000Y-86113750D02*
X46355000Y-85463750D01*
X45235000Y-81223750D02*
X45235000Y-85463750D01*
X47475000Y-81223750D02*
X45235000Y-81223750D01*
X47475000Y-85463750D02*
X47475000Y-81223750D01*
X45235000Y-85463750D02*
X47475000Y-85463750D01*
%TO.C,D15*%
X83335000Y-84863750D02*
X85575000Y-84863750D01*
X83335000Y-84623750D02*
X85575000Y-84623750D01*
X83335000Y-84743750D02*
X85575000Y-84743750D01*
X84455000Y-80573750D02*
X84455000Y-81223750D01*
X84455000Y-86113750D02*
X84455000Y-85463750D01*
X83335000Y-81223750D02*
X83335000Y-85463750D01*
X85575000Y-81223750D02*
X83335000Y-81223750D01*
X85575000Y-85463750D02*
X85575000Y-81223750D01*
X83335000Y-85463750D02*
X85575000Y-85463750D01*
%TO.C,D6*%
X140231000Y-66413750D02*
X142471000Y-66413750D01*
X142471000Y-66413750D02*
X142471000Y-62173750D01*
X142471000Y-62173750D02*
X140231000Y-62173750D01*
X140231000Y-62173750D02*
X140231000Y-66413750D01*
X141351000Y-67063750D02*
X141351000Y-66413750D01*
X141351000Y-61523750D02*
X141351000Y-62173750D01*
X140231000Y-65693750D02*
X142471000Y-65693750D01*
X140231000Y-65573750D02*
X142471000Y-65573750D01*
X140231000Y-65813750D02*
X142471000Y-65813750D01*
%TO.C,D5*%
X121181000Y-66382000D02*
X123421000Y-66382000D01*
X123421000Y-66382000D02*
X123421000Y-62142000D01*
X123421000Y-62142000D02*
X121181000Y-62142000D01*
X121181000Y-62142000D02*
X121181000Y-66382000D01*
X122301000Y-67032000D02*
X122301000Y-66382000D01*
X122301000Y-61492000D02*
X122301000Y-62142000D01*
X121181000Y-65662000D02*
X123421000Y-65662000D01*
X121181000Y-65542000D02*
X123421000Y-65542000D01*
X121181000Y-65782000D02*
X123421000Y-65782000D01*
%TO.C,H2*%
D11*
X255778095Y-59262380D02*
X255778095Y-58262380D01*
X255778095Y-58738571D02*
X256349523Y-58738571D01*
X256349523Y-59262380D02*
X256349523Y-58262380D01*
X256778095Y-58357619D02*
X256825714Y-58310000D01*
X256920952Y-58262380D01*
X257159047Y-58262380D01*
X257254285Y-58310000D01*
X257301904Y-58357619D01*
X257349523Y-58452857D01*
X257349523Y-58548095D01*
X257301904Y-58690952D01*
X256730476Y-59262380D01*
X257349523Y-59262380D01*
%TO.C,D34*%
X215819880Y-103766785D02*
X214819880Y-103766785D01*
X214819880Y-103528690D01*
X214867500Y-103385833D01*
X214962738Y-103290595D01*
X215057976Y-103242976D01*
X215248452Y-103195357D01*
X215391309Y-103195357D01*
X215581785Y-103242976D01*
X215677023Y-103290595D01*
X215772261Y-103385833D01*
X215819880Y-103528690D01*
X215819880Y-103766785D01*
X214819880Y-102862023D02*
X214819880Y-102242976D01*
X215200833Y-102576309D01*
X215200833Y-102433452D01*
X215248452Y-102338214D01*
X215296071Y-102290595D01*
X215391309Y-102242976D01*
X215629404Y-102242976D01*
X215724642Y-102290595D01*
X215772261Y-102338214D01*
X215819880Y-102433452D01*
X215819880Y-102719166D01*
X215772261Y-102814404D01*
X215724642Y-102862023D01*
X215153214Y-101385833D02*
X215819880Y-101385833D01*
X214772261Y-101623928D02*
X215486547Y-101862023D01*
X215486547Y-101242976D01*
X216139880Y-106624404D02*
X215139880Y-106624404D01*
X216139880Y-106052976D02*
X215568452Y-106481547D01*
X215139880Y-106052976D02*
X215711309Y-106624404D01*
%TO.C,D44*%
X177719880Y-122816785D02*
X176719880Y-122816785D01*
X176719880Y-122578690D01*
X176767500Y-122435833D01*
X176862738Y-122340595D01*
X176957976Y-122292976D01*
X177148452Y-122245357D01*
X177291309Y-122245357D01*
X177481785Y-122292976D01*
X177577023Y-122340595D01*
X177672261Y-122435833D01*
X177719880Y-122578690D01*
X177719880Y-122816785D01*
X177053214Y-121388214D02*
X177719880Y-121388214D01*
X176672261Y-121626309D02*
X177386547Y-121864404D01*
X177386547Y-121245357D01*
X177053214Y-120435833D02*
X177719880Y-120435833D01*
X176672261Y-120673928D02*
X177386547Y-120912023D01*
X177386547Y-120292976D01*
X178039880Y-125674404D02*
X177039880Y-125674404D01*
X178039880Y-125102976D02*
X177468452Y-125531547D01*
X177039880Y-125102976D02*
X177611309Y-125674404D01*
%TO.C,D43*%
X158669880Y-122816785D02*
X157669880Y-122816785D01*
X157669880Y-122578690D01*
X157717500Y-122435833D01*
X157812738Y-122340595D01*
X157907976Y-122292976D01*
X158098452Y-122245357D01*
X158241309Y-122245357D01*
X158431785Y-122292976D01*
X158527023Y-122340595D01*
X158622261Y-122435833D01*
X158669880Y-122578690D01*
X158669880Y-122816785D01*
X158003214Y-121388214D02*
X158669880Y-121388214D01*
X157622261Y-121626309D02*
X158336547Y-121864404D01*
X158336547Y-121245357D01*
X157669880Y-120959642D02*
X157669880Y-120340595D01*
X158050833Y-120673928D01*
X158050833Y-120531071D01*
X158098452Y-120435833D01*
X158146071Y-120388214D01*
X158241309Y-120340595D01*
X158479404Y-120340595D01*
X158574642Y-120388214D01*
X158622261Y-120435833D01*
X158669880Y-120531071D01*
X158669880Y-120816785D01*
X158622261Y-120912023D01*
X158574642Y-120959642D01*
X158989880Y-125674404D02*
X157989880Y-125674404D01*
X158989880Y-125102976D02*
X158418452Y-125531547D01*
X157989880Y-125102976D02*
X158561309Y-125674404D01*
%TO.C,D48*%
X253919880Y-122816785D02*
X252919880Y-122816785D01*
X252919880Y-122578690D01*
X252967500Y-122435833D01*
X253062738Y-122340595D01*
X253157976Y-122292976D01*
X253348452Y-122245357D01*
X253491309Y-122245357D01*
X253681785Y-122292976D01*
X253777023Y-122340595D01*
X253872261Y-122435833D01*
X253919880Y-122578690D01*
X253919880Y-122816785D01*
X253253214Y-121388214D02*
X253919880Y-121388214D01*
X252872261Y-121626309D02*
X253586547Y-121864404D01*
X253586547Y-121245357D01*
X253348452Y-120721547D02*
X253300833Y-120816785D01*
X253253214Y-120864404D01*
X253157976Y-120912023D01*
X253110357Y-120912023D01*
X253015119Y-120864404D01*
X252967500Y-120816785D01*
X252919880Y-120721547D01*
X252919880Y-120531071D01*
X252967500Y-120435833D01*
X253015119Y-120388214D01*
X253110357Y-120340595D01*
X253157976Y-120340595D01*
X253253214Y-120388214D01*
X253300833Y-120435833D01*
X253348452Y-120531071D01*
X253348452Y-120721547D01*
X253396071Y-120816785D01*
X253443690Y-120864404D01*
X253538928Y-120912023D01*
X253729404Y-120912023D01*
X253824642Y-120864404D01*
X253872261Y-120816785D01*
X253919880Y-120721547D01*
X253919880Y-120531071D01*
X253872261Y-120435833D01*
X253824642Y-120388214D01*
X253729404Y-120340595D01*
X253538928Y-120340595D01*
X253443690Y-120388214D01*
X253396071Y-120435833D01*
X253348452Y-120531071D01*
X254239880Y-125674404D02*
X253239880Y-125674404D01*
X254239880Y-125102976D02*
X253668452Y-125531547D01*
X253239880Y-125102976D02*
X253811309Y-125674404D01*
%TO.C,D47*%
X234869880Y-122816785D02*
X233869880Y-122816785D01*
X233869880Y-122578690D01*
X233917500Y-122435833D01*
X234012738Y-122340595D01*
X234107976Y-122292976D01*
X234298452Y-122245357D01*
X234441309Y-122245357D01*
X234631785Y-122292976D01*
X234727023Y-122340595D01*
X234822261Y-122435833D01*
X234869880Y-122578690D01*
X234869880Y-122816785D01*
X234203214Y-121388214D02*
X234869880Y-121388214D01*
X233822261Y-121626309D02*
X234536547Y-121864404D01*
X234536547Y-121245357D01*
X233869880Y-120959642D02*
X233869880Y-120292976D01*
X234869880Y-120721547D01*
X235189880Y-125674404D02*
X234189880Y-125674404D01*
X235189880Y-125102976D02*
X234618452Y-125531547D01*
X234189880Y-125102976D02*
X234761309Y-125674404D01*
%TO.C,D42*%
X139619880Y-122816785D02*
X138619880Y-122816785D01*
X138619880Y-122578690D01*
X138667500Y-122435833D01*
X138762738Y-122340595D01*
X138857976Y-122292976D01*
X139048452Y-122245357D01*
X139191309Y-122245357D01*
X139381785Y-122292976D01*
X139477023Y-122340595D01*
X139572261Y-122435833D01*
X139619880Y-122578690D01*
X139619880Y-122816785D01*
X138953214Y-121388214D02*
X139619880Y-121388214D01*
X138572261Y-121626309D02*
X139286547Y-121864404D01*
X139286547Y-121245357D01*
X138715119Y-120912023D02*
X138667500Y-120864404D01*
X138619880Y-120769166D01*
X138619880Y-120531071D01*
X138667500Y-120435833D01*
X138715119Y-120388214D01*
X138810357Y-120340595D01*
X138905595Y-120340595D01*
X139048452Y-120388214D01*
X139619880Y-120959642D01*
X139619880Y-120340595D01*
X139939880Y-125674404D02*
X138939880Y-125674404D01*
X139939880Y-125102976D02*
X139368452Y-125531547D01*
X138939880Y-125102976D02*
X139511309Y-125674404D01*
%TO.C,D46*%
X216010380Y-122753285D02*
X215010380Y-122753285D01*
X215010380Y-122515190D01*
X215058000Y-122372333D01*
X215153238Y-122277095D01*
X215248476Y-122229476D01*
X215438952Y-122181857D01*
X215581809Y-122181857D01*
X215772285Y-122229476D01*
X215867523Y-122277095D01*
X215962761Y-122372333D01*
X216010380Y-122515190D01*
X216010380Y-122753285D01*
X215343714Y-121324714D02*
X216010380Y-121324714D01*
X214962761Y-121562809D02*
X215677047Y-121800904D01*
X215677047Y-121181857D01*
X215010380Y-120372333D02*
X215010380Y-120562809D01*
X215058000Y-120658047D01*
X215105619Y-120705666D01*
X215248476Y-120800904D01*
X215438952Y-120848523D01*
X215819904Y-120848523D01*
X215915142Y-120800904D01*
X215962761Y-120753285D01*
X216010380Y-120658047D01*
X216010380Y-120467571D01*
X215962761Y-120372333D01*
X215915142Y-120324714D01*
X215819904Y-120277095D01*
X215581809Y-120277095D01*
X215486571Y-120324714D01*
X215438952Y-120372333D01*
X215391333Y-120467571D01*
X215391333Y-120658047D01*
X215438952Y-120753285D01*
X215486571Y-120800904D01*
X215581809Y-120848523D01*
X216330380Y-125610904D02*
X215330380Y-125610904D01*
X216330380Y-125039476D02*
X215758952Y-125468047D01*
X215330380Y-125039476D02*
X215901809Y-125610904D01*
%TO.C,D41*%
X120569880Y-122816785D02*
X119569880Y-122816785D01*
X119569880Y-122578690D01*
X119617500Y-122435833D01*
X119712738Y-122340595D01*
X119807976Y-122292976D01*
X119998452Y-122245357D01*
X120141309Y-122245357D01*
X120331785Y-122292976D01*
X120427023Y-122340595D01*
X120522261Y-122435833D01*
X120569880Y-122578690D01*
X120569880Y-122816785D01*
X119903214Y-121388214D02*
X120569880Y-121388214D01*
X119522261Y-121626309D02*
X120236547Y-121864404D01*
X120236547Y-121245357D01*
X120569880Y-120340595D02*
X120569880Y-120912023D01*
X120569880Y-120626309D02*
X119569880Y-120626309D01*
X119712738Y-120721547D01*
X119807976Y-120816785D01*
X119855595Y-120912023D01*
X120889880Y-125674404D02*
X119889880Y-125674404D01*
X120889880Y-125102976D02*
X120318452Y-125531547D01*
X119889880Y-125102976D02*
X120461309Y-125674404D01*
%TO.C,D45*%
X196769880Y-122816785D02*
X195769880Y-122816785D01*
X195769880Y-122578690D01*
X195817500Y-122435833D01*
X195912738Y-122340595D01*
X196007976Y-122292976D01*
X196198452Y-122245357D01*
X196341309Y-122245357D01*
X196531785Y-122292976D01*
X196627023Y-122340595D01*
X196722261Y-122435833D01*
X196769880Y-122578690D01*
X196769880Y-122816785D01*
X196103214Y-121388214D02*
X196769880Y-121388214D01*
X195722261Y-121626309D02*
X196436547Y-121864404D01*
X196436547Y-121245357D01*
X195769880Y-120388214D02*
X195769880Y-120864404D01*
X196246071Y-120912023D01*
X196198452Y-120864404D01*
X196150833Y-120769166D01*
X196150833Y-120531071D01*
X196198452Y-120435833D01*
X196246071Y-120388214D01*
X196341309Y-120340595D01*
X196579404Y-120340595D01*
X196674642Y-120388214D01*
X196722261Y-120435833D01*
X196769880Y-120531071D01*
X196769880Y-120769166D01*
X196722261Y-120864404D01*
X196674642Y-120912023D01*
X197089880Y-125674404D02*
X196089880Y-125674404D01*
X197089880Y-125102976D02*
X196518452Y-125531547D01*
X196089880Y-125102976D02*
X196661309Y-125674404D01*
%TO.C,D37*%
X44369880Y-122816785D02*
X43369880Y-122816785D01*
X43369880Y-122578690D01*
X43417500Y-122435833D01*
X43512738Y-122340595D01*
X43607976Y-122292976D01*
X43798452Y-122245357D01*
X43941309Y-122245357D01*
X44131785Y-122292976D01*
X44227023Y-122340595D01*
X44322261Y-122435833D01*
X44369880Y-122578690D01*
X44369880Y-122816785D01*
X43369880Y-121912023D02*
X43369880Y-121292976D01*
X43750833Y-121626309D01*
X43750833Y-121483452D01*
X43798452Y-121388214D01*
X43846071Y-121340595D01*
X43941309Y-121292976D01*
X44179404Y-121292976D01*
X44274642Y-121340595D01*
X44322261Y-121388214D01*
X44369880Y-121483452D01*
X44369880Y-121769166D01*
X44322261Y-121864404D01*
X44274642Y-121912023D01*
X43369880Y-120959642D02*
X43369880Y-120292976D01*
X44369880Y-120721547D01*
X44689880Y-125674404D02*
X43689880Y-125674404D01*
X44689880Y-125102976D02*
X44118452Y-125531547D01*
X43689880Y-125102976D02*
X44261309Y-125674404D01*
%TO.C,D36*%
X253919880Y-103766785D02*
X252919880Y-103766785D01*
X252919880Y-103528690D01*
X252967500Y-103385833D01*
X253062738Y-103290595D01*
X253157976Y-103242976D01*
X253348452Y-103195357D01*
X253491309Y-103195357D01*
X253681785Y-103242976D01*
X253777023Y-103290595D01*
X253872261Y-103385833D01*
X253919880Y-103528690D01*
X253919880Y-103766785D01*
X252919880Y-102862023D02*
X252919880Y-102242976D01*
X253300833Y-102576309D01*
X253300833Y-102433452D01*
X253348452Y-102338214D01*
X253396071Y-102290595D01*
X253491309Y-102242976D01*
X253729404Y-102242976D01*
X253824642Y-102290595D01*
X253872261Y-102338214D01*
X253919880Y-102433452D01*
X253919880Y-102719166D01*
X253872261Y-102814404D01*
X253824642Y-102862023D01*
X252919880Y-101385833D02*
X252919880Y-101576309D01*
X252967500Y-101671547D01*
X253015119Y-101719166D01*
X253157976Y-101814404D01*
X253348452Y-101862023D01*
X253729404Y-101862023D01*
X253824642Y-101814404D01*
X253872261Y-101766785D01*
X253919880Y-101671547D01*
X253919880Y-101481071D01*
X253872261Y-101385833D01*
X253824642Y-101338214D01*
X253729404Y-101290595D01*
X253491309Y-101290595D01*
X253396071Y-101338214D01*
X253348452Y-101385833D01*
X253300833Y-101481071D01*
X253300833Y-101671547D01*
X253348452Y-101766785D01*
X253396071Y-101814404D01*
X253491309Y-101862023D01*
X254239880Y-106624404D02*
X253239880Y-106624404D01*
X254239880Y-106052976D02*
X253668452Y-106481547D01*
X253239880Y-106052976D02*
X253811309Y-106624404D01*
%TO.C,D35*%
X234869880Y-103766785D02*
X233869880Y-103766785D01*
X233869880Y-103528690D01*
X233917500Y-103385833D01*
X234012738Y-103290595D01*
X234107976Y-103242976D01*
X234298452Y-103195357D01*
X234441309Y-103195357D01*
X234631785Y-103242976D01*
X234727023Y-103290595D01*
X234822261Y-103385833D01*
X234869880Y-103528690D01*
X234869880Y-103766785D01*
X233869880Y-102862023D02*
X233869880Y-102242976D01*
X234250833Y-102576309D01*
X234250833Y-102433452D01*
X234298452Y-102338214D01*
X234346071Y-102290595D01*
X234441309Y-102242976D01*
X234679404Y-102242976D01*
X234774642Y-102290595D01*
X234822261Y-102338214D01*
X234869880Y-102433452D01*
X234869880Y-102719166D01*
X234822261Y-102814404D01*
X234774642Y-102862023D01*
X233869880Y-101338214D02*
X233869880Y-101814404D01*
X234346071Y-101862023D01*
X234298452Y-101814404D01*
X234250833Y-101719166D01*
X234250833Y-101481071D01*
X234298452Y-101385833D01*
X234346071Y-101338214D01*
X234441309Y-101290595D01*
X234679404Y-101290595D01*
X234774642Y-101338214D01*
X234822261Y-101385833D01*
X234869880Y-101481071D01*
X234869880Y-101719166D01*
X234822261Y-101814404D01*
X234774642Y-101862023D01*
X235189880Y-106624404D02*
X234189880Y-106624404D01*
X235189880Y-106052976D02*
X234618452Y-106481547D01*
X234189880Y-106052976D02*
X234761309Y-106624404D01*
%TO.C,D33*%
X196769880Y-103766785D02*
X195769880Y-103766785D01*
X195769880Y-103528690D01*
X195817500Y-103385833D01*
X195912738Y-103290595D01*
X196007976Y-103242976D01*
X196198452Y-103195357D01*
X196341309Y-103195357D01*
X196531785Y-103242976D01*
X196627023Y-103290595D01*
X196722261Y-103385833D01*
X196769880Y-103528690D01*
X196769880Y-103766785D01*
X195769880Y-102862023D02*
X195769880Y-102242976D01*
X196150833Y-102576309D01*
X196150833Y-102433452D01*
X196198452Y-102338214D01*
X196246071Y-102290595D01*
X196341309Y-102242976D01*
X196579404Y-102242976D01*
X196674642Y-102290595D01*
X196722261Y-102338214D01*
X196769880Y-102433452D01*
X196769880Y-102719166D01*
X196722261Y-102814404D01*
X196674642Y-102862023D01*
X195769880Y-101909642D02*
X195769880Y-101290595D01*
X196150833Y-101623928D01*
X196150833Y-101481071D01*
X196198452Y-101385833D01*
X196246071Y-101338214D01*
X196341309Y-101290595D01*
X196579404Y-101290595D01*
X196674642Y-101338214D01*
X196722261Y-101385833D01*
X196769880Y-101481071D01*
X196769880Y-101766785D01*
X196722261Y-101862023D01*
X196674642Y-101909642D01*
X197089880Y-106624404D02*
X196089880Y-106624404D01*
X197089880Y-106052976D02*
X196518452Y-106481547D01*
X196089880Y-106052976D02*
X196661309Y-106624404D01*
%TO.C,D39*%
X82469880Y-122816785D02*
X81469880Y-122816785D01*
X81469880Y-122578690D01*
X81517500Y-122435833D01*
X81612738Y-122340595D01*
X81707976Y-122292976D01*
X81898452Y-122245357D01*
X82041309Y-122245357D01*
X82231785Y-122292976D01*
X82327023Y-122340595D01*
X82422261Y-122435833D01*
X82469880Y-122578690D01*
X82469880Y-122816785D01*
X81469880Y-121912023D02*
X81469880Y-121292976D01*
X81850833Y-121626309D01*
X81850833Y-121483452D01*
X81898452Y-121388214D01*
X81946071Y-121340595D01*
X82041309Y-121292976D01*
X82279404Y-121292976D01*
X82374642Y-121340595D01*
X82422261Y-121388214D01*
X82469880Y-121483452D01*
X82469880Y-121769166D01*
X82422261Y-121864404D01*
X82374642Y-121912023D01*
X82469880Y-120816785D02*
X82469880Y-120626309D01*
X82422261Y-120531071D01*
X82374642Y-120483452D01*
X82231785Y-120388214D01*
X82041309Y-120340595D01*
X81660357Y-120340595D01*
X81565119Y-120388214D01*
X81517500Y-120435833D01*
X81469880Y-120531071D01*
X81469880Y-120721547D01*
X81517500Y-120816785D01*
X81565119Y-120864404D01*
X81660357Y-120912023D01*
X81898452Y-120912023D01*
X81993690Y-120864404D01*
X82041309Y-120816785D01*
X82088928Y-120721547D01*
X82088928Y-120531071D01*
X82041309Y-120435833D01*
X81993690Y-120388214D01*
X81898452Y-120340595D01*
X82789880Y-125674404D02*
X81789880Y-125674404D01*
X82789880Y-125102976D02*
X82218452Y-125531547D01*
X81789880Y-125102976D02*
X82361309Y-125674404D01*
%TO.C,D38*%
X63419880Y-122816785D02*
X62419880Y-122816785D01*
X62419880Y-122578690D01*
X62467500Y-122435833D01*
X62562738Y-122340595D01*
X62657976Y-122292976D01*
X62848452Y-122245357D01*
X62991309Y-122245357D01*
X63181785Y-122292976D01*
X63277023Y-122340595D01*
X63372261Y-122435833D01*
X63419880Y-122578690D01*
X63419880Y-122816785D01*
X62419880Y-121912023D02*
X62419880Y-121292976D01*
X62800833Y-121626309D01*
X62800833Y-121483452D01*
X62848452Y-121388214D01*
X62896071Y-121340595D01*
X62991309Y-121292976D01*
X63229404Y-121292976D01*
X63324642Y-121340595D01*
X63372261Y-121388214D01*
X63419880Y-121483452D01*
X63419880Y-121769166D01*
X63372261Y-121864404D01*
X63324642Y-121912023D01*
X62848452Y-120721547D02*
X62800833Y-120816785D01*
X62753214Y-120864404D01*
X62657976Y-120912023D01*
X62610357Y-120912023D01*
X62515119Y-120864404D01*
X62467500Y-120816785D01*
X62419880Y-120721547D01*
X62419880Y-120531071D01*
X62467500Y-120435833D01*
X62515119Y-120388214D01*
X62610357Y-120340595D01*
X62657976Y-120340595D01*
X62753214Y-120388214D01*
X62800833Y-120435833D01*
X62848452Y-120531071D01*
X62848452Y-120721547D01*
X62896071Y-120816785D01*
X62943690Y-120864404D01*
X63038928Y-120912023D01*
X63229404Y-120912023D01*
X63324642Y-120864404D01*
X63372261Y-120816785D01*
X63419880Y-120721547D01*
X63419880Y-120531071D01*
X63372261Y-120435833D01*
X63324642Y-120388214D01*
X63229404Y-120340595D01*
X63038928Y-120340595D01*
X62943690Y-120388214D01*
X62896071Y-120435833D01*
X62848452Y-120531071D01*
X63739880Y-125674404D02*
X62739880Y-125674404D01*
X63739880Y-125102976D02*
X63168452Y-125531547D01*
X62739880Y-125102976D02*
X63311309Y-125674404D01*
%TO.C,D40*%
X101519880Y-122816785D02*
X100519880Y-122816785D01*
X100519880Y-122578690D01*
X100567500Y-122435833D01*
X100662738Y-122340595D01*
X100757976Y-122292976D01*
X100948452Y-122245357D01*
X101091309Y-122245357D01*
X101281785Y-122292976D01*
X101377023Y-122340595D01*
X101472261Y-122435833D01*
X101519880Y-122578690D01*
X101519880Y-122816785D01*
X100853214Y-121388214D02*
X101519880Y-121388214D01*
X100472261Y-121626309D02*
X101186547Y-121864404D01*
X101186547Y-121245357D01*
X100519880Y-120673928D02*
X100519880Y-120578690D01*
X100567500Y-120483452D01*
X100615119Y-120435833D01*
X100710357Y-120388214D01*
X100900833Y-120340595D01*
X101138928Y-120340595D01*
X101329404Y-120388214D01*
X101424642Y-120435833D01*
X101472261Y-120483452D01*
X101519880Y-120578690D01*
X101519880Y-120673928D01*
X101472261Y-120769166D01*
X101424642Y-120816785D01*
X101329404Y-120864404D01*
X101138928Y-120912023D01*
X100900833Y-120912023D01*
X100710357Y-120864404D01*
X100615119Y-120816785D01*
X100567500Y-120769166D01*
X100519880Y-120673928D01*
X101839880Y-125674404D02*
X100839880Y-125674404D01*
X101839880Y-125102976D02*
X101268452Y-125531547D01*
X100839880Y-125102976D02*
X101411309Y-125674404D01*
%TO.C,D8*%
X177783380Y-65031845D02*
X176783380Y-65031845D01*
X176783380Y-64793750D01*
X176831000Y-64650892D01*
X176926238Y-64555654D01*
X177021476Y-64508035D01*
X177211952Y-64460416D01*
X177354809Y-64460416D01*
X177545285Y-64508035D01*
X177640523Y-64555654D01*
X177735761Y-64650892D01*
X177783380Y-64793750D01*
X177783380Y-65031845D01*
X177211952Y-63888988D02*
X177164333Y-63984226D01*
X177116714Y-64031845D01*
X177021476Y-64079464D01*
X176973857Y-64079464D01*
X176878619Y-64031845D01*
X176831000Y-63984226D01*
X176783380Y-63888988D01*
X176783380Y-63698511D01*
X176831000Y-63603273D01*
X176878619Y-63555654D01*
X176973857Y-63508035D01*
X177021476Y-63508035D01*
X177116714Y-63555654D01*
X177164333Y-63603273D01*
X177211952Y-63698511D01*
X177211952Y-63888988D01*
X177259571Y-63984226D01*
X177307190Y-64031845D01*
X177402428Y-64079464D01*
X177592904Y-64079464D01*
X177688142Y-64031845D01*
X177735761Y-63984226D01*
X177783380Y-63888988D01*
X177783380Y-63698511D01*
X177735761Y-63603273D01*
X177688142Y-63555654D01*
X177592904Y-63508035D01*
X177402428Y-63508035D01*
X177307190Y-63555654D01*
X177259571Y-63603273D01*
X177211952Y-63698511D01*
X178103380Y-68365654D02*
X177103380Y-68365654D01*
X178103380Y-67794226D02*
X177531952Y-68222797D01*
X177103380Y-67794226D02*
X177674809Y-68365654D01*
%TO.C,D7*%
X158733380Y-65031845D02*
X157733380Y-65031845D01*
X157733380Y-64793750D01*
X157781000Y-64650892D01*
X157876238Y-64555654D01*
X157971476Y-64508035D01*
X158161952Y-64460416D01*
X158304809Y-64460416D01*
X158495285Y-64508035D01*
X158590523Y-64555654D01*
X158685761Y-64650892D01*
X158733380Y-64793750D01*
X158733380Y-65031845D01*
X157733380Y-64127083D02*
X157733380Y-63460416D01*
X158733380Y-63888988D01*
X159053380Y-68365654D02*
X158053380Y-68365654D01*
X159053380Y-67794226D02*
X158481952Y-68222797D01*
X158053380Y-67794226D02*
X158624809Y-68365654D01*
%TO.C,D17*%
X120633380Y-84558035D02*
X119633380Y-84558035D01*
X119633380Y-84319940D01*
X119681000Y-84177083D01*
X119776238Y-84081845D01*
X119871476Y-84034226D01*
X120061952Y-83986607D01*
X120204809Y-83986607D01*
X120395285Y-84034226D01*
X120490523Y-84081845D01*
X120585761Y-84177083D01*
X120633380Y-84319940D01*
X120633380Y-84558035D01*
X120633380Y-83034226D02*
X120633380Y-83605654D01*
X120633380Y-83319940D02*
X119633380Y-83319940D01*
X119776238Y-83415178D01*
X119871476Y-83510416D01*
X119919095Y-83605654D01*
X119633380Y-82700892D02*
X119633380Y-82034226D01*
X120633380Y-82462797D01*
X120953380Y-87415654D02*
X119953380Y-87415654D01*
X120953380Y-86844226D02*
X120381952Y-87272797D01*
X119953380Y-86844226D02*
X120524809Y-87415654D01*
%TO.C,D18*%
X139937380Y-84558035D02*
X138937380Y-84558035D01*
X138937380Y-84319940D01*
X138985000Y-84177083D01*
X139080238Y-84081845D01*
X139175476Y-84034226D01*
X139365952Y-83986607D01*
X139508809Y-83986607D01*
X139699285Y-84034226D01*
X139794523Y-84081845D01*
X139889761Y-84177083D01*
X139937380Y-84319940D01*
X139937380Y-84558035D01*
X139937380Y-83034226D02*
X139937380Y-83605654D01*
X139937380Y-83319940D02*
X138937380Y-83319940D01*
X139080238Y-83415178D01*
X139175476Y-83510416D01*
X139223095Y-83605654D01*
X139365952Y-82462797D02*
X139318333Y-82558035D01*
X139270714Y-82605654D01*
X139175476Y-82653273D01*
X139127857Y-82653273D01*
X139032619Y-82605654D01*
X138985000Y-82558035D01*
X138937380Y-82462797D01*
X138937380Y-82272321D01*
X138985000Y-82177083D01*
X139032619Y-82129464D01*
X139127857Y-82081845D01*
X139175476Y-82081845D01*
X139270714Y-82129464D01*
X139318333Y-82177083D01*
X139365952Y-82272321D01*
X139365952Y-82462797D01*
X139413571Y-82558035D01*
X139461190Y-82605654D01*
X139556428Y-82653273D01*
X139746904Y-82653273D01*
X139842142Y-82605654D01*
X139889761Y-82558035D01*
X139937380Y-82462797D01*
X139937380Y-82272321D01*
X139889761Y-82177083D01*
X139842142Y-82129464D01*
X139746904Y-82081845D01*
X139556428Y-82081845D01*
X139461190Y-82129464D01*
X139413571Y-82177083D01*
X139365952Y-82272321D01*
X140257380Y-87415654D02*
X139257380Y-87415654D01*
X140257380Y-86844226D02*
X139685952Y-87272797D01*
X139257380Y-86844226D02*
X139828809Y-87415654D01*
%TO.C,D31*%
X158669880Y-103766785D02*
X157669880Y-103766785D01*
X157669880Y-103528690D01*
X157717500Y-103385833D01*
X157812738Y-103290595D01*
X157907976Y-103242976D01*
X158098452Y-103195357D01*
X158241309Y-103195357D01*
X158431785Y-103242976D01*
X158527023Y-103290595D01*
X158622261Y-103385833D01*
X158669880Y-103528690D01*
X158669880Y-103766785D01*
X157669880Y-102862023D02*
X157669880Y-102242976D01*
X158050833Y-102576309D01*
X158050833Y-102433452D01*
X158098452Y-102338214D01*
X158146071Y-102290595D01*
X158241309Y-102242976D01*
X158479404Y-102242976D01*
X158574642Y-102290595D01*
X158622261Y-102338214D01*
X158669880Y-102433452D01*
X158669880Y-102719166D01*
X158622261Y-102814404D01*
X158574642Y-102862023D01*
X158669880Y-101290595D02*
X158669880Y-101862023D01*
X158669880Y-101576309D02*
X157669880Y-101576309D01*
X157812738Y-101671547D01*
X157907976Y-101766785D01*
X157955595Y-101862023D01*
X158989880Y-106624404D02*
X157989880Y-106624404D01*
X158989880Y-106052976D02*
X158418452Y-106481547D01*
X157989880Y-106052976D02*
X158561309Y-106624404D01*
%TO.C,D29*%
X120569880Y-103766785D02*
X119569880Y-103766785D01*
X119569880Y-103528690D01*
X119617500Y-103385833D01*
X119712738Y-103290595D01*
X119807976Y-103242976D01*
X119998452Y-103195357D01*
X120141309Y-103195357D01*
X120331785Y-103242976D01*
X120427023Y-103290595D01*
X120522261Y-103385833D01*
X120569880Y-103528690D01*
X120569880Y-103766785D01*
X119665119Y-102814404D02*
X119617500Y-102766785D01*
X119569880Y-102671547D01*
X119569880Y-102433452D01*
X119617500Y-102338214D01*
X119665119Y-102290595D01*
X119760357Y-102242976D01*
X119855595Y-102242976D01*
X119998452Y-102290595D01*
X120569880Y-102862023D01*
X120569880Y-102242976D01*
X120569880Y-101766785D02*
X120569880Y-101576309D01*
X120522261Y-101481071D01*
X120474642Y-101433452D01*
X120331785Y-101338214D01*
X120141309Y-101290595D01*
X119760357Y-101290595D01*
X119665119Y-101338214D01*
X119617500Y-101385833D01*
X119569880Y-101481071D01*
X119569880Y-101671547D01*
X119617500Y-101766785D01*
X119665119Y-101814404D01*
X119760357Y-101862023D01*
X119998452Y-101862023D01*
X120093690Y-101814404D01*
X120141309Y-101766785D01*
X120188928Y-101671547D01*
X120188928Y-101481071D01*
X120141309Y-101385833D01*
X120093690Y-101338214D01*
X119998452Y-101290595D01*
X120889880Y-106624404D02*
X119889880Y-106624404D01*
X120889880Y-106052976D02*
X120318452Y-106481547D01*
X119889880Y-106052976D02*
X120461309Y-106624404D01*
%TO.C,D25*%
X44369880Y-103766785D02*
X43369880Y-103766785D01*
X43369880Y-103528690D01*
X43417500Y-103385833D01*
X43512738Y-103290595D01*
X43607976Y-103242976D01*
X43798452Y-103195357D01*
X43941309Y-103195357D01*
X44131785Y-103242976D01*
X44227023Y-103290595D01*
X44322261Y-103385833D01*
X44369880Y-103528690D01*
X44369880Y-103766785D01*
X43465119Y-102814404D02*
X43417500Y-102766785D01*
X43369880Y-102671547D01*
X43369880Y-102433452D01*
X43417500Y-102338214D01*
X43465119Y-102290595D01*
X43560357Y-102242976D01*
X43655595Y-102242976D01*
X43798452Y-102290595D01*
X44369880Y-102862023D01*
X44369880Y-102242976D01*
X43369880Y-101338214D02*
X43369880Y-101814404D01*
X43846071Y-101862023D01*
X43798452Y-101814404D01*
X43750833Y-101719166D01*
X43750833Y-101481071D01*
X43798452Y-101385833D01*
X43846071Y-101338214D01*
X43941309Y-101290595D01*
X44179404Y-101290595D01*
X44274642Y-101338214D01*
X44322261Y-101385833D01*
X44369880Y-101481071D01*
X44369880Y-101719166D01*
X44322261Y-101814404D01*
X44274642Y-101862023D01*
X44689880Y-106624404D02*
X43689880Y-106624404D01*
X44689880Y-106052976D02*
X44118452Y-106481547D01*
X43689880Y-106052976D02*
X44261309Y-106624404D01*
%TO.C,D22*%
X216137380Y-84558035D02*
X215137380Y-84558035D01*
X215137380Y-84319940D01*
X215185000Y-84177083D01*
X215280238Y-84081845D01*
X215375476Y-84034226D01*
X215565952Y-83986607D01*
X215708809Y-83986607D01*
X215899285Y-84034226D01*
X215994523Y-84081845D01*
X216089761Y-84177083D01*
X216137380Y-84319940D01*
X216137380Y-84558035D01*
X215232619Y-83605654D02*
X215185000Y-83558035D01*
X215137380Y-83462797D01*
X215137380Y-83224702D01*
X215185000Y-83129464D01*
X215232619Y-83081845D01*
X215327857Y-83034226D01*
X215423095Y-83034226D01*
X215565952Y-83081845D01*
X216137380Y-83653273D01*
X216137380Y-83034226D01*
X215232619Y-82653273D02*
X215185000Y-82605654D01*
X215137380Y-82510416D01*
X215137380Y-82272321D01*
X215185000Y-82177083D01*
X215232619Y-82129464D01*
X215327857Y-82081845D01*
X215423095Y-82081845D01*
X215565952Y-82129464D01*
X216137380Y-82700892D01*
X216137380Y-82081845D01*
X216457380Y-87415654D02*
X215457380Y-87415654D01*
X216457380Y-86844226D02*
X215885952Y-87272797D01*
X215457380Y-86844226D02*
X216028809Y-87415654D01*
%TO.C,D16*%
X101837380Y-84558035D02*
X100837380Y-84558035D01*
X100837380Y-84319940D01*
X100885000Y-84177083D01*
X100980238Y-84081845D01*
X101075476Y-84034226D01*
X101265952Y-83986607D01*
X101408809Y-83986607D01*
X101599285Y-84034226D01*
X101694523Y-84081845D01*
X101789761Y-84177083D01*
X101837380Y-84319940D01*
X101837380Y-84558035D01*
X101837380Y-83034226D02*
X101837380Y-83605654D01*
X101837380Y-83319940D02*
X100837380Y-83319940D01*
X100980238Y-83415178D01*
X101075476Y-83510416D01*
X101123095Y-83605654D01*
X100837380Y-82177083D02*
X100837380Y-82367559D01*
X100885000Y-82462797D01*
X100932619Y-82510416D01*
X101075476Y-82605654D01*
X101265952Y-82653273D01*
X101646904Y-82653273D01*
X101742142Y-82605654D01*
X101789761Y-82558035D01*
X101837380Y-82462797D01*
X101837380Y-82272321D01*
X101789761Y-82177083D01*
X101742142Y-82129464D01*
X101646904Y-82081845D01*
X101408809Y-82081845D01*
X101313571Y-82129464D01*
X101265952Y-82177083D01*
X101218333Y-82272321D01*
X101218333Y-82462797D01*
X101265952Y-82558035D01*
X101313571Y-82605654D01*
X101408809Y-82653273D01*
X102157380Y-87415654D02*
X101157380Y-87415654D01*
X102157380Y-86844226D02*
X101585952Y-87272797D01*
X101157380Y-86844226D02*
X101728809Y-87415654D01*
%TO.C,D4*%
X101583380Y-65031845D02*
X100583380Y-65031845D01*
X100583380Y-64793750D01*
X100631000Y-64650892D01*
X100726238Y-64555654D01*
X100821476Y-64508035D01*
X101011952Y-64460416D01*
X101154809Y-64460416D01*
X101345285Y-64508035D01*
X101440523Y-64555654D01*
X101535761Y-64650892D01*
X101583380Y-64793750D01*
X101583380Y-65031845D01*
X100916714Y-63603273D02*
X101583380Y-63603273D01*
X100535761Y-63841369D02*
X101250047Y-64079464D01*
X101250047Y-63460416D01*
X101903380Y-68365654D02*
X100903380Y-68365654D01*
X101903380Y-67794226D02*
X101331952Y-68222797D01*
X100903380Y-67794226D02*
X101474809Y-68365654D01*
%TO.C,D32*%
X177719880Y-103766785D02*
X176719880Y-103766785D01*
X176719880Y-103528690D01*
X176767500Y-103385833D01*
X176862738Y-103290595D01*
X176957976Y-103242976D01*
X177148452Y-103195357D01*
X177291309Y-103195357D01*
X177481785Y-103242976D01*
X177577023Y-103290595D01*
X177672261Y-103385833D01*
X177719880Y-103528690D01*
X177719880Y-103766785D01*
X176719880Y-102862023D02*
X176719880Y-102242976D01*
X177100833Y-102576309D01*
X177100833Y-102433452D01*
X177148452Y-102338214D01*
X177196071Y-102290595D01*
X177291309Y-102242976D01*
X177529404Y-102242976D01*
X177624642Y-102290595D01*
X177672261Y-102338214D01*
X177719880Y-102433452D01*
X177719880Y-102719166D01*
X177672261Y-102814404D01*
X177624642Y-102862023D01*
X176815119Y-101862023D02*
X176767500Y-101814404D01*
X176719880Y-101719166D01*
X176719880Y-101481071D01*
X176767500Y-101385833D01*
X176815119Y-101338214D01*
X176910357Y-101290595D01*
X177005595Y-101290595D01*
X177148452Y-101338214D01*
X177719880Y-101909642D01*
X177719880Y-101290595D01*
X178039880Y-106624404D02*
X177039880Y-106624404D01*
X178039880Y-106052976D02*
X177468452Y-106481547D01*
X177039880Y-106052976D02*
X177611309Y-106624404D01*
%TO.C,D26*%
X63419880Y-103766785D02*
X62419880Y-103766785D01*
X62419880Y-103528690D01*
X62467500Y-103385833D01*
X62562738Y-103290595D01*
X62657976Y-103242976D01*
X62848452Y-103195357D01*
X62991309Y-103195357D01*
X63181785Y-103242976D01*
X63277023Y-103290595D01*
X63372261Y-103385833D01*
X63419880Y-103528690D01*
X63419880Y-103766785D01*
X62515119Y-102814404D02*
X62467500Y-102766785D01*
X62419880Y-102671547D01*
X62419880Y-102433452D01*
X62467500Y-102338214D01*
X62515119Y-102290595D01*
X62610357Y-102242976D01*
X62705595Y-102242976D01*
X62848452Y-102290595D01*
X63419880Y-102862023D01*
X63419880Y-102242976D01*
X62419880Y-101385833D02*
X62419880Y-101576309D01*
X62467500Y-101671547D01*
X62515119Y-101719166D01*
X62657976Y-101814404D01*
X62848452Y-101862023D01*
X63229404Y-101862023D01*
X63324642Y-101814404D01*
X63372261Y-101766785D01*
X63419880Y-101671547D01*
X63419880Y-101481071D01*
X63372261Y-101385833D01*
X63324642Y-101338214D01*
X63229404Y-101290595D01*
X62991309Y-101290595D01*
X62896071Y-101338214D01*
X62848452Y-101385833D01*
X62800833Y-101481071D01*
X62800833Y-101671547D01*
X62848452Y-101766785D01*
X62896071Y-101814404D01*
X62991309Y-101862023D01*
X63739880Y-106624404D02*
X62739880Y-106624404D01*
X63739880Y-106052976D02*
X63168452Y-106481547D01*
X62739880Y-106052976D02*
X63311309Y-106624404D01*
%TO.C,D19*%
X158987380Y-84558035D02*
X157987380Y-84558035D01*
X157987380Y-84319940D01*
X158035000Y-84177083D01*
X158130238Y-84081845D01*
X158225476Y-84034226D01*
X158415952Y-83986607D01*
X158558809Y-83986607D01*
X158749285Y-84034226D01*
X158844523Y-84081845D01*
X158939761Y-84177083D01*
X158987380Y-84319940D01*
X158987380Y-84558035D01*
X158987380Y-83034226D02*
X158987380Y-83605654D01*
X158987380Y-83319940D02*
X157987380Y-83319940D01*
X158130238Y-83415178D01*
X158225476Y-83510416D01*
X158273095Y-83605654D01*
X158987380Y-82558035D02*
X158987380Y-82367559D01*
X158939761Y-82272321D01*
X158892142Y-82224702D01*
X158749285Y-82129464D01*
X158558809Y-82081845D01*
X158177857Y-82081845D01*
X158082619Y-82129464D01*
X158035000Y-82177083D01*
X157987380Y-82272321D01*
X157987380Y-82462797D01*
X158035000Y-82558035D01*
X158082619Y-82605654D01*
X158177857Y-82653273D01*
X158415952Y-82653273D01*
X158511190Y-82605654D01*
X158558809Y-82558035D01*
X158606428Y-82462797D01*
X158606428Y-82272321D01*
X158558809Y-82177083D01*
X158511190Y-82129464D01*
X158415952Y-82081845D01*
X159307380Y-87415654D02*
X158307380Y-87415654D01*
X159307380Y-86844226D02*
X158735952Y-87272797D01*
X158307380Y-86844226D02*
X158878809Y-87415654D01*
%TO.C,D24*%
X254237380Y-83764285D02*
X253237380Y-83764285D01*
X253237380Y-83526190D01*
X253285000Y-83383333D01*
X253380238Y-83288095D01*
X253475476Y-83240476D01*
X253665952Y-83192857D01*
X253808809Y-83192857D01*
X253999285Y-83240476D01*
X254094523Y-83288095D01*
X254189761Y-83383333D01*
X254237380Y-83526190D01*
X254237380Y-83764285D01*
X253332619Y-82811904D02*
X253285000Y-82764285D01*
X253237380Y-82669047D01*
X253237380Y-82430952D01*
X253285000Y-82335714D01*
X253332619Y-82288095D01*
X253427857Y-82240476D01*
X253523095Y-82240476D01*
X253665952Y-82288095D01*
X254237380Y-82859523D01*
X254237380Y-82240476D01*
X253570714Y-81383333D02*
X254237380Y-81383333D01*
X253189761Y-81621428D02*
X253904047Y-81859523D01*
X253904047Y-81240476D01*
X254557380Y-86621904D02*
X253557380Y-86621904D01*
X254557380Y-86050476D02*
X253985952Y-86479047D01*
X253557380Y-86050476D02*
X254128809Y-86621904D01*
%TO.C,D11*%
X235187380Y-65508035D02*
X234187380Y-65508035D01*
X234187380Y-65269940D01*
X234235000Y-65127083D01*
X234330238Y-65031845D01*
X234425476Y-64984226D01*
X234615952Y-64936607D01*
X234758809Y-64936607D01*
X234949285Y-64984226D01*
X235044523Y-65031845D01*
X235139761Y-65127083D01*
X235187380Y-65269940D01*
X235187380Y-65508035D01*
X235187380Y-63984226D02*
X235187380Y-64555654D01*
X235187380Y-64269940D02*
X234187380Y-64269940D01*
X234330238Y-64365178D01*
X234425476Y-64460416D01*
X234473095Y-64555654D01*
X235187380Y-63031845D02*
X235187380Y-63603273D01*
X235187380Y-63317559D02*
X234187380Y-63317559D01*
X234330238Y-63412797D01*
X234425476Y-63508035D01*
X234473095Y-63603273D01*
X235507380Y-68365654D02*
X234507380Y-68365654D01*
X235507380Y-67794226D02*
X234935952Y-68222797D01*
X234507380Y-67794226D02*
X235078809Y-68365654D01*
%TO.C,D14*%
X63737380Y-84558035D02*
X62737380Y-84558035D01*
X62737380Y-84319940D01*
X62785000Y-84177083D01*
X62880238Y-84081845D01*
X62975476Y-84034226D01*
X63165952Y-83986607D01*
X63308809Y-83986607D01*
X63499285Y-84034226D01*
X63594523Y-84081845D01*
X63689761Y-84177083D01*
X63737380Y-84319940D01*
X63737380Y-84558035D01*
X63737380Y-83034226D02*
X63737380Y-83605654D01*
X63737380Y-83319940D02*
X62737380Y-83319940D01*
X62880238Y-83415178D01*
X62975476Y-83510416D01*
X63023095Y-83605654D01*
X63070714Y-82177083D02*
X63737380Y-82177083D01*
X62689761Y-82415178D02*
X63404047Y-82653273D01*
X63404047Y-82034226D01*
X64057380Y-87415654D02*
X63057380Y-87415654D01*
X64057380Y-86844226D02*
X63485952Y-87272797D01*
X63057380Y-86844226D02*
X63628809Y-87415654D01*
%TO.C,D10*%
X216137380Y-65508035D02*
X215137380Y-65508035D01*
X215137380Y-65269940D01*
X215185000Y-65127083D01*
X215280238Y-65031845D01*
X215375476Y-64984226D01*
X215565952Y-64936607D01*
X215708809Y-64936607D01*
X215899285Y-64984226D01*
X215994523Y-65031845D01*
X216089761Y-65127083D01*
X216137380Y-65269940D01*
X216137380Y-65508035D01*
X216137380Y-63984226D02*
X216137380Y-64555654D01*
X216137380Y-64269940D02*
X215137380Y-64269940D01*
X215280238Y-64365178D01*
X215375476Y-64460416D01*
X215423095Y-64555654D01*
X215137380Y-63365178D02*
X215137380Y-63269940D01*
X215185000Y-63174702D01*
X215232619Y-63127083D01*
X215327857Y-63079464D01*
X215518333Y-63031845D01*
X215756428Y-63031845D01*
X215946904Y-63079464D01*
X216042142Y-63127083D01*
X216089761Y-63174702D01*
X216137380Y-63269940D01*
X216137380Y-63365178D01*
X216089761Y-63460416D01*
X216042142Y-63508035D01*
X215946904Y-63555654D01*
X215756428Y-63603273D01*
X215518333Y-63603273D01*
X215327857Y-63555654D01*
X215232619Y-63508035D01*
X215185000Y-63460416D01*
X215137380Y-63365178D01*
X216457380Y-68365654D02*
X215457380Y-68365654D01*
X216457380Y-67794226D02*
X215885952Y-68222797D01*
X215457380Y-67794226D02*
X216028809Y-68365654D01*
%TO.C,D30*%
X139619880Y-103766785D02*
X138619880Y-103766785D01*
X138619880Y-103528690D01*
X138667500Y-103385833D01*
X138762738Y-103290595D01*
X138857976Y-103242976D01*
X139048452Y-103195357D01*
X139191309Y-103195357D01*
X139381785Y-103242976D01*
X139477023Y-103290595D01*
X139572261Y-103385833D01*
X139619880Y-103528690D01*
X139619880Y-103766785D01*
X138619880Y-102862023D02*
X138619880Y-102242976D01*
X139000833Y-102576309D01*
X139000833Y-102433452D01*
X139048452Y-102338214D01*
X139096071Y-102290595D01*
X139191309Y-102242976D01*
X139429404Y-102242976D01*
X139524642Y-102290595D01*
X139572261Y-102338214D01*
X139619880Y-102433452D01*
X139619880Y-102719166D01*
X139572261Y-102814404D01*
X139524642Y-102862023D01*
X138619880Y-101623928D02*
X138619880Y-101528690D01*
X138667500Y-101433452D01*
X138715119Y-101385833D01*
X138810357Y-101338214D01*
X139000833Y-101290595D01*
X139238928Y-101290595D01*
X139429404Y-101338214D01*
X139524642Y-101385833D01*
X139572261Y-101433452D01*
X139619880Y-101528690D01*
X139619880Y-101623928D01*
X139572261Y-101719166D01*
X139524642Y-101766785D01*
X139429404Y-101814404D01*
X139238928Y-101862023D01*
X139000833Y-101862023D01*
X138810357Y-101814404D01*
X138715119Y-101766785D01*
X138667500Y-101719166D01*
X138619880Y-101623928D01*
X139939880Y-106624404D02*
X138939880Y-106624404D01*
X139939880Y-106052976D02*
X139368452Y-106481547D01*
X138939880Y-106052976D02*
X139511309Y-106624404D01*
%TO.C,D9*%
X196833380Y-65031845D02*
X195833380Y-65031845D01*
X195833380Y-64793750D01*
X195881000Y-64650892D01*
X195976238Y-64555654D01*
X196071476Y-64508035D01*
X196261952Y-64460416D01*
X196404809Y-64460416D01*
X196595285Y-64508035D01*
X196690523Y-64555654D01*
X196785761Y-64650892D01*
X196833380Y-64793750D01*
X196833380Y-65031845D01*
X196833380Y-63984226D02*
X196833380Y-63793750D01*
X196785761Y-63698511D01*
X196738142Y-63650892D01*
X196595285Y-63555654D01*
X196404809Y-63508035D01*
X196023857Y-63508035D01*
X195928619Y-63555654D01*
X195881000Y-63603273D01*
X195833380Y-63698511D01*
X195833380Y-63888988D01*
X195881000Y-63984226D01*
X195928619Y-64031845D01*
X196023857Y-64079464D01*
X196261952Y-64079464D01*
X196357190Y-64031845D01*
X196404809Y-63984226D01*
X196452428Y-63888988D01*
X196452428Y-63698511D01*
X196404809Y-63603273D01*
X196357190Y-63555654D01*
X196261952Y-63508035D01*
X197153380Y-68365654D02*
X196153380Y-68365654D01*
X197153380Y-67794226D02*
X196581952Y-68222797D01*
X196153380Y-67794226D02*
X196724809Y-68365654D01*
%TO.C,D20*%
X178037380Y-84558035D02*
X177037380Y-84558035D01*
X177037380Y-84319940D01*
X177085000Y-84177083D01*
X177180238Y-84081845D01*
X177275476Y-84034226D01*
X177465952Y-83986607D01*
X177608809Y-83986607D01*
X177799285Y-84034226D01*
X177894523Y-84081845D01*
X177989761Y-84177083D01*
X178037380Y-84319940D01*
X178037380Y-84558035D01*
X177132619Y-83605654D02*
X177085000Y-83558035D01*
X177037380Y-83462797D01*
X177037380Y-83224702D01*
X177085000Y-83129464D01*
X177132619Y-83081845D01*
X177227857Y-83034226D01*
X177323095Y-83034226D01*
X177465952Y-83081845D01*
X178037380Y-83653273D01*
X178037380Y-83034226D01*
X177037380Y-82415178D02*
X177037380Y-82319940D01*
X177085000Y-82224702D01*
X177132619Y-82177083D01*
X177227857Y-82129464D01*
X177418333Y-82081845D01*
X177656428Y-82081845D01*
X177846904Y-82129464D01*
X177942142Y-82177083D01*
X177989761Y-82224702D01*
X178037380Y-82319940D01*
X178037380Y-82415178D01*
X177989761Y-82510416D01*
X177942142Y-82558035D01*
X177846904Y-82605654D01*
X177656428Y-82653273D01*
X177418333Y-82653273D01*
X177227857Y-82605654D01*
X177132619Y-82558035D01*
X177085000Y-82510416D01*
X177037380Y-82415178D01*
X178357380Y-87415654D02*
X177357380Y-87415654D01*
X178357380Y-86844226D02*
X177785952Y-87272797D01*
X177357380Y-86844226D02*
X177928809Y-87415654D01*
%TO.C,D12*%
X254237380Y-64714285D02*
X253237380Y-64714285D01*
X253237380Y-64476190D01*
X253285000Y-64333333D01*
X253380238Y-64238095D01*
X253475476Y-64190476D01*
X253665952Y-64142857D01*
X253808809Y-64142857D01*
X253999285Y-64190476D01*
X254094523Y-64238095D01*
X254189761Y-64333333D01*
X254237380Y-64476190D01*
X254237380Y-64714285D01*
X254237380Y-63190476D02*
X254237380Y-63761904D01*
X254237380Y-63476190D02*
X253237380Y-63476190D01*
X253380238Y-63571428D01*
X253475476Y-63666666D01*
X253523095Y-63761904D01*
X253332619Y-62809523D02*
X253285000Y-62761904D01*
X253237380Y-62666666D01*
X253237380Y-62428571D01*
X253285000Y-62333333D01*
X253332619Y-62285714D01*
X253427857Y-62238095D01*
X253523095Y-62238095D01*
X253665952Y-62285714D01*
X254237380Y-62857142D01*
X254237380Y-62238095D01*
X254557380Y-67571904D02*
X253557380Y-67571904D01*
X254557380Y-67000476D02*
X253985952Y-67429047D01*
X253557380Y-67000476D02*
X254128809Y-67571904D01*
%TO.C,D23*%
X235187380Y-84558035D02*
X234187380Y-84558035D01*
X234187380Y-84319940D01*
X234235000Y-84177083D01*
X234330238Y-84081845D01*
X234425476Y-84034226D01*
X234615952Y-83986607D01*
X234758809Y-83986607D01*
X234949285Y-84034226D01*
X235044523Y-84081845D01*
X235139761Y-84177083D01*
X235187380Y-84319940D01*
X235187380Y-84558035D01*
X234282619Y-83605654D02*
X234235000Y-83558035D01*
X234187380Y-83462797D01*
X234187380Y-83224702D01*
X234235000Y-83129464D01*
X234282619Y-83081845D01*
X234377857Y-83034226D01*
X234473095Y-83034226D01*
X234615952Y-83081845D01*
X235187380Y-83653273D01*
X235187380Y-83034226D01*
X234187380Y-82700892D02*
X234187380Y-82081845D01*
X234568333Y-82415178D01*
X234568333Y-82272321D01*
X234615952Y-82177083D01*
X234663571Y-82129464D01*
X234758809Y-82081845D01*
X234996904Y-82081845D01*
X235092142Y-82129464D01*
X235139761Y-82177083D01*
X235187380Y-82272321D01*
X235187380Y-82558035D01*
X235139761Y-82653273D01*
X235092142Y-82700892D01*
X235507380Y-87415654D02*
X234507380Y-87415654D01*
X235507380Y-86844226D02*
X234935952Y-87272797D01*
X234507380Y-86844226D02*
X235078809Y-87415654D01*
%TO.C,D3*%
X82533380Y-65031845D02*
X81533380Y-65031845D01*
X81533380Y-64793750D01*
X81581000Y-64650892D01*
X81676238Y-64555654D01*
X81771476Y-64508035D01*
X81961952Y-64460416D01*
X82104809Y-64460416D01*
X82295285Y-64508035D01*
X82390523Y-64555654D01*
X82485761Y-64650892D01*
X82533380Y-64793750D01*
X82533380Y-65031845D01*
X81533380Y-64127083D02*
X81533380Y-63508035D01*
X81914333Y-63841369D01*
X81914333Y-63698511D01*
X81961952Y-63603273D01*
X82009571Y-63555654D01*
X82104809Y-63508035D01*
X82342904Y-63508035D01*
X82438142Y-63555654D01*
X82485761Y-63603273D01*
X82533380Y-63698511D01*
X82533380Y-63984226D01*
X82485761Y-64079464D01*
X82438142Y-64127083D01*
X82853380Y-68365654D02*
X81853380Y-68365654D01*
X82853380Y-67794226D02*
X82281952Y-68222797D01*
X81853380Y-67794226D02*
X82424809Y-68365654D01*
%TO.C,D2*%
X63483380Y-65031845D02*
X62483380Y-65031845D01*
X62483380Y-64793750D01*
X62531000Y-64650892D01*
X62626238Y-64555654D01*
X62721476Y-64508035D01*
X62911952Y-64460416D01*
X63054809Y-64460416D01*
X63245285Y-64508035D01*
X63340523Y-64555654D01*
X63435761Y-64650892D01*
X63483380Y-64793750D01*
X63483380Y-65031845D01*
X62578619Y-64079464D02*
X62531000Y-64031845D01*
X62483380Y-63936607D01*
X62483380Y-63698511D01*
X62531000Y-63603273D01*
X62578619Y-63555654D01*
X62673857Y-63508035D01*
X62769095Y-63508035D01*
X62911952Y-63555654D01*
X63483380Y-64127083D01*
X63483380Y-63508035D01*
X63803380Y-68365654D02*
X62803380Y-68365654D01*
X63803380Y-67794226D02*
X63231952Y-68222797D01*
X62803380Y-67794226D02*
X63374809Y-68365654D01*
%TO.C,D1*%
X44433380Y-65031845D02*
X43433380Y-65031845D01*
X43433380Y-64793750D01*
X43481000Y-64650892D01*
X43576238Y-64555654D01*
X43671476Y-64508035D01*
X43861952Y-64460416D01*
X44004809Y-64460416D01*
X44195285Y-64508035D01*
X44290523Y-64555654D01*
X44385761Y-64650892D01*
X44433380Y-64793750D01*
X44433380Y-65031845D01*
X44433380Y-63508035D02*
X44433380Y-64079464D01*
X44433380Y-63793750D02*
X43433380Y-63793750D01*
X43576238Y-63888988D01*
X43671476Y-63984226D01*
X43719095Y-64079464D01*
X44753380Y-68365654D02*
X43753380Y-68365654D01*
X44753380Y-67794226D02*
X44181952Y-68222797D01*
X43753380Y-67794226D02*
X44324809Y-68365654D01*
%TO.C,D21*%
X197087380Y-84558035D02*
X196087380Y-84558035D01*
X196087380Y-84319940D01*
X196135000Y-84177083D01*
X196230238Y-84081845D01*
X196325476Y-84034226D01*
X196515952Y-83986607D01*
X196658809Y-83986607D01*
X196849285Y-84034226D01*
X196944523Y-84081845D01*
X197039761Y-84177083D01*
X197087380Y-84319940D01*
X197087380Y-84558035D01*
X196182619Y-83605654D02*
X196135000Y-83558035D01*
X196087380Y-83462797D01*
X196087380Y-83224702D01*
X196135000Y-83129464D01*
X196182619Y-83081845D01*
X196277857Y-83034226D01*
X196373095Y-83034226D01*
X196515952Y-83081845D01*
X197087380Y-83653273D01*
X197087380Y-83034226D01*
X197087380Y-82081845D02*
X197087380Y-82653273D01*
X197087380Y-82367559D02*
X196087380Y-82367559D01*
X196230238Y-82462797D01*
X196325476Y-82558035D01*
X196373095Y-82653273D01*
X197407380Y-87415654D02*
X196407380Y-87415654D01*
X197407380Y-86844226D02*
X196835952Y-87272797D01*
X196407380Y-86844226D02*
X196978809Y-87415654D01*
%TO.C,D28*%
X101519880Y-103766785D02*
X100519880Y-103766785D01*
X100519880Y-103528690D01*
X100567500Y-103385833D01*
X100662738Y-103290595D01*
X100757976Y-103242976D01*
X100948452Y-103195357D01*
X101091309Y-103195357D01*
X101281785Y-103242976D01*
X101377023Y-103290595D01*
X101472261Y-103385833D01*
X101519880Y-103528690D01*
X101519880Y-103766785D01*
X100615119Y-102814404D02*
X100567500Y-102766785D01*
X100519880Y-102671547D01*
X100519880Y-102433452D01*
X100567500Y-102338214D01*
X100615119Y-102290595D01*
X100710357Y-102242976D01*
X100805595Y-102242976D01*
X100948452Y-102290595D01*
X101519880Y-102862023D01*
X101519880Y-102242976D01*
X100948452Y-101671547D02*
X100900833Y-101766785D01*
X100853214Y-101814404D01*
X100757976Y-101862023D01*
X100710357Y-101862023D01*
X100615119Y-101814404D01*
X100567500Y-101766785D01*
X100519880Y-101671547D01*
X100519880Y-101481071D01*
X100567500Y-101385833D01*
X100615119Y-101338214D01*
X100710357Y-101290595D01*
X100757976Y-101290595D01*
X100853214Y-101338214D01*
X100900833Y-101385833D01*
X100948452Y-101481071D01*
X100948452Y-101671547D01*
X100996071Y-101766785D01*
X101043690Y-101814404D01*
X101138928Y-101862023D01*
X101329404Y-101862023D01*
X101424642Y-101814404D01*
X101472261Y-101766785D01*
X101519880Y-101671547D01*
X101519880Y-101481071D01*
X101472261Y-101385833D01*
X101424642Y-101338214D01*
X101329404Y-101290595D01*
X101138928Y-101290595D01*
X101043690Y-101338214D01*
X100996071Y-101385833D01*
X100948452Y-101481071D01*
X101839880Y-106624404D02*
X100839880Y-106624404D01*
X101839880Y-106052976D02*
X101268452Y-106481547D01*
X100839880Y-106052976D02*
X101411309Y-106624404D01*
%TO.C,D27*%
X82469880Y-103766785D02*
X81469880Y-103766785D01*
X81469880Y-103528690D01*
X81517500Y-103385833D01*
X81612738Y-103290595D01*
X81707976Y-103242976D01*
X81898452Y-103195357D01*
X82041309Y-103195357D01*
X82231785Y-103242976D01*
X82327023Y-103290595D01*
X82422261Y-103385833D01*
X82469880Y-103528690D01*
X82469880Y-103766785D01*
X81565119Y-102814404D02*
X81517500Y-102766785D01*
X81469880Y-102671547D01*
X81469880Y-102433452D01*
X81517500Y-102338214D01*
X81565119Y-102290595D01*
X81660357Y-102242976D01*
X81755595Y-102242976D01*
X81898452Y-102290595D01*
X82469880Y-102862023D01*
X82469880Y-102242976D01*
X81469880Y-101909642D02*
X81469880Y-101242976D01*
X82469880Y-101671547D01*
X82789880Y-106624404D02*
X81789880Y-106624404D01*
X82789880Y-106052976D02*
X82218452Y-106481547D01*
X81789880Y-106052976D02*
X82361309Y-106624404D01*
%TO.C,D13*%
X44687380Y-84558035D02*
X43687380Y-84558035D01*
X43687380Y-84319940D01*
X43735000Y-84177083D01*
X43830238Y-84081845D01*
X43925476Y-84034226D01*
X44115952Y-83986607D01*
X44258809Y-83986607D01*
X44449285Y-84034226D01*
X44544523Y-84081845D01*
X44639761Y-84177083D01*
X44687380Y-84319940D01*
X44687380Y-84558035D01*
X44687380Y-83034226D02*
X44687380Y-83605654D01*
X44687380Y-83319940D02*
X43687380Y-83319940D01*
X43830238Y-83415178D01*
X43925476Y-83510416D01*
X43973095Y-83605654D01*
X43687380Y-82700892D02*
X43687380Y-82081845D01*
X44068333Y-82415178D01*
X44068333Y-82272321D01*
X44115952Y-82177083D01*
X44163571Y-82129464D01*
X44258809Y-82081845D01*
X44496904Y-82081845D01*
X44592142Y-82129464D01*
X44639761Y-82177083D01*
X44687380Y-82272321D01*
X44687380Y-82558035D01*
X44639761Y-82653273D01*
X44592142Y-82700892D01*
X45007380Y-87415654D02*
X44007380Y-87415654D01*
X45007380Y-86844226D02*
X44435952Y-87272797D01*
X44007380Y-86844226D02*
X44578809Y-87415654D01*
%TO.C,D15*%
X82787380Y-84558035D02*
X81787380Y-84558035D01*
X81787380Y-84319940D01*
X81835000Y-84177083D01*
X81930238Y-84081845D01*
X82025476Y-84034226D01*
X82215952Y-83986607D01*
X82358809Y-83986607D01*
X82549285Y-84034226D01*
X82644523Y-84081845D01*
X82739761Y-84177083D01*
X82787380Y-84319940D01*
X82787380Y-84558035D01*
X82787380Y-83034226D02*
X82787380Y-83605654D01*
X82787380Y-83319940D02*
X81787380Y-83319940D01*
X81930238Y-83415178D01*
X82025476Y-83510416D01*
X82073095Y-83605654D01*
X81787380Y-82129464D02*
X81787380Y-82605654D01*
X82263571Y-82653273D01*
X82215952Y-82605654D01*
X82168333Y-82510416D01*
X82168333Y-82272321D01*
X82215952Y-82177083D01*
X82263571Y-82129464D01*
X82358809Y-82081845D01*
X82596904Y-82081845D01*
X82692142Y-82129464D01*
X82739761Y-82177083D01*
X82787380Y-82272321D01*
X82787380Y-82510416D01*
X82739761Y-82605654D01*
X82692142Y-82653273D01*
X83107380Y-87415654D02*
X82107380Y-87415654D01*
X83107380Y-86844226D02*
X82535952Y-87272797D01*
X82107380Y-86844226D02*
X82678809Y-87415654D01*
%TO.C,D6*%
X139683380Y-65031845D02*
X138683380Y-65031845D01*
X138683380Y-64793750D01*
X138731000Y-64650892D01*
X138826238Y-64555654D01*
X138921476Y-64508035D01*
X139111952Y-64460416D01*
X139254809Y-64460416D01*
X139445285Y-64508035D01*
X139540523Y-64555654D01*
X139635761Y-64650892D01*
X139683380Y-64793750D01*
X139683380Y-65031845D01*
X138683380Y-63603273D02*
X138683380Y-63793750D01*
X138731000Y-63888988D01*
X138778619Y-63936607D01*
X138921476Y-64031845D01*
X139111952Y-64079464D01*
X139492904Y-64079464D01*
X139588142Y-64031845D01*
X139635761Y-63984226D01*
X139683380Y-63888988D01*
X139683380Y-63698511D01*
X139635761Y-63603273D01*
X139588142Y-63555654D01*
X139492904Y-63508035D01*
X139254809Y-63508035D01*
X139159571Y-63555654D01*
X139111952Y-63603273D01*
X139064333Y-63698511D01*
X139064333Y-63888988D01*
X139111952Y-63984226D01*
X139159571Y-64031845D01*
X139254809Y-64079464D01*
X140003380Y-68365654D02*
X139003380Y-68365654D01*
X140003380Y-67794226D02*
X139431952Y-68222797D01*
X139003380Y-67794226D02*
X139574809Y-68365654D01*
%TO.C,D5*%
X120633380Y-65000095D02*
X119633380Y-65000095D01*
X119633380Y-64762000D01*
X119681000Y-64619142D01*
X119776238Y-64523904D01*
X119871476Y-64476285D01*
X120061952Y-64428666D01*
X120204809Y-64428666D01*
X120395285Y-64476285D01*
X120490523Y-64523904D01*
X120585761Y-64619142D01*
X120633380Y-64762000D01*
X120633380Y-65000095D01*
X119633380Y-63523904D02*
X119633380Y-64000095D01*
X120109571Y-64047714D01*
X120061952Y-64000095D01*
X120014333Y-63904857D01*
X120014333Y-63666761D01*
X120061952Y-63571523D01*
X120109571Y-63523904D01*
X120204809Y-63476285D01*
X120442904Y-63476285D01*
X120538142Y-63523904D01*
X120585761Y-63571523D01*
X120633380Y-63666761D01*
X120633380Y-63904857D01*
X120585761Y-64000095D01*
X120538142Y-64047714D01*
X120953380Y-68333904D02*
X119953380Y-68333904D01*
X120953380Y-67762476D02*
X120381952Y-68191047D01*
X119953380Y-67762476D02*
X120524809Y-68333904D01*
%TO.C,J1*%
X207232380Y-54784583D02*
X207946666Y-54784583D01*
X208089523Y-54832202D01*
X208184761Y-54927440D01*
X208232380Y-55070297D01*
X208232380Y-55165535D01*
X208232380Y-53784583D02*
X208232380Y-54356011D01*
X208232380Y-54070297D02*
X207232380Y-54070297D01*
X207375238Y-54165535D01*
X207470476Y-54260773D01*
X207518095Y-54356011D01*
X198524761Y-56911726D02*
X198572380Y-56768869D01*
X198572380Y-56530773D01*
X198524761Y-56435535D01*
X198477142Y-56387916D01*
X198381904Y-56340297D01*
X198286666Y-56340297D01*
X198191428Y-56387916D01*
X198143809Y-56435535D01*
X198096190Y-56530773D01*
X198048571Y-56721250D01*
X198000952Y-56816488D01*
X197953333Y-56864107D01*
X197858095Y-56911726D01*
X197762857Y-56911726D01*
X197667619Y-56864107D01*
X197620000Y-56816488D01*
X197572380Y-56721250D01*
X197572380Y-56483154D01*
X197620000Y-56340297D01*
X198477142Y-55340297D02*
X198524761Y-55387916D01*
X198572380Y-55530773D01*
X198572380Y-55626011D01*
X198524761Y-55768869D01*
X198429523Y-55864107D01*
X198334285Y-55911726D01*
X198143809Y-55959345D01*
X198000952Y-55959345D01*
X197810476Y-55911726D01*
X197715238Y-55864107D01*
X197620000Y-55768869D01*
X197572380Y-55626011D01*
X197572380Y-55530773D01*
X197620000Y-55387916D01*
X197667619Y-55340297D01*
X198572380Y-54435535D02*
X198572380Y-54911726D01*
X197572380Y-54911726D01*
X201064761Y-56935535D02*
X201112380Y-56792678D01*
X201112380Y-56554583D01*
X201064761Y-56459345D01*
X201017142Y-56411726D01*
X200921904Y-56364107D01*
X200826666Y-56364107D01*
X200731428Y-56411726D01*
X200683809Y-56459345D01*
X200636190Y-56554583D01*
X200588571Y-56745059D01*
X200540952Y-56840297D01*
X200493333Y-56887916D01*
X200398095Y-56935535D01*
X200302857Y-56935535D01*
X200207619Y-56887916D01*
X200160000Y-56840297D01*
X200112380Y-56745059D01*
X200112380Y-56506964D01*
X200160000Y-56364107D01*
X201112380Y-55935535D02*
X200112380Y-55935535D01*
X200112380Y-55697440D01*
X200160000Y-55554583D01*
X200255238Y-55459345D01*
X200350476Y-55411726D01*
X200540952Y-55364107D01*
X200683809Y-55364107D01*
X200874285Y-55411726D01*
X200969523Y-55459345D01*
X201064761Y-55554583D01*
X201112380Y-55697440D01*
X201112380Y-55935535D01*
X200826666Y-54983154D02*
X200826666Y-54506964D01*
X201112380Y-55078392D02*
X200112380Y-54745059D01*
X201112380Y-54411726D01*
X202652380Y-56911726D02*
X202652380Y-56292678D01*
X203033333Y-56626011D01*
X203033333Y-56483154D01*
X203080952Y-56387916D01*
X203128571Y-56340297D01*
X203223809Y-56292678D01*
X203461904Y-56292678D01*
X203557142Y-56340297D01*
X203604761Y-56387916D01*
X203652380Y-56483154D01*
X203652380Y-56768869D01*
X203604761Y-56864107D01*
X203557142Y-56911726D01*
X202985714Y-55959345D02*
X203652380Y-55721250D01*
X202985714Y-55483154D01*
X202652380Y-55197440D02*
X202652380Y-54578392D01*
X203033333Y-54911726D01*
X203033333Y-54768869D01*
X203080952Y-54673630D01*
X203128571Y-54626011D01*
X203223809Y-54578392D01*
X203461904Y-54578392D01*
X203557142Y-54626011D01*
X203604761Y-54673630D01*
X203652380Y-54768869D01*
X203652380Y-55054583D01*
X203604761Y-55149821D01*
X203557142Y-55197440D01*
X205240000Y-56483154D02*
X205192380Y-56578392D01*
X205192380Y-56721250D01*
X205240000Y-56864107D01*
X205335238Y-56959345D01*
X205430476Y-57006964D01*
X205620952Y-57054583D01*
X205763809Y-57054583D01*
X205954285Y-57006964D01*
X206049523Y-56959345D01*
X206144761Y-56864107D01*
X206192380Y-56721250D01*
X206192380Y-56626011D01*
X206144761Y-56483154D01*
X206097142Y-56435535D01*
X205763809Y-56435535D01*
X205763809Y-56626011D01*
X206192380Y-56006964D02*
X205192380Y-56006964D01*
X206192380Y-55435535D01*
X205192380Y-55435535D01*
X206192380Y-54959345D02*
X205192380Y-54959345D01*
X205192380Y-54721250D01*
X205240000Y-54578392D01*
X205335238Y-54483154D01*
X205430476Y-54435535D01*
X205620952Y-54387916D01*
X205763809Y-54387916D01*
X205954285Y-54435535D01*
X206049523Y-54483154D01*
X206144761Y-54578392D01*
X206192380Y-54721250D01*
X206192380Y-54959345D01*
%TO.C,H5*%
X255143095Y-128332380D02*
X255143095Y-127332380D01*
X255143095Y-127808571D02*
X255714523Y-127808571D01*
X255714523Y-128332380D02*
X255714523Y-127332380D01*
X256666904Y-127332380D02*
X256190714Y-127332380D01*
X256143095Y-127808571D01*
X256190714Y-127760952D01*
X256285952Y-127713333D01*
X256524047Y-127713333D01*
X256619285Y-127760952D01*
X256666904Y-127808571D01*
X256714523Y-127903809D01*
X256714523Y-128141904D01*
X256666904Y-128237142D01*
X256619285Y-128284761D01*
X256524047Y-128332380D01*
X256285952Y-128332380D01*
X256190714Y-128284761D01*
X256143095Y-128237142D01*
%TO.C,H4*%
X25908095Y-128332380D02*
X25908095Y-127332380D01*
X25908095Y-127808571D02*
X26479523Y-127808571D01*
X26479523Y-128332380D02*
X26479523Y-127332380D01*
X27384285Y-127665714D02*
X27384285Y-128332380D01*
X27146190Y-127284761D02*
X26908095Y-127999047D01*
X27527142Y-127999047D01*
%TO.C,H3*%
X140843095Y-88962380D02*
X140843095Y-87962380D01*
X140843095Y-88438571D02*
X141414523Y-88438571D01*
X141414523Y-88962380D02*
X141414523Y-87962380D01*
X141795476Y-87962380D02*
X142414523Y-87962380D01*
X142081190Y-88343333D01*
X142224047Y-88343333D01*
X142319285Y-88390952D01*
X142366904Y-88438571D01*
X142414523Y-88533809D01*
X142414523Y-88771904D01*
X142366904Y-88867142D01*
X142319285Y-88914761D01*
X142224047Y-88962380D01*
X141938333Y-88962380D01*
X141843095Y-88914761D01*
X141795476Y-88867142D01*
%TO.C,H1*%
X25908095Y-59262380D02*
X25908095Y-58262380D01*
X25908095Y-58738571D02*
X26479523Y-58738571D01*
X26479523Y-59262380D02*
X26479523Y-58262380D01*
X27479523Y-59262380D02*
X26908095Y-59262380D01*
X27193809Y-59262380D02*
X27193809Y-58262380D01*
X27098571Y-58405238D01*
X27003333Y-58500476D01*
X26908095Y-58548095D01*
%TD*%
%LPC*%
D12*
%TO.C,H2*%
X256540000Y-54610000D03*
%TD*%
D13*
%TO.C,SW31*%
X131762500Y-103187500D03*
D14*
X126682500Y-103187500D03*
X136842500Y-103187500D03*
%TD*%
D13*
%TO.C,SW27*%
X55562500Y-103187500D03*
D14*
X50482500Y-103187500D03*
X60642500Y-103187500D03*
%TD*%
D13*
%TO.C,SW32*%
X150812500Y-103187500D03*
D14*
X145732500Y-103187500D03*
X155892500Y-103187500D03*
%TD*%
D13*
%TO.C,SW29*%
X93662500Y-103187500D03*
D14*
X88582500Y-103187500D03*
X98742500Y-103187500D03*
%TD*%
D13*
%TO.C,SW26*%
X36512500Y-103187500D03*
D14*
X31432500Y-103187500D03*
X41592500Y-103187500D03*
%TD*%
D13*
%TO.C,SW30*%
X112712500Y-103187500D03*
D14*
X107632500Y-103187500D03*
X117792500Y-103187500D03*
%TD*%
D13*
%TO.C,SW35*%
X207962500Y-103187500D03*
D14*
X202882500Y-103187500D03*
X213042500Y-103187500D03*
%TD*%
%TO.C,SW37*%
X251142500Y-103187500D03*
X240982500Y-103187500D03*
D13*
X246062500Y-103187500D03*
%TD*%
%TO.C,SW33*%
X169862500Y-103187500D03*
D14*
X164782500Y-103187500D03*
X174942500Y-103187500D03*
%TD*%
D13*
%TO.C,SW28*%
X74612500Y-103187500D03*
D14*
X69532500Y-103187500D03*
X79692500Y-103187500D03*
%TD*%
D13*
%TO.C,SW34*%
X188912500Y-103187500D03*
D14*
X183832500Y-103187500D03*
X193992500Y-103187500D03*
%TD*%
D13*
%TO.C,SW36*%
X227012500Y-103187500D03*
D14*
X221932500Y-103187500D03*
X232092500Y-103187500D03*
%TD*%
D15*
%TO.C,D34*%
X217487500Y-98742500D03*
D16*
X217487500Y-106362500D03*
%TD*%
D15*
%TO.C,D44*%
X179387500Y-117792500D03*
D16*
X179387500Y-125412500D03*
%TD*%
D13*
%TO.C,SW15*%
X55562500Y-84137500D03*
D14*
X50482500Y-84137500D03*
X60642500Y-84137500D03*
%TD*%
D13*
%TO.C,SW3*%
X55562500Y-65117832D03*
D14*
X50482500Y-65117832D03*
X60642500Y-65117832D03*
%TD*%
D13*
%TO.C,SW20*%
X150812500Y-84137500D03*
D14*
X145732500Y-84137500D03*
X155892500Y-84137500D03*
%TD*%
D15*
%TO.C,D43*%
X160337500Y-117792500D03*
D16*
X160337500Y-125412500D03*
%TD*%
D13*
%TO.C,SW8*%
X150812500Y-65087500D03*
D14*
X145732500Y-65087500D03*
X155892500Y-65087500D03*
%TD*%
D13*
%TO.C,SW48*%
X227012500Y-122237500D03*
D14*
X221932500Y-122237500D03*
X232092500Y-122237500D03*
%TD*%
D13*
%TO.C,SW47*%
X207962500Y-122237500D03*
D14*
X202882500Y-122237500D03*
X213042500Y-122237500D03*
%TD*%
D13*
%TO.C,SW6*%
X112712500Y-65087500D03*
D14*
X107632500Y-65087500D03*
X117792500Y-65087500D03*
%TD*%
D13*
%TO.C,SW9*%
X169862500Y-65087500D03*
D14*
X164782500Y-65087500D03*
X174942500Y-65087500D03*
%TD*%
D13*
%TO.C,SW49*%
X246062500Y-122237500D03*
D14*
X240982500Y-122237500D03*
X251142500Y-122237500D03*
%TD*%
D13*
%TO.C,SW46*%
X188912500Y-122237500D03*
D14*
X183832500Y-122237500D03*
X193992500Y-122237500D03*
%TD*%
D13*
%TO.C,SW45*%
X169862500Y-122237500D03*
D14*
X164782500Y-122237500D03*
X174942500Y-122237500D03*
%TD*%
D13*
%TO.C,SW22*%
X188912500Y-84137500D03*
D14*
X183832500Y-84137500D03*
X193992500Y-84137500D03*
%TD*%
D13*
%TO.C,SW19*%
X131762500Y-84137500D03*
D14*
X126682500Y-84137500D03*
X136842500Y-84137500D03*
%TD*%
D13*
%TO.C,SW13*%
X246062500Y-65087500D03*
D14*
X240982500Y-65087500D03*
X251142500Y-65087500D03*
%TD*%
D13*
%TO.C,SW11*%
X207962500Y-65087500D03*
D14*
X202882500Y-65087500D03*
X213042500Y-65087500D03*
%TD*%
D13*
%TO.C,SW25*%
X246062500Y-84137500D03*
D14*
X240982500Y-84137500D03*
X251142500Y-84137500D03*
%TD*%
D13*
%TO.C,SW23*%
X207962500Y-84137500D03*
D14*
X202882500Y-84137500D03*
X213042500Y-84137500D03*
%TD*%
D13*
%TO.C,SW18*%
X112712500Y-84137500D03*
D14*
X107632500Y-84137500D03*
X117792500Y-84137500D03*
%TD*%
D13*
%TO.C,SW38*%
X36512500Y-122237500D03*
D14*
X31432500Y-122237500D03*
X41592500Y-122237500D03*
%TD*%
D13*
%TO.C,SW39*%
X55562500Y-122237500D03*
D14*
X50482500Y-122237500D03*
X60642500Y-122237500D03*
%TD*%
D13*
%TO.C,SW17*%
X93662500Y-84137500D03*
D14*
X88582500Y-84137500D03*
X98742500Y-84137500D03*
%TD*%
D13*
%TO.C,SW14*%
X36512500Y-84137500D03*
D14*
X31432500Y-84137500D03*
X41592500Y-84137500D03*
%TD*%
D13*
%TO.C,SW41*%
X93662500Y-122237500D03*
D14*
X88582500Y-122237500D03*
X98742500Y-122237500D03*
%TD*%
D13*
%TO.C,SW21*%
X169862500Y-84137500D03*
D14*
X164782500Y-84137500D03*
X174942500Y-84137500D03*
%TD*%
D13*
%TO.C,SW42*%
X112712500Y-122237500D03*
D14*
X107632500Y-122237500D03*
X117792500Y-122237500D03*
%TD*%
D13*
%TO.C,SW43*%
X131762500Y-122237500D03*
D14*
X126682500Y-122237500D03*
X136842500Y-122237500D03*
%TD*%
D13*
%TO.C,SW44*%
X150812500Y-122237500D03*
D14*
X145732500Y-122237500D03*
X155892500Y-122237500D03*
%TD*%
D13*
%TO.C,SW40*%
X74612500Y-122237500D03*
D14*
X69532500Y-122237500D03*
X79692500Y-122237500D03*
%TD*%
D13*
%TO.C,SW24*%
X227012500Y-84137500D03*
D14*
X221932500Y-84137500D03*
X232092500Y-84137500D03*
%TD*%
D13*
%TO.C,SW16*%
X74612500Y-84137500D03*
D14*
X69532500Y-84137500D03*
X79692500Y-84137500D03*
%TD*%
D13*
%TO.C,SW12*%
X227012500Y-65087500D03*
D14*
X221932500Y-65087500D03*
X232092500Y-65087500D03*
%TD*%
D13*
%TO.C,SW7*%
X131762500Y-65087500D03*
D14*
X126682500Y-65087500D03*
X136842500Y-65087500D03*
%TD*%
D13*
%TO.C,SW4*%
X74612500Y-65087500D03*
D14*
X69532500Y-65087500D03*
X79692500Y-65087500D03*
%TD*%
D15*
%TO.C,D48*%
X255587500Y-117792500D03*
D16*
X255587500Y-125412500D03*
%TD*%
D15*
%TO.C,D47*%
X236537500Y-117792500D03*
D16*
X236537500Y-125412500D03*
%TD*%
D15*
%TO.C,D42*%
X141287500Y-117792500D03*
D16*
X141287500Y-125412500D03*
%TD*%
D15*
%TO.C,D46*%
X217678000Y-117729000D03*
D16*
X217678000Y-125349000D03*
%TD*%
D15*
%TO.C,D41*%
X122237500Y-117792500D03*
D16*
X122237500Y-125412500D03*
%TD*%
D15*
%TO.C,D45*%
X198437500Y-117792500D03*
D16*
X198437500Y-125412500D03*
%TD*%
%TO.C,D37*%
X46037500Y-125412500D03*
D15*
X46037500Y-117792500D03*
%TD*%
%TO.C,D36*%
X255587500Y-98742500D03*
D16*
X255587500Y-106362500D03*
%TD*%
D15*
%TO.C,D35*%
X236537500Y-98742500D03*
D16*
X236537500Y-106362500D03*
%TD*%
D15*
%TO.C,D33*%
X198437500Y-98742500D03*
D16*
X198437500Y-106362500D03*
%TD*%
D13*
%TO.C,SW5*%
X93662500Y-65087500D03*
D14*
X88582500Y-65087500D03*
X98742500Y-65087500D03*
%TD*%
D13*
%TO.C,SW2*%
X36520078Y-65117832D03*
D14*
X31440078Y-65117832D03*
X41600078Y-65117832D03*
%TD*%
D16*
%TO.C,D39*%
X84137500Y-125412500D03*
D15*
X84137500Y-117792500D03*
%TD*%
%TO.C,D38*%
X65087500Y-117792500D03*
D16*
X65087500Y-125412500D03*
%TD*%
D13*
%TO.C,SW10*%
X188912500Y-65087500D03*
D14*
X183832500Y-65087500D03*
X193992500Y-65087500D03*
%TD*%
D15*
%TO.C,D40*%
X103187500Y-117792500D03*
D16*
X103187500Y-125412500D03*
%TD*%
D15*
%TO.C,D8*%
X179451000Y-60483750D03*
D16*
X179451000Y-68103750D03*
%TD*%
D15*
%TO.C,D7*%
X160401000Y-60483750D03*
D16*
X160401000Y-68103750D03*
%TD*%
D15*
%TO.C,D17*%
X122301000Y-79533750D03*
D16*
X122301000Y-87153750D03*
%TD*%
D15*
%TO.C,D18*%
X141605000Y-79533750D03*
D16*
X141605000Y-87153750D03*
%TD*%
D15*
%TO.C,D31*%
X160337500Y-98742500D03*
D16*
X160337500Y-106362500D03*
%TD*%
D15*
%TO.C,D29*%
X122237500Y-98742500D03*
D16*
X122237500Y-106362500D03*
%TD*%
%TO.C,D25*%
X46037500Y-106362500D03*
D15*
X46037500Y-98742500D03*
%TD*%
%TO.C,D22*%
X217805000Y-79533750D03*
D16*
X217805000Y-87153750D03*
%TD*%
D15*
%TO.C,D16*%
X103505000Y-79533750D03*
D16*
X103505000Y-87153750D03*
%TD*%
D15*
%TO.C,D4*%
X103251000Y-60483750D03*
D16*
X103251000Y-68103750D03*
%TD*%
D15*
%TO.C,D32*%
X179387500Y-98742500D03*
D16*
X179387500Y-106362500D03*
%TD*%
D15*
%TO.C,D26*%
X65087500Y-98742500D03*
D16*
X65087500Y-106362500D03*
%TD*%
D15*
%TO.C,D19*%
X160655000Y-79533750D03*
D16*
X160655000Y-87153750D03*
%TD*%
D15*
%TO.C,D24*%
X255905000Y-78740000D03*
D16*
X255905000Y-86360000D03*
%TD*%
D15*
%TO.C,D11*%
X236855000Y-60483750D03*
D16*
X236855000Y-68103750D03*
%TD*%
D15*
%TO.C,D14*%
X65405000Y-79533750D03*
D16*
X65405000Y-87153750D03*
%TD*%
D15*
%TO.C,D10*%
X217805000Y-60483750D03*
D16*
X217805000Y-68103750D03*
%TD*%
D15*
%TO.C,D30*%
X141287500Y-98742500D03*
D16*
X141287500Y-106362500D03*
%TD*%
D15*
%TO.C,D9*%
X198501000Y-60483750D03*
D16*
X198501000Y-68103750D03*
%TD*%
D15*
%TO.C,D20*%
X179705000Y-79533750D03*
D16*
X179705000Y-87153750D03*
%TD*%
D15*
%TO.C,D12*%
X255905000Y-59690000D03*
D16*
X255905000Y-67310000D03*
%TD*%
D15*
%TO.C,D23*%
X236855000Y-79533750D03*
D16*
X236855000Y-87153750D03*
%TD*%
%TO.C,D3*%
X84201000Y-68103750D03*
D15*
X84201000Y-60483750D03*
%TD*%
%TO.C,D2*%
X65151000Y-60483750D03*
D16*
X65151000Y-68103750D03*
%TD*%
%TO.C,D1*%
X46101000Y-68103750D03*
D15*
X46101000Y-60483750D03*
%TD*%
%TO.C,D21*%
X198755000Y-79533750D03*
D16*
X198755000Y-87153750D03*
%TD*%
D15*
%TO.C,D28*%
X103187500Y-98742500D03*
D16*
X103187500Y-106362500D03*
%TD*%
%TO.C,D27*%
X84137500Y-106362500D03*
D15*
X84137500Y-98742500D03*
%TD*%
D16*
%TO.C,D13*%
X46355000Y-87153750D03*
D15*
X46355000Y-79533750D03*
%TD*%
D16*
%TO.C,D15*%
X84455000Y-87153750D03*
D15*
X84455000Y-79533750D03*
%TD*%
%TO.C,D6*%
X141351000Y-60483750D03*
D16*
X141351000Y-68103750D03*
%TD*%
D15*
%TO.C,D5*%
X122301000Y-60452000D03*
D16*
X122301000Y-68072000D03*
%TD*%
D17*
%TO.C,U1*%
X244465000Y-110485000D03*
X241925000Y-110485000D03*
X236845000Y-110485000D03*
X239385000Y-110485000D03*
X231765000Y-110485000D03*
X234305000Y-110485000D03*
X226685000Y-110485000D03*
X219065000Y-110485000D03*
X224145000Y-110485000D03*
X221605000Y-110485000D03*
X216525000Y-110485000D03*
X213985000Y-110485000D03*
X211445000Y-110485000D03*
X206365000Y-110485000D03*
X208905000Y-110485000D03*
X203825000Y-110485000D03*
X201285000Y-110485000D03*
X231765000Y-95270000D03*
X244465000Y-95270000D03*
X236845000Y-95270000D03*
X241925000Y-95270000D03*
X239385000Y-95270000D03*
X234305000Y-95270000D03*
X226685000Y-95270000D03*
X224145000Y-95270000D03*
X221605000Y-95270000D03*
X219065000Y-95270000D03*
X216525000Y-95270000D03*
X213985000Y-95270000D03*
X211445000Y-95270000D03*
X208905000Y-95270000D03*
X206365000Y-95270000D03*
X203825000Y-95270000D03*
X198745000Y-95270000D03*
X201285000Y-95270000D03*
X198745000Y-110485000D03*
%TD*%
D18*
%TO.C,J1*%
X198120000Y-53181250D03*
X200660000Y-53181250D03*
X203200000Y-53181250D03*
D19*
X205740000Y-53181250D03*
%TD*%
D12*
%TO.C,H5*%
X255905000Y-132080000D03*
%TD*%
%TO.C,H4*%
X26670000Y-132080000D03*
%TD*%
%TO.C,H3*%
X141605000Y-92710000D03*
%TD*%
%TO.C,H1*%
X26670000Y-54610000D03*
%TD*%
M02*
