M48
; DRILL file {KiCad (5.1.6)-1} date 05/24/20 16:15:11
; FORMAT={-:-/ absolute / inch / decimal}
; #@! TF.CreationDate,2020-05-24T16:15:11-05:00
; #@! TF.GenerationSoftware,Kicad,Pcbnew,(5.1.6)-1
; #@! TF.FileFunction,NonPlated,1,2,NPTH
FMAT,2
INCH
T1C0.0689
T2C0.1260
T3C0.1570
%
G90
G05
T1
X6.6266Y-4.2515
X7.0266Y-4.2515
X8.8761Y-5.7515
X9.2761Y-5.7515
X8.1261Y-5.0021
X8.5261Y-5.0021
X2.8757Y-3.5016
X3.2757Y-3.5016
X9.6268Y-5.7524
X10.0268Y-5.7524
X2.8776Y-4.2518
X3.2776Y-4.2518
X4.3755Y-5.001
X4.7755Y-5.001
X8.877Y-3.5007
X9.277Y-3.5007
X3.6263Y-5.7524
X4.0263Y-5.7524
X2.1275Y-3.5016
X2.5275Y-3.5016
X6.6252Y-5.0021
X7.0252Y-5.0021
X1.3774Y-3.5025
X1.7774Y-3.5025
X8.1261Y-3.5016
X8.5261Y-3.5016
X6.6269Y-3.5016
X7.0269Y-3.5016
X1.3766Y-4.2518
X1.7766Y-4.2518
X5.8766Y-4.2515
X6.2766Y-4.2515
X6.627Y-5.7524
X7.027Y-5.7524
X4.3776Y-3.5016
X4.7776Y-3.5016
X9.6259Y-5.001
X10.0259Y-5.001
X7.3767Y-4.2525
X7.7767Y-4.2525
X5.1265Y-4.2515
X5.5265Y-4.2515
X5.1254Y-5.001
X5.5254Y-5.001
X9.6259Y-4.2515
X10.0259Y-4.2515
X4.3774Y-4.2515
X4.7774Y-4.2515
X3.6267Y-3.5016
X4.0267Y-3.5016
X7.3767Y-5.7524
X7.7767Y-5.7524
X5.8764Y-5.7533
X6.2764Y-5.7533
X1.377Y-5.0027
X1.777Y-5.0027
X3.6256Y-5.0021
X4.0256Y-5.0021
X7.376Y-3.5016
X7.776Y-3.5016
X8.876Y-5.0021
X9.276Y-5.0021
X7.3762Y-5.001
X7.7762Y-5.001
X2.8775Y-5.7533
X3.2775Y-5.7533
X2.1275Y-4.2527
X2.5275Y-4.2527
X4.376Y-5.7533
X4.776Y-5.7533
X8.1258Y-4.2515
X8.5258Y-4.2515
X8.8768Y-4.2515
X9.2768Y-4.2515
X5.8777Y-3.5016
X6.2777Y-3.5016
X1.3763Y-5.7524
X1.7763Y-5.7524
X5.1268Y-3.5016
X5.5268Y-3.5016
X5.1267Y-5.7524
X5.5267Y-5.7524
X2.1258Y-5.0021
X2.5258Y-5.0021
X2.8757Y-5.001
X3.2757Y-5.001
X9.6262Y-3.5007
X10.0262Y-3.5007
X2.1278Y-5.7524
X2.5278Y-5.7524
X5.8753Y-5.0021
X6.2753Y-5.0021
X8.1264Y-5.7506
X8.5264Y-5.7506
X3.6255Y-4.2506
X4.0255Y-4.2506
T2
X10.4Y-2.25
X5.6982Y-4.6263
X10.45Y-6.1
X0.95Y-6.1
X1.0Y-2.3
T3
X1.5766Y-4.2518
X6.0766Y-4.2515
X6.827Y-5.7524
X4.5776Y-3.5016
X9.8259Y-5.001
X7.5767Y-4.2525
X5.3265Y-4.2515
X5.3254Y-5.001
X9.8259Y-4.2515
X4.5774Y-4.2515
X3.8267Y-3.5016
X7.5767Y-5.7524
X6.0764Y-5.7533
X1.577Y-5.0027
X3.8256Y-5.0021
X7.576Y-3.5016
X9.076Y-5.0021
X7.5762Y-5.001
X3.0775Y-5.7533
X2.3275Y-4.2527
X4.576Y-5.7533
X8.3258Y-4.2515
X9.0768Y-4.2515
X6.0777Y-3.5016
X1.5763Y-5.7524
X5.3268Y-3.5016
X5.3267Y-5.7524
X2.3258Y-5.0021
X3.0757Y-5.001
X9.8262Y-3.5007
X2.3278Y-5.7524
X6.0753Y-5.0021
X8.3264Y-5.7506
X3.8255Y-4.2506
X6.8266Y-4.2515
X9.0761Y-5.7515
X8.3261Y-5.0021
X3.0757Y-3.5016
X9.8268Y-5.7524
X3.0776Y-4.2518
X4.5755Y-5.001
X9.077Y-3.5007
X3.8263Y-5.7524
X2.3275Y-3.5016
X6.8252Y-5.0021
X1.5774Y-3.5025
X8.3261Y-3.5016
X6.8269Y-3.5016
T0
M30
