M48
; DRILL file {KiCad (5.1.6)-1} date 05/25/20 14:44:24
; FORMAT={-:-/ absolute / inch / decimal}
; #@! TF.CreationDate,2020-05-25T14:44:24-05:00
; #@! TF.GenerationSoftware,Kicad,Pcbnew,(5.1.6)-1
; #@! TF.FileFunction,NonPlated,1,2,NPTH
FMAT,2
INCH
T1C0.0689
T2C0.1260
T3C0.1570
%
G90
G05
T1
X1.3893Y-3.4733
X1.7893Y-3.4733
X8.8975Y-3.4708
X9.2975Y-3.4708
X7.3966Y-3.4678
X7.7966Y-3.4678
X5.8936Y-4.2174
X6.2936Y-4.2174
X4.3968Y-4.9708
X4.7968Y-4.9708
X5.1452Y-5.7205
X5.5452Y-5.7205
X7.3944Y-5.718
X7.7944Y-5.718
X4.3976Y-3.4708
X4.7976Y-3.4708
X9.6479Y-3.4687
X10.0479Y-3.4687
X7.3975Y-4.2174
X7.7975Y-4.2174
X6.6475Y-4.9688
X7.0475Y-4.9688
X6.6485Y-4.2174
X7.0485Y-4.2174
X5.8965Y-4.9693
X6.2965Y-4.9693
X5.1437Y-3.4708
X5.5437Y-3.4708
X1.3941Y-4.2171
X1.7941Y-4.2171
X8.1485Y-4.2169
X8.5485Y-4.2169
X7.3936Y-4.9717
X7.7936Y-4.9717
X8.1427Y-5.7206
X8.5427Y-5.7206
X5.1473Y-4.9686
X5.5473Y-4.9686
X4.3923Y-5.72
X4.7923Y-5.72
X3.647Y-4.22
X4.047Y-4.22
X2.1431Y-4.2171
X2.5431Y-4.2171
X9.6479Y-4.2177
X10.0479Y-4.2177
X8.1465Y-4.9687
X8.5465Y-4.9687
X8.8924Y-5.7206
X9.2924Y-5.7206
X8.896Y-4.2177
X9.296Y-4.2177
X2.8963Y-3.4715
X3.2963Y-3.4715
X8.1485Y-3.4708
X8.5485Y-3.4708
X2.8951Y-4.2171
X3.2951Y-4.2171
X2.1483Y-4.9671
X2.5483Y-4.9671
X8.897Y-4.9711
X9.297Y-4.9711
X6.6447Y-5.7187
X7.0447Y-5.7187
X2.1417Y-3.4715
X2.5417Y-3.4715
X5.8985Y-3.4708
X6.2985Y-3.4708
X4.3985Y-4.2203
X4.7985Y-4.2203
X2.8969Y-4.9689
X3.2969Y-4.9689
X9.6479Y-4.9667
X10.0479Y-4.9667
X1.3934Y-5.7191
X1.7934Y-5.7191
X5.8922Y-5.7198
X6.2922Y-5.7198
X9.6432Y-5.7192
X10.0432Y-5.7192
X3.6467Y-3.4737
X4.0467Y-3.4737
X6.6446Y-3.4678
X7.0446Y-3.4678
X5.1446Y-4.2203
X5.5446Y-4.2203
X3.6461Y-4.9687
X4.0461Y-4.9687
X3.6426Y-5.7184
X4.0426Y-5.7184
X2.1431Y-5.7205
X2.5431Y-5.7205
X1.3941Y-4.969
X1.7941Y-4.969
X2.8929Y-5.7203
X3.2929Y-5.7203
T2
X0.9Y-2.15
X0.9Y-6.15
X5.725Y-4.6
X10.5Y-6.15
X10.5Y-2.15
T3
X1.5893Y-3.4733
X9.0975Y-3.4708
X7.5966Y-3.4678
X6.0936Y-4.2174
X4.5968Y-4.9708
X5.3452Y-5.7205
X7.5944Y-5.718
X4.5976Y-3.4708
X9.8479Y-3.4687
X7.5975Y-4.2174
X6.8475Y-4.9688
X6.8485Y-4.2174
X6.0965Y-4.9693
X5.3437Y-3.4708
X1.5941Y-4.2171
X8.3485Y-4.2169
X7.5936Y-4.9717
X8.3427Y-5.7206
X5.3473Y-4.9686
X4.5923Y-5.72
X3.847Y-4.22
X2.3431Y-4.2171
X9.8479Y-4.2177
X8.3465Y-4.9687
X9.0924Y-5.7206
X9.096Y-4.2177
X3.0963Y-3.4715
X8.3485Y-3.4708
X3.0951Y-4.2171
X2.3483Y-4.9671
X9.097Y-4.9711
X6.8447Y-5.7187
X2.3417Y-3.4715
X6.0985Y-3.4708
X4.5985Y-4.2203
X3.0969Y-4.9689
X9.8479Y-4.9667
X1.5934Y-5.7191
X6.0922Y-5.7198
X9.8432Y-5.7192
X3.8467Y-3.4737
X6.8446Y-3.4678
X5.3446Y-4.2203
X3.8461Y-4.9687
X3.8426Y-5.7184
X2.3431Y-5.7205
X1.5941Y-4.969
X3.0929Y-5.7203
T0
M30
