M48
; DRILL file {KiCad (5.1.6)-1} date 05/25/20 14:44:24
; FORMAT={-:-/ absolute / inch / decimal}
; #@! TF.CreationDate,2020-05-25T14:44:24-05:00
; #@! TF.GenerationSoftware,Kicad,Pcbnew,(5.1.6)-1
; #@! TF.FileFunction,Plated,1,2,PTH
FMAT,2
INCH
T1C0.0157
T2C0.0300
T3C0.0315
T4C0.0394
T5C0.0433
T6C0.0579
T7C0.0866
%
G90
G05
T1
X4.2Y-2.05
X4.2Y-2.1
X4.2Y-2.15
X4.2Y-2.2
X4.4Y-2.4
X5.95Y-1.575
X6.1Y-1.575
X6.3Y-2.1
X6.3Y-2.15
T2
X4.55Y-1.375
X4.55Y-1.475
X4.55Y-1.575
X4.55Y-1.675
T3
X5.85Y-2.3
X5.85Y-2.6
X5.25Y-2.4
X5.25Y-2.7
X9.85Y-2.5
X9.85Y-2.8
X6.9Y-2.5
X6.9Y-2.8
X2.55Y-2.6
X2.55Y-2.9
X9.3Y-2.6
X9.3Y-2.9
X4.35Y-2.3
X4.35Y-2.6
X8.1Y-2.3
X8.1Y-2.6
X6.0Y-2.4
X6.0Y-2.7
X6.15Y-2.5
X6.15Y-2.8
X1.6Y-2.5
X1.6Y-2.8
X4.8Y-2.6
X4.8Y-2.9
X7.35Y-2.3
X7.35Y-2.6
X1.75Y-2.6
X1.75Y-2.9
X5.1Y-2.3
X5.1Y-2.6
X8.85Y-2.3
X8.85Y-2.6
X9.7Y-2.4
X9.7Y-2.7
X6.3Y-2.6
X6.3Y-2.9
X3.9Y-2.5
X3.9Y-2.8
X3.3Y-2.6
X3.3Y-2.9
X8.4Y-2.5
X8.4Y-2.8
X3.6Y-2.3
X3.6Y-2.6
X1.3Y-2.3
X1.3Y-2.6
X1.45Y-2.4
X1.45Y-2.7
X6.75Y-2.4
X6.75Y-2.7
X4.65Y-2.5
X4.65Y-2.8
X7.65Y-2.5
X7.65Y-2.8
X9.55Y-2.3
X9.55Y-2.6
X4.05Y-2.6
X4.05Y-2.9
X6.6Y-2.3
X6.6Y-2.6
X4.5Y-2.4
X4.5Y-2.7
X5.55Y-2.6
X5.55Y-2.9
X7.5Y-2.4
X7.5Y-2.7
X9.15Y-2.5
X9.15Y-2.8
X2.25Y-2.4
X2.25Y-2.7
X2.1Y-2.3
X2.1Y-2.6
X3.0Y-2.4
X3.0Y-2.7
X10.0Y-2.6
X10.0Y-2.9
X7.8Y-2.6
X7.8Y-2.9
X2.4Y-2.5
X2.4Y-2.8
X7.05Y-2.6
X7.05Y-2.9
X2.85Y-2.3
X2.85Y-2.6
X3.75Y-2.4
X3.75Y-2.7
X8.55Y-2.6
X8.55Y-2.9
X9.0Y-2.4
X9.0Y-2.7
X3.15Y-2.5
X3.15Y-2.8
X5.4Y-2.5
X5.4Y-2.8
X8.25Y-2.4
X8.25Y-2.7
T4
X4.7504Y-1.3508
X4.7504Y-1.9498
X4.8504Y-1.3508
X4.8504Y-1.9498
X4.9504Y-1.3508
X4.9504Y-1.9498
X5.0504Y-1.3508
X5.0504Y-1.9498
X5.1504Y-1.3508
X5.1504Y-1.9498
X5.2504Y-1.3508
X5.2504Y-1.9498
X5.4504Y-1.3508
X5.4504Y-1.9498
X5.5504Y-1.3508
X5.5504Y-1.9498
X5.6504Y-1.3508
X5.6504Y-1.9498
X5.7504Y-1.3508
X5.7504Y-1.9498
X5.8504Y-1.3508
X5.8504Y-1.9498
X5.9504Y-1.3508
X5.9504Y-1.9498
X6.0504Y-1.3508
X6.0504Y-1.9498
X6.1504Y-1.3508
X6.1504Y-1.9498
X6.2504Y-1.3508
X6.2504Y-1.9498
X6.3504Y-1.3508
X6.3504Y-1.4508
X6.3504Y-1.5508
X6.3504Y-1.6508
X6.3504Y-1.8498
X6.3504Y-1.9498
X6.4504Y-1.3508
X6.4504Y-1.9498
X6.5504Y-1.3508
X6.5504Y-1.9498
T5
X10.25Y-2.6
X10.25Y-2.7772
X10.5059Y-2.6
X10.5059Y-2.7772
T6
X5.1937Y-3.3708
X5.4437Y-3.2708
X1.4441Y-4.1171
X1.6941Y-4.0171
X8.1985Y-4.1169
X8.4485Y-4.0169
X7.4436Y-4.8717
X7.6936Y-4.7717
X8.1927Y-5.6206
X8.4427Y-5.5206
X5.1973Y-4.8686
X5.4473Y-4.7686
X4.4423Y-5.62
X4.6923Y-5.52
X3.697Y-4.12
X3.947Y-4.02
X2.1931Y-4.1171
X2.4431Y-4.0171
X9.6979Y-4.1177
X9.9479Y-4.0177
X8.1965Y-4.8687
X8.4465Y-4.7687
X8.9424Y-5.6206
X9.1924Y-5.5206
X8.946Y-4.1177
X9.196Y-4.0177
X2.9463Y-3.3715
X3.1963Y-3.2715
X8.1985Y-3.3708
X8.4485Y-3.2708
X2.9451Y-4.1171
X3.1951Y-4.0171
X2.1983Y-4.8671
X2.4483Y-4.7671
X8.947Y-4.8711
X9.197Y-4.7711
X6.6947Y-5.6187
X6.9447Y-5.5187
X2.1917Y-3.3715
X2.4417Y-3.2715
X5.9485Y-3.3708
X6.1985Y-3.2708
X4.4485Y-4.1203
X4.6985Y-4.0203
X2.9469Y-4.8689
X3.1969Y-4.7689
X9.6979Y-4.8667
X9.9479Y-4.7667
X1.4434Y-5.6191
X1.6934Y-5.5191
X5.9422Y-5.6198
X6.1922Y-5.5198
X9.6932Y-5.6192
X9.9432Y-5.5192
X3.6967Y-3.3737
X3.9467Y-3.2737
X6.6946Y-3.3678
X6.9446Y-3.2678
X5.1946Y-4.1203
X5.4446Y-4.0203
X3.6961Y-4.8687
X3.9461Y-4.7687
X3.6926Y-5.6184
X3.9426Y-5.5184
X2.1931Y-5.6205
X2.4431Y-5.5205
X1.4441Y-4.869
X1.6941Y-4.769
X2.9429Y-5.6203
X3.1929Y-5.5203
X1.4393Y-3.3733
X1.6893Y-3.2733
X8.9475Y-3.3708
X9.1975Y-3.2708
X7.4466Y-3.3678
X7.6966Y-3.2678
X5.9436Y-4.1174
X6.1936Y-4.0174
X4.4468Y-4.8708
X4.6968Y-4.7708
X5.1952Y-5.6205
X5.4452Y-5.5205
X7.4444Y-5.618
X7.6944Y-5.518
X4.4476Y-3.3708
X4.6976Y-3.2708
X9.6979Y-3.3687
X9.9479Y-3.2687
X7.4475Y-4.1174
X7.6975Y-4.0174
X6.6975Y-4.8688
X6.9475Y-4.7688
X6.6985Y-4.1174
X6.9485Y-4.0174
X5.9465Y-4.8693
X6.1965Y-4.7693
T7
X6.6616Y-1.3748
X6.6616Y-1.9258
T0
M30
