M48
; DRILL file {KiCad (5.1.6)-1} date 05/24/20 21:22:04
; FORMAT={-:-/ absolute / inch / decimal}
; #@! TF.CreationDate,2020-05-24T21:22:04-05:00
; #@! TF.GenerationSoftware,Kicad,Pcbnew,(5.1.6)-1
; #@! TF.FileFunction,Plated,1,2,PTH
FMAT,2
INCH
T1C0.0157
T2C0.0394
T3C0.0433
T4C0.0579
T5C0.0866
%
G90
G05
T1
X4.2Y-2.05
X4.2Y-2.1
X4.2Y-2.15
X4.45Y-2.2
X5.75Y-1.75
X6.3Y-2.1
X6.3Y-2.15
T2
X2.1Y-2.25
X2.1Y-2.65
X5.1Y-2.25
X5.1Y-2.65
X5.6Y-2.55
X5.6Y-2.95
X9.35Y-2.55
X9.35Y-2.95
X9.05Y-2.35
X9.05Y-2.75
X8.45Y-2.45
X8.45Y-2.85
X9.8Y-2.35
X9.8Y-2.75
X4.7504Y-1.3508
X4.7504Y-1.9498
X4.8504Y-1.3508
X4.8504Y-1.9498
X4.9504Y-1.3508
X4.9504Y-1.9498
X5.0504Y-1.3508
X5.0504Y-1.9498
X5.1504Y-1.3508
X5.1504Y-1.9498
X5.2504Y-1.3508
X5.2504Y-1.9498
X5.4504Y-1.3508
X5.4504Y-1.9498
X5.5504Y-1.3508
X5.5504Y-1.9498
X5.6504Y-1.3508
X5.6504Y-1.9498
X5.7504Y-1.3508
X5.7504Y-1.9498
X5.8504Y-1.3508
X5.8504Y-1.9498
X5.9504Y-1.3508
X5.9504Y-1.9498
X6.0504Y-1.3508
X6.0504Y-1.9498
X6.1504Y-1.3508
X6.1504Y-1.9498
X6.2504Y-1.3508
X6.2504Y-1.9498
X6.3504Y-1.3508
X6.3504Y-1.4508
X6.3504Y-1.5508
X6.3504Y-1.6508
X6.3504Y-1.8498
X6.3504Y-1.9498
X6.4504Y-1.3508
X6.4504Y-1.9498
X6.5504Y-1.3508
X6.5504Y-1.9498
X2.6Y-2.55
X2.6Y-2.95
X3.95Y-2.45
X3.95Y-2.85
X5.3Y-2.35
X5.3Y-2.75
X6.95Y-2.45
X6.95Y-2.85
X6.05Y-2.35
X6.05Y-2.75
X9.2Y-2.45
X9.2Y-2.85
X10.1Y-2.55
X10.1Y-2.95
X3.2Y-2.45
X3.2Y-2.85
X3.6Y-2.25
X3.6Y-2.65
X6.2Y-2.45
X6.2Y-2.85
X7.85Y-2.55
X7.85Y-2.95
X7.1Y-2.55
X7.1Y-2.95
X9.95Y-2.45
X9.95Y-2.85
X1.7Y-2.45
X1.7Y-2.85
X2.45Y-2.45
X2.45Y-2.85
X2.85Y-2.25
X2.85Y-2.65
X3.8Y-2.35
X3.8Y-2.75
X4.7Y-2.45
X4.7Y-2.85
X7.7Y-2.45
X7.7Y-2.85
X6.6Y-2.25
X6.6Y-2.65
X2.3Y-2.35
X2.3Y-2.75
X3.05Y-2.35
X3.05Y-2.75
X6.35Y-2.55
X6.35Y-2.95
X4.35Y-2.25
X4.35Y-2.65
X7.55Y-2.35
X7.55Y-2.75
X8.1Y-2.25
X8.1Y-2.65
X9.6Y-2.25
X9.6Y-2.65
X1.35Y-2.25
X1.35Y-2.65
X1.55Y-2.35
X1.55Y-2.75
X4.1Y-2.55
X4.1Y-2.95
X5.45Y-2.45
X5.45Y-2.85
X3.35Y-2.55
X3.35Y-2.95
X8.85Y-2.25
X8.85Y-2.65
X8.3Y-2.35
X8.3Y-2.75
X6.8Y-2.35
X6.8Y-2.75
X1.85Y-2.55
X1.85Y-2.95
X4.85Y-2.55
X4.85Y-2.95
X4.55Y-2.35
X4.55Y-2.75
X5.85Y-2.25
X5.85Y-2.65
X8.6Y-2.55
X8.6Y-2.95
X7.35Y-2.25
X7.35Y-2.65
T3
X10.3Y-2.6
X10.3Y-2.7772
X10.5559Y-2.6
X10.5559Y-2.7772
T4
X8.926Y-4.9021
X9.176Y-4.8021
X2.9257Y-4.901
X3.1757Y-4.801
X8.1761Y-4.9021
X8.4261Y-4.8021
X2.9276Y-4.1518
X3.1776Y-4.0518
X2.9275Y-5.6533
X3.1775Y-5.5533
X3.6763Y-5.6524
X3.9263Y-5.5524
X8.1758Y-4.1515
X8.4258Y-4.0515
X3.6756Y-4.9021
X3.9256Y-4.8021
X1.4266Y-4.1518
X1.6766Y-4.0518
X4.426Y-5.6533
X4.676Y-5.5533
X9.6762Y-3.4007
X9.9262Y-3.3007
X7.4262Y-4.901
X7.6762Y-4.801
X8.1764Y-5.6506
X8.4264Y-5.5506
X1.4274Y-3.4025
X1.6774Y-3.3025
X5.9266Y-4.1515
X6.1766Y-4.0515
X8.9268Y-4.1515
X9.1768Y-4.0515
X5.1765Y-4.1515
X5.4265Y-4.0515
X8.9261Y-5.6515
X9.1761Y-5.5515
X8.1761Y-3.4016
X8.4261Y-3.3016
X4.4276Y-3.4016
X4.6776Y-3.3016
X7.4267Y-5.6524
X7.6767Y-5.5524
X2.9257Y-3.4016
X3.1757Y-3.3016
X6.677Y-5.6524
X6.927Y-5.5524
X5.1754Y-4.901
X5.4254Y-4.801
X6.6769Y-3.4016
X6.9269Y-3.3016
X3.6755Y-4.1506
X3.9255Y-4.0506
X9.6768Y-5.6524
X9.9268Y-5.5524
X3.6767Y-3.4016
X3.9267Y-3.3016
X5.1768Y-3.4016
X5.4268Y-3.3016
X5.9253Y-4.9021
X6.1753Y-4.8021
X6.6752Y-4.9021
X6.9252Y-4.8021
X8.927Y-3.4007
X9.177Y-3.3007
X9.6759Y-4.1515
X9.9259Y-4.0515
X1.4263Y-5.6524
X1.6763Y-5.5524
X5.9264Y-5.6533
X6.1764Y-5.5533
X2.1775Y-4.1527
X2.4275Y-4.0527
X2.1758Y-4.9021
X2.4258Y-4.8021
X7.426Y-3.4016
X7.676Y-3.3016
X4.4274Y-4.1515
X4.6774Y-4.0515
X2.1775Y-3.4016
X2.4275Y-3.3016
X1.427Y-4.9027
X1.677Y-4.8027
X2.1778Y-5.6524
X2.4278Y-5.5524
X7.4267Y-4.1525
X7.6767Y-4.0525
X6.6766Y-4.1515
X6.9266Y-4.0515
X5.9277Y-3.4016
X6.1777Y-3.3016
X4.4255Y-4.901
X4.6755Y-4.801
X9.6759Y-4.901
X9.9259Y-4.801
X5.1767Y-5.6524
X5.4267Y-5.5524
T5
X6.6616Y-1.3748
X6.6616Y-1.9258
T0
M30
