%TF.GenerationSoftware,KiCad,Pcbnew,(5.1.6)-1*%
%TF.CreationDate,2020-05-24T21:22:09-05:00*%
%TF.ProjectId,cerkit_planck_proton,6365726b-6974-45f7-906c-616e636b5f70,rev?*%
%TF.SameCoordinates,Original*%
%TF.FileFunction,Soldermask,Top*%
%TF.FilePolarity,Negative*%
%FSLAX46Y46*%
G04 Gerber Fmt 4.6, Leading zero omitted, Abs format (unit mm)*
G04 Created by KiCad (PCBNEW (5.1.6)-1) date 2020-05-24 21:22:09*
%MOMM*%
%LPD*%
G01*
G04 APERTURE LIST*
%ADD10C,2.100000*%
%ADD11R,2.202180X1.402080*%
%ADD12R,1.551940X0.802640*%
%ADD13C,1.800000*%
%ADD14C,2.300000*%
%ADD15O,2.100000X2.100000*%
%ADD16R,2.100000X2.100000*%
%ADD17C,1.850000*%
%ADD18C,4.087800*%
%ADD19C,3.300000*%
G04 APERTURE END LIST*
D10*
%TO.C,REF\u002A\u002A*%
X268120000Y-66040000D03*
X268120000Y-70540000D03*
X261620000Y-66040000D03*
X261620000Y-70540000D03*
%TD*%
D11*
%TO.C,>NAME*%
X114437160Y-39110920D03*
X114437160Y-44709080D03*
D12*
X118110000Y-43408600D03*
X118110000Y-42407840D03*
X118110000Y-41412160D03*
X118110000Y-40411400D03*
%TD*%
D13*
%TO.C,REF\u002A\u002A*%
X166380000Y-49525000D03*
X163840000Y-34310000D03*
D14*
X169204800Y-48915000D03*
X169204800Y-34919600D03*
D13*
X166380000Y-34310000D03*
X161300000Y-36850000D03*
X161300000Y-34310000D03*
X158760000Y-34310000D03*
X156220000Y-34310000D03*
X153680000Y-34310000D03*
X161300000Y-39390000D03*
X161300000Y-41930000D03*
X151140000Y-34310000D03*
X148600000Y-34310000D03*
X146060000Y-34310000D03*
X143520000Y-34310000D03*
X140980000Y-34310000D03*
X138440000Y-34310000D03*
X130820000Y-34310000D03*
X125740000Y-34310000D03*
X123200000Y-34310000D03*
X128280000Y-34310000D03*
X120660000Y-34310000D03*
X133360000Y-34310000D03*
X163840000Y-49525000D03*
X161300000Y-49525000D03*
X156220000Y-49525000D03*
X161300000Y-46985000D03*
X158760000Y-49525000D03*
X153680000Y-49525000D03*
X151140000Y-49525000D03*
X148600000Y-49525000D03*
X143520000Y-49525000D03*
X140980000Y-49525000D03*
X146060000Y-49525000D03*
X138440000Y-49525000D03*
X130820000Y-49525000D03*
X133360000Y-49525000D03*
X125740000Y-49525000D03*
X128280000Y-49525000D03*
X123200000Y-49525000D03*
X120660000Y-49525000D03*
%TD*%
D15*
%TO.C,REF\u002A\u002A*%
X34290000Y-67310000D03*
D16*
X34290000Y-57150000D03*
%TD*%
D17*
%TO.C,REF\u002A\u002A*%
X140345569Y-127024989D03*
X130185569Y-127024989D03*
D18*
X135265569Y-127024989D03*
%TD*%
D19*
%TO.C,REF\u002A\u002A*%
X144733644Y-117507381D03*
%TD*%
%TO.C,REF\u002A\u002A*%
X264160000Y-57150000D03*
%TD*%
%TO.C,REF\u002A\u002A*%
X25400000Y-58420000D03*
%TD*%
%TO.C,REF\u002A\u002A*%
X24130000Y-154940000D03*
%TD*%
%TO.C,REF\u002A\u002A*%
X265430000Y-154940000D03*
%TD*%
D16*
%TO.C,REF\u002A\u002A*%
X248920000Y-59690000D03*
D15*
X248920000Y-69850000D03*
%TD*%
D16*
%TO.C,REF\u002A\u002A*%
X243840000Y-57150000D03*
D15*
X243840000Y-67310000D03*
%TD*%
D16*
%TO.C,REF\u002A\u002A*%
X252730000Y-62230000D03*
D15*
X252730000Y-72390000D03*
%TD*%
D16*
%TO.C,REF\u002A\u002A*%
X256540000Y-64770000D03*
D15*
X256540000Y-74930000D03*
%TD*%
D16*
%TO.C,REF\u002A\u002A*%
X229870000Y-59690000D03*
D15*
X229870000Y-69850000D03*
%TD*%
D16*
%TO.C,REF\u002A\u002A*%
X224790000Y-57150000D03*
D15*
X224790000Y-67310000D03*
%TD*%
D16*
%TO.C,REF\u002A\u002A*%
X233680000Y-62230000D03*
D15*
X233680000Y-72390000D03*
%TD*%
D16*
%TO.C,REF\u002A\u002A*%
X237490000Y-64770000D03*
D15*
X237490000Y-74930000D03*
%TD*%
D16*
%TO.C,REF\u002A\u002A*%
X210820000Y-59690000D03*
D15*
X210820000Y-69850000D03*
%TD*%
D16*
%TO.C,REF\u002A\u002A*%
X205740000Y-57150000D03*
D15*
X205740000Y-67310000D03*
%TD*%
D16*
%TO.C,REF\u002A\u002A*%
X214630000Y-62230000D03*
D15*
X214630000Y-72390000D03*
%TD*%
D16*
%TO.C,REF\u002A\u002A*%
X218440000Y-64770000D03*
D15*
X218440000Y-74930000D03*
%TD*%
D16*
%TO.C,REF\u002A\u002A*%
X191770000Y-59690000D03*
D15*
X191770000Y-69850000D03*
%TD*%
D16*
%TO.C,REF\u002A\u002A*%
X186690000Y-57150000D03*
D15*
X186690000Y-67310000D03*
%TD*%
D16*
%TO.C,REF\u002A\u002A*%
X195580000Y-62230000D03*
D15*
X195580000Y-72390000D03*
%TD*%
D16*
%TO.C,REF\u002A\u002A*%
X199390000Y-64770000D03*
D15*
X199390000Y-74930000D03*
%TD*%
D16*
%TO.C,REF\u002A\u002A*%
X172720000Y-59690000D03*
D15*
X172720000Y-69850000D03*
%TD*%
D16*
%TO.C,REF\u002A\u002A*%
X167640000Y-57150000D03*
D15*
X167640000Y-67310000D03*
%TD*%
D16*
%TO.C,REF\u002A\u002A*%
X176530000Y-62230000D03*
D15*
X176530000Y-72390000D03*
%TD*%
D16*
%TO.C,REF\u002A\u002A*%
X180340000Y-64770000D03*
D15*
X180340000Y-74930000D03*
%TD*%
D16*
%TO.C,REF\u002A\u002A*%
X153670000Y-59690000D03*
D15*
X153670000Y-69850000D03*
%TD*%
D16*
%TO.C,REF\u002A\u002A*%
X148590000Y-57150000D03*
D15*
X148590000Y-67310000D03*
%TD*%
D16*
%TO.C,REF\u002A\u002A*%
X157480000Y-62230000D03*
D15*
X157480000Y-72390000D03*
%TD*%
D16*
%TO.C,REF\u002A\u002A*%
X161290000Y-64770000D03*
D15*
X161290000Y-74930000D03*
%TD*%
D16*
%TO.C,REF\u002A\u002A*%
X134620000Y-59690000D03*
D15*
X134620000Y-69850000D03*
%TD*%
D16*
%TO.C,REF\u002A\u002A*%
X129540000Y-57150000D03*
D15*
X129540000Y-67310000D03*
%TD*%
D16*
%TO.C,REF\u002A\u002A*%
X138430000Y-62230000D03*
D15*
X138430000Y-72390000D03*
%TD*%
D16*
%TO.C,REF\u002A\u002A*%
X142240000Y-64770000D03*
D15*
X142240000Y-74930000D03*
%TD*%
D16*
%TO.C,REF\u002A\u002A*%
X115570000Y-59690000D03*
D15*
X115570000Y-69850000D03*
%TD*%
D16*
%TO.C,REF\u002A\u002A*%
X110490000Y-57150000D03*
D15*
X110490000Y-67310000D03*
%TD*%
D16*
%TO.C,REF\u002A\u002A*%
X119380000Y-62230000D03*
D15*
X119380000Y-72390000D03*
%TD*%
D16*
%TO.C,REF\u002A\u002A*%
X123190000Y-64770000D03*
D15*
X123190000Y-74930000D03*
%TD*%
D16*
%TO.C,REF\u002A\u002A*%
X96520000Y-59690000D03*
D15*
X96520000Y-69850000D03*
%TD*%
D16*
%TO.C,REF\u002A\u002A*%
X91440000Y-57150000D03*
D15*
X91440000Y-67310000D03*
%TD*%
D16*
%TO.C,REF\u002A\u002A*%
X100330000Y-62230000D03*
D15*
X100330000Y-72390000D03*
%TD*%
D16*
%TO.C,REF\u002A\u002A*%
X104140000Y-64770000D03*
D15*
X104140000Y-74930000D03*
%TD*%
D16*
%TO.C,REF\u002A\u002A*%
X77470000Y-59690000D03*
D15*
X77470000Y-69850000D03*
%TD*%
D16*
%TO.C,REF\u002A\u002A*%
X72390000Y-57150000D03*
D15*
X72390000Y-67310000D03*
%TD*%
D16*
%TO.C,REF\u002A\u002A*%
X81280000Y-62230000D03*
D15*
X81280000Y-72390000D03*
%TD*%
D16*
%TO.C,REF\u002A\u002A*%
X85090000Y-64770000D03*
D15*
X85090000Y-74930000D03*
%TD*%
D16*
%TO.C,REF\u002A\u002A*%
X58420000Y-59690000D03*
D15*
X58420000Y-69850000D03*
%TD*%
D16*
%TO.C,REF\u002A\u002A*%
X53340000Y-57150000D03*
D15*
X53340000Y-67310000D03*
%TD*%
D16*
%TO.C,REF\u002A\u002A*%
X62230000Y-62230000D03*
D15*
X62230000Y-72390000D03*
%TD*%
D16*
%TO.C,REF\u002A\u002A*%
X66040000Y-64770000D03*
D15*
X66040000Y-74930000D03*
%TD*%
%TO.C,REF\u002A\u002A*%
X46990000Y-74930000D03*
D16*
X46990000Y-64770000D03*
%TD*%
D15*
%TO.C,REF\u002A\u002A*%
X43180000Y-72390000D03*
D16*
X43180000Y-62230000D03*
%TD*%
D15*
%TO.C,REF\u002A\u002A*%
X39370000Y-69850000D03*
D16*
X39370000Y-59690000D03*
%TD*%
D17*
%TO.C,REF\u002A\u002A*%
X121352004Y-88940058D03*
X111192004Y-88940058D03*
D18*
X116272004Y-88940058D03*
%TD*%
D17*
%TO.C,REF\u002A\u002A*%
X178440368Y-127052755D03*
X168280368Y-127052755D03*
D18*
X173360368Y-127052755D03*
%TD*%
D17*
%TO.C,REF\u002A\u002A*%
X197515533Y-127024989D03*
X187355533Y-127024989D03*
D18*
X192435533Y-127024989D03*
%TD*%
D17*
%TO.C,REF\u002A\u002A*%
X102277245Y-88940058D03*
X92117245Y-88940058D03*
D18*
X97197245Y-88940058D03*
%TD*%
D17*
%TO.C,REF\u002A\u002A*%
X159425487Y-107989188D03*
X149265487Y-107989188D03*
D18*
X154345487Y-107989188D03*
%TD*%
D17*
%TO.C,REF\u002A\u002A*%
X45136337Y-127069414D03*
X34976337Y-127069414D03*
D18*
X40056337Y-127069414D03*
%TD*%
D17*
%TO.C,REF\u002A\u002A*%
X64155971Y-127052755D03*
X53995971Y-127052755D03*
D18*
X59075971Y-127052755D03*
%TD*%
D17*
%TO.C,REF\u002A\u002A*%
X216556145Y-107989188D03*
X206396145Y-107989188D03*
D18*
X211476145Y-107989188D03*
%TD*%
D17*
%TO.C,REF\u002A\u002A*%
X197528196Y-108012593D03*
X187368196Y-108012593D03*
D18*
X192448196Y-108012593D03*
%TD*%
D17*
%TO.C,REF\u002A\u002A*%
X64199140Y-108019614D03*
X54039140Y-108019614D03*
D18*
X59119140Y-108019614D03*
%TD*%
D17*
%TO.C,REF\u002A\u002A*%
X83202486Y-88940058D03*
X73042486Y-88940058D03*
D18*
X78122486Y-88940058D03*
%TD*%
D17*
%TO.C,REF\u002A\u002A*%
X64197941Y-88940058D03*
X54037941Y-88940058D03*
D18*
X59117941Y-88940058D03*
%TD*%
D17*
%TO.C,REF\u002A\u002A*%
X45146586Y-88963463D03*
X34986586Y-88963463D03*
D18*
X40066586Y-88963463D03*
%TD*%
D17*
%TO.C,REF\u002A\u002A*%
X140379954Y-88940058D03*
X130219954Y-88940058D03*
D18*
X135299954Y-88940058D03*
%TD*%
D17*
%TO.C,REF\u002A\u002A*%
X254680002Y-146110448D03*
X244520002Y-146110448D03*
D18*
X249600002Y-146110448D03*
%TD*%
D17*
%TO.C,REF\u002A\u002A*%
X178485776Y-146110448D03*
X168325776Y-146110448D03*
D18*
X173405776Y-146110448D03*
%TD*%
D17*
%TO.C,REF\u002A\u002A*%
X216571320Y-146064172D03*
X206411320Y-146064172D03*
D18*
X211491320Y-146064172D03*
%TD*%
D17*
%TO.C,REF\u002A\u002A*%
X159419866Y-146133587D03*
X149259866Y-146133587D03*
D18*
X154339866Y-146133587D03*
%TD*%
D17*
%TO.C,REF\u002A\u002A*%
X102268412Y-146110448D03*
X92108412Y-146110448D03*
D18*
X97188412Y-146110448D03*
%TD*%
D17*
%TO.C,REF\u002A\u002A*%
X140377094Y-146110448D03*
X130217094Y-146110448D03*
D18*
X135297094Y-146110448D03*
%TD*%
D17*
%TO.C,REF\u002A\u002A*%
X121311184Y-146133587D03*
X111151184Y-146133587D03*
D18*
X116231184Y-146133587D03*
%TD*%
D17*
%TO.C,REF\u002A\u002A*%
X235614092Y-146087310D03*
X225454092Y-146087310D03*
D18*
X230534092Y-146087310D03*
%TD*%
D17*
%TO.C,REF\u002A\u002A*%
X197528548Y-146110448D03*
X187368548Y-146110448D03*
D18*
X192448548Y-146110448D03*
%TD*%
D17*
%TO.C,REF\u002A\u002A*%
X83248778Y-146133587D03*
X73088778Y-146133587D03*
D18*
X78168778Y-146133587D03*
%TD*%
D17*
%TO.C,REF\u002A\u002A*%
X64206007Y-146110448D03*
X54046007Y-146110448D03*
D18*
X59126007Y-146110448D03*
%TD*%
D17*
%TO.C,REF\u002A\u002A*%
X45116958Y-146110448D03*
X34956958Y-146110448D03*
D18*
X40036958Y-146110448D03*
%TD*%
D17*
%TO.C,REF\u002A\u002A*%
X254657732Y-127024989D03*
X244497732Y-127024989D03*
D18*
X249577732Y-127024989D03*
%TD*%
D17*
%TO.C,REF\u002A\u002A*%
X216562933Y-127052755D03*
X206402933Y-127052755D03*
D18*
X211482933Y-127052755D03*
%TD*%
D17*
%TO.C,REF\u002A\u002A*%
X159392968Y-127052755D03*
X149232968Y-127052755D03*
D18*
X154312968Y-127052755D03*
%TD*%
D17*
%TO.C,REF\u002A\u002A*%
X235610332Y-127052755D03*
X225450332Y-127052755D03*
D18*
X230530332Y-127052755D03*
%TD*%
D17*
%TO.C,REF\u002A\u002A*%
X254658854Y-107989188D03*
X244498854Y-107989188D03*
D18*
X249578854Y-107989188D03*
%TD*%
D17*
%TO.C,REF\u002A\u002A*%
X235630905Y-107989188D03*
X225470905Y-107989188D03*
D18*
X230550905Y-107989188D03*
%TD*%
D17*
%TO.C,REF\u002A\u002A*%
X83203370Y-127024989D03*
X73043370Y-127024989D03*
D18*
X78123370Y-127024989D03*
%TD*%
D17*
%TO.C,REF\u002A\u002A*%
X121298169Y-127024989D03*
X111138169Y-127024989D03*
D18*
X116218169Y-127024989D03*
%TD*%
D17*
%TO.C,REF\u002A\u002A*%
X102250770Y-127052755D03*
X92090770Y-127052755D03*
D18*
X97170770Y-127052755D03*
%TD*%
D17*
%TO.C,REF\u002A\u002A*%
X102248019Y-107965783D03*
X92088019Y-107965783D03*
D18*
X97168019Y-107965783D03*
%TD*%
D17*
%TO.C,REF\u002A\u002A*%
X140374132Y-107989188D03*
X130214132Y-107989188D03*
D18*
X135294132Y-107989188D03*
%TD*%
D17*
%TO.C,REF\u002A\u002A*%
X121346182Y-107989188D03*
X111186182Y-107989188D03*
D18*
X116266182Y-107989188D03*
%TD*%
D17*
%TO.C,REF\u002A\u002A*%
X45124381Y-107996209D03*
X34964381Y-107996209D03*
D18*
X40044381Y-107996209D03*
%TD*%
D17*
%TO.C,REF\u002A\u002A*%
X254664676Y-88916654D03*
X244504676Y-88916654D03*
D18*
X249584676Y-88916654D03*
%TD*%
D17*
%TO.C,REF\u002A\u002A*%
X216561968Y-88940058D03*
X206401968Y-88940058D03*
D18*
X211481968Y-88940058D03*
%TD*%
D17*
%TO.C,REF\u002A\u002A*%
X235636727Y-88916654D03*
X225476727Y-88916654D03*
D18*
X230556727Y-88916654D03*
%TD*%
D17*
%TO.C,REF\u002A\u002A*%
X178476841Y-107989188D03*
X168316841Y-107989188D03*
D18*
X173396841Y-107989188D03*
%TD*%
D17*
%TO.C,REF\u002A\u002A*%
X83250495Y-107996209D03*
X73090495Y-107996209D03*
D18*
X78170495Y-107996209D03*
%TD*%
D17*
%TO.C,REF\u002A\u002A*%
X159454713Y-88940058D03*
X149294713Y-88940058D03*
D18*
X154374713Y-88940058D03*
%TD*%
D17*
%TO.C,REF\u002A\u002A*%
X197510613Y-88940058D03*
X187350613Y-88940058D03*
D18*
X192430613Y-88940058D03*
%TD*%
D17*
%TO.C,REF\u002A\u002A*%
X178482663Y-88940058D03*
X168322663Y-88940058D03*
D18*
X173402663Y-88940058D03*
%TD*%
M02*
