M48
; DRILL file {KiCad (5.1.6)-1} date 06/06/20 18:36:28
; FORMAT={-:-/ absolute / inch / decimal}
; #@! TF.CreationDate,2020-06-06T18:36:28-05:00
; #@! TF.GenerationSoftware,Kicad,Pcbnew,(5.1.6)-1
; #@! TF.FileFunction,Plated,1,2,PTH
FMAT,2
INCH
T1C0.0157
T2C0.0300
T3C0.0315
T4C0.0394
T5C0.0579
%
G90
G05
T1
X4.905Y-2.615
X4.905Y-2.75
X5.66Y-2.63
X5.665Y-3.49
X5.95Y-1.575
X6.4Y-4.265
X6.405Y-2.605
T2
X6.87Y-1.47
X6.87Y-1.57
X6.87Y-1.67
X6.87Y-1.77
T3
X1.8125Y-4.6375
X1.8125Y-4.9375
X1.815Y-2.3813
X1.815Y-2.6812
X8.57Y-4.635
X8.57Y-4.935
X1.825Y-3.1313
X1.825Y-3.4312
X8.575Y-2.3813
X8.575Y-2.6812
X9.325Y-2.3813
X9.325Y-2.6812
X6.315Y-2.3813
X6.315Y-2.6812
X10.0625Y-2.3875
X10.0625Y-2.6875
X10.0625Y-4.6375
X10.0625Y-4.9375
X9.325Y-3.1313
X9.325Y-3.4312
X3.3125Y-3.8875
X3.3125Y-4.1875
X6.3125Y-4.6375
X6.3125Y-4.9375
X2.5625Y-3.8875
X2.5625Y-4.1875
X6.325Y-3.1313
X6.325Y-3.4312
X7.0625Y-3.8875
X7.0625Y-4.1875
X7.825Y-3.1313
X7.825Y-3.4312
X10.125Y-3.1375
X10.125Y-3.4375
X1.8125Y-3.8875
X1.8125Y-4.1875
X4.065Y-2.3813
X4.065Y-2.6812
X7.8125Y-3.8875
X7.8125Y-4.1875
X4.0625Y-3.8875
X4.0625Y-4.1875
X4.815Y-2.38
X4.815Y-2.68
X7.815Y-2.3813
X7.815Y-2.6812
X4.8125Y-3.8875
X4.8125Y-4.1875
X6.3125Y-3.8875
X6.3125Y-4.1875
X7.8125Y-4.6375
X7.8125Y-4.9375
X7.075Y-3.1313
X7.075Y-3.4312
X2.5625Y-4.6375
X2.5625Y-4.9375
X3.315Y-2.3813
X3.315Y-2.6812
X7.0625Y-4.6375
X7.0625Y-4.9375
X7.065Y-2.3813
X7.065Y-2.6812
X5.575Y-3.1313
X5.575Y-3.4312
X9.3125Y-4.6375
X9.3125Y-4.9375
X2.565Y-2.3813
X2.565Y-2.6812
X9.3125Y-3.8875
X9.3125Y-4.1875
X5.5625Y-3.8875
X5.5625Y-4.1875
X10.0625Y-3.8875
X10.0625Y-4.1875
X4.0625Y-4.6375
X4.0625Y-4.9375
X2.575Y-3.1313
X2.575Y-3.4312
X4.8125Y-4.6375
X4.8125Y-4.9375
X5.565Y-2.3813
X5.565Y-2.6812
X3.3125Y-4.6375
X3.3125Y-4.9375
X3.325Y-3.1313
X3.325Y-3.4312
X5.5625Y-4.6375
X5.5625Y-4.9375
X8.5625Y-3.8875
X8.5625Y-4.1875
X4.075Y-3.1313
X4.075Y-3.4312
X4.815Y-3.1313
X4.815Y-3.4312
X8.575Y-3.1313
X8.575Y-3.4312
T4
X4.8371Y-1.3252
X4.8371Y-1.9242
X4.9371Y-1.3252
X4.9371Y-1.9242
X5.0371Y-1.3252
X5.0371Y-1.9242
X5.1371Y-1.3252
X5.1371Y-1.9242
X5.2371Y-1.3252
X5.2371Y-1.9242
X5.3371Y-1.3252
X5.3371Y-1.9242
X5.4371Y-1.3252
X5.4371Y-1.9242
X5.5371Y-1.3252
X5.5371Y-1.9242
X5.6371Y-1.3252
X5.6371Y-1.9242
X5.7371Y-1.3252
X5.7371Y-1.9242
X5.8371Y-1.3252
X5.8371Y-1.9242
X5.9371Y-1.3252
X5.9371Y-1.9242
X6.1371Y-1.3252
X6.1371Y-1.9242
X6.2371Y-1.3252
X6.2371Y-1.9242
X6.3371Y-1.3252
X6.3371Y-1.9242
X6.4371Y-1.3252
X6.4371Y-1.9242
X6.5371Y-1.3252
X6.5371Y-1.9242
X6.6371Y-1.3252
X6.6371Y-1.9242
T5
X1.2878Y-2.4637
X1.5378Y-2.3637
X6.5375Y-4.7125
X6.7875Y-4.6125
X5.0375Y-4.7125
X5.2875Y-4.6125
X9.5375Y-2.4625
X9.7875Y-2.3625
X6.5375Y-3.9625
X6.7875Y-3.8625
X7.2875Y-2.4625
X7.5375Y-2.3625
X2.7875Y-2.4625
X3.0375Y-2.3625
X8.7875Y-3.9625
X9.0375Y-3.8625
X7.2875Y-4.7125
X7.5375Y-4.6125
X6.5375Y-3.2125
X6.7875Y-3.1125
X4.2875Y-4.7125
X4.5375Y-4.6125
X5.7875Y-4.7125
X6.0375Y-4.6125
X5.0375Y-2.4625
X5.2875Y-2.3625
X8.0375Y-3.9625
X8.2875Y-3.8625
X3.5375Y-2.4625
X3.7875Y-2.3625
X2.0375Y-3.9625
X2.2875Y-3.8625
X9.5375Y-3.9625
X9.7875Y-3.8625
X7.2875Y-3.9625
X7.5375Y-3.8625
X9.5375Y-4.7125
X9.7875Y-4.6125
X3.5375Y-4.7125
X3.7875Y-4.6125
X3.5375Y-3.2125
X3.7875Y-3.1125
X5.0375Y-3.2125
X5.2875Y-3.1125
X5.7875Y-3.9625
X6.0375Y-3.8625
X8.7875Y-2.4625
X9.0375Y-2.3625
X4.2875Y-3.9625
X4.5375Y-3.8625
X2.7875Y-3.9625
X3.0375Y-3.8625
X6.5375Y-2.4625
X6.7875Y-2.3625
X8.7875Y-3.2125
X9.0375Y-3.1125
X2.0375Y-4.7125
X2.2875Y-4.6125
X2.7875Y-3.2125
X3.0375Y-3.1125
X2.0375Y-2.4637
X2.2875Y-2.3637
X5.7875Y-2.4625
X6.0375Y-2.3625
X4.2875Y-2.4625
X4.5375Y-2.3625
X1.2875Y-3.2125
X1.5375Y-3.1125
X4.2875Y-3.2125
X4.5375Y-3.1125
X2.7875Y-4.7125
X3.0375Y-4.6125
X3.5375Y-3.9625
X3.7875Y-3.8625
X5.0375Y-3.9625
X5.2875Y-3.8625
X8.7875Y-4.7125
X9.0375Y-4.6125
X5.7875Y-3.2125
X6.0375Y-3.1125
X1.2875Y-4.7125
X1.5375Y-4.6125
X9.5375Y-3.2125
X9.7875Y-3.1125
X1.2875Y-3.9625
X1.5375Y-3.8625
X2.0375Y-3.2125
X2.2875Y-3.1125
X7.2875Y-3.2125
X7.5375Y-3.1125
X8.0375Y-4.7125
X8.2875Y-4.6125
X8.0375Y-2.4625
X8.2875Y-2.3625
X8.0375Y-3.2125
X8.2875Y-3.1125
T0
M30
