%TF.GenerationSoftware,KiCad,Pcbnew,(5.1.6)-1*%
%TF.CreationDate,2020-05-25T14:44:27-05:00*%
%TF.ProjectId,cerkit48,6365726b-6974-4343-982e-6b696361645f,rev?*%
%TF.SameCoordinates,Original*%
%TF.FileFunction,Legend,Top*%
%TF.FilePolarity,Positive*%
%FSLAX46Y46*%
G04 Gerber Fmt 4.6, Leading zero omitted, Abs format (unit mm)*
G04 Created by KiCad (PCBNEW (5.1.6)-1) date 2020-05-25 14:44:27*
%MOMM*%
%LPD*%
G01*
G04 APERTURE LIST*
%ADD10C,0.150000*%
%ADD11C,0.120000*%
G04 APERTURE END LIST*
D10*
%TO.C,U1*%
X121930000Y-46610000D02*
X133430000Y-46610000D01*
X133430000Y-37231000D02*
X133430000Y-46610000D01*
X121930000Y-37231000D02*
X121930000Y-46610000D01*
X119390000Y-49550000D02*
X119390000Y-34310000D01*
X133360000Y-33040000D02*
X120660000Y-33040000D01*
X133360000Y-50820000D02*
X120660000Y-50820000D01*
X134630000Y-49296000D02*
X134630000Y-49550000D01*
X136154000Y-49042000D02*
X134884000Y-49042000D01*
X137170000Y-49042000D02*
X137170000Y-49550000D01*
X151915000Y-41910000D02*
G75*
G03*
X151915000Y-41910000I-750000J0D01*
G01*
X170924000Y-34310000D02*
X170924000Y-49550000D01*
X169654000Y-33040000D02*
X138440000Y-33040000D01*
X138440000Y-50820000D02*
X169654000Y-50820000D01*
X137170000Y-34310000D02*
X137170000Y-34820000D01*
X134630000Y-34310000D02*
X134630000Y-34564000D01*
X136154000Y-34818000D02*
X134884000Y-34818000D01*
X133430000Y-37231000D02*
X121930000Y-37231000D01*
X169654000Y-50820000D02*
G75*
G03*
X170924000Y-49550000I0J1270000D01*
G01*
X170924000Y-34310000D02*
G75*
G03*
X169654000Y-33040000I-1270000J0D01*
G01*
X137170000Y-49042000D02*
G75*
G03*
X136154000Y-49042000I-508000J0D01*
G01*
X137170000Y-49550000D02*
G75*
G03*
X138440000Y-50820000I1270000J0D01*
G01*
X138440000Y-33040000D02*
G75*
G03*
X137170000Y-34310000I0J-1270000D01*
G01*
X136154000Y-34818000D02*
G75*
G03*
X137170000Y-34818000I508000J0D01*
G01*
X119390000Y-49550000D02*
G75*
G03*
X120660000Y-50820000I1270000J0D01*
G01*
X120660000Y-33040000D02*
G75*
G03*
X119390000Y-34310000I0J-1270000D01*
G01*
X133360000Y-50820000D02*
G75*
G03*
X134630000Y-49550000I0J1270000D01*
G01*
X134630000Y-34310000D02*
G75*
G03*
X133360000Y-33040000I-1270000J0D01*
G01*
X134884000Y-49042000D02*
G75*
G03*
X134630000Y-49296000I0J-254000D01*
G01*
X134630000Y-34564000D02*
G75*
G03*
X134884000Y-34818000I254000J0D01*
G01*
D11*
%TO.C,SW1*%
X261350000Y-71540000D02*
X265850000Y-71540000D01*
X260100000Y-67540000D02*
X260100000Y-69040000D01*
X265850000Y-65040000D02*
X261350000Y-65040000D01*
X267100000Y-69040000D02*
X267100000Y-67540000D01*
%TO.C,D48*%
X255120000Y-67730000D02*
X252880000Y-67730000D01*
X252880000Y-67730000D02*
X252880000Y-71970000D01*
X252880000Y-71970000D02*
X255120000Y-71970000D01*
X255120000Y-71970000D02*
X255120000Y-67730000D01*
X254000000Y-67080000D02*
X254000000Y-67730000D01*
X254000000Y-72620000D02*
X254000000Y-71970000D01*
X255120000Y-68450000D02*
X252880000Y-68450000D01*
X255120000Y-68570000D02*
X252880000Y-68570000D01*
X255120000Y-68330000D02*
X252880000Y-68330000D01*
%TO.C,D47*%
X237340000Y-67730000D02*
X235100000Y-67730000D01*
X235100000Y-67730000D02*
X235100000Y-71970000D01*
X235100000Y-71970000D02*
X237340000Y-71970000D01*
X237340000Y-71970000D02*
X237340000Y-67730000D01*
X236220000Y-67080000D02*
X236220000Y-67730000D01*
X236220000Y-72620000D02*
X236220000Y-71970000D01*
X237340000Y-68450000D02*
X235100000Y-68450000D01*
X237340000Y-68570000D02*
X235100000Y-68570000D01*
X237340000Y-68330000D02*
X235100000Y-68330000D01*
%TO.C,D46*%
X218290000Y-67730000D02*
X216050000Y-67730000D01*
X216050000Y-67730000D02*
X216050000Y-71970000D01*
X216050000Y-71970000D02*
X218290000Y-71970000D01*
X218290000Y-71970000D02*
X218290000Y-67730000D01*
X217170000Y-67080000D02*
X217170000Y-67730000D01*
X217170000Y-72620000D02*
X217170000Y-71970000D01*
X218290000Y-68450000D02*
X216050000Y-68450000D01*
X218290000Y-68570000D02*
X216050000Y-68570000D01*
X218290000Y-68330000D02*
X216050000Y-68330000D01*
%TO.C,D45*%
X199240000Y-67730000D02*
X197000000Y-67730000D01*
X197000000Y-67730000D02*
X197000000Y-71970000D01*
X197000000Y-71970000D02*
X199240000Y-71970000D01*
X199240000Y-71970000D02*
X199240000Y-67730000D01*
X198120000Y-67080000D02*
X198120000Y-67730000D01*
X198120000Y-72620000D02*
X198120000Y-71970000D01*
X199240000Y-68450000D02*
X197000000Y-68450000D01*
X199240000Y-68570000D02*
X197000000Y-68570000D01*
X199240000Y-68330000D02*
X197000000Y-68330000D01*
%TO.C,D44*%
X180190000Y-67730000D02*
X177950000Y-67730000D01*
X177950000Y-67730000D02*
X177950000Y-71970000D01*
X177950000Y-71970000D02*
X180190000Y-71970000D01*
X180190000Y-71970000D02*
X180190000Y-67730000D01*
X179070000Y-67080000D02*
X179070000Y-67730000D01*
X179070000Y-72620000D02*
X179070000Y-71970000D01*
X180190000Y-68450000D02*
X177950000Y-68450000D01*
X180190000Y-68570000D02*
X177950000Y-68570000D01*
X180190000Y-68330000D02*
X177950000Y-68330000D01*
%TO.C,D43*%
X161140000Y-67730000D02*
X158900000Y-67730000D01*
X158900000Y-67730000D02*
X158900000Y-71970000D01*
X158900000Y-71970000D02*
X161140000Y-71970000D01*
X161140000Y-71970000D02*
X161140000Y-67730000D01*
X160020000Y-67080000D02*
X160020000Y-67730000D01*
X160020000Y-72620000D02*
X160020000Y-71970000D01*
X161140000Y-68450000D02*
X158900000Y-68450000D01*
X161140000Y-68570000D02*
X158900000Y-68570000D01*
X161140000Y-68330000D02*
X158900000Y-68330000D01*
%TO.C,D42*%
X142090000Y-67730000D02*
X139850000Y-67730000D01*
X139850000Y-67730000D02*
X139850000Y-71970000D01*
X139850000Y-71970000D02*
X142090000Y-71970000D01*
X142090000Y-71970000D02*
X142090000Y-67730000D01*
X140970000Y-67080000D02*
X140970000Y-67730000D01*
X140970000Y-72620000D02*
X140970000Y-71970000D01*
X142090000Y-68450000D02*
X139850000Y-68450000D01*
X142090000Y-68570000D02*
X139850000Y-68570000D01*
X142090000Y-68330000D02*
X139850000Y-68330000D01*
%TO.C,D41*%
X123040000Y-67730000D02*
X120800000Y-67730000D01*
X120800000Y-67730000D02*
X120800000Y-71970000D01*
X120800000Y-71970000D02*
X123040000Y-71970000D01*
X123040000Y-71970000D02*
X123040000Y-67730000D01*
X121920000Y-67080000D02*
X121920000Y-67730000D01*
X121920000Y-72620000D02*
X121920000Y-71970000D01*
X123040000Y-68450000D02*
X120800000Y-68450000D01*
X123040000Y-68570000D02*
X120800000Y-68570000D01*
X123040000Y-68330000D02*
X120800000Y-68330000D01*
%TO.C,D40*%
X103990000Y-67730000D02*
X101750000Y-67730000D01*
X101750000Y-67730000D02*
X101750000Y-71970000D01*
X101750000Y-71970000D02*
X103990000Y-71970000D01*
X103990000Y-71970000D02*
X103990000Y-67730000D01*
X102870000Y-67080000D02*
X102870000Y-67730000D01*
X102870000Y-72620000D02*
X102870000Y-71970000D01*
X103990000Y-68450000D02*
X101750000Y-68450000D01*
X103990000Y-68570000D02*
X101750000Y-68570000D01*
X103990000Y-68330000D02*
X101750000Y-68330000D01*
%TO.C,D39*%
X84940000Y-68330000D02*
X82700000Y-68330000D01*
X84940000Y-68570000D02*
X82700000Y-68570000D01*
X84940000Y-68450000D02*
X82700000Y-68450000D01*
X83820000Y-72620000D02*
X83820000Y-71970000D01*
X83820000Y-67080000D02*
X83820000Y-67730000D01*
X84940000Y-71970000D02*
X84940000Y-67730000D01*
X82700000Y-71970000D02*
X84940000Y-71970000D01*
X82700000Y-67730000D02*
X82700000Y-71970000D01*
X84940000Y-67730000D02*
X82700000Y-67730000D01*
%TO.C,D38*%
X65890000Y-67730000D02*
X63650000Y-67730000D01*
X63650000Y-67730000D02*
X63650000Y-71970000D01*
X63650000Y-71970000D02*
X65890000Y-71970000D01*
X65890000Y-71970000D02*
X65890000Y-67730000D01*
X64770000Y-67080000D02*
X64770000Y-67730000D01*
X64770000Y-72620000D02*
X64770000Y-71970000D01*
X65890000Y-68450000D02*
X63650000Y-68450000D01*
X65890000Y-68570000D02*
X63650000Y-68570000D01*
X65890000Y-68330000D02*
X63650000Y-68330000D01*
%TO.C,D37*%
X45570000Y-68330000D02*
X43330000Y-68330000D01*
X45570000Y-68570000D02*
X43330000Y-68570000D01*
X45570000Y-68450000D02*
X43330000Y-68450000D01*
X44450000Y-72620000D02*
X44450000Y-71970000D01*
X44450000Y-67080000D02*
X44450000Y-67730000D01*
X45570000Y-71970000D02*
X45570000Y-67730000D01*
X43330000Y-71970000D02*
X45570000Y-71970000D01*
X43330000Y-67730000D02*
X43330000Y-71970000D01*
X45570000Y-67730000D02*
X43330000Y-67730000D01*
%TO.C,D36*%
X251310000Y-65190000D02*
X249070000Y-65190000D01*
X249070000Y-65190000D02*
X249070000Y-69430000D01*
X249070000Y-69430000D02*
X251310000Y-69430000D01*
X251310000Y-69430000D02*
X251310000Y-65190000D01*
X250190000Y-64540000D02*
X250190000Y-65190000D01*
X250190000Y-70080000D02*
X250190000Y-69430000D01*
X251310000Y-65910000D02*
X249070000Y-65910000D01*
X251310000Y-66030000D02*
X249070000Y-66030000D01*
X251310000Y-65790000D02*
X249070000Y-65790000D01*
%TO.C,D35*%
X233530000Y-65190000D02*
X231290000Y-65190000D01*
X231290000Y-65190000D02*
X231290000Y-69430000D01*
X231290000Y-69430000D02*
X233530000Y-69430000D01*
X233530000Y-69430000D02*
X233530000Y-65190000D01*
X232410000Y-64540000D02*
X232410000Y-65190000D01*
X232410000Y-70080000D02*
X232410000Y-69430000D01*
X233530000Y-65910000D02*
X231290000Y-65910000D01*
X233530000Y-66030000D02*
X231290000Y-66030000D01*
X233530000Y-65790000D02*
X231290000Y-65790000D01*
%TO.C,D34*%
X214480000Y-65190000D02*
X212240000Y-65190000D01*
X212240000Y-65190000D02*
X212240000Y-69430000D01*
X212240000Y-69430000D02*
X214480000Y-69430000D01*
X214480000Y-69430000D02*
X214480000Y-65190000D01*
X213360000Y-64540000D02*
X213360000Y-65190000D01*
X213360000Y-70080000D02*
X213360000Y-69430000D01*
X214480000Y-65910000D02*
X212240000Y-65910000D01*
X214480000Y-66030000D02*
X212240000Y-66030000D01*
X214480000Y-65790000D02*
X212240000Y-65790000D01*
%TO.C,D33*%
X195430000Y-65190000D02*
X193190000Y-65190000D01*
X193190000Y-65190000D02*
X193190000Y-69430000D01*
X193190000Y-69430000D02*
X195430000Y-69430000D01*
X195430000Y-69430000D02*
X195430000Y-65190000D01*
X194310000Y-64540000D02*
X194310000Y-65190000D01*
X194310000Y-70080000D02*
X194310000Y-69430000D01*
X195430000Y-65910000D02*
X193190000Y-65910000D01*
X195430000Y-66030000D02*
X193190000Y-66030000D01*
X195430000Y-65790000D02*
X193190000Y-65790000D01*
%TO.C,D32*%
X176380000Y-65190000D02*
X174140000Y-65190000D01*
X174140000Y-65190000D02*
X174140000Y-69430000D01*
X174140000Y-69430000D02*
X176380000Y-69430000D01*
X176380000Y-69430000D02*
X176380000Y-65190000D01*
X175260000Y-64540000D02*
X175260000Y-65190000D01*
X175260000Y-70080000D02*
X175260000Y-69430000D01*
X176380000Y-65910000D02*
X174140000Y-65910000D01*
X176380000Y-66030000D02*
X174140000Y-66030000D01*
X176380000Y-65790000D02*
X174140000Y-65790000D01*
%TO.C,D31*%
X157330000Y-65190000D02*
X155090000Y-65190000D01*
X155090000Y-65190000D02*
X155090000Y-69430000D01*
X155090000Y-69430000D02*
X157330000Y-69430000D01*
X157330000Y-69430000D02*
X157330000Y-65190000D01*
X156210000Y-64540000D02*
X156210000Y-65190000D01*
X156210000Y-70080000D02*
X156210000Y-69430000D01*
X157330000Y-65910000D02*
X155090000Y-65910000D01*
X157330000Y-66030000D02*
X155090000Y-66030000D01*
X157330000Y-65790000D02*
X155090000Y-65790000D01*
%TO.C,D30*%
X138280000Y-65190000D02*
X136040000Y-65190000D01*
X136040000Y-65190000D02*
X136040000Y-69430000D01*
X136040000Y-69430000D02*
X138280000Y-69430000D01*
X138280000Y-69430000D02*
X138280000Y-65190000D01*
X137160000Y-64540000D02*
X137160000Y-65190000D01*
X137160000Y-70080000D02*
X137160000Y-69430000D01*
X138280000Y-65910000D02*
X136040000Y-65910000D01*
X138280000Y-66030000D02*
X136040000Y-66030000D01*
X138280000Y-65790000D02*
X136040000Y-65790000D01*
%TO.C,D29*%
X119230000Y-65190000D02*
X116990000Y-65190000D01*
X116990000Y-65190000D02*
X116990000Y-69430000D01*
X116990000Y-69430000D02*
X119230000Y-69430000D01*
X119230000Y-69430000D02*
X119230000Y-65190000D01*
X118110000Y-64540000D02*
X118110000Y-65190000D01*
X118110000Y-70080000D02*
X118110000Y-69430000D01*
X119230000Y-65910000D02*
X116990000Y-65910000D01*
X119230000Y-66030000D02*
X116990000Y-66030000D01*
X119230000Y-65790000D02*
X116990000Y-65790000D01*
%TO.C,D28*%
X100180000Y-65190000D02*
X97940000Y-65190000D01*
X97940000Y-65190000D02*
X97940000Y-69430000D01*
X97940000Y-69430000D02*
X100180000Y-69430000D01*
X100180000Y-69430000D02*
X100180000Y-65190000D01*
X99060000Y-64540000D02*
X99060000Y-65190000D01*
X99060000Y-70080000D02*
X99060000Y-69430000D01*
X100180000Y-65910000D02*
X97940000Y-65910000D01*
X100180000Y-66030000D02*
X97940000Y-66030000D01*
X100180000Y-65790000D02*
X97940000Y-65790000D01*
%TO.C,D27*%
X81130000Y-65790000D02*
X78890000Y-65790000D01*
X81130000Y-66030000D02*
X78890000Y-66030000D01*
X81130000Y-65910000D02*
X78890000Y-65910000D01*
X80010000Y-70080000D02*
X80010000Y-69430000D01*
X80010000Y-64540000D02*
X80010000Y-65190000D01*
X81130000Y-69430000D02*
X81130000Y-65190000D01*
X78890000Y-69430000D02*
X81130000Y-69430000D01*
X78890000Y-65190000D02*
X78890000Y-69430000D01*
X81130000Y-65190000D02*
X78890000Y-65190000D01*
%TO.C,D26*%
X62080000Y-65190000D02*
X59840000Y-65190000D01*
X59840000Y-65190000D02*
X59840000Y-69430000D01*
X59840000Y-69430000D02*
X62080000Y-69430000D01*
X62080000Y-69430000D02*
X62080000Y-65190000D01*
X60960000Y-64540000D02*
X60960000Y-65190000D01*
X60960000Y-70080000D02*
X60960000Y-69430000D01*
X62080000Y-65910000D02*
X59840000Y-65910000D01*
X62080000Y-66030000D02*
X59840000Y-66030000D01*
X62080000Y-65790000D02*
X59840000Y-65790000D01*
%TO.C,D25*%
X41760000Y-65790000D02*
X39520000Y-65790000D01*
X41760000Y-66030000D02*
X39520000Y-66030000D01*
X41760000Y-65910000D02*
X39520000Y-65910000D01*
X40640000Y-70080000D02*
X40640000Y-69430000D01*
X40640000Y-64540000D02*
X40640000Y-65190000D01*
X41760000Y-69430000D02*
X41760000Y-65190000D01*
X39520000Y-69430000D02*
X41760000Y-69430000D01*
X39520000Y-65190000D02*
X39520000Y-69430000D01*
X41760000Y-65190000D02*
X39520000Y-65190000D01*
%TO.C,D24*%
X247500000Y-62650000D02*
X245260000Y-62650000D01*
X245260000Y-62650000D02*
X245260000Y-66890000D01*
X245260000Y-66890000D02*
X247500000Y-66890000D01*
X247500000Y-66890000D02*
X247500000Y-62650000D01*
X246380000Y-62000000D02*
X246380000Y-62650000D01*
X246380000Y-67540000D02*
X246380000Y-66890000D01*
X247500000Y-63370000D02*
X245260000Y-63370000D01*
X247500000Y-63490000D02*
X245260000Y-63490000D01*
X247500000Y-63250000D02*
X245260000Y-63250000D01*
%TO.C,D23*%
X229720000Y-62650000D02*
X227480000Y-62650000D01*
X227480000Y-62650000D02*
X227480000Y-66890000D01*
X227480000Y-66890000D02*
X229720000Y-66890000D01*
X229720000Y-66890000D02*
X229720000Y-62650000D01*
X228600000Y-62000000D02*
X228600000Y-62650000D01*
X228600000Y-67540000D02*
X228600000Y-66890000D01*
X229720000Y-63370000D02*
X227480000Y-63370000D01*
X229720000Y-63490000D02*
X227480000Y-63490000D01*
X229720000Y-63250000D02*
X227480000Y-63250000D01*
%TO.C,D22*%
X210670000Y-62650000D02*
X208430000Y-62650000D01*
X208430000Y-62650000D02*
X208430000Y-66890000D01*
X208430000Y-66890000D02*
X210670000Y-66890000D01*
X210670000Y-66890000D02*
X210670000Y-62650000D01*
X209550000Y-62000000D02*
X209550000Y-62650000D01*
X209550000Y-67540000D02*
X209550000Y-66890000D01*
X210670000Y-63370000D02*
X208430000Y-63370000D01*
X210670000Y-63490000D02*
X208430000Y-63490000D01*
X210670000Y-63250000D02*
X208430000Y-63250000D01*
%TO.C,D21*%
X191620000Y-62650000D02*
X189380000Y-62650000D01*
X189380000Y-62650000D02*
X189380000Y-66890000D01*
X189380000Y-66890000D02*
X191620000Y-66890000D01*
X191620000Y-66890000D02*
X191620000Y-62650000D01*
X190500000Y-62000000D02*
X190500000Y-62650000D01*
X190500000Y-67540000D02*
X190500000Y-66890000D01*
X191620000Y-63370000D02*
X189380000Y-63370000D01*
X191620000Y-63490000D02*
X189380000Y-63490000D01*
X191620000Y-63250000D02*
X189380000Y-63250000D01*
%TO.C,D20*%
X172570000Y-62650000D02*
X170330000Y-62650000D01*
X170330000Y-62650000D02*
X170330000Y-66890000D01*
X170330000Y-66890000D02*
X172570000Y-66890000D01*
X172570000Y-66890000D02*
X172570000Y-62650000D01*
X171450000Y-62000000D02*
X171450000Y-62650000D01*
X171450000Y-67540000D02*
X171450000Y-66890000D01*
X172570000Y-63370000D02*
X170330000Y-63370000D01*
X172570000Y-63490000D02*
X170330000Y-63490000D01*
X172570000Y-63250000D02*
X170330000Y-63250000D01*
%TO.C,D19*%
X153520000Y-62650000D02*
X151280000Y-62650000D01*
X151280000Y-62650000D02*
X151280000Y-66890000D01*
X151280000Y-66890000D02*
X153520000Y-66890000D01*
X153520000Y-66890000D02*
X153520000Y-62650000D01*
X152400000Y-62000000D02*
X152400000Y-62650000D01*
X152400000Y-67540000D02*
X152400000Y-66890000D01*
X153520000Y-63370000D02*
X151280000Y-63370000D01*
X153520000Y-63490000D02*
X151280000Y-63490000D01*
X153520000Y-63250000D02*
X151280000Y-63250000D01*
%TO.C,D18*%
X134470000Y-62650000D02*
X132230000Y-62650000D01*
X132230000Y-62650000D02*
X132230000Y-66890000D01*
X132230000Y-66890000D02*
X134470000Y-66890000D01*
X134470000Y-66890000D02*
X134470000Y-62650000D01*
X133350000Y-62000000D02*
X133350000Y-62650000D01*
X133350000Y-67540000D02*
X133350000Y-66890000D01*
X134470000Y-63370000D02*
X132230000Y-63370000D01*
X134470000Y-63490000D02*
X132230000Y-63490000D01*
X134470000Y-63250000D02*
X132230000Y-63250000D01*
%TO.C,D17*%
X115420000Y-62650000D02*
X113180000Y-62650000D01*
X113180000Y-62650000D02*
X113180000Y-66890000D01*
X113180000Y-66890000D02*
X115420000Y-66890000D01*
X115420000Y-66890000D02*
X115420000Y-62650000D01*
X114300000Y-62000000D02*
X114300000Y-62650000D01*
X114300000Y-67540000D02*
X114300000Y-66890000D01*
X115420000Y-63370000D02*
X113180000Y-63370000D01*
X115420000Y-63490000D02*
X113180000Y-63490000D01*
X115420000Y-63250000D02*
X113180000Y-63250000D01*
%TO.C,D16*%
X96370000Y-62650000D02*
X94130000Y-62650000D01*
X94130000Y-62650000D02*
X94130000Y-66890000D01*
X94130000Y-66890000D02*
X96370000Y-66890000D01*
X96370000Y-66890000D02*
X96370000Y-62650000D01*
X95250000Y-62000000D02*
X95250000Y-62650000D01*
X95250000Y-67540000D02*
X95250000Y-66890000D01*
X96370000Y-63370000D02*
X94130000Y-63370000D01*
X96370000Y-63490000D02*
X94130000Y-63490000D01*
X96370000Y-63250000D02*
X94130000Y-63250000D01*
%TO.C,D15*%
X77320000Y-63250000D02*
X75080000Y-63250000D01*
X77320000Y-63490000D02*
X75080000Y-63490000D01*
X77320000Y-63370000D02*
X75080000Y-63370000D01*
X76200000Y-67540000D02*
X76200000Y-66890000D01*
X76200000Y-62000000D02*
X76200000Y-62650000D01*
X77320000Y-66890000D02*
X77320000Y-62650000D01*
X75080000Y-66890000D02*
X77320000Y-66890000D01*
X75080000Y-62650000D02*
X75080000Y-66890000D01*
X77320000Y-62650000D02*
X75080000Y-62650000D01*
%TO.C,D14*%
X58270000Y-62650000D02*
X56030000Y-62650000D01*
X56030000Y-62650000D02*
X56030000Y-66890000D01*
X56030000Y-66890000D02*
X58270000Y-66890000D01*
X58270000Y-66890000D02*
X58270000Y-62650000D01*
X57150000Y-62000000D02*
X57150000Y-62650000D01*
X57150000Y-67540000D02*
X57150000Y-66890000D01*
X58270000Y-63370000D02*
X56030000Y-63370000D01*
X58270000Y-63490000D02*
X56030000Y-63490000D01*
X58270000Y-63250000D02*
X56030000Y-63250000D01*
%TO.C,D13*%
X37950000Y-63250000D02*
X35710000Y-63250000D01*
X37950000Y-63490000D02*
X35710000Y-63490000D01*
X37950000Y-63370000D02*
X35710000Y-63370000D01*
X36830000Y-67540000D02*
X36830000Y-66890000D01*
X36830000Y-62000000D02*
X36830000Y-62650000D01*
X37950000Y-66890000D02*
X37950000Y-62650000D01*
X35710000Y-66890000D02*
X37950000Y-66890000D01*
X35710000Y-62650000D02*
X35710000Y-66890000D01*
X37950000Y-62650000D02*
X35710000Y-62650000D01*
%TO.C,D12*%
X243690000Y-60110000D02*
X241450000Y-60110000D01*
X241450000Y-60110000D02*
X241450000Y-64350000D01*
X241450000Y-64350000D02*
X243690000Y-64350000D01*
X243690000Y-64350000D02*
X243690000Y-60110000D01*
X242570000Y-59460000D02*
X242570000Y-60110000D01*
X242570000Y-65000000D02*
X242570000Y-64350000D01*
X243690000Y-60830000D02*
X241450000Y-60830000D01*
X243690000Y-60950000D02*
X241450000Y-60950000D01*
X243690000Y-60710000D02*
X241450000Y-60710000D01*
%TO.C,D11*%
X225910000Y-60110000D02*
X223670000Y-60110000D01*
X223670000Y-60110000D02*
X223670000Y-64350000D01*
X223670000Y-64350000D02*
X225910000Y-64350000D01*
X225910000Y-64350000D02*
X225910000Y-60110000D01*
X224790000Y-59460000D02*
X224790000Y-60110000D01*
X224790000Y-65000000D02*
X224790000Y-64350000D01*
X225910000Y-60830000D02*
X223670000Y-60830000D01*
X225910000Y-60950000D02*
X223670000Y-60950000D01*
X225910000Y-60710000D02*
X223670000Y-60710000D01*
%TO.C,D10*%
X206860000Y-60110000D02*
X204620000Y-60110000D01*
X204620000Y-60110000D02*
X204620000Y-64350000D01*
X204620000Y-64350000D02*
X206860000Y-64350000D01*
X206860000Y-64350000D02*
X206860000Y-60110000D01*
X205740000Y-59460000D02*
X205740000Y-60110000D01*
X205740000Y-65000000D02*
X205740000Y-64350000D01*
X206860000Y-60830000D02*
X204620000Y-60830000D01*
X206860000Y-60950000D02*
X204620000Y-60950000D01*
X206860000Y-60710000D02*
X204620000Y-60710000D01*
%TO.C,D9*%
X187810000Y-60110000D02*
X185570000Y-60110000D01*
X185570000Y-60110000D02*
X185570000Y-64350000D01*
X185570000Y-64350000D02*
X187810000Y-64350000D01*
X187810000Y-64350000D02*
X187810000Y-60110000D01*
X186690000Y-59460000D02*
X186690000Y-60110000D01*
X186690000Y-65000000D02*
X186690000Y-64350000D01*
X187810000Y-60830000D02*
X185570000Y-60830000D01*
X187810000Y-60950000D02*
X185570000Y-60950000D01*
X187810000Y-60710000D02*
X185570000Y-60710000D01*
%TO.C,D8*%
X168760000Y-60110000D02*
X166520000Y-60110000D01*
X166520000Y-60110000D02*
X166520000Y-64350000D01*
X166520000Y-64350000D02*
X168760000Y-64350000D01*
X168760000Y-64350000D02*
X168760000Y-60110000D01*
X167640000Y-59460000D02*
X167640000Y-60110000D01*
X167640000Y-65000000D02*
X167640000Y-64350000D01*
X168760000Y-60830000D02*
X166520000Y-60830000D01*
X168760000Y-60950000D02*
X166520000Y-60950000D01*
X168760000Y-60710000D02*
X166520000Y-60710000D01*
%TO.C,D7*%
X149710000Y-60110000D02*
X147470000Y-60110000D01*
X147470000Y-60110000D02*
X147470000Y-64350000D01*
X147470000Y-64350000D02*
X149710000Y-64350000D01*
X149710000Y-64350000D02*
X149710000Y-60110000D01*
X148590000Y-59460000D02*
X148590000Y-60110000D01*
X148590000Y-65000000D02*
X148590000Y-64350000D01*
X149710000Y-60830000D02*
X147470000Y-60830000D01*
X149710000Y-60950000D02*
X147470000Y-60950000D01*
X149710000Y-60710000D02*
X147470000Y-60710000D01*
%TO.C,D6*%
X130660000Y-60110000D02*
X128420000Y-60110000D01*
X128420000Y-60110000D02*
X128420000Y-64350000D01*
X128420000Y-64350000D02*
X130660000Y-64350000D01*
X130660000Y-64350000D02*
X130660000Y-60110000D01*
X129540000Y-59460000D02*
X129540000Y-60110000D01*
X129540000Y-65000000D02*
X129540000Y-64350000D01*
X130660000Y-60830000D02*
X128420000Y-60830000D01*
X130660000Y-60950000D02*
X128420000Y-60950000D01*
X130660000Y-60710000D02*
X128420000Y-60710000D01*
%TO.C,D5*%
X111610000Y-60110000D02*
X109370000Y-60110000D01*
X109370000Y-60110000D02*
X109370000Y-64350000D01*
X109370000Y-64350000D02*
X111610000Y-64350000D01*
X111610000Y-64350000D02*
X111610000Y-60110000D01*
X110490000Y-59460000D02*
X110490000Y-60110000D01*
X110490000Y-65000000D02*
X110490000Y-64350000D01*
X111610000Y-60830000D02*
X109370000Y-60830000D01*
X111610000Y-60950000D02*
X109370000Y-60950000D01*
X111610000Y-60710000D02*
X109370000Y-60710000D01*
%TO.C,D4*%
X92560000Y-60110000D02*
X90320000Y-60110000D01*
X90320000Y-60110000D02*
X90320000Y-64350000D01*
X90320000Y-64350000D02*
X92560000Y-64350000D01*
X92560000Y-64350000D02*
X92560000Y-60110000D01*
X91440000Y-59460000D02*
X91440000Y-60110000D01*
X91440000Y-65000000D02*
X91440000Y-64350000D01*
X92560000Y-60830000D02*
X90320000Y-60830000D01*
X92560000Y-60950000D02*
X90320000Y-60950000D01*
X92560000Y-60710000D02*
X90320000Y-60710000D01*
%TO.C,D3*%
X73510000Y-60710000D02*
X71270000Y-60710000D01*
X73510000Y-60950000D02*
X71270000Y-60950000D01*
X73510000Y-60830000D02*
X71270000Y-60830000D01*
X72390000Y-65000000D02*
X72390000Y-64350000D01*
X72390000Y-59460000D02*
X72390000Y-60110000D01*
X73510000Y-64350000D02*
X73510000Y-60110000D01*
X71270000Y-64350000D02*
X73510000Y-64350000D01*
X71270000Y-60110000D02*
X71270000Y-64350000D01*
X73510000Y-60110000D02*
X71270000Y-60110000D01*
%TO.C,D2*%
X54460000Y-60110000D02*
X52220000Y-60110000D01*
X52220000Y-60110000D02*
X52220000Y-64350000D01*
X52220000Y-64350000D02*
X54460000Y-64350000D01*
X54460000Y-64350000D02*
X54460000Y-60110000D01*
X53340000Y-59460000D02*
X53340000Y-60110000D01*
X53340000Y-65000000D02*
X53340000Y-64350000D01*
X54460000Y-60830000D02*
X52220000Y-60830000D01*
X54460000Y-60950000D02*
X52220000Y-60950000D01*
X54460000Y-60710000D02*
X52220000Y-60710000D01*
%TO.C,D1*%
X34140000Y-60710000D02*
X31900000Y-60710000D01*
X34140000Y-60950000D02*
X31900000Y-60950000D01*
X34140000Y-60830000D02*
X31900000Y-60830000D01*
X33020000Y-65000000D02*
X33020000Y-64350000D01*
X33020000Y-59460000D02*
X33020000Y-60110000D01*
X34140000Y-64350000D02*
X34140000Y-60110000D01*
X31900000Y-64350000D02*
X34140000Y-64350000D01*
X31900000Y-60110000D02*
X31900000Y-64350000D01*
X34140000Y-60110000D02*
X31900000Y-60110000D01*
%TO.C,J1*%
D10*
X116506666Y-32337380D02*
X116506666Y-33051666D01*
X116459047Y-33194523D01*
X116363809Y-33289761D01*
X116220952Y-33337380D01*
X116125714Y-33337380D01*
X117506666Y-33337380D02*
X116935238Y-33337380D01*
X117220952Y-33337380D02*
X117220952Y-32337380D01*
X117125714Y-32480238D01*
X117030476Y-32575476D01*
X116935238Y-32623095D01*
X116919523Y-42949761D02*
X117062380Y-42997380D01*
X117300476Y-42997380D01*
X117395714Y-42949761D01*
X117443333Y-42902142D01*
X117490952Y-42806904D01*
X117490952Y-42711666D01*
X117443333Y-42616428D01*
X117395714Y-42568809D01*
X117300476Y-42521190D01*
X117110000Y-42473571D01*
X117014761Y-42425952D01*
X116967142Y-42378333D01*
X116919523Y-42283095D01*
X116919523Y-42187857D01*
X116967142Y-42092619D01*
X117014761Y-42045000D01*
X117110000Y-41997380D01*
X117348095Y-41997380D01*
X117490952Y-42045000D01*
X118490952Y-42902142D02*
X118443333Y-42949761D01*
X118300476Y-42997380D01*
X118205238Y-42997380D01*
X118062380Y-42949761D01*
X117967142Y-42854523D01*
X117919523Y-42759285D01*
X117871904Y-42568809D01*
X117871904Y-42425952D01*
X117919523Y-42235476D01*
X117967142Y-42140238D01*
X118062380Y-42045000D01*
X118205238Y-41997380D01*
X118300476Y-41997380D01*
X118443333Y-42045000D01*
X118490952Y-42092619D01*
X119395714Y-42997380D02*
X118919523Y-42997380D01*
X118919523Y-41997380D01*
X116895714Y-40409761D02*
X117038571Y-40457380D01*
X117276666Y-40457380D01*
X117371904Y-40409761D01*
X117419523Y-40362142D01*
X117467142Y-40266904D01*
X117467142Y-40171666D01*
X117419523Y-40076428D01*
X117371904Y-40028809D01*
X117276666Y-39981190D01*
X117086190Y-39933571D01*
X116990952Y-39885952D01*
X116943333Y-39838333D01*
X116895714Y-39743095D01*
X116895714Y-39647857D01*
X116943333Y-39552619D01*
X116990952Y-39505000D01*
X117086190Y-39457380D01*
X117324285Y-39457380D01*
X117467142Y-39505000D01*
X117895714Y-40457380D02*
X117895714Y-39457380D01*
X118133809Y-39457380D01*
X118276666Y-39505000D01*
X118371904Y-39600238D01*
X118419523Y-39695476D01*
X118467142Y-39885952D01*
X118467142Y-40028809D01*
X118419523Y-40219285D01*
X118371904Y-40314523D01*
X118276666Y-40409761D01*
X118133809Y-40457380D01*
X117895714Y-40457380D01*
X118848095Y-40171666D02*
X119324285Y-40171666D01*
X118752857Y-40457380D02*
X119086190Y-39457380D01*
X119419523Y-40457380D01*
X116919523Y-36917380D02*
X117538571Y-36917380D01*
X117205238Y-37298333D01*
X117348095Y-37298333D01*
X117443333Y-37345952D01*
X117490952Y-37393571D01*
X117538571Y-37488809D01*
X117538571Y-37726904D01*
X117490952Y-37822142D01*
X117443333Y-37869761D01*
X117348095Y-37917380D01*
X117062380Y-37917380D01*
X116967142Y-37869761D01*
X116919523Y-37822142D01*
X117871904Y-37250714D02*
X118110000Y-37917380D01*
X118348095Y-37250714D01*
X118633809Y-36917380D02*
X119252857Y-36917380D01*
X118919523Y-37298333D01*
X119062380Y-37298333D01*
X119157619Y-37345952D01*
X119205238Y-37393571D01*
X119252857Y-37488809D01*
X119252857Y-37726904D01*
X119205238Y-37822142D01*
X119157619Y-37869761D01*
X119062380Y-37917380D01*
X118776666Y-37917380D01*
X118681428Y-37869761D01*
X118633809Y-37822142D01*
X117348095Y-34425000D02*
X117252857Y-34377380D01*
X117110000Y-34377380D01*
X116967142Y-34425000D01*
X116871904Y-34520238D01*
X116824285Y-34615476D01*
X116776666Y-34805952D01*
X116776666Y-34948809D01*
X116824285Y-35139285D01*
X116871904Y-35234523D01*
X116967142Y-35329761D01*
X117110000Y-35377380D01*
X117205238Y-35377380D01*
X117348095Y-35329761D01*
X117395714Y-35282142D01*
X117395714Y-34948809D01*
X117205238Y-34948809D01*
X117824285Y-35377380D02*
X117824285Y-34377380D01*
X118395714Y-35377380D01*
X118395714Y-34377380D01*
X118871904Y-35377380D02*
X118871904Y-34377380D01*
X119110000Y-34377380D01*
X119252857Y-34425000D01*
X119348095Y-34520238D01*
X119395714Y-34615476D01*
X119443333Y-34805952D01*
X119443333Y-34948809D01*
X119395714Y-35139285D01*
X119348095Y-35234523D01*
X119252857Y-35329761D01*
X119110000Y-35377380D01*
X118871904Y-35377380D01*
%TO.C,H5*%
X265938095Y-152462380D02*
X265938095Y-151462380D01*
X265938095Y-151938571D02*
X266509523Y-151938571D01*
X266509523Y-152462380D02*
X266509523Y-151462380D01*
X267461904Y-151462380D02*
X266985714Y-151462380D01*
X266938095Y-151938571D01*
X266985714Y-151890952D01*
X267080952Y-151843333D01*
X267319047Y-151843333D01*
X267414285Y-151890952D01*
X267461904Y-151938571D01*
X267509523Y-152033809D01*
X267509523Y-152271904D01*
X267461904Y-152367142D01*
X267414285Y-152414761D01*
X267319047Y-152462380D01*
X267080952Y-152462380D01*
X266985714Y-152414761D01*
X266938095Y-152367142D01*
%TO.C,H4*%
X22098095Y-152462380D02*
X22098095Y-151462380D01*
X22098095Y-151938571D02*
X22669523Y-151938571D01*
X22669523Y-152462380D02*
X22669523Y-151462380D01*
X23574285Y-151795714D02*
X23574285Y-152462380D01*
X23336190Y-151414761D02*
X23098095Y-152129047D01*
X23717142Y-152129047D01*
%TO.C,H3*%
X144653095Y-113092380D02*
X144653095Y-112092380D01*
X144653095Y-112568571D02*
X145224523Y-112568571D01*
X145224523Y-113092380D02*
X145224523Y-112092380D01*
X145605476Y-112092380D02*
X146224523Y-112092380D01*
X145891190Y-112473333D01*
X146034047Y-112473333D01*
X146129285Y-112520952D01*
X146176904Y-112568571D01*
X146224523Y-112663809D01*
X146224523Y-112901904D01*
X146176904Y-112997142D01*
X146129285Y-113044761D01*
X146034047Y-113092380D01*
X145748333Y-113092380D01*
X145653095Y-113044761D01*
X145605476Y-112997142D01*
%TO.C,H2*%
X265938095Y-59262380D02*
X265938095Y-58262380D01*
X265938095Y-58738571D02*
X266509523Y-58738571D01*
X266509523Y-59262380D02*
X266509523Y-58262380D01*
X266938095Y-58357619D02*
X266985714Y-58310000D01*
X267080952Y-58262380D01*
X267319047Y-58262380D01*
X267414285Y-58310000D01*
X267461904Y-58357619D01*
X267509523Y-58452857D01*
X267509523Y-58548095D01*
X267461904Y-58690952D01*
X266890476Y-59262380D01*
X267509523Y-59262380D01*
%TO.C,H1*%
X22098095Y-59262380D02*
X22098095Y-58262380D01*
X22098095Y-58738571D02*
X22669523Y-58738571D01*
X22669523Y-59262380D02*
X22669523Y-58262380D01*
X23669523Y-59262380D02*
X23098095Y-59262380D01*
X23383809Y-59262380D02*
X23383809Y-58262380D01*
X23288571Y-58405238D01*
X23193333Y-58500476D01*
X23098095Y-58548095D01*
%TO.C,U1*%
X147192380Y-42681904D02*
X148001904Y-42681904D01*
X148097142Y-42634285D01*
X148144761Y-42586666D01*
X148192380Y-42491428D01*
X148192380Y-42300952D01*
X148144761Y-42205714D01*
X148097142Y-42158095D01*
X148001904Y-42110476D01*
X147192380Y-42110476D01*
X148192380Y-41110476D02*
X148192380Y-41681904D01*
X148192380Y-41396190D02*
X147192380Y-41396190D01*
X147335238Y-41491428D01*
X147430476Y-41586666D01*
X147478095Y-41681904D01*
X168562380Y-45812380D02*
X169371904Y-45812380D01*
X169467142Y-45764761D01*
X169514761Y-45717142D01*
X169562380Y-45621904D01*
X169562380Y-45431428D01*
X169514761Y-45336190D01*
X169467142Y-45288571D01*
X169371904Y-45240952D01*
X168562380Y-45240952D01*
X169514761Y-44812380D02*
X169562380Y-44669523D01*
X169562380Y-44431428D01*
X169514761Y-44336190D01*
X169467142Y-44288571D01*
X169371904Y-44240952D01*
X169276666Y-44240952D01*
X169181428Y-44288571D01*
X169133809Y-44336190D01*
X169086190Y-44431428D01*
X169038571Y-44621904D01*
X168990952Y-44717142D01*
X168943333Y-44764761D01*
X168848095Y-44812380D01*
X168752857Y-44812380D01*
X168657619Y-44764761D01*
X168610000Y-44717142D01*
X168562380Y-44621904D01*
X168562380Y-44383809D01*
X168610000Y-44240952D01*
X169038571Y-43479047D02*
X169086190Y-43336190D01*
X169133809Y-43288571D01*
X169229047Y-43240952D01*
X169371904Y-43240952D01*
X169467142Y-43288571D01*
X169514761Y-43336190D01*
X169562380Y-43431428D01*
X169562380Y-43812380D01*
X168562380Y-43812380D01*
X168562380Y-43479047D01*
X168610000Y-43383809D01*
X168657619Y-43336190D01*
X168752857Y-43288571D01*
X168848095Y-43288571D01*
X168943333Y-43336190D01*
X168990952Y-43383809D01*
X169038571Y-43479047D01*
X169038571Y-43812380D01*
X168895714Y-42193333D02*
X168895714Y-41812380D01*
X169562380Y-42050476D02*
X168705238Y-42050476D01*
X168610000Y-42002857D01*
X168562380Y-41907619D01*
X168562380Y-41812380D01*
X169562380Y-41050476D02*
X169038571Y-41050476D01*
X168943333Y-41098095D01*
X168895714Y-41193333D01*
X168895714Y-41383809D01*
X168943333Y-41479047D01*
X169514761Y-41050476D02*
X169562380Y-41145714D01*
X169562380Y-41383809D01*
X169514761Y-41479047D01*
X169419523Y-41526666D01*
X169324285Y-41526666D01*
X169229047Y-41479047D01*
X169181428Y-41383809D01*
X169181428Y-41145714D01*
X169133809Y-41050476D01*
X169514761Y-40145714D02*
X169562380Y-40240952D01*
X169562380Y-40431428D01*
X169514761Y-40526666D01*
X169467142Y-40574285D01*
X169371904Y-40621904D01*
X169086190Y-40621904D01*
X168990952Y-40574285D01*
X168943333Y-40526666D01*
X168895714Y-40431428D01*
X168895714Y-40240952D01*
X168943333Y-40145714D01*
X169562380Y-39717142D02*
X168895714Y-39717142D01*
X168562380Y-39717142D02*
X168610000Y-39764761D01*
X168657619Y-39717142D01*
X168610000Y-39669523D01*
X168562380Y-39717142D01*
X168657619Y-39717142D01*
X168895714Y-39240952D02*
X169562380Y-39240952D01*
X168990952Y-39240952D02*
X168943333Y-39193333D01*
X168895714Y-39098095D01*
X168895714Y-38955238D01*
X168943333Y-38860000D01*
X169038571Y-38812380D01*
X169562380Y-38812380D01*
X168895714Y-37907619D02*
X169705238Y-37907619D01*
X169800476Y-37955238D01*
X169848095Y-38002857D01*
X169895714Y-38098095D01*
X169895714Y-38240952D01*
X169848095Y-38336190D01*
X169514761Y-37907619D02*
X169562380Y-38002857D01*
X169562380Y-38193333D01*
X169514761Y-38288571D01*
X169467142Y-38336190D01*
X169371904Y-38383809D01*
X169086190Y-38383809D01*
X168990952Y-38336190D01*
X168943333Y-38288571D01*
X168895714Y-38193333D01*
X168895714Y-38002857D01*
X168943333Y-37907619D01*
X165895714Y-44812380D02*
X165895714Y-44431428D01*
X165562380Y-44669523D02*
X166419523Y-44669523D01*
X166514761Y-44621904D01*
X166562380Y-44526666D01*
X166562380Y-44431428D01*
X166562380Y-44098095D02*
X165562380Y-44098095D01*
X166562380Y-43669523D02*
X166038571Y-43669523D01*
X165943333Y-43717142D01*
X165895714Y-43812380D01*
X165895714Y-43955238D01*
X165943333Y-44050476D01*
X165990952Y-44098095D01*
X166514761Y-42812380D02*
X166562380Y-42907619D01*
X166562380Y-43098095D01*
X166514761Y-43193333D01*
X166419523Y-43240952D01*
X166038571Y-43240952D01*
X165943333Y-43193333D01*
X165895714Y-43098095D01*
X165895714Y-42907619D01*
X165943333Y-42812380D01*
X166038571Y-42764761D01*
X166133809Y-42764761D01*
X166229047Y-43240952D01*
X166562380Y-41574285D02*
X165562380Y-41574285D01*
X165562380Y-41193333D01*
X165610000Y-41098095D01*
X165657619Y-41050476D01*
X165752857Y-41002857D01*
X165895714Y-41002857D01*
X165990952Y-41050476D01*
X166038571Y-41098095D01*
X166086190Y-41193333D01*
X166086190Y-41574285D01*
X166467142Y-40002857D02*
X166514761Y-40050476D01*
X166562380Y-40193333D01*
X166562380Y-40288571D01*
X166514761Y-40431428D01*
X166419523Y-40526666D01*
X166324285Y-40574285D01*
X166133809Y-40621904D01*
X165990952Y-40621904D01*
X165800476Y-40574285D01*
X165705238Y-40526666D01*
X165610000Y-40431428D01*
X165562380Y-40288571D01*
X165562380Y-40193333D01*
X165610000Y-40050476D01*
X165657619Y-40002857D01*
X166038571Y-39240952D02*
X166086190Y-39098095D01*
X166133809Y-39050476D01*
X166229047Y-39002857D01*
X166371904Y-39002857D01*
X166467142Y-39050476D01*
X166514761Y-39098095D01*
X166562380Y-39193333D01*
X166562380Y-39574285D01*
X165562380Y-39574285D01*
X165562380Y-39240952D01*
X165610000Y-39145714D01*
X165657619Y-39098095D01*
X165752857Y-39050476D01*
X165848095Y-39050476D01*
X165943333Y-39098095D01*
X165990952Y-39145714D01*
X166038571Y-39240952D01*
X166038571Y-39574285D01*
X168062380Y-45098095D02*
X167538571Y-45098095D01*
X167443333Y-45145714D01*
X167395714Y-45240952D01*
X167395714Y-45431428D01*
X167443333Y-45526666D01*
X168014761Y-45098095D02*
X168062380Y-45193333D01*
X168062380Y-45431428D01*
X168014761Y-45526666D01*
X167919523Y-45574285D01*
X167824285Y-45574285D01*
X167729047Y-45526666D01*
X167681428Y-45431428D01*
X167681428Y-45193333D01*
X167633809Y-45098095D01*
X167395714Y-44717142D02*
X168062380Y-44526666D01*
X167586190Y-44336190D01*
X168062380Y-44145714D01*
X167395714Y-43955238D01*
X168062380Y-43145714D02*
X167538571Y-43145714D01*
X167443333Y-43193333D01*
X167395714Y-43288571D01*
X167395714Y-43479047D01*
X167443333Y-43574285D01*
X168014761Y-43145714D02*
X168062380Y-43240952D01*
X168062380Y-43479047D01*
X168014761Y-43574285D01*
X167919523Y-43621904D01*
X167824285Y-43621904D01*
X167729047Y-43574285D01*
X167681428Y-43479047D01*
X167681428Y-43240952D01*
X167633809Y-43145714D01*
X167395714Y-42764761D02*
X168062380Y-42526666D01*
X167395714Y-42288571D02*
X168062380Y-42526666D01*
X168300476Y-42621904D01*
X168348095Y-42669523D01*
X168395714Y-42764761D01*
X167395714Y-41288571D02*
X167395714Y-40907619D01*
X168062380Y-41145714D02*
X167205238Y-41145714D01*
X167110000Y-41098095D01*
X167062380Y-41002857D01*
X167062380Y-40907619D01*
X168062380Y-40574285D02*
X167395714Y-40574285D01*
X167586190Y-40574285D02*
X167490952Y-40526666D01*
X167443333Y-40479047D01*
X167395714Y-40383809D01*
X167395714Y-40288571D01*
X168062380Y-39812380D02*
X168014761Y-39907619D01*
X167967142Y-39955238D01*
X167871904Y-40002857D01*
X167586190Y-40002857D01*
X167490952Y-39955238D01*
X167443333Y-39907619D01*
X167395714Y-39812380D01*
X167395714Y-39669523D01*
X167443333Y-39574285D01*
X167490952Y-39526666D01*
X167586190Y-39479047D01*
X167871904Y-39479047D01*
X167967142Y-39526666D01*
X168014761Y-39574285D01*
X168062380Y-39669523D01*
X168062380Y-39812380D01*
X168062380Y-39050476D02*
X167395714Y-39050476D01*
X167490952Y-39050476D02*
X167443333Y-39002857D01*
X167395714Y-38907619D01*
X167395714Y-38764761D01*
X167443333Y-38669523D01*
X167538571Y-38621904D01*
X168062380Y-38621904D01*
X167538571Y-38621904D02*
X167443333Y-38574285D01*
X167395714Y-38479047D01*
X167395714Y-38336190D01*
X167443333Y-38240952D01*
X167538571Y-38193333D01*
X168062380Y-38193333D01*
%TO.C,SW1*%
X262266666Y-64444761D02*
X262409523Y-64492380D01*
X262647619Y-64492380D01*
X262742857Y-64444761D01*
X262790476Y-64397142D01*
X262838095Y-64301904D01*
X262838095Y-64206666D01*
X262790476Y-64111428D01*
X262742857Y-64063809D01*
X262647619Y-64016190D01*
X262457142Y-63968571D01*
X262361904Y-63920952D01*
X262314285Y-63873333D01*
X262266666Y-63778095D01*
X262266666Y-63682857D01*
X262314285Y-63587619D01*
X262361904Y-63540000D01*
X262457142Y-63492380D01*
X262695238Y-63492380D01*
X262838095Y-63540000D01*
X263171428Y-63492380D02*
X263409523Y-64492380D01*
X263600000Y-63778095D01*
X263790476Y-64492380D01*
X264028571Y-63492380D01*
X264933333Y-64492380D02*
X264361904Y-64492380D01*
X264647619Y-64492380D02*
X264647619Y-63492380D01*
X264552380Y-63635238D01*
X264457142Y-63730476D01*
X264361904Y-63778095D01*
%TO.C,D48*%
X256572380Y-71064285D02*
X255572380Y-71064285D01*
X255572380Y-70826190D01*
X255620000Y-70683333D01*
X255715238Y-70588095D01*
X255810476Y-70540476D01*
X256000952Y-70492857D01*
X256143809Y-70492857D01*
X256334285Y-70540476D01*
X256429523Y-70588095D01*
X256524761Y-70683333D01*
X256572380Y-70826190D01*
X256572380Y-71064285D01*
X255905714Y-69635714D02*
X256572380Y-69635714D01*
X255524761Y-69873809D02*
X256239047Y-70111904D01*
X256239047Y-69492857D01*
X256000952Y-68969047D02*
X255953333Y-69064285D01*
X255905714Y-69111904D01*
X255810476Y-69159523D01*
X255762857Y-69159523D01*
X255667619Y-69111904D01*
X255620000Y-69064285D01*
X255572380Y-68969047D01*
X255572380Y-68778571D01*
X255620000Y-68683333D01*
X255667619Y-68635714D01*
X255762857Y-68588095D01*
X255810476Y-68588095D01*
X255905714Y-68635714D01*
X255953333Y-68683333D01*
X256000952Y-68778571D01*
X256000952Y-68969047D01*
X256048571Y-69064285D01*
X256096190Y-69111904D01*
X256191428Y-69159523D01*
X256381904Y-69159523D01*
X256477142Y-69111904D01*
X256524761Y-69064285D01*
X256572380Y-68969047D01*
X256572380Y-68778571D01*
X256524761Y-68683333D01*
X256477142Y-68635714D01*
X256381904Y-68588095D01*
X256191428Y-68588095D01*
X256096190Y-68635714D01*
X256048571Y-68683333D01*
X256000952Y-68778571D01*
X256252380Y-66301904D02*
X255252380Y-66301904D01*
X256252380Y-65730476D02*
X255680952Y-66159047D01*
X255252380Y-65730476D02*
X255823809Y-66301904D01*
%TO.C,D47*%
X238792380Y-71064285D02*
X237792380Y-71064285D01*
X237792380Y-70826190D01*
X237840000Y-70683333D01*
X237935238Y-70588095D01*
X238030476Y-70540476D01*
X238220952Y-70492857D01*
X238363809Y-70492857D01*
X238554285Y-70540476D01*
X238649523Y-70588095D01*
X238744761Y-70683333D01*
X238792380Y-70826190D01*
X238792380Y-71064285D01*
X238125714Y-69635714D02*
X238792380Y-69635714D01*
X237744761Y-69873809D02*
X238459047Y-70111904D01*
X238459047Y-69492857D01*
X237792380Y-69207142D02*
X237792380Y-68540476D01*
X238792380Y-68969047D01*
X238472380Y-66301904D02*
X237472380Y-66301904D01*
X238472380Y-65730476D02*
X237900952Y-66159047D01*
X237472380Y-65730476D02*
X238043809Y-66301904D01*
%TO.C,D46*%
X219742380Y-71064285D02*
X218742380Y-71064285D01*
X218742380Y-70826190D01*
X218790000Y-70683333D01*
X218885238Y-70588095D01*
X218980476Y-70540476D01*
X219170952Y-70492857D01*
X219313809Y-70492857D01*
X219504285Y-70540476D01*
X219599523Y-70588095D01*
X219694761Y-70683333D01*
X219742380Y-70826190D01*
X219742380Y-71064285D01*
X219075714Y-69635714D02*
X219742380Y-69635714D01*
X218694761Y-69873809D02*
X219409047Y-70111904D01*
X219409047Y-69492857D01*
X218742380Y-68683333D02*
X218742380Y-68873809D01*
X218790000Y-68969047D01*
X218837619Y-69016666D01*
X218980476Y-69111904D01*
X219170952Y-69159523D01*
X219551904Y-69159523D01*
X219647142Y-69111904D01*
X219694761Y-69064285D01*
X219742380Y-68969047D01*
X219742380Y-68778571D01*
X219694761Y-68683333D01*
X219647142Y-68635714D01*
X219551904Y-68588095D01*
X219313809Y-68588095D01*
X219218571Y-68635714D01*
X219170952Y-68683333D01*
X219123333Y-68778571D01*
X219123333Y-68969047D01*
X219170952Y-69064285D01*
X219218571Y-69111904D01*
X219313809Y-69159523D01*
X219422380Y-66301904D02*
X218422380Y-66301904D01*
X219422380Y-65730476D02*
X218850952Y-66159047D01*
X218422380Y-65730476D02*
X218993809Y-66301904D01*
%TO.C,D45*%
X200692380Y-71064285D02*
X199692380Y-71064285D01*
X199692380Y-70826190D01*
X199740000Y-70683333D01*
X199835238Y-70588095D01*
X199930476Y-70540476D01*
X200120952Y-70492857D01*
X200263809Y-70492857D01*
X200454285Y-70540476D01*
X200549523Y-70588095D01*
X200644761Y-70683333D01*
X200692380Y-70826190D01*
X200692380Y-71064285D01*
X200025714Y-69635714D02*
X200692380Y-69635714D01*
X199644761Y-69873809D02*
X200359047Y-70111904D01*
X200359047Y-69492857D01*
X199692380Y-68635714D02*
X199692380Y-69111904D01*
X200168571Y-69159523D01*
X200120952Y-69111904D01*
X200073333Y-69016666D01*
X200073333Y-68778571D01*
X200120952Y-68683333D01*
X200168571Y-68635714D01*
X200263809Y-68588095D01*
X200501904Y-68588095D01*
X200597142Y-68635714D01*
X200644761Y-68683333D01*
X200692380Y-68778571D01*
X200692380Y-69016666D01*
X200644761Y-69111904D01*
X200597142Y-69159523D01*
X200372380Y-66301904D02*
X199372380Y-66301904D01*
X200372380Y-65730476D02*
X199800952Y-66159047D01*
X199372380Y-65730476D02*
X199943809Y-66301904D01*
%TO.C,D44*%
X181642380Y-71064285D02*
X180642380Y-71064285D01*
X180642380Y-70826190D01*
X180690000Y-70683333D01*
X180785238Y-70588095D01*
X180880476Y-70540476D01*
X181070952Y-70492857D01*
X181213809Y-70492857D01*
X181404285Y-70540476D01*
X181499523Y-70588095D01*
X181594761Y-70683333D01*
X181642380Y-70826190D01*
X181642380Y-71064285D01*
X180975714Y-69635714D02*
X181642380Y-69635714D01*
X180594761Y-69873809D02*
X181309047Y-70111904D01*
X181309047Y-69492857D01*
X180975714Y-68683333D02*
X181642380Y-68683333D01*
X180594761Y-68921428D02*
X181309047Y-69159523D01*
X181309047Y-68540476D01*
X181322380Y-66301904D02*
X180322380Y-66301904D01*
X181322380Y-65730476D02*
X180750952Y-66159047D01*
X180322380Y-65730476D02*
X180893809Y-66301904D01*
%TO.C,D43*%
X162592380Y-71064285D02*
X161592380Y-71064285D01*
X161592380Y-70826190D01*
X161640000Y-70683333D01*
X161735238Y-70588095D01*
X161830476Y-70540476D01*
X162020952Y-70492857D01*
X162163809Y-70492857D01*
X162354285Y-70540476D01*
X162449523Y-70588095D01*
X162544761Y-70683333D01*
X162592380Y-70826190D01*
X162592380Y-71064285D01*
X161925714Y-69635714D02*
X162592380Y-69635714D01*
X161544761Y-69873809D02*
X162259047Y-70111904D01*
X162259047Y-69492857D01*
X161592380Y-69207142D02*
X161592380Y-68588095D01*
X161973333Y-68921428D01*
X161973333Y-68778571D01*
X162020952Y-68683333D01*
X162068571Y-68635714D01*
X162163809Y-68588095D01*
X162401904Y-68588095D01*
X162497142Y-68635714D01*
X162544761Y-68683333D01*
X162592380Y-68778571D01*
X162592380Y-69064285D01*
X162544761Y-69159523D01*
X162497142Y-69207142D01*
X162272380Y-66301904D02*
X161272380Y-66301904D01*
X162272380Y-65730476D02*
X161700952Y-66159047D01*
X161272380Y-65730476D02*
X161843809Y-66301904D01*
%TO.C,D42*%
X143542380Y-71064285D02*
X142542380Y-71064285D01*
X142542380Y-70826190D01*
X142590000Y-70683333D01*
X142685238Y-70588095D01*
X142780476Y-70540476D01*
X142970952Y-70492857D01*
X143113809Y-70492857D01*
X143304285Y-70540476D01*
X143399523Y-70588095D01*
X143494761Y-70683333D01*
X143542380Y-70826190D01*
X143542380Y-71064285D01*
X142875714Y-69635714D02*
X143542380Y-69635714D01*
X142494761Y-69873809D02*
X143209047Y-70111904D01*
X143209047Y-69492857D01*
X142637619Y-69159523D02*
X142590000Y-69111904D01*
X142542380Y-69016666D01*
X142542380Y-68778571D01*
X142590000Y-68683333D01*
X142637619Y-68635714D01*
X142732857Y-68588095D01*
X142828095Y-68588095D01*
X142970952Y-68635714D01*
X143542380Y-69207142D01*
X143542380Y-68588095D01*
X143222380Y-66301904D02*
X142222380Y-66301904D01*
X143222380Y-65730476D02*
X142650952Y-66159047D01*
X142222380Y-65730476D02*
X142793809Y-66301904D01*
%TO.C,D41*%
X124492380Y-71064285D02*
X123492380Y-71064285D01*
X123492380Y-70826190D01*
X123540000Y-70683333D01*
X123635238Y-70588095D01*
X123730476Y-70540476D01*
X123920952Y-70492857D01*
X124063809Y-70492857D01*
X124254285Y-70540476D01*
X124349523Y-70588095D01*
X124444761Y-70683333D01*
X124492380Y-70826190D01*
X124492380Y-71064285D01*
X123825714Y-69635714D02*
X124492380Y-69635714D01*
X123444761Y-69873809D02*
X124159047Y-70111904D01*
X124159047Y-69492857D01*
X124492380Y-68588095D02*
X124492380Y-69159523D01*
X124492380Y-68873809D02*
X123492380Y-68873809D01*
X123635238Y-68969047D01*
X123730476Y-69064285D01*
X123778095Y-69159523D01*
X124172380Y-66301904D02*
X123172380Y-66301904D01*
X124172380Y-65730476D02*
X123600952Y-66159047D01*
X123172380Y-65730476D02*
X123743809Y-66301904D01*
%TO.C,D40*%
X105442380Y-71064285D02*
X104442380Y-71064285D01*
X104442380Y-70826190D01*
X104490000Y-70683333D01*
X104585238Y-70588095D01*
X104680476Y-70540476D01*
X104870952Y-70492857D01*
X105013809Y-70492857D01*
X105204285Y-70540476D01*
X105299523Y-70588095D01*
X105394761Y-70683333D01*
X105442380Y-70826190D01*
X105442380Y-71064285D01*
X104775714Y-69635714D02*
X105442380Y-69635714D01*
X104394761Y-69873809D02*
X105109047Y-70111904D01*
X105109047Y-69492857D01*
X104442380Y-68921428D02*
X104442380Y-68826190D01*
X104490000Y-68730952D01*
X104537619Y-68683333D01*
X104632857Y-68635714D01*
X104823333Y-68588095D01*
X105061428Y-68588095D01*
X105251904Y-68635714D01*
X105347142Y-68683333D01*
X105394761Y-68730952D01*
X105442380Y-68826190D01*
X105442380Y-68921428D01*
X105394761Y-69016666D01*
X105347142Y-69064285D01*
X105251904Y-69111904D01*
X105061428Y-69159523D01*
X104823333Y-69159523D01*
X104632857Y-69111904D01*
X104537619Y-69064285D01*
X104490000Y-69016666D01*
X104442380Y-68921428D01*
X105122380Y-66301904D02*
X104122380Y-66301904D01*
X105122380Y-65730476D02*
X104550952Y-66159047D01*
X104122380Y-65730476D02*
X104693809Y-66301904D01*
%TO.C,D39*%
X86392380Y-71064285D02*
X85392380Y-71064285D01*
X85392380Y-70826190D01*
X85440000Y-70683333D01*
X85535238Y-70588095D01*
X85630476Y-70540476D01*
X85820952Y-70492857D01*
X85963809Y-70492857D01*
X86154285Y-70540476D01*
X86249523Y-70588095D01*
X86344761Y-70683333D01*
X86392380Y-70826190D01*
X86392380Y-71064285D01*
X85392380Y-70159523D02*
X85392380Y-69540476D01*
X85773333Y-69873809D01*
X85773333Y-69730952D01*
X85820952Y-69635714D01*
X85868571Y-69588095D01*
X85963809Y-69540476D01*
X86201904Y-69540476D01*
X86297142Y-69588095D01*
X86344761Y-69635714D01*
X86392380Y-69730952D01*
X86392380Y-70016666D01*
X86344761Y-70111904D01*
X86297142Y-70159523D01*
X86392380Y-69064285D02*
X86392380Y-68873809D01*
X86344761Y-68778571D01*
X86297142Y-68730952D01*
X86154285Y-68635714D01*
X85963809Y-68588095D01*
X85582857Y-68588095D01*
X85487619Y-68635714D01*
X85440000Y-68683333D01*
X85392380Y-68778571D01*
X85392380Y-68969047D01*
X85440000Y-69064285D01*
X85487619Y-69111904D01*
X85582857Y-69159523D01*
X85820952Y-69159523D01*
X85916190Y-69111904D01*
X85963809Y-69064285D01*
X86011428Y-68969047D01*
X86011428Y-68778571D01*
X85963809Y-68683333D01*
X85916190Y-68635714D01*
X85820952Y-68588095D01*
X86072380Y-66301904D02*
X85072380Y-66301904D01*
X86072380Y-65730476D02*
X85500952Y-66159047D01*
X85072380Y-65730476D02*
X85643809Y-66301904D01*
%TO.C,D38*%
X67342380Y-71064285D02*
X66342380Y-71064285D01*
X66342380Y-70826190D01*
X66390000Y-70683333D01*
X66485238Y-70588095D01*
X66580476Y-70540476D01*
X66770952Y-70492857D01*
X66913809Y-70492857D01*
X67104285Y-70540476D01*
X67199523Y-70588095D01*
X67294761Y-70683333D01*
X67342380Y-70826190D01*
X67342380Y-71064285D01*
X66342380Y-70159523D02*
X66342380Y-69540476D01*
X66723333Y-69873809D01*
X66723333Y-69730952D01*
X66770952Y-69635714D01*
X66818571Y-69588095D01*
X66913809Y-69540476D01*
X67151904Y-69540476D01*
X67247142Y-69588095D01*
X67294761Y-69635714D01*
X67342380Y-69730952D01*
X67342380Y-70016666D01*
X67294761Y-70111904D01*
X67247142Y-70159523D01*
X66770952Y-68969047D02*
X66723333Y-69064285D01*
X66675714Y-69111904D01*
X66580476Y-69159523D01*
X66532857Y-69159523D01*
X66437619Y-69111904D01*
X66390000Y-69064285D01*
X66342380Y-68969047D01*
X66342380Y-68778571D01*
X66390000Y-68683333D01*
X66437619Y-68635714D01*
X66532857Y-68588095D01*
X66580476Y-68588095D01*
X66675714Y-68635714D01*
X66723333Y-68683333D01*
X66770952Y-68778571D01*
X66770952Y-68969047D01*
X66818571Y-69064285D01*
X66866190Y-69111904D01*
X66961428Y-69159523D01*
X67151904Y-69159523D01*
X67247142Y-69111904D01*
X67294761Y-69064285D01*
X67342380Y-68969047D01*
X67342380Y-68778571D01*
X67294761Y-68683333D01*
X67247142Y-68635714D01*
X67151904Y-68588095D01*
X66961428Y-68588095D01*
X66866190Y-68635714D01*
X66818571Y-68683333D01*
X66770952Y-68778571D01*
X67022380Y-66301904D02*
X66022380Y-66301904D01*
X67022380Y-65730476D02*
X66450952Y-66159047D01*
X66022380Y-65730476D02*
X66593809Y-66301904D01*
%TO.C,D37*%
X47022380Y-71064285D02*
X46022380Y-71064285D01*
X46022380Y-70826190D01*
X46070000Y-70683333D01*
X46165238Y-70588095D01*
X46260476Y-70540476D01*
X46450952Y-70492857D01*
X46593809Y-70492857D01*
X46784285Y-70540476D01*
X46879523Y-70588095D01*
X46974761Y-70683333D01*
X47022380Y-70826190D01*
X47022380Y-71064285D01*
X46022380Y-70159523D02*
X46022380Y-69540476D01*
X46403333Y-69873809D01*
X46403333Y-69730952D01*
X46450952Y-69635714D01*
X46498571Y-69588095D01*
X46593809Y-69540476D01*
X46831904Y-69540476D01*
X46927142Y-69588095D01*
X46974761Y-69635714D01*
X47022380Y-69730952D01*
X47022380Y-70016666D01*
X46974761Y-70111904D01*
X46927142Y-70159523D01*
X46022380Y-69207142D02*
X46022380Y-68540476D01*
X47022380Y-68969047D01*
X46702380Y-66301904D02*
X45702380Y-66301904D01*
X46702380Y-65730476D02*
X46130952Y-66159047D01*
X45702380Y-65730476D02*
X46273809Y-66301904D01*
%TO.C,D36*%
X252762380Y-68524285D02*
X251762380Y-68524285D01*
X251762380Y-68286190D01*
X251810000Y-68143333D01*
X251905238Y-68048095D01*
X252000476Y-68000476D01*
X252190952Y-67952857D01*
X252333809Y-67952857D01*
X252524285Y-68000476D01*
X252619523Y-68048095D01*
X252714761Y-68143333D01*
X252762380Y-68286190D01*
X252762380Y-68524285D01*
X251762380Y-67619523D02*
X251762380Y-67000476D01*
X252143333Y-67333809D01*
X252143333Y-67190952D01*
X252190952Y-67095714D01*
X252238571Y-67048095D01*
X252333809Y-67000476D01*
X252571904Y-67000476D01*
X252667142Y-67048095D01*
X252714761Y-67095714D01*
X252762380Y-67190952D01*
X252762380Y-67476666D01*
X252714761Y-67571904D01*
X252667142Y-67619523D01*
X251762380Y-66143333D02*
X251762380Y-66333809D01*
X251810000Y-66429047D01*
X251857619Y-66476666D01*
X252000476Y-66571904D01*
X252190952Y-66619523D01*
X252571904Y-66619523D01*
X252667142Y-66571904D01*
X252714761Y-66524285D01*
X252762380Y-66429047D01*
X252762380Y-66238571D01*
X252714761Y-66143333D01*
X252667142Y-66095714D01*
X252571904Y-66048095D01*
X252333809Y-66048095D01*
X252238571Y-66095714D01*
X252190952Y-66143333D01*
X252143333Y-66238571D01*
X252143333Y-66429047D01*
X252190952Y-66524285D01*
X252238571Y-66571904D01*
X252333809Y-66619523D01*
X252442380Y-63761904D02*
X251442380Y-63761904D01*
X252442380Y-63190476D02*
X251870952Y-63619047D01*
X251442380Y-63190476D02*
X252013809Y-63761904D01*
%TO.C,D35*%
X234982380Y-68524285D02*
X233982380Y-68524285D01*
X233982380Y-68286190D01*
X234030000Y-68143333D01*
X234125238Y-68048095D01*
X234220476Y-68000476D01*
X234410952Y-67952857D01*
X234553809Y-67952857D01*
X234744285Y-68000476D01*
X234839523Y-68048095D01*
X234934761Y-68143333D01*
X234982380Y-68286190D01*
X234982380Y-68524285D01*
X233982380Y-67619523D02*
X233982380Y-67000476D01*
X234363333Y-67333809D01*
X234363333Y-67190952D01*
X234410952Y-67095714D01*
X234458571Y-67048095D01*
X234553809Y-67000476D01*
X234791904Y-67000476D01*
X234887142Y-67048095D01*
X234934761Y-67095714D01*
X234982380Y-67190952D01*
X234982380Y-67476666D01*
X234934761Y-67571904D01*
X234887142Y-67619523D01*
X233982380Y-66095714D02*
X233982380Y-66571904D01*
X234458571Y-66619523D01*
X234410952Y-66571904D01*
X234363333Y-66476666D01*
X234363333Y-66238571D01*
X234410952Y-66143333D01*
X234458571Y-66095714D01*
X234553809Y-66048095D01*
X234791904Y-66048095D01*
X234887142Y-66095714D01*
X234934761Y-66143333D01*
X234982380Y-66238571D01*
X234982380Y-66476666D01*
X234934761Y-66571904D01*
X234887142Y-66619523D01*
X234662380Y-63761904D02*
X233662380Y-63761904D01*
X234662380Y-63190476D02*
X234090952Y-63619047D01*
X233662380Y-63190476D02*
X234233809Y-63761904D01*
%TO.C,D34*%
X215932380Y-68524285D02*
X214932380Y-68524285D01*
X214932380Y-68286190D01*
X214980000Y-68143333D01*
X215075238Y-68048095D01*
X215170476Y-68000476D01*
X215360952Y-67952857D01*
X215503809Y-67952857D01*
X215694285Y-68000476D01*
X215789523Y-68048095D01*
X215884761Y-68143333D01*
X215932380Y-68286190D01*
X215932380Y-68524285D01*
X214932380Y-67619523D02*
X214932380Y-67000476D01*
X215313333Y-67333809D01*
X215313333Y-67190952D01*
X215360952Y-67095714D01*
X215408571Y-67048095D01*
X215503809Y-67000476D01*
X215741904Y-67000476D01*
X215837142Y-67048095D01*
X215884761Y-67095714D01*
X215932380Y-67190952D01*
X215932380Y-67476666D01*
X215884761Y-67571904D01*
X215837142Y-67619523D01*
X215265714Y-66143333D02*
X215932380Y-66143333D01*
X214884761Y-66381428D02*
X215599047Y-66619523D01*
X215599047Y-66000476D01*
X215612380Y-63761904D02*
X214612380Y-63761904D01*
X215612380Y-63190476D02*
X215040952Y-63619047D01*
X214612380Y-63190476D02*
X215183809Y-63761904D01*
%TO.C,D33*%
X196882380Y-68524285D02*
X195882380Y-68524285D01*
X195882380Y-68286190D01*
X195930000Y-68143333D01*
X196025238Y-68048095D01*
X196120476Y-68000476D01*
X196310952Y-67952857D01*
X196453809Y-67952857D01*
X196644285Y-68000476D01*
X196739523Y-68048095D01*
X196834761Y-68143333D01*
X196882380Y-68286190D01*
X196882380Y-68524285D01*
X195882380Y-67619523D02*
X195882380Y-67000476D01*
X196263333Y-67333809D01*
X196263333Y-67190952D01*
X196310952Y-67095714D01*
X196358571Y-67048095D01*
X196453809Y-67000476D01*
X196691904Y-67000476D01*
X196787142Y-67048095D01*
X196834761Y-67095714D01*
X196882380Y-67190952D01*
X196882380Y-67476666D01*
X196834761Y-67571904D01*
X196787142Y-67619523D01*
X195882380Y-66667142D02*
X195882380Y-66048095D01*
X196263333Y-66381428D01*
X196263333Y-66238571D01*
X196310952Y-66143333D01*
X196358571Y-66095714D01*
X196453809Y-66048095D01*
X196691904Y-66048095D01*
X196787142Y-66095714D01*
X196834761Y-66143333D01*
X196882380Y-66238571D01*
X196882380Y-66524285D01*
X196834761Y-66619523D01*
X196787142Y-66667142D01*
X196562380Y-63761904D02*
X195562380Y-63761904D01*
X196562380Y-63190476D02*
X195990952Y-63619047D01*
X195562380Y-63190476D02*
X196133809Y-63761904D01*
%TO.C,D32*%
X177832380Y-68524285D02*
X176832380Y-68524285D01*
X176832380Y-68286190D01*
X176880000Y-68143333D01*
X176975238Y-68048095D01*
X177070476Y-68000476D01*
X177260952Y-67952857D01*
X177403809Y-67952857D01*
X177594285Y-68000476D01*
X177689523Y-68048095D01*
X177784761Y-68143333D01*
X177832380Y-68286190D01*
X177832380Y-68524285D01*
X176832380Y-67619523D02*
X176832380Y-67000476D01*
X177213333Y-67333809D01*
X177213333Y-67190952D01*
X177260952Y-67095714D01*
X177308571Y-67048095D01*
X177403809Y-67000476D01*
X177641904Y-67000476D01*
X177737142Y-67048095D01*
X177784761Y-67095714D01*
X177832380Y-67190952D01*
X177832380Y-67476666D01*
X177784761Y-67571904D01*
X177737142Y-67619523D01*
X176927619Y-66619523D02*
X176880000Y-66571904D01*
X176832380Y-66476666D01*
X176832380Y-66238571D01*
X176880000Y-66143333D01*
X176927619Y-66095714D01*
X177022857Y-66048095D01*
X177118095Y-66048095D01*
X177260952Y-66095714D01*
X177832380Y-66667142D01*
X177832380Y-66048095D01*
X177512380Y-63761904D02*
X176512380Y-63761904D01*
X177512380Y-63190476D02*
X176940952Y-63619047D01*
X176512380Y-63190476D02*
X177083809Y-63761904D01*
%TO.C,D31*%
X158782380Y-68524285D02*
X157782380Y-68524285D01*
X157782380Y-68286190D01*
X157830000Y-68143333D01*
X157925238Y-68048095D01*
X158020476Y-68000476D01*
X158210952Y-67952857D01*
X158353809Y-67952857D01*
X158544285Y-68000476D01*
X158639523Y-68048095D01*
X158734761Y-68143333D01*
X158782380Y-68286190D01*
X158782380Y-68524285D01*
X157782380Y-67619523D02*
X157782380Y-67000476D01*
X158163333Y-67333809D01*
X158163333Y-67190952D01*
X158210952Y-67095714D01*
X158258571Y-67048095D01*
X158353809Y-67000476D01*
X158591904Y-67000476D01*
X158687142Y-67048095D01*
X158734761Y-67095714D01*
X158782380Y-67190952D01*
X158782380Y-67476666D01*
X158734761Y-67571904D01*
X158687142Y-67619523D01*
X158782380Y-66048095D02*
X158782380Y-66619523D01*
X158782380Y-66333809D02*
X157782380Y-66333809D01*
X157925238Y-66429047D01*
X158020476Y-66524285D01*
X158068095Y-66619523D01*
X158462380Y-63761904D02*
X157462380Y-63761904D01*
X158462380Y-63190476D02*
X157890952Y-63619047D01*
X157462380Y-63190476D02*
X158033809Y-63761904D01*
%TO.C,D30*%
X139732380Y-68524285D02*
X138732380Y-68524285D01*
X138732380Y-68286190D01*
X138780000Y-68143333D01*
X138875238Y-68048095D01*
X138970476Y-68000476D01*
X139160952Y-67952857D01*
X139303809Y-67952857D01*
X139494285Y-68000476D01*
X139589523Y-68048095D01*
X139684761Y-68143333D01*
X139732380Y-68286190D01*
X139732380Y-68524285D01*
X138732380Y-67619523D02*
X138732380Y-67000476D01*
X139113333Y-67333809D01*
X139113333Y-67190952D01*
X139160952Y-67095714D01*
X139208571Y-67048095D01*
X139303809Y-67000476D01*
X139541904Y-67000476D01*
X139637142Y-67048095D01*
X139684761Y-67095714D01*
X139732380Y-67190952D01*
X139732380Y-67476666D01*
X139684761Y-67571904D01*
X139637142Y-67619523D01*
X138732380Y-66381428D02*
X138732380Y-66286190D01*
X138780000Y-66190952D01*
X138827619Y-66143333D01*
X138922857Y-66095714D01*
X139113333Y-66048095D01*
X139351428Y-66048095D01*
X139541904Y-66095714D01*
X139637142Y-66143333D01*
X139684761Y-66190952D01*
X139732380Y-66286190D01*
X139732380Y-66381428D01*
X139684761Y-66476666D01*
X139637142Y-66524285D01*
X139541904Y-66571904D01*
X139351428Y-66619523D01*
X139113333Y-66619523D01*
X138922857Y-66571904D01*
X138827619Y-66524285D01*
X138780000Y-66476666D01*
X138732380Y-66381428D01*
X139412380Y-63761904D02*
X138412380Y-63761904D01*
X139412380Y-63190476D02*
X138840952Y-63619047D01*
X138412380Y-63190476D02*
X138983809Y-63761904D01*
%TO.C,D29*%
X120682380Y-68524285D02*
X119682380Y-68524285D01*
X119682380Y-68286190D01*
X119730000Y-68143333D01*
X119825238Y-68048095D01*
X119920476Y-68000476D01*
X120110952Y-67952857D01*
X120253809Y-67952857D01*
X120444285Y-68000476D01*
X120539523Y-68048095D01*
X120634761Y-68143333D01*
X120682380Y-68286190D01*
X120682380Y-68524285D01*
X119777619Y-67571904D02*
X119730000Y-67524285D01*
X119682380Y-67429047D01*
X119682380Y-67190952D01*
X119730000Y-67095714D01*
X119777619Y-67048095D01*
X119872857Y-67000476D01*
X119968095Y-67000476D01*
X120110952Y-67048095D01*
X120682380Y-67619523D01*
X120682380Y-67000476D01*
X120682380Y-66524285D02*
X120682380Y-66333809D01*
X120634761Y-66238571D01*
X120587142Y-66190952D01*
X120444285Y-66095714D01*
X120253809Y-66048095D01*
X119872857Y-66048095D01*
X119777619Y-66095714D01*
X119730000Y-66143333D01*
X119682380Y-66238571D01*
X119682380Y-66429047D01*
X119730000Y-66524285D01*
X119777619Y-66571904D01*
X119872857Y-66619523D01*
X120110952Y-66619523D01*
X120206190Y-66571904D01*
X120253809Y-66524285D01*
X120301428Y-66429047D01*
X120301428Y-66238571D01*
X120253809Y-66143333D01*
X120206190Y-66095714D01*
X120110952Y-66048095D01*
X120362380Y-63761904D02*
X119362380Y-63761904D01*
X120362380Y-63190476D02*
X119790952Y-63619047D01*
X119362380Y-63190476D02*
X119933809Y-63761904D01*
%TO.C,D28*%
X101632380Y-68524285D02*
X100632380Y-68524285D01*
X100632380Y-68286190D01*
X100680000Y-68143333D01*
X100775238Y-68048095D01*
X100870476Y-68000476D01*
X101060952Y-67952857D01*
X101203809Y-67952857D01*
X101394285Y-68000476D01*
X101489523Y-68048095D01*
X101584761Y-68143333D01*
X101632380Y-68286190D01*
X101632380Y-68524285D01*
X100727619Y-67571904D02*
X100680000Y-67524285D01*
X100632380Y-67429047D01*
X100632380Y-67190952D01*
X100680000Y-67095714D01*
X100727619Y-67048095D01*
X100822857Y-67000476D01*
X100918095Y-67000476D01*
X101060952Y-67048095D01*
X101632380Y-67619523D01*
X101632380Y-67000476D01*
X101060952Y-66429047D02*
X101013333Y-66524285D01*
X100965714Y-66571904D01*
X100870476Y-66619523D01*
X100822857Y-66619523D01*
X100727619Y-66571904D01*
X100680000Y-66524285D01*
X100632380Y-66429047D01*
X100632380Y-66238571D01*
X100680000Y-66143333D01*
X100727619Y-66095714D01*
X100822857Y-66048095D01*
X100870476Y-66048095D01*
X100965714Y-66095714D01*
X101013333Y-66143333D01*
X101060952Y-66238571D01*
X101060952Y-66429047D01*
X101108571Y-66524285D01*
X101156190Y-66571904D01*
X101251428Y-66619523D01*
X101441904Y-66619523D01*
X101537142Y-66571904D01*
X101584761Y-66524285D01*
X101632380Y-66429047D01*
X101632380Y-66238571D01*
X101584761Y-66143333D01*
X101537142Y-66095714D01*
X101441904Y-66048095D01*
X101251428Y-66048095D01*
X101156190Y-66095714D01*
X101108571Y-66143333D01*
X101060952Y-66238571D01*
X101312380Y-63761904D02*
X100312380Y-63761904D01*
X101312380Y-63190476D02*
X100740952Y-63619047D01*
X100312380Y-63190476D02*
X100883809Y-63761904D01*
%TO.C,D27*%
X82582380Y-68524285D02*
X81582380Y-68524285D01*
X81582380Y-68286190D01*
X81630000Y-68143333D01*
X81725238Y-68048095D01*
X81820476Y-68000476D01*
X82010952Y-67952857D01*
X82153809Y-67952857D01*
X82344285Y-68000476D01*
X82439523Y-68048095D01*
X82534761Y-68143333D01*
X82582380Y-68286190D01*
X82582380Y-68524285D01*
X81677619Y-67571904D02*
X81630000Y-67524285D01*
X81582380Y-67429047D01*
X81582380Y-67190952D01*
X81630000Y-67095714D01*
X81677619Y-67048095D01*
X81772857Y-67000476D01*
X81868095Y-67000476D01*
X82010952Y-67048095D01*
X82582380Y-67619523D01*
X82582380Y-67000476D01*
X81582380Y-66667142D02*
X81582380Y-66000476D01*
X82582380Y-66429047D01*
X82262380Y-63761904D02*
X81262380Y-63761904D01*
X82262380Y-63190476D02*
X81690952Y-63619047D01*
X81262380Y-63190476D02*
X81833809Y-63761904D01*
%TO.C,D26*%
X63532380Y-68524285D02*
X62532380Y-68524285D01*
X62532380Y-68286190D01*
X62580000Y-68143333D01*
X62675238Y-68048095D01*
X62770476Y-68000476D01*
X62960952Y-67952857D01*
X63103809Y-67952857D01*
X63294285Y-68000476D01*
X63389523Y-68048095D01*
X63484761Y-68143333D01*
X63532380Y-68286190D01*
X63532380Y-68524285D01*
X62627619Y-67571904D02*
X62580000Y-67524285D01*
X62532380Y-67429047D01*
X62532380Y-67190952D01*
X62580000Y-67095714D01*
X62627619Y-67048095D01*
X62722857Y-67000476D01*
X62818095Y-67000476D01*
X62960952Y-67048095D01*
X63532380Y-67619523D01*
X63532380Y-67000476D01*
X62532380Y-66143333D02*
X62532380Y-66333809D01*
X62580000Y-66429047D01*
X62627619Y-66476666D01*
X62770476Y-66571904D01*
X62960952Y-66619523D01*
X63341904Y-66619523D01*
X63437142Y-66571904D01*
X63484761Y-66524285D01*
X63532380Y-66429047D01*
X63532380Y-66238571D01*
X63484761Y-66143333D01*
X63437142Y-66095714D01*
X63341904Y-66048095D01*
X63103809Y-66048095D01*
X63008571Y-66095714D01*
X62960952Y-66143333D01*
X62913333Y-66238571D01*
X62913333Y-66429047D01*
X62960952Y-66524285D01*
X63008571Y-66571904D01*
X63103809Y-66619523D01*
X63212380Y-63761904D02*
X62212380Y-63761904D01*
X63212380Y-63190476D02*
X62640952Y-63619047D01*
X62212380Y-63190476D02*
X62783809Y-63761904D01*
%TO.C,D25*%
X43212380Y-68524285D02*
X42212380Y-68524285D01*
X42212380Y-68286190D01*
X42260000Y-68143333D01*
X42355238Y-68048095D01*
X42450476Y-68000476D01*
X42640952Y-67952857D01*
X42783809Y-67952857D01*
X42974285Y-68000476D01*
X43069523Y-68048095D01*
X43164761Y-68143333D01*
X43212380Y-68286190D01*
X43212380Y-68524285D01*
X42307619Y-67571904D02*
X42260000Y-67524285D01*
X42212380Y-67429047D01*
X42212380Y-67190952D01*
X42260000Y-67095714D01*
X42307619Y-67048095D01*
X42402857Y-67000476D01*
X42498095Y-67000476D01*
X42640952Y-67048095D01*
X43212380Y-67619523D01*
X43212380Y-67000476D01*
X42212380Y-66095714D02*
X42212380Y-66571904D01*
X42688571Y-66619523D01*
X42640952Y-66571904D01*
X42593333Y-66476666D01*
X42593333Y-66238571D01*
X42640952Y-66143333D01*
X42688571Y-66095714D01*
X42783809Y-66048095D01*
X43021904Y-66048095D01*
X43117142Y-66095714D01*
X43164761Y-66143333D01*
X43212380Y-66238571D01*
X43212380Y-66476666D01*
X43164761Y-66571904D01*
X43117142Y-66619523D01*
X42892380Y-63761904D02*
X41892380Y-63761904D01*
X42892380Y-63190476D02*
X42320952Y-63619047D01*
X41892380Y-63190476D02*
X42463809Y-63761904D01*
%TO.C,D24*%
X248952380Y-65984285D02*
X247952380Y-65984285D01*
X247952380Y-65746190D01*
X248000000Y-65603333D01*
X248095238Y-65508095D01*
X248190476Y-65460476D01*
X248380952Y-65412857D01*
X248523809Y-65412857D01*
X248714285Y-65460476D01*
X248809523Y-65508095D01*
X248904761Y-65603333D01*
X248952380Y-65746190D01*
X248952380Y-65984285D01*
X248047619Y-65031904D02*
X248000000Y-64984285D01*
X247952380Y-64889047D01*
X247952380Y-64650952D01*
X248000000Y-64555714D01*
X248047619Y-64508095D01*
X248142857Y-64460476D01*
X248238095Y-64460476D01*
X248380952Y-64508095D01*
X248952380Y-65079523D01*
X248952380Y-64460476D01*
X248285714Y-63603333D02*
X248952380Y-63603333D01*
X247904761Y-63841428D02*
X248619047Y-64079523D01*
X248619047Y-63460476D01*
X248632380Y-61221904D02*
X247632380Y-61221904D01*
X248632380Y-60650476D02*
X248060952Y-61079047D01*
X247632380Y-60650476D02*
X248203809Y-61221904D01*
%TO.C,D23*%
X231172380Y-65984285D02*
X230172380Y-65984285D01*
X230172380Y-65746190D01*
X230220000Y-65603333D01*
X230315238Y-65508095D01*
X230410476Y-65460476D01*
X230600952Y-65412857D01*
X230743809Y-65412857D01*
X230934285Y-65460476D01*
X231029523Y-65508095D01*
X231124761Y-65603333D01*
X231172380Y-65746190D01*
X231172380Y-65984285D01*
X230267619Y-65031904D02*
X230220000Y-64984285D01*
X230172380Y-64889047D01*
X230172380Y-64650952D01*
X230220000Y-64555714D01*
X230267619Y-64508095D01*
X230362857Y-64460476D01*
X230458095Y-64460476D01*
X230600952Y-64508095D01*
X231172380Y-65079523D01*
X231172380Y-64460476D01*
X230172380Y-64127142D02*
X230172380Y-63508095D01*
X230553333Y-63841428D01*
X230553333Y-63698571D01*
X230600952Y-63603333D01*
X230648571Y-63555714D01*
X230743809Y-63508095D01*
X230981904Y-63508095D01*
X231077142Y-63555714D01*
X231124761Y-63603333D01*
X231172380Y-63698571D01*
X231172380Y-63984285D01*
X231124761Y-64079523D01*
X231077142Y-64127142D01*
X230852380Y-61221904D02*
X229852380Y-61221904D01*
X230852380Y-60650476D02*
X230280952Y-61079047D01*
X229852380Y-60650476D02*
X230423809Y-61221904D01*
%TO.C,D22*%
X212122380Y-65984285D02*
X211122380Y-65984285D01*
X211122380Y-65746190D01*
X211170000Y-65603333D01*
X211265238Y-65508095D01*
X211360476Y-65460476D01*
X211550952Y-65412857D01*
X211693809Y-65412857D01*
X211884285Y-65460476D01*
X211979523Y-65508095D01*
X212074761Y-65603333D01*
X212122380Y-65746190D01*
X212122380Y-65984285D01*
X211217619Y-65031904D02*
X211170000Y-64984285D01*
X211122380Y-64889047D01*
X211122380Y-64650952D01*
X211170000Y-64555714D01*
X211217619Y-64508095D01*
X211312857Y-64460476D01*
X211408095Y-64460476D01*
X211550952Y-64508095D01*
X212122380Y-65079523D01*
X212122380Y-64460476D01*
X211217619Y-64079523D02*
X211170000Y-64031904D01*
X211122380Y-63936666D01*
X211122380Y-63698571D01*
X211170000Y-63603333D01*
X211217619Y-63555714D01*
X211312857Y-63508095D01*
X211408095Y-63508095D01*
X211550952Y-63555714D01*
X212122380Y-64127142D01*
X212122380Y-63508095D01*
X211802380Y-61221904D02*
X210802380Y-61221904D01*
X211802380Y-60650476D02*
X211230952Y-61079047D01*
X210802380Y-60650476D02*
X211373809Y-61221904D01*
%TO.C,D21*%
X193072380Y-65984285D02*
X192072380Y-65984285D01*
X192072380Y-65746190D01*
X192120000Y-65603333D01*
X192215238Y-65508095D01*
X192310476Y-65460476D01*
X192500952Y-65412857D01*
X192643809Y-65412857D01*
X192834285Y-65460476D01*
X192929523Y-65508095D01*
X193024761Y-65603333D01*
X193072380Y-65746190D01*
X193072380Y-65984285D01*
X192167619Y-65031904D02*
X192120000Y-64984285D01*
X192072380Y-64889047D01*
X192072380Y-64650952D01*
X192120000Y-64555714D01*
X192167619Y-64508095D01*
X192262857Y-64460476D01*
X192358095Y-64460476D01*
X192500952Y-64508095D01*
X193072380Y-65079523D01*
X193072380Y-64460476D01*
X193072380Y-63508095D02*
X193072380Y-64079523D01*
X193072380Y-63793809D02*
X192072380Y-63793809D01*
X192215238Y-63889047D01*
X192310476Y-63984285D01*
X192358095Y-64079523D01*
X192752380Y-61221904D02*
X191752380Y-61221904D01*
X192752380Y-60650476D02*
X192180952Y-61079047D01*
X191752380Y-60650476D02*
X192323809Y-61221904D01*
%TO.C,D20*%
X174022380Y-65984285D02*
X173022380Y-65984285D01*
X173022380Y-65746190D01*
X173070000Y-65603333D01*
X173165238Y-65508095D01*
X173260476Y-65460476D01*
X173450952Y-65412857D01*
X173593809Y-65412857D01*
X173784285Y-65460476D01*
X173879523Y-65508095D01*
X173974761Y-65603333D01*
X174022380Y-65746190D01*
X174022380Y-65984285D01*
X173117619Y-65031904D02*
X173070000Y-64984285D01*
X173022380Y-64889047D01*
X173022380Y-64650952D01*
X173070000Y-64555714D01*
X173117619Y-64508095D01*
X173212857Y-64460476D01*
X173308095Y-64460476D01*
X173450952Y-64508095D01*
X174022380Y-65079523D01*
X174022380Y-64460476D01*
X173022380Y-63841428D02*
X173022380Y-63746190D01*
X173070000Y-63650952D01*
X173117619Y-63603333D01*
X173212857Y-63555714D01*
X173403333Y-63508095D01*
X173641428Y-63508095D01*
X173831904Y-63555714D01*
X173927142Y-63603333D01*
X173974761Y-63650952D01*
X174022380Y-63746190D01*
X174022380Y-63841428D01*
X173974761Y-63936666D01*
X173927142Y-63984285D01*
X173831904Y-64031904D01*
X173641428Y-64079523D01*
X173403333Y-64079523D01*
X173212857Y-64031904D01*
X173117619Y-63984285D01*
X173070000Y-63936666D01*
X173022380Y-63841428D01*
X173702380Y-61221904D02*
X172702380Y-61221904D01*
X173702380Y-60650476D02*
X173130952Y-61079047D01*
X172702380Y-60650476D02*
X173273809Y-61221904D01*
%TO.C,D19*%
X154972380Y-65984285D02*
X153972380Y-65984285D01*
X153972380Y-65746190D01*
X154020000Y-65603333D01*
X154115238Y-65508095D01*
X154210476Y-65460476D01*
X154400952Y-65412857D01*
X154543809Y-65412857D01*
X154734285Y-65460476D01*
X154829523Y-65508095D01*
X154924761Y-65603333D01*
X154972380Y-65746190D01*
X154972380Y-65984285D01*
X154972380Y-64460476D02*
X154972380Y-65031904D01*
X154972380Y-64746190D02*
X153972380Y-64746190D01*
X154115238Y-64841428D01*
X154210476Y-64936666D01*
X154258095Y-65031904D01*
X154972380Y-63984285D02*
X154972380Y-63793809D01*
X154924761Y-63698571D01*
X154877142Y-63650952D01*
X154734285Y-63555714D01*
X154543809Y-63508095D01*
X154162857Y-63508095D01*
X154067619Y-63555714D01*
X154020000Y-63603333D01*
X153972380Y-63698571D01*
X153972380Y-63889047D01*
X154020000Y-63984285D01*
X154067619Y-64031904D01*
X154162857Y-64079523D01*
X154400952Y-64079523D01*
X154496190Y-64031904D01*
X154543809Y-63984285D01*
X154591428Y-63889047D01*
X154591428Y-63698571D01*
X154543809Y-63603333D01*
X154496190Y-63555714D01*
X154400952Y-63508095D01*
X154652380Y-61221904D02*
X153652380Y-61221904D01*
X154652380Y-60650476D02*
X154080952Y-61079047D01*
X153652380Y-60650476D02*
X154223809Y-61221904D01*
%TO.C,D18*%
X135922380Y-65984285D02*
X134922380Y-65984285D01*
X134922380Y-65746190D01*
X134970000Y-65603333D01*
X135065238Y-65508095D01*
X135160476Y-65460476D01*
X135350952Y-65412857D01*
X135493809Y-65412857D01*
X135684285Y-65460476D01*
X135779523Y-65508095D01*
X135874761Y-65603333D01*
X135922380Y-65746190D01*
X135922380Y-65984285D01*
X135922380Y-64460476D02*
X135922380Y-65031904D01*
X135922380Y-64746190D02*
X134922380Y-64746190D01*
X135065238Y-64841428D01*
X135160476Y-64936666D01*
X135208095Y-65031904D01*
X135350952Y-63889047D02*
X135303333Y-63984285D01*
X135255714Y-64031904D01*
X135160476Y-64079523D01*
X135112857Y-64079523D01*
X135017619Y-64031904D01*
X134970000Y-63984285D01*
X134922380Y-63889047D01*
X134922380Y-63698571D01*
X134970000Y-63603333D01*
X135017619Y-63555714D01*
X135112857Y-63508095D01*
X135160476Y-63508095D01*
X135255714Y-63555714D01*
X135303333Y-63603333D01*
X135350952Y-63698571D01*
X135350952Y-63889047D01*
X135398571Y-63984285D01*
X135446190Y-64031904D01*
X135541428Y-64079523D01*
X135731904Y-64079523D01*
X135827142Y-64031904D01*
X135874761Y-63984285D01*
X135922380Y-63889047D01*
X135922380Y-63698571D01*
X135874761Y-63603333D01*
X135827142Y-63555714D01*
X135731904Y-63508095D01*
X135541428Y-63508095D01*
X135446190Y-63555714D01*
X135398571Y-63603333D01*
X135350952Y-63698571D01*
X135602380Y-61221904D02*
X134602380Y-61221904D01*
X135602380Y-60650476D02*
X135030952Y-61079047D01*
X134602380Y-60650476D02*
X135173809Y-61221904D01*
%TO.C,D17*%
X116872380Y-65984285D02*
X115872380Y-65984285D01*
X115872380Y-65746190D01*
X115920000Y-65603333D01*
X116015238Y-65508095D01*
X116110476Y-65460476D01*
X116300952Y-65412857D01*
X116443809Y-65412857D01*
X116634285Y-65460476D01*
X116729523Y-65508095D01*
X116824761Y-65603333D01*
X116872380Y-65746190D01*
X116872380Y-65984285D01*
X116872380Y-64460476D02*
X116872380Y-65031904D01*
X116872380Y-64746190D02*
X115872380Y-64746190D01*
X116015238Y-64841428D01*
X116110476Y-64936666D01*
X116158095Y-65031904D01*
X115872380Y-64127142D02*
X115872380Y-63460476D01*
X116872380Y-63889047D01*
X116552380Y-61221904D02*
X115552380Y-61221904D01*
X116552380Y-60650476D02*
X115980952Y-61079047D01*
X115552380Y-60650476D02*
X116123809Y-61221904D01*
%TO.C,D16*%
X97822380Y-65984285D02*
X96822380Y-65984285D01*
X96822380Y-65746190D01*
X96870000Y-65603333D01*
X96965238Y-65508095D01*
X97060476Y-65460476D01*
X97250952Y-65412857D01*
X97393809Y-65412857D01*
X97584285Y-65460476D01*
X97679523Y-65508095D01*
X97774761Y-65603333D01*
X97822380Y-65746190D01*
X97822380Y-65984285D01*
X97822380Y-64460476D02*
X97822380Y-65031904D01*
X97822380Y-64746190D02*
X96822380Y-64746190D01*
X96965238Y-64841428D01*
X97060476Y-64936666D01*
X97108095Y-65031904D01*
X96822380Y-63603333D02*
X96822380Y-63793809D01*
X96870000Y-63889047D01*
X96917619Y-63936666D01*
X97060476Y-64031904D01*
X97250952Y-64079523D01*
X97631904Y-64079523D01*
X97727142Y-64031904D01*
X97774761Y-63984285D01*
X97822380Y-63889047D01*
X97822380Y-63698571D01*
X97774761Y-63603333D01*
X97727142Y-63555714D01*
X97631904Y-63508095D01*
X97393809Y-63508095D01*
X97298571Y-63555714D01*
X97250952Y-63603333D01*
X97203333Y-63698571D01*
X97203333Y-63889047D01*
X97250952Y-63984285D01*
X97298571Y-64031904D01*
X97393809Y-64079523D01*
X97502380Y-61221904D02*
X96502380Y-61221904D01*
X97502380Y-60650476D02*
X96930952Y-61079047D01*
X96502380Y-60650476D02*
X97073809Y-61221904D01*
%TO.C,D15*%
X78772380Y-65984285D02*
X77772380Y-65984285D01*
X77772380Y-65746190D01*
X77820000Y-65603333D01*
X77915238Y-65508095D01*
X78010476Y-65460476D01*
X78200952Y-65412857D01*
X78343809Y-65412857D01*
X78534285Y-65460476D01*
X78629523Y-65508095D01*
X78724761Y-65603333D01*
X78772380Y-65746190D01*
X78772380Y-65984285D01*
X78772380Y-64460476D02*
X78772380Y-65031904D01*
X78772380Y-64746190D02*
X77772380Y-64746190D01*
X77915238Y-64841428D01*
X78010476Y-64936666D01*
X78058095Y-65031904D01*
X77772380Y-63555714D02*
X77772380Y-64031904D01*
X78248571Y-64079523D01*
X78200952Y-64031904D01*
X78153333Y-63936666D01*
X78153333Y-63698571D01*
X78200952Y-63603333D01*
X78248571Y-63555714D01*
X78343809Y-63508095D01*
X78581904Y-63508095D01*
X78677142Y-63555714D01*
X78724761Y-63603333D01*
X78772380Y-63698571D01*
X78772380Y-63936666D01*
X78724761Y-64031904D01*
X78677142Y-64079523D01*
X78452380Y-61221904D02*
X77452380Y-61221904D01*
X78452380Y-60650476D02*
X77880952Y-61079047D01*
X77452380Y-60650476D02*
X78023809Y-61221904D01*
%TO.C,D14*%
X59722380Y-65984285D02*
X58722380Y-65984285D01*
X58722380Y-65746190D01*
X58770000Y-65603333D01*
X58865238Y-65508095D01*
X58960476Y-65460476D01*
X59150952Y-65412857D01*
X59293809Y-65412857D01*
X59484285Y-65460476D01*
X59579523Y-65508095D01*
X59674761Y-65603333D01*
X59722380Y-65746190D01*
X59722380Y-65984285D01*
X59722380Y-64460476D02*
X59722380Y-65031904D01*
X59722380Y-64746190D02*
X58722380Y-64746190D01*
X58865238Y-64841428D01*
X58960476Y-64936666D01*
X59008095Y-65031904D01*
X59055714Y-63603333D02*
X59722380Y-63603333D01*
X58674761Y-63841428D02*
X59389047Y-64079523D01*
X59389047Y-63460476D01*
X59402380Y-61221904D02*
X58402380Y-61221904D01*
X59402380Y-60650476D02*
X58830952Y-61079047D01*
X58402380Y-60650476D02*
X58973809Y-61221904D01*
%TO.C,D13*%
X39402380Y-65984285D02*
X38402380Y-65984285D01*
X38402380Y-65746190D01*
X38450000Y-65603333D01*
X38545238Y-65508095D01*
X38640476Y-65460476D01*
X38830952Y-65412857D01*
X38973809Y-65412857D01*
X39164285Y-65460476D01*
X39259523Y-65508095D01*
X39354761Y-65603333D01*
X39402380Y-65746190D01*
X39402380Y-65984285D01*
X39402380Y-64460476D02*
X39402380Y-65031904D01*
X39402380Y-64746190D02*
X38402380Y-64746190D01*
X38545238Y-64841428D01*
X38640476Y-64936666D01*
X38688095Y-65031904D01*
X38402380Y-64127142D02*
X38402380Y-63508095D01*
X38783333Y-63841428D01*
X38783333Y-63698571D01*
X38830952Y-63603333D01*
X38878571Y-63555714D01*
X38973809Y-63508095D01*
X39211904Y-63508095D01*
X39307142Y-63555714D01*
X39354761Y-63603333D01*
X39402380Y-63698571D01*
X39402380Y-63984285D01*
X39354761Y-64079523D01*
X39307142Y-64127142D01*
X39082380Y-61221904D02*
X38082380Y-61221904D01*
X39082380Y-60650476D02*
X38510952Y-61079047D01*
X38082380Y-60650476D02*
X38653809Y-61221904D01*
%TO.C,D12*%
X245142380Y-63444285D02*
X244142380Y-63444285D01*
X244142380Y-63206190D01*
X244190000Y-63063333D01*
X244285238Y-62968095D01*
X244380476Y-62920476D01*
X244570952Y-62872857D01*
X244713809Y-62872857D01*
X244904285Y-62920476D01*
X244999523Y-62968095D01*
X245094761Y-63063333D01*
X245142380Y-63206190D01*
X245142380Y-63444285D01*
X245142380Y-61920476D02*
X245142380Y-62491904D01*
X245142380Y-62206190D02*
X244142380Y-62206190D01*
X244285238Y-62301428D01*
X244380476Y-62396666D01*
X244428095Y-62491904D01*
X244237619Y-61539523D02*
X244190000Y-61491904D01*
X244142380Y-61396666D01*
X244142380Y-61158571D01*
X244190000Y-61063333D01*
X244237619Y-61015714D01*
X244332857Y-60968095D01*
X244428095Y-60968095D01*
X244570952Y-61015714D01*
X245142380Y-61587142D01*
X245142380Y-60968095D01*
X244822380Y-58681904D02*
X243822380Y-58681904D01*
X244822380Y-58110476D02*
X244250952Y-58539047D01*
X243822380Y-58110476D02*
X244393809Y-58681904D01*
%TO.C,D11*%
X227362380Y-63444285D02*
X226362380Y-63444285D01*
X226362380Y-63206190D01*
X226410000Y-63063333D01*
X226505238Y-62968095D01*
X226600476Y-62920476D01*
X226790952Y-62872857D01*
X226933809Y-62872857D01*
X227124285Y-62920476D01*
X227219523Y-62968095D01*
X227314761Y-63063333D01*
X227362380Y-63206190D01*
X227362380Y-63444285D01*
X227362380Y-61920476D02*
X227362380Y-62491904D01*
X227362380Y-62206190D02*
X226362380Y-62206190D01*
X226505238Y-62301428D01*
X226600476Y-62396666D01*
X226648095Y-62491904D01*
X227362380Y-60968095D02*
X227362380Y-61539523D01*
X227362380Y-61253809D02*
X226362380Y-61253809D01*
X226505238Y-61349047D01*
X226600476Y-61444285D01*
X226648095Y-61539523D01*
X227042380Y-58681904D02*
X226042380Y-58681904D01*
X227042380Y-58110476D02*
X226470952Y-58539047D01*
X226042380Y-58110476D02*
X226613809Y-58681904D01*
%TO.C,D10*%
X208312380Y-63444285D02*
X207312380Y-63444285D01*
X207312380Y-63206190D01*
X207360000Y-63063333D01*
X207455238Y-62968095D01*
X207550476Y-62920476D01*
X207740952Y-62872857D01*
X207883809Y-62872857D01*
X208074285Y-62920476D01*
X208169523Y-62968095D01*
X208264761Y-63063333D01*
X208312380Y-63206190D01*
X208312380Y-63444285D01*
X208312380Y-61920476D02*
X208312380Y-62491904D01*
X208312380Y-62206190D02*
X207312380Y-62206190D01*
X207455238Y-62301428D01*
X207550476Y-62396666D01*
X207598095Y-62491904D01*
X207312380Y-61301428D02*
X207312380Y-61206190D01*
X207360000Y-61110952D01*
X207407619Y-61063333D01*
X207502857Y-61015714D01*
X207693333Y-60968095D01*
X207931428Y-60968095D01*
X208121904Y-61015714D01*
X208217142Y-61063333D01*
X208264761Y-61110952D01*
X208312380Y-61206190D01*
X208312380Y-61301428D01*
X208264761Y-61396666D01*
X208217142Y-61444285D01*
X208121904Y-61491904D01*
X207931428Y-61539523D01*
X207693333Y-61539523D01*
X207502857Y-61491904D01*
X207407619Y-61444285D01*
X207360000Y-61396666D01*
X207312380Y-61301428D01*
X207992380Y-58681904D02*
X206992380Y-58681904D01*
X207992380Y-58110476D02*
X207420952Y-58539047D01*
X206992380Y-58110476D02*
X207563809Y-58681904D01*
%TO.C,D9*%
X189262380Y-62968095D02*
X188262380Y-62968095D01*
X188262380Y-62730000D01*
X188310000Y-62587142D01*
X188405238Y-62491904D01*
X188500476Y-62444285D01*
X188690952Y-62396666D01*
X188833809Y-62396666D01*
X189024285Y-62444285D01*
X189119523Y-62491904D01*
X189214761Y-62587142D01*
X189262380Y-62730000D01*
X189262380Y-62968095D01*
X189262380Y-61920476D02*
X189262380Y-61730000D01*
X189214761Y-61634761D01*
X189167142Y-61587142D01*
X189024285Y-61491904D01*
X188833809Y-61444285D01*
X188452857Y-61444285D01*
X188357619Y-61491904D01*
X188310000Y-61539523D01*
X188262380Y-61634761D01*
X188262380Y-61825238D01*
X188310000Y-61920476D01*
X188357619Y-61968095D01*
X188452857Y-62015714D01*
X188690952Y-62015714D01*
X188786190Y-61968095D01*
X188833809Y-61920476D01*
X188881428Y-61825238D01*
X188881428Y-61634761D01*
X188833809Y-61539523D01*
X188786190Y-61491904D01*
X188690952Y-61444285D01*
X188942380Y-58681904D02*
X187942380Y-58681904D01*
X188942380Y-58110476D02*
X188370952Y-58539047D01*
X187942380Y-58110476D02*
X188513809Y-58681904D01*
%TO.C,D8*%
X170212380Y-62968095D02*
X169212380Y-62968095D01*
X169212380Y-62730000D01*
X169260000Y-62587142D01*
X169355238Y-62491904D01*
X169450476Y-62444285D01*
X169640952Y-62396666D01*
X169783809Y-62396666D01*
X169974285Y-62444285D01*
X170069523Y-62491904D01*
X170164761Y-62587142D01*
X170212380Y-62730000D01*
X170212380Y-62968095D01*
X169640952Y-61825238D02*
X169593333Y-61920476D01*
X169545714Y-61968095D01*
X169450476Y-62015714D01*
X169402857Y-62015714D01*
X169307619Y-61968095D01*
X169260000Y-61920476D01*
X169212380Y-61825238D01*
X169212380Y-61634761D01*
X169260000Y-61539523D01*
X169307619Y-61491904D01*
X169402857Y-61444285D01*
X169450476Y-61444285D01*
X169545714Y-61491904D01*
X169593333Y-61539523D01*
X169640952Y-61634761D01*
X169640952Y-61825238D01*
X169688571Y-61920476D01*
X169736190Y-61968095D01*
X169831428Y-62015714D01*
X170021904Y-62015714D01*
X170117142Y-61968095D01*
X170164761Y-61920476D01*
X170212380Y-61825238D01*
X170212380Y-61634761D01*
X170164761Y-61539523D01*
X170117142Y-61491904D01*
X170021904Y-61444285D01*
X169831428Y-61444285D01*
X169736190Y-61491904D01*
X169688571Y-61539523D01*
X169640952Y-61634761D01*
X169892380Y-58681904D02*
X168892380Y-58681904D01*
X169892380Y-58110476D02*
X169320952Y-58539047D01*
X168892380Y-58110476D02*
X169463809Y-58681904D01*
%TO.C,D7*%
X151162380Y-62968095D02*
X150162380Y-62968095D01*
X150162380Y-62730000D01*
X150210000Y-62587142D01*
X150305238Y-62491904D01*
X150400476Y-62444285D01*
X150590952Y-62396666D01*
X150733809Y-62396666D01*
X150924285Y-62444285D01*
X151019523Y-62491904D01*
X151114761Y-62587142D01*
X151162380Y-62730000D01*
X151162380Y-62968095D01*
X150162380Y-62063333D02*
X150162380Y-61396666D01*
X151162380Y-61825238D01*
X150842380Y-58681904D02*
X149842380Y-58681904D01*
X150842380Y-58110476D02*
X150270952Y-58539047D01*
X149842380Y-58110476D02*
X150413809Y-58681904D01*
%TO.C,D6*%
X132112380Y-62968095D02*
X131112380Y-62968095D01*
X131112380Y-62730000D01*
X131160000Y-62587142D01*
X131255238Y-62491904D01*
X131350476Y-62444285D01*
X131540952Y-62396666D01*
X131683809Y-62396666D01*
X131874285Y-62444285D01*
X131969523Y-62491904D01*
X132064761Y-62587142D01*
X132112380Y-62730000D01*
X132112380Y-62968095D01*
X131112380Y-61539523D02*
X131112380Y-61730000D01*
X131160000Y-61825238D01*
X131207619Y-61872857D01*
X131350476Y-61968095D01*
X131540952Y-62015714D01*
X131921904Y-62015714D01*
X132017142Y-61968095D01*
X132064761Y-61920476D01*
X132112380Y-61825238D01*
X132112380Y-61634761D01*
X132064761Y-61539523D01*
X132017142Y-61491904D01*
X131921904Y-61444285D01*
X131683809Y-61444285D01*
X131588571Y-61491904D01*
X131540952Y-61539523D01*
X131493333Y-61634761D01*
X131493333Y-61825238D01*
X131540952Y-61920476D01*
X131588571Y-61968095D01*
X131683809Y-62015714D01*
X131792380Y-58681904D02*
X130792380Y-58681904D01*
X131792380Y-58110476D02*
X131220952Y-58539047D01*
X130792380Y-58110476D02*
X131363809Y-58681904D01*
%TO.C,D5*%
X113062380Y-62968095D02*
X112062380Y-62968095D01*
X112062380Y-62730000D01*
X112110000Y-62587142D01*
X112205238Y-62491904D01*
X112300476Y-62444285D01*
X112490952Y-62396666D01*
X112633809Y-62396666D01*
X112824285Y-62444285D01*
X112919523Y-62491904D01*
X113014761Y-62587142D01*
X113062380Y-62730000D01*
X113062380Y-62968095D01*
X112062380Y-61491904D02*
X112062380Y-61968095D01*
X112538571Y-62015714D01*
X112490952Y-61968095D01*
X112443333Y-61872857D01*
X112443333Y-61634761D01*
X112490952Y-61539523D01*
X112538571Y-61491904D01*
X112633809Y-61444285D01*
X112871904Y-61444285D01*
X112967142Y-61491904D01*
X113014761Y-61539523D01*
X113062380Y-61634761D01*
X113062380Y-61872857D01*
X113014761Y-61968095D01*
X112967142Y-62015714D01*
X112742380Y-58681904D02*
X111742380Y-58681904D01*
X112742380Y-58110476D02*
X112170952Y-58539047D01*
X111742380Y-58110476D02*
X112313809Y-58681904D01*
%TO.C,D4*%
X94012380Y-62968095D02*
X93012380Y-62968095D01*
X93012380Y-62730000D01*
X93060000Y-62587142D01*
X93155238Y-62491904D01*
X93250476Y-62444285D01*
X93440952Y-62396666D01*
X93583809Y-62396666D01*
X93774285Y-62444285D01*
X93869523Y-62491904D01*
X93964761Y-62587142D01*
X94012380Y-62730000D01*
X94012380Y-62968095D01*
X93345714Y-61539523D02*
X94012380Y-61539523D01*
X92964761Y-61777619D02*
X93679047Y-62015714D01*
X93679047Y-61396666D01*
X93692380Y-58681904D02*
X92692380Y-58681904D01*
X93692380Y-58110476D02*
X93120952Y-58539047D01*
X92692380Y-58110476D02*
X93263809Y-58681904D01*
%TO.C,D3*%
X74962380Y-62968095D02*
X73962380Y-62968095D01*
X73962380Y-62730000D01*
X74010000Y-62587142D01*
X74105238Y-62491904D01*
X74200476Y-62444285D01*
X74390952Y-62396666D01*
X74533809Y-62396666D01*
X74724285Y-62444285D01*
X74819523Y-62491904D01*
X74914761Y-62587142D01*
X74962380Y-62730000D01*
X74962380Y-62968095D01*
X73962380Y-62063333D02*
X73962380Y-61444285D01*
X74343333Y-61777619D01*
X74343333Y-61634761D01*
X74390952Y-61539523D01*
X74438571Y-61491904D01*
X74533809Y-61444285D01*
X74771904Y-61444285D01*
X74867142Y-61491904D01*
X74914761Y-61539523D01*
X74962380Y-61634761D01*
X74962380Y-61920476D01*
X74914761Y-62015714D01*
X74867142Y-62063333D01*
X74642380Y-58681904D02*
X73642380Y-58681904D01*
X74642380Y-58110476D02*
X74070952Y-58539047D01*
X73642380Y-58110476D02*
X74213809Y-58681904D01*
%TO.C,D2*%
X55912380Y-62968095D02*
X54912380Y-62968095D01*
X54912380Y-62730000D01*
X54960000Y-62587142D01*
X55055238Y-62491904D01*
X55150476Y-62444285D01*
X55340952Y-62396666D01*
X55483809Y-62396666D01*
X55674285Y-62444285D01*
X55769523Y-62491904D01*
X55864761Y-62587142D01*
X55912380Y-62730000D01*
X55912380Y-62968095D01*
X55007619Y-62015714D02*
X54960000Y-61968095D01*
X54912380Y-61872857D01*
X54912380Y-61634761D01*
X54960000Y-61539523D01*
X55007619Y-61491904D01*
X55102857Y-61444285D01*
X55198095Y-61444285D01*
X55340952Y-61491904D01*
X55912380Y-62063333D01*
X55912380Y-61444285D01*
X55592380Y-58681904D02*
X54592380Y-58681904D01*
X55592380Y-58110476D02*
X55020952Y-58539047D01*
X54592380Y-58110476D02*
X55163809Y-58681904D01*
%TO.C,D1*%
X35592380Y-62968095D02*
X34592380Y-62968095D01*
X34592380Y-62730000D01*
X34640000Y-62587142D01*
X34735238Y-62491904D01*
X34830476Y-62444285D01*
X35020952Y-62396666D01*
X35163809Y-62396666D01*
X35354285Y-62444285D01*
X35449523Y-62491904D01*
X35544761Y-62587142D01*
X35592380Y-62730000D01*
X35592380Y-62968095D01*
X35592380Y-61444285D02*
X35592380Y-62015714D01*
X35592380Y-61730000D02*
X34592380Y-61730000D01*
X34735238Y-61825238D01*
X34830476Y-61920476D01*
X34878095Y-62015714D01*
X35272380Y-58681904D02*
X34272380Y-58681904D01*
X35272380Y-58110476D02*
X34700952Y-58539047D01*
X34272380Y-58110476D02*
X34843809Y-58681904D01*
%TD*%
M02*
