M48
; DRILL file {KiCad (5.1.6)-1} date 05/26/20 22:06:20
; FORMAT={-:-/ absolute / inch / decimal}
; #@! TF.CreationDate,2020-05-26T22:06:20-05:00
; #@! TF.GenerationSoftware,Kicad,Pcbnew,(5.1.6)-1
; #@! TF.FileFunction,Plated,1,2,PTH
FMAT,2
INCH
T1C0.0157
T2C0.0300
T3C0.0315
T4C0.0394
T5C0.0579
%
G90
G05
T1
X1.2893Y-2.9169
X2.0417Y-2.9733
X2.7963Y-3.0137
X3.5467Y-3.0533
X4.2968Y-3.4682
X5.0446Y-3.5204
X5.7936Y-3.5514
X6.5485Y-3.5815
X7.2875Y-3.6125
X7.75Y-4.42
X7.93Y-4.23
X7.975Y-4.475
X8.175Y-2.9312
X8.23Y-2.98
X8.425Y-3.01
X8.5Y-3.055
X8.625Y-3.49
X8.7Y-3.85
X8.7246Y-3.5204
X8.8236Y-3.5514
X8.8438Y-4.1875
X8.9235Y-3.5815
X9.3225Y-3.6125
X9.4887Y-3.4312
T2
X7.8Y-2.0938
X7.9Y-2.0938
X8.0Y-2.0938
X8.1Y-2.0938
T3
X10.075Y-2.35
X10.075Y-2.65
X7.825Y-3.1313
X7.825Y-3.4312
X4.815Y-2.38
X4.815Y-2.68
X5.5625Y-3.8875
X5.5625Y-4.1875
X7.075Y-3.1313
X7.075Y-3.4312
X4.815Y-3.1313
X4.815Y-3.4312
X2.5625Y-4.6375
X2.5625Y-4.9375
X10.0625Y-4.6375
X10.0625Y-4.9375
X4.075Y-3.1313
X4.075Y-3.4312
X4.0625Y-3.8875
X4.0625Y-4.1875
X3.315Y-2.3813
X3.315Y-2.6812
X2.5625Y-3.8875
X2.5625Y-4.1875
X1.815Y-2.3813
X1.815Y-2.6812
X6.315Y-2.3813
X6.315Y-2.6812
X6.3125Y-4.6375
X6.3125Y-4.9375
X1.825Y-3.1313
X1.825Y-3.4312
X6.3125Y-3.8875
X6.3125Y-4.1875
X7.0625Y-3.8875
X7.0625Y-4.1875
X6.325Y-3.1313
X6.325Y-3.4312
X9.3125Y-3.8875
X9.3125Y-4.1875
X4.8125Y-4.6375
X4.8125Y-4.9375
X7.0625Y-4.6375
X7.0625Y-4.9375
X3.3125Y-3.8875
X3.3125Y-4.1875
X4.065Y-2.3813
X4.065Y-2.6812
X4.8125Y-3.8875
X4.8125Y-4.1875
X1.8125Y-3.8875
X1.8125Y-4.1875
X5.575Y-3.1313
X5.575Y-3.4312
X5.5625Y-4.6375
X5.5625Y-4.9375
X7.8125Y-3.8875
X7.8125Y-4.1875
X8.575Y-2.3813
X8.575Y-2.6812
X7.815Y-2.3813
X7.815Y-2.6812
X3.325Y-3.1313
X3.325Y-3.4312
X9.325Y-3.1313
X9.325Y-3.4312
X3.3125Y-4.6375
X3.3125Y-4.9375
X7.065Y-2.3813
X7.065Y-2.6812
X10.0625Y-3.8875
X10.0625Y-4.1875
X5.565Y-2.3813
X5.565Y-2.6812
X9.325Y-2.3813
X9.325Y-2.6812
X8.575Y-3.1313
X8.575Y-3.4312
X7.8125Y-4.6375
X7.8125Y-4.9375
X4.0625Y-4.6375
X4.0625Y-4.9375
X1.8125Y-4.6375
X1.8125Y-4.9375
X8.5625Y-3.8875
X8.5625Y-4.1875
X2.565Y-2.3813
X2.565Y-2.6812
X2.575Y-3.1313
X2.575Y-3.4312
X10.075Y-3.1
X10.075Y-3.4
X9.3125Y-4.6375
X9.3125Y-4.9375
X8.57Y-4.635
X8.57Y-4.935
T4
X7.8246Y-3.7508
X7.8246Y-4.3498
X7.9246Y-3.7508
X7.9246Y-4.3498
X8.0246Y-3.7508
X8.0246Y-4.3498
X8.1246Y-3.7508
X8.1246Y-4.3498
X8.2246Y-3.7508
X8.2246Y-4.3498
X8.3246Y-3.7508
X8.3246Y-4.3498
X8.4246Y-3.7508
X8.4246Y-4.3498
X8.5246Y-3.7508
X8.5246Y-4.3498
X8.6246Y-3.7508
X8.6246Y-4.3498
X8.7246Y-3.7508
X8.7246Y-4.3498
X8.8246Y-3.7508
X8.8246Y-4.3498
X8.9246Y-3.7508
X8.9246Y-4.3498
X9.1246Y-3.7508
X9.1246Y-4.3498
X9.2246Y-3.7508
X9.2246Y-4.3498
X9.3246Y-3.7508
X9.3246Y-4.3498
X9.4246Y-3.7508
X9.4246Y-4.3498
X9.5246Y-3.7508
X9.5246Y-4.3498
X9.6246Y-3.7508
X9.6246Y-4.3498
T5
X8.0375Y-2.4625
X8.2875Y-2.3625
X5.0375Y-4.7125
X5.2875Y-4.6125
X2.0375Y-3.9625
X2.2875Y-3.8625
X3.5375Y-3.9625
X3.7875Y-3.8625
X4.2875Y-4.7125
X4.5375Y-4.6125
X1.2875Y-3.9625
X1.5375Y-3.8625
X7.2875Y-2.4625
X7.5375Y-2.3625
X5.0375Y-3.2125
X5.2875Y-3.1125
X6.5375Y-2.4625
X6.7875Y-2.3625
X1.2875Y-3.2125
X1.5375Y-3.1125
X8.7875Y-4.7125
X9.0375Y-4.6125
X2.7875Y-3.9625
X3.0375Y-3.8625
X6.5375Y-3.2125
X6.7875Y-3.1125
X9.5375Y-3.9625
X9.7875Y-3.8625
X9.5375Y-2.4625
X9.7875Y-2.3625
X7.2875Y-3.2125
X7.5375Y-3.1125
X2.7875Y-2.4625
X3.0375Y-2.3625
X3.5375Y-3.2125
X3.7875Y-3.1125
X8.0375Y-4.7125
X8.2875Y-4.6125
X3.5375Y-4.7125
X3.7875Y-4.6125
X1.2878Y-2.4637
X1.5378Y-2.3637
X6.5375Y-4.7125
X6.7875Y-4.6125
X5.0375Y-2.4625
X5.2875Y-2.3625
X5.7875Y-3.9625
X6.0375Y-3.8625
X5.0375Y-3.9625
X5.2875Y-3.8625
X8.7875Y-3.9625
X9.0375Y-3.8625
X2.7875Y-4.7125
X3.0375Y-4.6125
X2.0375Y-4.7125
X2.2875Y-4.6125
X8.0375Y-3.2125
X8.2875Y-3.1125
X3.5375Y-2.4625
X3.7875Y-2.3625
X7.2875Y-4.7125
X7.5375Y-4.6125
X2.7875Y-3.2125
X3.0375Y-3.1125
X2.0375Y-2.4637
X2.2875Y-2.3637
X5.7875Y-2.4625
X6.0375Y-2.3625
X5.7875Y-3.2125
X6.0375Y-3.1125
X8.7875Y-2.4625
X9.0375Y-2.3625
X4.2875Y-3.2125
X4.5375Y-3.1125
X9.5375Y-4.7125
X9.7875Y-4.6125
X8.7875Y-3.2125
X9.0375Y-3.1125
X4.2875Y-2.4625
X4.5375Y-2.3625
X7.2875Y-3.9625
X7.5375Y-3.8625
X2.0375Y-3.2125
X2.2875Y-3.1125
X9.5375Y-3.2125
X9.7875Y-3.1125
X5.7875Y-4.7125
X6.0375Y-4.6125
X1.2875Y-4.7125
X1.5375Y-4.6125
X8.0375Y-3.9625
X8.2875Y-3.8625
X6.5375Y-3.9625
X6.7875Y-3.8625
X4.2875Y-3.9625
X4.5375Y-3.8625
T0
M30
